G04 #@! TF.GenerationSoftware,KiCad,Pcbnew,7.0.7*
G04 #@! TF.CreationDate,2023-09-06T15:40:30-04:00*
G04 #@! TF.ProjectId,stm8l151k6t6_board,73746d38-6c31-4353-916b-3674365f626f,rev?*
G04 #@! TF.SameCoordinates,Original*
G04 #@! TF.FileFunction,Copper,L3,Inr*
G04 #@! TF.FilePolarity,Positive*
%FSLAX46Y46*%
G04 Gerber Fmt 4.6, Leading zero omitted, Abs format (unit mm)*
G04 Created by KiCad (PCBNEW 7.0.7) date 2023-09-06 15:40:30*
%MOMM*%
%LPD*%
G01*
G04 APERTURE LIST*
G04 #@! TA.AperFunction,ComponentPad*
%ADD10O,2.400000X1.200000*%
G04 #@! TD*
G04 #@! TA.AperFunction,ComponentPad*
%ADD11R,1.700000X1.700000*%
G04 #@! TD*
G04 #@! TA.AperFunction,ComponentPad*
%ADD12O,1.700000X1.700000*%
G04 #@! TD*
G04 #@! TA.AperFunction,ViaPad*
%ADD13C,0.600000*%
G04 #@! TD*
G04 APERTURE END LIST*
D10*
X159125032Y-116575057D03*
X159125032Y-109424943D03*
D11*
X114600000Y-109150000D03*
D12*
X114600000Y-111690000D03*
X114600000Y-114230000D03*
X114600000Y-116770000D03*
D11*
X156050000Y-120600000D03*
D12*
X153510000Y-120600000D03*
X150970000Y-120600000D03*
X148430000Y-120600000D03*
X145890000Y-120600000D03*
X143350000Y-120600000D03*
X140810000Y-120600000D03*
X138270000Y-120600000D03*
X135730000Y-120600000D03*
X133190000Y-120600000D03*
X130650000Y-120600000D03*
X128110000Y-120600000D03*
X125570000Y-120600000D03*
X123030000Y-120600000D03*
X120490000Y-120600000D03*
X117950000Y-120600000D03*
D11*
X156050000Y-105380000D03*
D12*
X153510000Y-105380000D03*
X150970000Y-105380000D03*
X148430000Y-105380000D03*
X145890000Y-105380000D03*
X143350000Y-105380000D03*
X140810000Y-105380000D03*
X138270000Y-105380000D03*
X135730000Y-105380000D03*
X133190000Y-105380000D03*
X130650000Y-105380000D03*
X128110000Y-105380000D03*
X125570000Y-105380000D03*
X123030000Y-105380000D03*
X120490000Y-105380000D03*
X117950000Y-105380000D03*
D13*
X157650000Y-114300000D03*
X155450000Y-114300000D03*
X154100000Y-115100000D03*
X152650000Y-115050000D03*
X130250000Y-110550000D03*
X129550000Y-112200000D03*
X127700000Y-113250000D03*
X129400000Y-113250000D03*
X149150000Y-116650000D03*
X149500000Y-107200000D03*
X149000000Y-117985500D03*
X147300000Y-117600000D03*
X146600000Y-116600000D03*
X147200000Y-115100000D03*
X148600000Y-113800000D03*
X118750000Y-109600000D03*
X146800000Y-107900000D03*
X145200000Y-109800000D03*
X155850000Y-110950000D03*
X149200000Y-114560500D03*
X149950000Y-116450000D03*
X148900000Y-115639500D03*
X155350000Y-115700000D03*
X154950000Y-117700000D03*
X127939502Y-110000000D03*
X127200000Y-112200000D03*
X122000000Y-110000000D03*
X123350000Y-110050000D03*
X131700000Y-116264500D03*
X131300000Y-112650000D03*
X124700000Y-114750000D03*
X145250000Y-115100000D03*
X159100000Y-117600000D03*
X145350000Y-110650000D03*
X155450000Y-109800000D03*
X159100000Y-108450000D03*
X149950000Y-108700000D03*
X129350000Y-111100000D03*
X142150000Y-106950000D03*
X154660500Y-116717249D03*
X130900000Y-109800000D03*
X132200000Y-108350000D03*
X132163807Y-109136193D03*
X132300000Y-110000000D03*
X126850000Y-117650000D03*
X131800000Y-117200000D03*
X142113807Y-115686193D03*
X142950000Y-115050000D03*
X144800000Y-112000000D03*
X143900000Y-111400000D03*
X137000000Y-109100000D03*
X140000000Y-112150000D03*
X140850000Y-109100000D03*
X124300000Y-106500000D03*
X116400000Y-106500000D03*
G04 #@! TA.AperFunction,Conductor*
G36*
X117295468Y-104317813D02*
G01*
X117320778Y-104361650D01*
X117311988Y-104411500D01*
X117286858Y-104437416D01*
X117253700Y-104457946D01*
X117096130Y-104601590D01*
X116967636Y-104771741D01*
X116967632Y-104771747D01*
X116872596Y-104962606D01*
X116872593Y-104962616D01*
X116814243Y-105167690D01*
X116814242Y-105167696D01*
X116794571Y-105379996D01*
X116794571Y-105380003D01*
X116814242Y-105592303D01*
X116814243Y-105592309D01*
X116872593Y-105797383D01*
X116872596Y-105797393D01*
X116967632Y-105988252D01*
X116967636Y-105988258D01*
X117012813Y-106048082D01*
X117096128Y-106158407D01*
X117253698Y-106302052D01*
X117434981Y-106414298D01*
X117633802Y-106491321D01*
X117843390Y-106530500D01*
X118056610Y-106530500D01*
X118266198Y-106491321D01*
X118465019Y-106414298D01*
X118646302Y-106302052D01*
X118803872Y-106158407D01*
X118932366Y-105988255D01*
X119027405Y-105797389D01*
X119085756Y-105592310D01*
X119105429Y-105380000D01*
X119095543Y-105273308D01*
X119085757Y-105167696D01*
X119085756Y-105167690D01*
X119080150Y-105147986D01*
X119027405Y-104962611D01*
X119023639Y-104955048D01*
X118932367Y-104771747D01*
X118932363Y-104771741D01*
X118880014Y-104702421D01*
X118803872Y-104601593D01*
X118646302Y-104457948D01*
X118613142Y-104437416D01*
X118581814Y-104397656D01*
X118583373Y-104347061D01*
X118617089Y-104309305D01*
X118652098Y-104300500D01*
X119787902Y-104300500D01*
X119835468Y-104317813D01*
X119860778Y-104361650D01*
X119851988Y-104411500D01*
X119826858Y-104437416D01*
X119793700Y-104457946D01*
X119636130Y-104601590D01*
X119507636Y-104771741D01*
X119507632Y-104771747D01*
X119412596Y-104962606D01*
X119412593Y-104962616D01*
X119354243Y-105167690D01*
X119354242Y-105167696D01*
X119334571Y-105379996D01*
X119334571Y-105380003D01*
X119354242Y-105592303D01*
X119354243Y-105592309D01*
X119412593Y-105797383D01*
X119412596Y-105797393D01*
X119507632Y-105988252D01*
X119507636Y-105988258D01*
X119552813Y-106048082D01*
X119636128Y-106158407D01*
X119793698Y-106302052D01*
X119974981Y-106414298D01*
X120173802Y-106491321D01*
X120383390Y-106530500D01*
X120596610Y-106530500D01*
X120806198Y-106491321D01*
X121005019Y-106414298D01*
X121186302Y-106302052D01*
X121343872Y-106158407D01*
X121472366Y-105988255D01*
X121567405Y-105797389D01*
X121625756Y-105592310D01*
X121645429Y-105380000D01*
X121635543Y-105273308D01*
X121625757Y-105167696D01*
X121625756Y-105167690D01*
X121620150Y-105147986D01*
X121567405Y-104962611D01*
X121563639Y-104955048D01*
X121472367Y-104771747D01*
X121472363Y-104771741D01*
X121420014Y-104702421D01*
X121343872Y-104601593D01*
X121186302Y-104457948D01*
X121153142Y-104437416D01*
X121121814Y-104397656D01*
X121123373Y-104347061D01*
X121157089Y-104309305D01*
X121192098Y-104300500D01*
X122327902Y-104300500D01*
X122375468Y-104317813D01*
X122400778Y-104361650D01*
X122391988Y-104411500D01*
X122366858Y-104437416D01*
X122333700Y-104457946D01*
X122176130Y-104601590D01*
X122047636Y-104771741D01*
X122047632Y-104771747D01*
X121952596Y-104962606D01*
X121952593Y-104962616D01*
X121894243Y-105167690D01*
X121894242Y-105167696D01*
X121874571Y-105379996D01*
X121874571Y-105380003D01*
X121894242Y-105592303D01*
X121894243Y-105592309D01*
X121952593Y-105797383D01*
X121952596Y-105797393D01*
X122047632Y-105988252D01*
X122047636Y-105988258D01*
X122092813Y-106048082D01*
X122176128Y-106158407D01*
X122333698Y-106302052D01*
X122514981Y-106414298D01*
X122713802Y-106491321D01*
X122923390Y-106530500D01*
X123136610Y-106530500D01*
X123346198Y-106491321D01*
X123545019Y-106414298D01*
X123587159Y-106388205D01*
X123636713Y-106377885D01*
X123681309Y-106401832D01*
X123700079Y-106448843D01*
X123699481Y-106460780D01*
X123694318Y-106499999D01*
X123714955Y-106656760D01*
X123714955Y-106656761D01*
X123775464Y-106802841D01*
X123871715Y-106928279D01*
X123871720Y-106928284D01*
X123955345Y-106992451D01*
X123997159Y-107024536D01*
X124143238Y-107085044D01*
X124300000Y-107105682D01*
X124456762Y-107085044D01*
X124602841Y-107024536D01*
X124699978Y-106950000D01*
X141544318Y-106950000D01*
X141564955Y-107106760D01*
X141564955Y-107106761D01*
X141625464Y-107252841D01*
X141721715Y-107378279D01*
X141721720Y-107378284D01*
X141805345Y-107442451D01*
X141847159Y-107474536D01*
X141993238Y-107535044D01*
X142150000Y-107555682D01*
X142306762Y-107535044D01*
X142452841Y-107474536D01*
X142578282Y-107378282D01*
X142674536Y-107252841D01*
X142735044Y-107106762D01*
X142755682Y-106950000D01*
X142735044Y-106793238D01*
X142674536Y-106647159D01*
X142642451Y-106605345D01*
X142578284Y-106521720D01*
X142578279Y-106521715D01*
X142452841Y-106425464D01*
X142306761Y-106364955D01*
X142150000Y-106344318D01*
X141993239Y-106364955D01*
X141993238Y-106364955D01*
X141847158Y-106425464D01*
X141721720Y-106521715D01*
X141721715Y-106521720D01*
X141625464Y-106647158D01*
X141564955Y-106793238D01*
X141564955Y-106793239D01*
X141544318Y-106950000D01*
X124699978Y-106950000D01*
X124728282Y-106928282D01*
X124824536Y-106802841D01*
X124885044Y-106656762D01*
X124905682Y-106500000D01*
X124900518Y-106460779D01*
X124911473Y-106411363D01*
X124951632Y-106380547D01*
X125002203Y-106382755D01*
X125012841Y-106388206D01*
X125054981Y-106414298D01*
X125253802Y-106491321D01*
X125463390Y-106530500D01*
X125676610Y-106530500D01*
X125886198Y-106491321D01*
X126085019Y-106414298D01*
X126266302Y-106302052D01*
X126423872Y-106158407D01*
X126552366Y-105988255D01*
X126647405Y-105797389D01*
X126705756Y-105592310D01*
X126725429Y-105380000D01*
X126715543Y-105273308D01*
X126705757Y-105167696D01*
X126705756Y-105167690D01*
X126700150Y-105147986D01*
X126647405Y-104962611D01*
X126643639Y-104955048D01*
X126552367Y-104771747D01*
X126552363Y-104771741D01*
X126500014Y-104702421D01*
X126423872Y-104601593D01*
X126266302Y-104457948D01*
X126233142Y-104437416D01*
X126201814Y-104397656D01*
X126203373Y-104347061D01*
X126237089Y-104309305D01*
X126272098Y-104300500D01*
X127407902Y-104300500D01*
X127455468Y-104317813D01*
X127480778Y-104361650D01*
X127471988Y-104411500D01*
X127446858Y-104437416D01*
X127413700Y-104457946D01*
X127256130Y-104601590D01*
X127127636Y-104771741D01*
X127127632Y-104771747D01*
X127032596Y-104962606D01*
X127032593Y-104962616D01*
X126974243Y-105167690D01*
X126974242Y-105167696D01*
X126954571Y-105379996D01*
X126954571Y-105380003D01*
X126974242Y-105592303D01*
X126974243Y-105592309D01*
X127032593Y-105797383D01*
X127032596Y-105797393D01*
X127127632Y-105988252D01*
X127127636Y-105988258D01*
X127172813Y-106048082D01*
X127256128Y-106158407D01*
X127413698Y-106302052D01*
X127594981Y-106414298D01*
X127793802Y-106491321D01*
X128003390Y-106530500D01*
X128216610Y-106530500D01*
X128426198Y-106491321D01*
X128625019Y-106414298D01*
X128806302Y-106302052D01*
X128963872Y-106158407D01*
X129092366Y-105988255D01*
X129187405Y-105797389D01*
X129245756Y-105592310D01*
X129265429Y-105380000D01*
X129255543Y-105273308D01*
X129245757Y-105167696D01*
X129245756Y-105167690D01*
X129240150Y-105147986D01*
X129187405Y-104962611D01*
X129183639Y-104955048D01*
X129092367Y-104771747D01*
X129092363Y-104771741D01*
X129040014Y-104702421D01*
X128963872Y-104601593D01*
X128806302Y-104457948D01*
X128773142Y-104437416D01*
X128741814Y-104397656D01*
X128743373Y-104347061D01*
X128777089Y-104309305D01*
X128812098Y-104300500D01*
X129947902Y-104300500D01*
X129995468Y-104317813D01*
X130020778Y-104361650D01*
X130011988Y-104411500D01*
X129986858Y-104437416D01*
X129953700Y-104457946D01*
X129796130Y-104601590D01*
X129667636Y-104771741D01*
X129667632Y-104771747D01*
X129572596Y-104962606D01*
X129572593Y-104962616D01*
X129514243Y-105167690D01*
X129514242Y-105167696D01*
X129494571Y-105379996D01*
X129494571Y-105380003D01*
X129514242Y-105592303D01*
X129514243Y-105592309D01*
X129572593Y-105797383D01*
X129572596Y-105797393D01*
X129667632Y-105988252D01*
X129667636Y-105988258D01*
X129712813Y-106048082D01*
X129796128Y-106158407D01*
X129953698Y-106302052D01*
X130134981Y-106414298D01*
X130333802Y-106491321D01*
X130543390Y-106530500D01*
X130756610Y-106530500D01*
X130966198Y-106491321D01*
X131165019Y-106414298D01*
X131346302Y-106302052D01*
X131503872Y-106158407D01*
X131632366Y-105988255D01*
X131727405Y-105797389D01*
X131785756Y-105592310D01*
X131805429Y-105380000D01*
X131795543Y-105273308D01*
X131785757Y-105167696D01*
X131785756Y-105167690D01*
X131780150Y-105147986D01*
X131727405Y-104962611D01*
X131723639Y-104955048D01*
X131632367Y-104771747D01*
X131632363Y-104771741D01*
X131580014Y-104702421D01*
X131503872Y-104601593D01*
X131346302Y-104457948D01*
X131313142Y-104437416D01*
X131281814Y-104397656D01*
X131283373Y-104347061D01*
X131317089Y-104309305D01*
X131352098Y-104300500D01*
X132487902Y-104300500D01*
X132535468Y-104317813D01*
X132560778Y-104361650D01*
X132551988Y-104411500D01*
X132526858Y-104437416D01*
X132493700Y-104457946D01*
X132336130Y-104601590D01*
X132207636Y-104771741D01*
X132207632Y-104771747D01*
X132112596Y-104962606D01*
X132112593Y-104962616D01*
X132054243Y-105167690D01*
X132054242Y-105167696D01*
X132034571Y-105379996D01*
X132034571Y-105380003D01*
X132054242Y-105592303D01*
X132054243Y-105592309D01*
X132112593Y-105797383D01*
X132112596Y-105797393D01*
X132207632Y-105988252D01*
X132207636Y-105988258D01*
X132252813Y-106048082D01*
X132336128Y-106158407D01*
X132493698Y-106302052D01*
X132674981Y-106414298D01*
X132873802Y-106491321D01*
X133083390Y-106530500D01*
X133296610Y-106530500D01*
X133506198Y-106491321D01*
X133705019Y-106414298D01*
X133886302Y-106302052D01*
X134043872Y-106158407D01*
X134172366Y-105988255D01*
X134267405Y-105797389D01*
X134325756Y-105592310D01*
X134345429Y-105380000D01*
X134335543Y-105273308D01*
X134325757Y-105167696D01*
X134325756Y-105167690D01*
X134320150Y-105147986D01*
X134267405Y-104962611D01*
X134263639Y-104955048D01*
X134172367Y-104771747D01*
X134172363Y-104771741D01*
X134120014Y-104702421D01*
X134043872Y-104601593D01*
X133886302Y-104457948D01*
X133853142Y-104437416D01*
X133821814Y-104397656D01*
X133823373Y-104347061D01*
X133857089Y-104309305D01*
X133892098Y-104300500D01*
X135027902Y-104300500D01*
X135075468Y-104317813D01*
X135100778Y-104361650D01*
X135091988Y-104411500D01*
X135066858Y-104437416D01*
X135033700Y-104457946D01*
X134876130Y-104601590D01*
X134747636Y-104771741D01*
X134747632Y-104771747D01*
X134652596Y-104962606D01*
X134652593Y-104962616D01*
X134594243Y-105167690D01*
X134594242Y-105167696D01*
X134574571Y-105379996D01*
X134574571Y-105380003D01*
X134594242Y-105592303D01*
X134594243Y-105592309D01*
X134652593Y-105797383D01*
X134652596Y-105797393D01*
X134747632Y-105988252D01*
X134747636Y-105988258D01*
X134792813Y-106048082D01*
X134876128Y-106158407D01*
X135033698Y-106302052D01*
X135214981Y-106414298D01*
X135413802Y-106491321D01*
X135623390Y-106530500D01*
X135836610Y-106530500D01*
X136046198Y-106491321D01*
X136245019Y-106414298D01*
X136426302Y-106302052D01*
X136583872Y-106158407D01*
X136712366Y-105988255D01*
X136807405Y-105797389D01*
X136865756Y-105592310D01*
X136885429Y-105380000D01*
X136875543Y-105273308D01*
X136865757Y-105167696D01*
X136865756Y-105167690D01*
X136860150Y-105147986D01*
X136807405Y-104962611D01*
X136803639Y-104955048D01*
X136712367Y-104771747D01*
X136712363Y-104771741D01*
X136660014Y-104702421D01*
X136583872Y-104601593D01*
X136426302Y-104457948D01*
X136393142Y-104437416D01*
X136361814Y-104397656D01*
X136363373Y-104347061D01*
X136397089Y-104309305D01*
X136432098Y-104300500D01*
X137567902Y-104300500D01*
X137615468Y-104317813D01*
X137640778Y-104361650D01*
X137631988Y-104411500D01*
X137606858Y-104437416D01*
X137573700Y-104457946D01*
X137416130Y-104601590D01*
X137287636Y-104771741D01*
X137287632Y-104771747D01*
X137192596Y-104962606D01*
X137192593Y-104962616D01*
X137134243Y-105167690D01*
X137134242Y-105167696D01*
X137114571Y-105379996D01*
X137114571Y-105380003D01*
X137134242Y-105592303D01*
X137134243Y-105592309D01*
X137192593Y-105797383D01*
X137192596Y-105797393D01*
X137287632Y-105988252D01*
X137287636Y-105988258D01*
X137332813Y-106048082D01*
X137416128Y-106158407D01*
X137573698Y-106302052D01*
X137754981Y-106414298D01*
X137953802Y-106491321D01*
X138163390Y-106530500D01*
X138376610Y-106530500D01*
X138586198Y-106491321D01*
X138785019Y-106414298D01*
X138966302Y-106302052D01*
X139123872Y-106158407D01*
X139252366Y-105988255D01*
X139347405Y-105797389D01*
X139405756Y-105592310D01*
X139425429Y-105380000D01*
X139415543Y-105273308D01*
X139405757Y-105167696D01*
X139405756Y-105167690D01*
X139400150Y-105147986D01*
X139347405Y-104962611D01*
X139343639Y-104955048D01*
X139252367Y-104771747D01*
X139252363Y-104771741D01*
X139200014Y-104702421D01*
X139123872Y-104601593D01*
X138966302Y-104457948D01*
X138933142Y-104437416D01*
X138901814Y-104397656D01*
X138903373Y-104347061D01*
X138937089Y-104309305D01*
X138972098Y-104300500D01*
X140107902Y-104300500D01*
X140155468Y-104317813D01*
X140180778Y-104361650D01*
X140171988Y-104411500D01*
X140146858Y-104437416D01*
X140113700Y-104457946D01*
X139956130Y-104601590D01*
X139827636Y-104771741D01*
X139827632Y-104771747D01*
X139732596Y-104962606D01*
X139732593Y-104962616D01*
X139674243Y-105167690D01*
X139674242Y-105167696D01*
X139654571Y-105379996D01*
X139654571Y-105380003D01*
X139674242Y-105592303D01*
X139674243Y-105592309D01*
X139732593Y-105797383D01*
X139732596Y-105797393D01*
X139827632Y-105988252D01*
X139827636Y-105988258D01*
X139872814Y-106048082D01*
X139956128Y-106158407D01*
X140113698Y-106302052D01*
X140294981Y-106414298D01*
X140493802Y-106491321D01*
X140703390Y-106530500D01*
X140916610Y-106530500D01*
X141126198Y-106491321D01*
X141325019Y-106414298D01*
X141506302Y-106302052D01*
X141663872Y-106158407D01*
X141792366Y-105988255D01*
X141887405Y-105797389D01*
X141945756Y-105592310D01*
X141965429Y-105380000D01*
X141955543Y-105273308D01*
X141945757Y-105167696D01*
X141945756Y-105167690D01*
X141940150Y-105147986D01*
X141887405Y-104962611D01*
X141883639Y-104955048D01*
X141792367Y-104771747D01*
X141792363Y-104771741D01*
X141740014Y-104702421D01*
X141663872Y-104601593D01*
X141506302Y-104457948D01*
X141473142Y-104437416D01*
X141441814Y-104397656D01*
X141443373Y-104347061D01*
X141477089Y-104309305D01*
X141512098Y-104300500D01*
X142647902Y-104300500D01*
X142695468Y-104317813D01*
X142720778Y-104361650D01*
X142711988Y-104411500D01*
X142686858Y-104437416D01*
X142653700Y-104457946D01*
X142496130Y-104601590D01*
X142367636Y-104771741D01*
X142367632Y-104771747D01*
X142272596Y-104962606D01*
X142272593Y-104962616D01*
X142214243Y-105167690D01*
X142214242Y-105167696D01*
X142194571Y-105379996D01*
X142194571Y-105380003D01*
X142214242Y-105592303D01*
X142214243Y-105592309D01*
X142272593Y-105797383D01*
X142272596Y-105797393D01*
X142367632Y-105988252D01*
X142367636Y-105988258D01*
X142412813Y-106048082D01*
X142496128Y-106158407D01*
X142653698Y-106302052D01*
X142834981Y-106414298D01*
X143033802Y-106491321D01*
X143243390Y-106530500D01*
X143456610Y-106530500D01*
X143666198Y-106491321D01*
X143865019Y-106414298D01*
X144046302Y-106302052D01*
X144203872Y-106158407D01*
X144332366Y-105988255D01*
X144427405Y-105797389D01*
X144485756Y-105592310D01*
X144505429Y-105380000D01*
X144495543Y-105273308D01*
X144485757Y-105167696D01*
X144485756Y-105167690D01*
X144480150Y-105147986D01*
X144427405Y-104962611D01*
X144423639Y-104955048D01*
X144332367Y-104771747D01*
X144332363Y-104771741D01*
X144280014Y-104702421D01*
X144203872Y-104601593D01*
X144046302Y-104457948D01*
X144013142Y-104437416D01*
X143981814Y-104397656D01*
X143983373Y-104347061D01*
X144017089Y-104309305D01*
X144052098Y-104300500D01*
X145187902Y-104300500D01*
X145235468Y-104317813D01*
X145260778Y-104361650D01*
X145251988Y-104411500D01*
X145226858Y-104437416D01*
X145193700Y-104457946D01*
X145036130Y-104601590D01*
X144907636Y-104771741D01*
X144907632Y-104771747D01*
X144812596Y-104962606D01*
X144812593Y-104962616D01*
X144754243Y-105167690D01*
X144754242Y-105167696D01*
X144734571Y-105379996D01*
X144734571Y-105380003D01*
X144754242Y-105592303D01*
X144754243Y-105592309D01*
X144812593Y-105797383D01*
X144812596Y-105797393D01*
X144907632Y-105988252D01*
X144907636Y-105988258D01*
X144952813Y-106048082D01*
X145036128Y-106158407D01*
X145193698Y-106302052D01*
X145374981Y-106414298D01*
X145573802Y-106491321D01*
X145783390Y-106530500D01*
X145996610Y-106530500D01*
X146206198Y-106491321D01*
X146405019Y-106414298D01*
X146586302Y-106302052D01*
X146743872Y-106158407D01*
X146872366Y-105988255D01*
X146967405Y-105797389D01*
X147025756Y-105592310D01*
X147045429Y-105380000D01*
X147035543Y-105273308D01*
X147025757Y-105167696D01*
X147025756Y-105167690D01*
X147020150Y-105147986D01*
X146967405Y-104962611D01*
X146963639Y-104955048D01*
X146872367Y-104771747D01*
X146872363Y-104771741D01*
X146820014Y-104702421D01*
X146743872Y-104601593D01*
X146586302Y-104457948D01*
X146553142Y-104437416D01*
X146521814Y-104397656D01*
X146523373Y-104347061D01*
X146557089Y-104309305D01*
X146592098Y-104300500D01*
X147727902Y-104300500D01*
X147775468Y-104317813D01*
X147800778Y-104361650D01*
X147791988Y-104411500D01*
X147766858Y-104437416D01*
X147733700Y-104457946D01*
X147576130Y-104601590D01*
X147447636Y-104771741D01*
X147447632Y-104771747D01*
X147352596Y-104962606D01*
X147352593Y-104962616D01*
X147294243Y-105167690D01*
X147294242Y-105167696D01*
X147274571Y-105379996D01*
X147274571Y-105380003D01*
X147294242Y-105592303D01*
X147294243Y-105592309D01*
X147352593Y-105797383D01*
X147352596Y-105797393D01*
X147447632Y-105988252D01*
X147447636Y-105988258D01*
X147492813Y-106048082D01*
X147576128Y-106158407D01*
X147733698Y-106302052D01*
X147914981Y-106414298D01*
X148113802Y-106491321D01*
X148323390Y-106530500D01*
X148536610Y-106530500D01*
X148746198Y-106491321D01*
X148945019Y-106414298D01*
X149126302Y-106302052D01*
X149283872Y-106158407D01*
X149412366Y-105988255D01*
X149507405Y-105797389D01*
X149525147Y-105735030D01*
X149554817Y-105694017D01*
X149603907Y-105681671D01*
X149649448Y-105703767D01*
X149667801Y-105736128D01*
X149696566Y-105843483D01*
X149696571Y-105843494D01*
X149796401Y-106057579D01*
X149931888Y-106251075D01*
X150098925Y-106418111D01*
X150098923Y-106418111D01*
X150292420Y-106553598D01*
X150506505Y-106653428D01*
X150506508Y-106653430D01*
X150720000Y-106710634D01*
X150720000Y-105930648D01*
X150737313Y-105883082D01*
X150781150Y-105857772D01*
X150824739Y-105863334D01*
X150827685Y-105864680D01*
X150934237Y-105880000D01*
X150934243Y-105880000D01*
X151005757Y-105880000D01*
X151005763Y-105880000D01*
X151112315Y-105864680D01*
X151115260Y-105863334D01*
X151165719Y-105859324D01*
X151206952Y-105888685D01*
X151220000Y-105930648D01*
X151220000Y-106710634D01*
X151433491Y-106653430D01*
X151433494Y-106653428D01*
X151647579Y-106553598D01*
X151841075Y-106418111D01*
X152008111Y-106251075D01*
X152115383Y-106097876D01*
X152156847Y-106068842D01*
X152207274Y-106073254D01*
X152243067Y-106109047D01*
X152250000Y-106140321D01*
X152250000Y-113973208D01*
X152232848Y-114020582D01*
X151000000Y-115500000D01*
X151000000Y-119375500D01*
X150982687Y-119423066D01*
X150938850Y-119448376D01*
X150926000Y-119449500D01*
X150863386Y-119449500D01*
X150706670Y-119478796D01*
X150653802Y-119488679D01*
X150653800Y-119488679D01*
X150653798Y-119488680D01*
X150454986Y-119565700D01*
X150454981Y-119565702D01*
X150454976Y-119565704D01*
X150454976Y-119565705D01*
X150273700Y-119677946D01*
X150116130Y-119821590D01*
X149987636Y-119991741D01*
X149987632Y-119991747D01*
X149892596Y-120182606D01*
X149892593Y-120182616D01*
X149834243Y-120387690D01*
X149834242Y-120387696D01*
X149814571Y-120599996D01*
X149814571Y-120600003D01*
X149834242Y-120812303D01*
X149834243Y-120812309D01*
X149892593Y-121017383D01*
X149892596Y-121017393D01*
X149987632Y-121208252D01*
X149987634Y-121208255D01*
X150116128Y-121378407D01*
X150273698Y-121522052D01*
X150273700Y-121522053D01*
X150339159Y-121562584D01*
X150370487Y-121602344D01*
X150368928Y-121652939D01*
X150335212Y-121690695D01*
X150300203Y-121699500D01*
X149099797Y-121699500D01*
X149052231Y-121682187D01*
X149026921Y-121638350D01*
X149035711Y-121588500D01*
X149060841Y-121562584D01*
X149070573Y-121556557D01*
X149126302Y-121522052D01*
X149283872Y-121378407D01*
X149412366Y-121208255D01*
X149507405Y-121017389D01*
X149565756Y-120812310D01*
X149585429Y-120600000D01*
X149585429Y-120599996D01*
X149565757Y-120387696D01*
X149565756Y-120387690D01*
X149533211Y-120273308D01*
X149507405Y-120182611D01*
X149443121Y-120053511D01*
X149412367Y-119991747D01*
X149412363Y-119991741D01*
X149408842Y-119987079D01*
X149283872Y-119821593D01*
X149126302Y-119677948D01*
X148945019Y-119565702D01*
X148746198Y-119488679D01*
X148654149Y-119471472D01*
X148536613Y-119449500D01*
X148536610Y-119449500D01*
X148323390Y-119449500D01*
X148323386Y-119449500D01*
X148166669Y-119478796D01*
X148113802Y-119488679D01*
X148113800Y-119488679D01*
X148113798Y-119488680D01*
X147914986Y-119565700D01*
X147914981Y-119565702D01*
X147914976Y-119565704D01*
X147914976Y-119565705D01*
X147733700Y-119677946D01*
X147576130Y-119821590D01*
X147447636Y-119991741D01*
X147447632Y-119991747D01*
X147352596Y-120182606D01*
X147352593Y-120182616D01*
X147294243Y-120387690D01*
X147294242Y-120387696D01*
X147274571Y-120599996D01*
X147274571Y-120600003D01*
X147294242Y-120812303D01*
X147294243Y-120812309D01*
X147352593Y-121017383D01*
X147352596Y-121017393D01*
X147447632Y-121208252D01*
X147447634Y-121208255D01*
X147576128Y-121378407D01*
X147733698Y-121522052D01*
X147733700Y-121522053D01*
X147799159Y-121562584D01*
X147830487Y-121602344D01*
X147828928Y-121652939D01*
X147795212Y-121690695D01*
X147760203Y-121699500D01*
X146559797Y-121699500D01*
X146512231Y-121682187D01*
X146486921Y-121638350D01*
X146495711Y-121588500D01*
X146520841Y-121562584D01*
X146530573Y-121556557D01*
X146586302Y-121522052D01*
X146743872Y-121378407D01*
X146872366Y-121208255D01*
X146967405Y-121017389D01*
X147025756Y-120812310D01*
X147045429Y-120600000D01*
X147045429Y-120599996D01*
X147025757Y-120387696D01*
X147025756Y-120387690D01*
X146993211Y-120273308D01*
X146967405Y-120182611D01*
X146903121Y-120053511D01*
X146872367Y-119991747D01*
X146872363Y-119991741D01*
X146868842Y-119987079D01*
X146743872Y-119821593D01*
X146586302Y-119677948D01*
X146405019Y-119565702D01*
X146206198Y-119488679D01*
X146114150Y-119471472D01*
X145996613Y-119449500D01*
X145996610Y-119449500D01*
X145783390Y-119449500D01*
X145783386Y-119449500D01*
X145626669Y-119478796D01*
X145573802Y-119488679D01*
X145573800Y-119488679D01*
X145573798Y-119488680D01*
X145374986Y-119565700D01*
X145374981Y-119565702D01*
X145374976Y-119565704D01*
X145374976Y-119565705D01*
X145193700Y-119677946D01*
X145036130Y-119821590D01*
X144907636Y-119991741D01*
X144907632Y-119991747D01*
X144812596Y-120182606D01*
X144812593Y-120182616D01*
X144754243Y-120387690D01*
X144754242Y-120387696D01*
X144734571Y-120599996D01*
X144734571Y-120600003D01*
X144754242Y-120812303D01*
X144754243Y-120812309D01*
X144812593Y-121017383D01*
X144812596Y-121017393D01*
X144907632Y-121208252D01*
X144907634Y-121208255D01*
X145036128Y-121378407D01*
X145193698Y-121522052D01*
X145193700Y-121522053D01*
X145259159Y-121562584D01*
X145290487Y-121602344D01*
X145288928Y-121652939D01*
X145255212Y-121690695D01*
X145220203Y-121699500D01*
X144019797Y-121699500D01*
X143972231Y-121682187D01*
X143946921Y-121638350D01*
X143955711Y-121588500D01*
X143980841Y-121562584D01*
X143990573Y-121556557D01*
X144046302Y-121522052D01*
X144203872Y-121378407D01*
X144332366Y-121208255D01*
X144427405Y-121017389D01*
X144485756Y-120812310D01*
X144505429Y-120600000D01*
X144505429Y-120599996D01*
X144485757Y-120387696D01*
X144485756Y-120387690D01*
X144453211Y-120273308D01*
X144427405Y-120182611D01*
X144363121Y-120053511D01*
X144332367Y-119991747D01*
X144332363Y-119991741D01*
X144328842Y-119987079D01*
X144203872Y-119821593D01*
X144046302Y-119677948D01*
X143865019Y-119565702D01*
X143666198Y-119488679D01*
X143574149Y-119471472D01*
X143456613Y-119449500D01*
X143456610Y-119449500D01*
X143243390Y-119449500D01*
X143243386Y-119449500D01*
X143086669Y-119478796D01*
X143033802Y-119488679D01*
X143033800Y-119488679D01*
X143033798Y-119488680D01*
X142834986Y-119565700D01*
X142834981Y-119565702D01*
X142834976Y-119565704D01*
X142834976Y-119565705D01*
X142653700Y-119677946D01*
X142496130Y-119821590D01*
X142367636Y-119991741D01*
X142367632Y-119991747D01*
X142272596Y-120182606D01*
X142272593Y-120182616D01*
X142214243Y-120387690D01*
X142214242Y-120387696D01*
X142194571Y-120599996D01*
X142194571Y-120600003D01*
X142214242Y-120812303D01*
X142214243Y-120812309D01*
X142272593Y-121017383D01*
X142272596Y-121017393D01*
X142367632Y-121208252D01*
X142367634Y-121208255D01*
X142496128Y-121378407D01*
X142653698Y-121522052D01*
X142653700Y-121522053D01*
X142719159Y-121562584D01*
X142750487Y-121602344D01*
X142748928Y-121652939D01*
X142715212Y-121690695D01*
X142680203Y-121699500D01*
X141479797Y-121699500D01*
X141432231Y-121682187D01*
X141406921Y-121638350D01*
X141415711Y-121588500D01*
X141440841Y-121562584D01*
X141450573Y-121556557D01*
X141506302Y-121522052D01*
X141663872Y-121378407D01*
X141792366Y-121208255D01*
X141887405Y-121017389D01*
X141945756Y-120812310D01*
X141965429Y-120600000D01*
X141965429Y-120599996D01*
X141945757Y-120387696D01*
X141945756Y-120387690D01*
X141913211Y-120273308D01*
X141887405Y-120182611D01*
X141823121Y-120053511D01*
X141792367Y-119991747D01*
X141792363Y-119991741D01*
X141788843Y-119987079D01*
X141663872Y-119821593D01*
X141506302Y-119677948D01*
X141325019Y-119565702D01*
X141126198Y-119488679D01*
X141034149Y-119471472D01*
X140916613Y-119449500D01*
X140916610Y-119449500D01*
X140703390Y-119449500D01*
X140703386Y-119449500D01*
X140546670Y-119478796D01*
X140493802Y-119488679D01*
X140493800Y-119488679D01*
X140493798Y-119488680D01*
X140294986Y-119565700D01*
X140294981Y-119565702D01*
X140294976Y-119565704D01*
X140294976Y-119565705D01*
X140113700Y-119677946D01*
X139956130Y-119821590D01*
X139827636Y-119991741D01*
X139827632Y-119991747D01*
X139732596Y-120182606D01*
X139732593Y-120182616D01*
X139674243Y-120387690D01*
X139674242Y-120387696D01*
X139654571Y-120599996D01*
X139654571Y-120600003D01*
X139674242Y-120812303D01*
X139674243Y-120812309D01*
X139732593Y-121017383D01*
X139732596Y-121017393D01*
X139827632Y-121208252D01*
X139827634Y-121208255D01*
X139956128Y-121378407D01*
X140113698Y-121522052D01*
X140113700Y-121522053D01*
X140179159Y-121562584D01*
X140210487Y-121602344D01*
X140208928Y-121652939D01*
X140175212Y-121690695D01*
X140140203Y-121699500D01*
X138939797Y-121699500D01*
X138892231Y-121682187D01*
X138866921Y-121638350D01*
X138875711Y-121588500D01*
X138900841Y-121562584D01*
X138910573Y-121556557D01*
X138966302Y-121522052D01*
X139123872Y-121378407D01*
X139252366Y-121208255D01*
X139347405Y-121017389D01*
X139405756Y-120812310D01*
X139425429Y-120600000D01*
X139425429Y-120599996D01*
X139405757Y-120387696D01*
X139405756Y-120387690D01*
X139373211Y-120273308D01*
X139347405Y-120182611D01*
X139283121Y-120053511D01*
X139252367Y-119991747D01*
X139252363Y-119991741D01*
X139248843Y-119987079D01*
X139123872Y-119821593D01*
X138966302Y-119677948D01*
X138785019Y-119565702D01*
X138586198Y-119488679D01*
X138494149Y-119471472D01*
X138376613Y-119449500D01*
X138376610Y-119449500D01*
X138163390Y-119449500D01*
X138163386Y-119449500D01*
X138006670Y-119478796D01*
X137953802Y-119488679D01*
X137953800Y-119488679D01*
X137953798Y-119488680D01*
X137754986Y-119565700D01*
X137754981Y-119565702D01*
X137754976Y-119565704D01*
X137754976Y-119565705D01*
X137573700Y-119677946D01*
X137416130Y-119821590D01*
X137287636Y-119991741D01*
X137287632Y-119991747D01*
X137192596Y-120182606D01*
X137192593Y-120182616D01*
X137134243Y-120387690D01*
X137134242Y-120387696D01*
X137114571Y-120599996D01*
X137114571Y-120600003D01*
X137134242Y-120812303D01*
X137134243Y-120812309D01*
X137192593Y-121017383D01*
X137192596Y-121017393D01*
X137287632Y-121208252D01*
X137287634Y-121208255D01*
X137416128Y-121378407D01*
X137573698Y-121522052D01*
X137573700Y-121522053D01*
X137639159Y-121562584D01*
X137670487Y-121602344D01*
X137668928Y-121652939D01*
X137635212Y-121690695D01*
X137600203Y-121699500D01*
X136399797Y-121699500D01*
X136352231Y-121682187D01*
X136326921Y-121638350D01*
X136335711Y-121588500D01*
X136360841Y-121562584D01*
X136370573Y-121556557D01*
X136426302Y-121522052D01*
X136583872Y-121378407D01*
X136712366Y-121208255D01*
X136807405Y-121017389D01*
X136865756Y-120812310D01*
X136885429Y-120600000D01*
X136885429Y-120599996D01*
X136865757Y-120387696D01*
X136865756Y-120387690D01*
X136833211Y-120273308D01*
X136807405Y-120182611D01*
X136743121Y-120053511D01*
X136712367Y-119991747D01*
X136712363Y-119991741D01*
X136708843Y-119987079D01*
X136583872Y-119821593D01*
X136426302Y-119677948D01*
X136245019Y-119565702D01*
X136046198Y-119488679D01*
X135954150Y-119471472D01*
X135836613Y-119449500D01*
X135836610Y-119449500D01*
X135623390Y-119449500D01*
X135623386Y-119449500D01*
X135466670Y-119478796D01*
X135413802Y-119488679D01*
X135413800Y-119488679D01*
X135413798Y-119488680D01*
X135214986Y-119565700D01*
X135214981Y-119565702D01*
X135214976Y-119565704D01*
X135214976Y-119565705D01*
X135033700Y-119677946D01*
X134876130Y-119821590D01*
X134747636Y-119991741D01*
X134747632Y-119991747D01*
X134652596Y-120182606D01*
X134652593Y-120182616D01*
X134594243Y-120387690D01*
X134594242Y-120387696D01*
X134574571Y-120599996D01*
X134574571Y-120600003D01*
X134594242Y-120812303D01*
X134594243Y-120812309D01*
X134652593Y-121017383D01*
X134652596Y-121017393D01*
X134747632Y-121208252D01*
X134747634Y-121208255D01*
X134876128Y-121378407D01*
X135033698Y-121522052D01*
X135033700Y-121522053D01*
X135099159Y-121562584D01*
X135130487Y-121602344D01*
X135128928Y-121652939D01*
X135095212Y-121690695D01*
X135060203Y-121699500D01*
X133859797Y-121699500D01*
X133812231Y-121682187D01*
X133786921Y-121638350D01*
X133795711Y-121588500D01*
X133820841Y-121562584D01*
X133830573Y-121556557D01*
X133886302Y-121522052D01*
X134043872Y-121378407D01*
X134172366Y-121208255D01*
X134267405Y-121017389D01*
X134325756Y-120812310D01*
X134345429Y-120600000D01*
X134345429Y-120599996D01*
X134325757Y-120387696D01*
X134325756Y-120387690D01*
X134293211Y-120273308D01*
X134267405Y-120182611D01*
X134203121Y-120053511D01*
X134172367Y-119991747D01*
X134172363Y-119991741D01*
X134168843Y-119987079D01*
X134043872Y-119821593D01*
X133886302Y-119677948D01*
X133705019Y-119565702D01*
X133506198Y-119488679D01*
X133414149Y-119471472D01*
X133296613Y-119449500D01*
X133296610Y-119449500D01*
X133083390Y-119449500D01*
X133083386Y-119449500D01*
X132926669Y-119478796D01*
X132873802Y-119488679D01*
X132873800Y-119488679D01*
X132873798Y-119488680D01*
X132674986Y-119565700D01*
X132674981Y-119565702D01*
X132674976Y-119565704D01*
X132674976Y-119565705D01*
X132493700Y-119677946D01*
X132336130Y-119821590D01*
X132207636Y-119991741D01*
X132207632Y-119991747D01*
X132112596Y-120182606D01*
X132112593Y-120182616D01*
X132054243Y-120387690D01*
X132054242Y-120387696D01*
X132034571Y-120599996D01*
X132034571Y-120600003D01*
X132054242Y-120812303D01*
X132054243Y-120812309D01*
X132112593Y-121017383D01*
X132112596Y-121017393D01*
X132207632Y-121208252D01*
X132207634Y-121208255D01*
X132336128Y-121378407D01*
X132493698Y-121522052D01*
X132493700Y-121522053D01*
X132559159Y-121562584D01*
X132590487Y-121602344D01*
X132588928Y-121652939D01*
X132555212Y-121690695D01*
X132520203Y-121699500D01*
X131319797Y-121699500D01*
X131272231Y-121682187D01*
X131246921Y-121638350D01*
X131255711Y-121588500D01*
X131280841Y-121562584D01*
X131290573Y-121556557D01*
X131346302Y-121522052D01*
X131503872Y-121378407D01*
X131632366Y-121208255D01*
X131727405Y-121017389D01*
X131785756Y-120812310D01*
X131805429Y-120600000D01*
X131805429Y-120599996D01*
X131785757Y-120387696D01*
X131785756Y-120387690D01*
X131753211Y-120273308D01*
X131727405Y-120182611D01*
X131663121Y-120053511D01*
X131632367Y-119991747D01*
X131632363Y-119991741D01*
X131628843Y-119987079D01*
X131503872Y-119821593D01*
X131346302Y-119677948D01*
X131165019Y-119565702D01*
X130966198Y-119488679D01*
X130874149Y-119471472D01*
X130756613Y-119449500D01*
X130756610Y-119449500D01*
X130543390Y-119449500D01*
X130543386Y-119449500D01*
X130386670Y-119478796D01*
X130333802Y-119488679D01*
X130333800Y-119488679D01*
X130333798Y-119488680D01*
X130134986Y-119565700D01*
X130134981Y-119565702D01*
X130134976Y-119565704D01*
X130134976Y-119565705D01*
X129953700Y-119677946D01*
X129796130Y-119821590D01*
X129667636Y-119991741D01*
X129667632Y-119991747D01*
X129572596Y-120182606D01*
X129572593Y-120182616D01*
X129514243Y-120387690D01*
X129514242Y-120387696D01*
X129494571Y-120599996D01*
X129494571Y-120600003D01*
X129514242Y-120812303D01*
X129514243Y-120812309D01*
X129572593Y-121017383D01*
X129572596Y-121017393D01*
X129667632Y-121208252D01*
X129667634Y-121208255D01*
X129796128Y-121378407D01*
X129953698Y-121522052D01*
X129953700Y-121522053D01*
X130019159Y-121562584D01*
X130050487Y-121602344D01*
X130048928Y-121652939D01*
X130015212Y-121690695D01*
X129980203Y-121699500D01*
X128779797Y-121699500D01*
X128732231Y-121682187D01*
X128706921Y-121638350D01*
X128715711Y-121588500D01*
X128740841Y-121562584D01*
X128750573Y-121556557D01*
X128806302Y-121522052D01*
X128963872Y-121378407D01*
X129092366Y-121208255D01*
X129187405Y-121017389D01*
X129245756Y-120812310D01*
X129265429Y-120600000D01*
X129265429Y-120599996D01*
X129245757Y-120387696D01*
X129245756Y-120387690D01*
X129213211Y-120273308D01*
X129187405Y-120182611D01*
X129123121Y-120053511D01*
X129092367Y-119991747D01*
X129092363Y-119991741D01*
X129088843Y-119987079D01*
X128963872Y-119821593D01*
X128806302Y-119677948D01*
X128625019Y-119565702D01*
X128426198Y-119488679D01*
X128334149Y-119471472D01*
X128216613Y-119449500D01*
X128216610Y-119449500D01*
X128003390Y-119449500D01*
X128003386Y-119449500D01*
X127846669Y-119478796D01*
X127793802Y-119488679D01*
X127793800Y-119488679D01*
X127793798Y-119488680D01*
X127594986Y-119565700D01*
X127594981Y-119565702D01*
X127594976Y-119565704D01*
X127594976Y-119565705D01*
X127413700Y-119677946D01*
X127256130Y-119821590D01*
X127127636Y-119991741D01*
X127127632Y-119991747D01*
X127032596Y-120182606D01*
X127032593Y-120182616D01*
X126974243Y-120387690D01*
X126974242Y-120387696D01*
X126954571Y-120599996D01*
X126954571Y-120600003D01*
X126974242Y-120812303D01*
X126974243Y-120812309D01*
X127032593Y-121017383D01*
X127032596Y-121017393D01*
X127127632Y-121208252D01*
X127127634Y-121208255D01*
X127256128Y-121378407D01*
X127413698Y-121522052D01*
X127413700Y-121522053D01*
X127479159Y-121562584D01*
X127510487Y-121602344D01*
X127508928Y-121652939D01*
X127475212Y-121690695D01*
X127440203Y-121699500D01*
X126239797Y-121699500D01*
X126192231Y-121682187D01*
X126166921Y-121638350D01*
X126175711Y-121588500D01*
X126200841Y-121562584D01*
X126210573Y-121556557D01*
X126266302Y-121522052D01*
X126423872Y-121378407D01*
X126552366Y-121208255D01*
X126647405Y-121017389D01*
X126705756Y-120812310D01*
X126725429Y-120600000D01*
X126725429Y-120599996D01*
X126705757Y-120387696D01*
X126705756Y-120387690D01*
X126673211Y-120273308D01*
X126647405Y-120182611D01*
X126583121Y-120053511D01*
X126552367Y-119991747D01*
X126552363Y-119991741D01*
X126548843Y-119987079D01*
X126423872Y-119821593D01*
X126266302Y-119677948D01*
X126085019Y-119565702D01*
X125886198Y-119488679D01*
X125794150Y-119471472D01*
X125676613Y-119449500D01*
X125676610Y-119449500D01*
X125463390Y-119449500D01*
X125463386Y-119449500D01*
X125306669Y-119478796D01*
X125253802Y-119488679D01*
X125253800Y-119488679D01*
X125253798Y-119488680D01*
X125054986Y-119565700D01*
X125054981Y-119565702D01*
X125054976Y-119565704D01*
X125054976Y-119565705D01*
X124873700Y-119677946D01*
X124716130Y-119821590D01*
X124587636Y-119991741D01*
X124587632Y-119991747D01*
X124492596Y-120182606D01*
X124492593Y-120182616D01*
X124434243Y-120387690D01*
X124434242Y-120387696D01*
X124414571Y-120599996D01*
X124414571Y-120600003D01*
X124434242Y-120812303D01*
X124434243Y-120812309D01*
X124492593Y-121017383D01*
X124492596Y-121017393D01*
X124587632Y-121208252D01*
X124587634Y-121208255D01*
X124716128Y-121378407D01*
X124873698Y-121522052D01*
X124873700Y-121522053D01*
X124939159Y-121562584D01*
X124970487Y-121602344D01*
X124968928Y-121652939D01*
X124935212Y-121690695D01*
X124900203Y-121699500D01*
X123699797Y-121699500D01*
X123652231Y-121682187D01*
X123626921Y-121638350D01*
X123635711Y-121588500D01*
X123660841Y-121562584D01*
X123670573Y-121556557D01*
X123726302Y-121522052D01*
X123883872Y-121378407D01*
X124012366Y-121208255D01*
X124107405Y-121017389D01*
X124165756Y-120812310D01*
X124185429Y-120600000D01*
X124185429Y-120599996D01*
X124165757Y-120387696D01*
X124165756Y-120387690D01*
X124133211Y-120273308D01*
X124107405Y-120182611D01*
X124043121Y-120053511D01*
X124012367Y-119991747D01*
X124012363Y-119991741D01*
X124008843Y-119987079D01*
X123883872Y-119821593D01*
X123726302Y-119677948D01*
X123545019Y-119565702D01*
X123346198Y-119488679D01*
X123254149Y-119471472D01*
X123136613Y-119449500D01*
X123136610Y-119449500D01*
X122923390Y-119449500D01*
X122923386Y-119449500D01*
X122766669Y-119478796D01*
X122713802Y-119488679D01*
X122713800Y-119488679D01*
X122713798Y-119488680D01*
X122514986Y-119565700D01*
X122514981Y-119565702D01*
X122514976Y-119565704D01*
X122514976Y-119565705D01*
X122333700Y-119677946D01*
X122176130Y-119821590D01*
X122047636Y-119991741D01*
X122047632Y-119991747D01*
X121952596Y-120182606D01*
X121952593Y-120182616D01*
X121894243Y-120387690D01*
X121894242Y-120387696D01*
X121874571Y-120599996D01*
X121874571Y-120600003D01*
X121894242Y-120812303D01*
X121894243Y-120812309D01*
X121952593Y-121017383D01*
X121952596Y-121017393D01*
X122047632Y-121208252D01*
X122047634Y-121208255D01*
X122176128Y-121378407D01*
X122333698Y-121522052D01*
X122333700Y-121522053D01*
X122399159Y-121562584D01*
X122430487Y-121602344D01*
X122428928Y-121652939D01*
X122395212Y-121690695D01*
X122360203Y-121699500D01*
X121159797Y-121699500D01*
X121112231Y-121682187D01*
X121086921Y-121638350D01*
X121095711Y-121588500D01*
X121120841Y-121562584D01*
X121130573Y-121556557D01*
X121186302Y-121522052D01*
X121343872Y-121378407D01*
X121472366Y-121208255D01*
X121567405Y-121017389D01*
X121625756Y-120812310D01*
X121645429Y-120600000D01*
X121645429Y-120599996D01*
X121625757Y-120387696D01*
X121625756Y-120387690D01*
X121593211Y-120273308D01*
X121567405Y-120182611D01*
X121503121Y-120053511D01*
X121472367Y-119991747D01*
X121472363Y-119991741D01*
X121468843Y-119987079D01*
X121343872Y-119821593D01*
X121186302Y-119677948D01*
X121005019Y-119565702D01*
X120806198Y-119488679D01*
X120714149Y-119471472D01*
X120596613Y-119449500D01*
X120596610Y-119449500D01*
X120383390Y-119449500D01*
X120383386Y-119449500D01*
X120226670Y-119478796D01*
X120173802Y-119488679D01*
X120173800Y-119488679D01*
X120173798Y-119488680D01*
X119974986Y-119565700D01*
X119974981Y-119565702D01*
X119974976Y-119565704D01*
X119974976Y-119565705D01*
X119793700Y-119677946D01*
X119636130Y-119821590D01*
X119507636Y-119991741D01*
X119507632Y-119991747D01*
X119412596Y-120182606D01*
X119412593Y-120182616D01*
X119354243Y-120387690D01*
X119354242Y-120387696D01*
X119334571Y-120599996D01*
X119334571Y-120600003D01*
X119354242Y-120812303D01*
X119354243Y-120812309D01*
X119412593Y-121017383D01*
X119412596Y-121017393D01*
X119507632Y-121208252D01*
X119507634Y-121208255D01*
X119636128Y-121378407D01*
X119793698Y-121522052D01*
X119793700Y-121522053D01*
X119859159Y-121562584D01*
X119890487Y-121602344D01*
X119888928Y-121652939D01*
X119855212Y-121690695D01*
X119820203Y-121699500D01*
X118619797Y-121699500D01*
X118572231Y-121682187D01*
X118546921Y-121638350D01*
X118555711Y-121588500D01*
X118580841Y-121562584D01*
X118590573Y-121556557D01*
X118646302Y-121522052D01*
X118803872Y-121378407D01*
X118932366Y-121208255D01*
X119027405Y-121017389D01*
X119085756Y-120812310D01*
X119105429Y-120600000D01*
X119105429Y-120599996D01*
X119085757Y-120387696D01*
X119085756Y-120387690D01*
X119053211Y-120273308D01*
X119027405Y-120182611D01*
X118963121Y-120053511D01*
X118932367Y-119991747D01*
X118932363Y-119991741D01*
X118928843Y-119987079D01*
X118803872Y-119821593D01*
X118646302Y-119677948D01*
X118465019Y-119565702D01*
X118266198Y-119488679D01*
X118174149Y-119471472D01*
X118056613Y-119449500D01*
X118056610Y-119449500D01*
X117843390Y-119449500D01*
X117843386Y-119449500D01*
X117686670Y-119478796D01*
X117633802Y-119488679D01*
X117633800Y-119488679D01*
X117633798Y-119488680D01*
X117434986Y-119565700D01*
X117434981Y-119565702D01*
X117434976Y-119565704D01*
X117434976Y-119565705D01*
X117253700Y-119677946D01*
X117096130Y-119821590D01*
X116967636Y-119991741D01*
X116967632Y-119991747D01*
X116872596Y-120182606D01*
X116872593Y-120182616D01*
X116814243Y-120387690D01*
X116814242Y-120387696D01*
X116794571Y-120599996D01*
X116794571Y-120600003D01*
X116814242Y-120812303D01*
X116814243Y-120812309D01*
X116872593Y-121017383D01*
X116872596Y-121017393D01*
X116967632Y-121208252D01*
X116967634Y-121208255D01*
X117096128Y-121378407D01*
X117253698Y-121522052D01*
X117253700Y-121522053D01*
X117319159Y-121562584D01*
X117350487Y-121602344D01*
X117348928Y-121652939D01*
X117315212Y-121690695D01*
X117280203Y-121699500D01*
X115288988Y-121699500D01*
X115241422Y-121682187D01*
X115216112Y-121638350D01*
X115224902Y-121588500D01*
X115246543Y-121564883D01*
X115260133Y-121555367D01*
X115339139Y-121500047D01*
X115500047Y-121339139D01*
X115630568Y-121152734D01*
X115726739Y-120946496D01*
X115785635Y-120726692D01*
X115796719Y-120600000D01*
X115805468Y-120500005D01*
X115805468Y-120499994D01*
X115785635Y-120273311D01*
X115785634Y-120273303D01*
X115726741Y-120053511D01*
X115726740Y-120053510D01*
X115726739Y-120053504D01*
X115630568Y-119847266D01*
X115500047Y-119660861D01*
X115339139Y-119499953D01*
X115229332Y-119423066D01*
X115152739Y-119369435D01*
X115152736Y-119369434D01*
X115152734Y-119369432D01*
X114946496Y-119273261D01*
X114946492Y-119273260D01*
X114946488Y-119273258D01*
X114726696Y-119214365D01*
X114726689Y-119214364D01*
X114589362Y-119202350D01*
X114556784Y-119199500D01*
X114443216Y-119199500D01*
X114413487Y-119202100D01*
X114273310Y-119214364D01*
X114273303Y-119214365D01*
X114053511Y-119273258D01*
X114053500Y-119273263D01*
X113847260Y-119369435D01*
X113660860Y-119499953D01*
X113499953Y-119660860D01*
X113435115Y-119753459D01*
X113393650Y-119782493D01*
X113343224Y-119778081D01*
X113307431Y-119742288D01*
X113300499Y-119711018D01*
X113300499Y-116815805D01*
X113316359Y-116772231D01*
X113428706Y-116772231D01*
X113444035Y-116790499D01*
X113448182Y-116808980D01*
X113464242Y-116982303D01*
X113464243Y-116982309D01*
X113522593Y-117187383D01*
X113522596Y-117187393D01*
X113617632Y-117378252D01*
X113617634Y-117378255D01*
X113746128Y-117548407D01*
X113903698Y-117692052D01*
X114084981Y-117804298D01*
X114283802Y-117881321D01*
X114493390Y-117920500D01*
X114706610Y-117920500D01*
X114916198Y-117881321D01*
X115115019Y-117804298D01*
X115296302Y-117692052D01*
X115342431Y-117650000D01*
X126244318Y-117650000D01*
X126264955Y-117806760D01*
X126264955Y-117806761D01*
X126325464Y-117952841D01*
X126421715Y-118078279D01*
X126421720Y-118078284D01*
X126505345Y-118142451D01*
X126547159Y-118174536D01*
X126693238Y-118235044D01*
X126850000Y-118255682D01*
X127006762Y-118235044D01*
X127152841Y-118174536D01*
X127278282Y-118078282D01*
X127374536Y-117952841D01*
X127435044Y-117806762D01*
X127455682Y-117650000D01*
X127435044Y-117493238D01*
X127374536Y-117347159D01*
X127278282Y-117221718D01*
X127278279Y-117221715D01*
X127152841Y-117125464D01*
X127006761Y-117064955D01*
X126850000Y-117044318D01*
X126693239Y-117064955D01*
X126693238Y-117064955D01*
X126547158Y-117125464D01*
X126421720Y-117221715D01*
X126421715Y-117221720D01*
X126325464Y-117347158D01*
X126264955Y-117493238D01*
X126264955Y-117493239D01*
X126244318Y-117650000D01*
X115342431Y-117650000D01*
X115453872Y-117548407D01*
X115582366Y-117378255D01*
X115677405Y-117187389D01*
X115735756Y-116982310D01*
X115736477Y-116974536D01*
X115755429Y-116770003D01*
X115755429Y-116769996D01*
X115735757Y-116557696D01*
X115735756Y-116557690D01*
X115696938Y-116421261D01*
X115677405Y-116352611D01*
X115647162Y-116291875D01*
X115633531Y-116264500D01*
X131094318Y-116264500D01*
X131114955Y-116421260D01*
X131114955Y-116421261D01*
X131175464Y-116567341D01*
X131271713Y-116692777D01*
X131271718Y-116692782D01*
X131314073Y-116725282D01*
X131341271Y-116767974D01*
X131334664Y-116818160D01*
X131327734Y-116829037D01*
X131275464Y-116897158D01*
X131214955Y-117043238D01*
X131214955Y-117043239D01*
X131194318Y-117200000D01*
X131214955Y-117356760D01*
X131214955Y-117356761D01*
X131275464Y-117502841D01*
X131371715Y-117628279D01*
X131371720Y-117628284D01*
X131454825Y-117692052D01*
X131497159Y-117724536D01*
X131643238Y-117785044D01*
X131800000Y-117805682D01*
X131956762Y-117785044D01*
X132102841Y-117724536D01*
X132228282Y-117628282D01*
X132324536Y-117502841D01*
X132385044Y-117356762D01*
X132405682Y-117200000D01*
X132385044Y-117043238D01*
X132324536Y-116897159D01*
X132305285Y-116872070D01*
X132228286Y-116771722D01*
X132228284Y-116771720D01*
X132228282Y-116771719D01*
X132228282Y-116771718D01*
X132185923Y-116739215D01*
X132158728Y-116696525D01*
X132165335Y-116646339D01*
X132172266Y-116635461D01*
X132194288Y-116606761D01*
X132224536Y-116567341D01*
X132285044Y-116421262D01*
X132305682Y-116264500D01*
X132285044Y-116107738D01*
X132224536Y-115961659D01*
X132187096Y-115912866D01*
X132128284Y-115836220D01*
X132128279Y-115836215D01*
X132002841Y-115739964D01*
X131873028Y-115686193D01*
X141508125Y-115686193D01*
X141528762Y-115842953D01*
X141528762Y-115842954D01*
X141589271Y-115989034D01*
X141685522Y-116114472D01*
X141685527Y-116114477D01*
X141747131Y-116161747D01*
X141810966Y-116210729D01*
X141957045Y-116271237D01*
X142113807Y-116291875D01*
X142270569Y-116271237D01*
X142416648Y-116210729D01*
X142542089Y-116114475D01*
X142638343Y-115989034D01*
X142698851Y-115842955D01*
X142717705Y-115699737D01*
X142741078Y-115654839D01*
X142787844Y-115635467D01*
X142800725Y-115636029D01*
X142950000Y-115655682D01*
X143106762Y-115635044D01*
X143252841Y-115574536D01*
X143378282Y-115478282D01*
X143474536Y-115352841D01*
X143535044Y-115206762D01*
X143549099Y-115100000D01*
X144644318Y-115100000D01*
X144664955Y-115256760D01*
X144664955Y-115256761D01*
X144725464Y-115402841D01*
X144821715Y-115528279D01*
X144821720Y-115528284D01*
X144905345Y-115592451D01*
X144947159Y-115624536D01*
X145093238Y-115685044D01*
X145250000Y-115705682D01*
X145406762Y-115685044D01*
X145552841Y-115624536D01*
X145678282Y-115528282D01*
X145774536Y-115402841D01*
X145835044Y-115256762D01*
X145855682Y-115100000D01*
X145835044Y-114943238D01*
X145774536Y-114797159D01*
X145678282Y-114671718D01*
X145678279Y-114671715D01*
X145552841Y-114575464D01*
X145406761Y-114514955D01*
X145250000Y-114494318D01*
X145093239Y-114514955D01*
X145093238Y-114514955D01*
X144947158Y-114575464D01*
X144821720Y-114671715D01*
X144821715Y-114671720D01*
X144725464Y-114797158D01*
X144664955Y-114943238D01*
X144664955Y-114943239D01*
X144644318Y-115100000D01*
X143549099Y-115100000D01*
X143555682Y-115050000D01*
X143535044Y-114893238D01*
X143474536Y-114747159D01*
X143397980Y-114647389D01*
X143378284Y-114621720D01*
X143378279Y-114621715D01*
X143252841Y-114525464D01*
X143106761Y-114464955D01*
X142950000Y-114444318D01*
X142793239Y-114464955D01*
X142793238Y-114464955D01*
X142647158Y-114525464D01*
X142521720Y-114621715D01*
X142521715Y-114621720D01*
X142425464Y-114747158D01*
X142364955Y-114893238D01*
X142364955Y-114893239D01*
X142346101Y-115036454D01*
X142322728Y-115081354D01*
X142275962Y-115100725D01*
X142263075Y-115100162D01*
X142113807Y-115080511D01*
X141957046Y-115101148D01*
X141957045Y-115101148D01*
X141810965Y-115161657D01*
X141685527Y-115257908D01*
X141685522Y-115257913D01*
X141589271Y-115383351D01*
X141528762Y-115529431D01*
X141528762Y-115529432D01*
X141508125Y-115686193D01*
X131873028Y-115686193D01*
X131856761Y-115679455D01*
X131700000Y-115658818D01*
X131543239Y-115679455D01*
X131543238Y-115679455D01*
X131397158Y-115739964D01*
X131271720Y-115836215D01*
X131271715Y-115836220D01*
X131175464Y-115961658D01*
X131114955Y-116107738D01*
X131114955Y-116107739D01*
X131094318Y-116264500D01*
X115633531Y-116264500D01*
X115582367Y-116161747D01*
X115582363Y-116161741D01*
X115564929Y-116138655D01*
X115453872Y-115991593D01*
X115296302Y-115847948D01*
X115290439Y-115844318D01*
X115121902Y-115739964D01*
X115115019Y-115735702D01*
X114916198Y-115658679D01*
X114813600Y-115639500D01*
X114706613Y-115619500D01*
X114706610Y-115619500D01*
X114493390Y-115619500D01*
X114493386Y-115619500D01*
X114336669Y-115648796D01*
X114283802Y-115658679D01*
X114283800Y-115658679D01*
X114283798Y-115658680D01*
X114162472Y-115705682D01*
X114084981Y-115735702D01*
X114084976Y-115735704D01*
X114084976Y-115735705D01*
X113903700Y-115847946D01*
X113746130Y-115991590D01*
X113617636Y-116161741D01*
X113617632Y-116161747D01*
X113522596Y-116352606D01*
X113522593Y-116352616D01*
X113464243Y-116557690D01*
X113464242Y-116557696D01*
X113448182Y-116731019D01*
X113428706Y-116772231D01*
X113316359Y-116772231D01*
X113317811Y-116768242D01*
X113319675Y-116767165D01*
X113302922Y-116742976D01*
X113300499Y-116724198D01*
X113300499Y-114275803D01*
X113316358Y-114232231D01*
X113428708Y-114232231D01*
X113444035Y-114250497D01*
X113448182Y-114268978D01*
X113464242Y-114442303D01*
X113464243Y-114442309D01*
X113522593Y-114647383D01*
X113522596Y-114647393D01*
X113617632Y-114838252D01*
X113617634Y-114838255D01*
X113746128Y-115008407D01*
X113903698Y-115152052D01*
X114084981Y-115264298D01*
X114283802Y-115341321D01*
X114493390Y-115380500D01*
X114706610Y-115380500D01*
X114916198Y-115341321D01*
X115115019Y-115264298D01*
X115296302Y-115152052D01*
X115453872Y-115008407D01*
X115582366Y-114838255D01*
X115626311Y-114750000D01*
X124094318Y-114750000D01*
X124114955Y-114906760D01*
X124114955Y-114906761D01*
X124175464Y-115052841D01*
X124271715Y-115178279D01*
X124271720Y-115178284D01*
X124355345Y-115242451D01*
X124397159Y-115274536D01*
X124543238Y-115335044D01*
X124700000Y-115355682D01*
X124856762Y-115335044D01*
X125002841Y-115274536D01*
X125128282Y-115178282D01*
X125224536Y-115052841D01*
X125285044Y-114906762D01*
X125305682Y-114750000D01*
X125285044Y-114593238D01*
X125224536Y-114447159D01*
X125176874Y-114385044D01*
X125128284Y-114321720D01*
X125128279Y-114321715D01*
X125002841Y-114225464D01*
X124856761Y-114164955D01*
X124700000Y-114144318D01*
X124543239Y-114164955D01*
X124543238Y-114164955D01*
X124397158Y-114225464D01*
X124271720Y-114321715D01*
X124271715Y-114321720D01*
X124175464Y-114447158D01*
X124114955Y-114593238D01*
X124114955Y-114593239D01*
X124094318Y-114750000D01*
X115626311Y-114750000D01*
X115677405Y-114647389D01*
X115735756Y-114442310D01*
X115741063Y-114385044D01*
X115755429Y-114230003D01*
X115755429Y-114229996D01*
X115735757Y-114017696D01*
X115735756Y-114017690D01*
X115723739Y-113975455D01*
X115677405Y-113812611D01*
X115671126Y-113800000D01*
X147994318Y-113800000D01*
X148014955Y-113956760D01*
X148014955Y-113956761D01*
X148075464Y-114102841D01*
X148171715Y-114228279D01*
X148171720Y-114228284D01*
X148255345Y-114292451D01*
X148297159Y-114324536D01*
X148443238Y-114385044D01*
X148541082Y-114397925D01*
X148585981Y-114421298D01*
X148605353Y-114468064D01*
X148604790Y-114480950D01*
X148594318Y-114560499D01*
X148614955Y-114717260D01*
X148614955Y-114717261D01*
X148675464Y-114863341D01*
X148744380Y-114953155D01*
X148759602Y-115001431D01*
X148740230Y-115048197D01*
X148713991Y-115066570D01*
X148597158Y-115114964D01*
X148471720Y-115211215D01*
X148471715Y-115211220D01*
X148375464Y-115336658D01*
X148314955Y-115482738D01*
X148314955Y-115482739D01*
X148294318Y-115639500D01*
X148314955Y-115796260D01*
X148314955Y-115796261D01*
X148375464Y-115942341D01*
X148471715Y-116067779D01*
X148471720Y-116067784D01*
X148523790Y-116107738D01*
X148597159Y-116164036D01*
X148743238Y-116224544D01*
X148900000Y-116245182D01*
X149056762Y-116224544D01*
X149202841Y-116164036D01*
X149299840Y-116089605D01*
X149348116Y-116074384D01*
X149394882Y-116093755D01*
X149418255Y-116138655D01*
X149413255Y-116176632D01*
X149364956Y-116293235D01*
X149364955Y-116293239D01*
X149344318Y-116450000D01*
X149364955Y-116606760D01*
X149364955Y-116606761D01*
X149425464Y-116752841D01*
X149521715Y-116878279D01*
X149521720Y-116878284D01*
X149546319Y-116897159D01*
X149647159Y-116974536D01*
X149793238Y-117035044D01*
X149950000Y-117055682D01*
X150106762Y-117035044D01*
X150252841Y-116974536D01*
X150378282Y-116878282D01*
X150474536Y-116752841D01*
X150535044Y-116606762D01*
X150555682Y-116450000D01*
X150535044Y-116293238D01*
X150474536Y-116147159D01*
X150378282Y-116021718D01*
X150378279Y-116021715D01*
X150252841Y-115925464D01*
X150106761Y-115864955D01*
X149950000Y-115844318D01*
X149793239Y-115864955D01*
X149793238Y-115864955D01*
X149647161Y-115925463D01*
X149647159Y-115925464D01*
X149599990Y-115961658D01*
X149550159Y-115999894D01*
X149501883Y-116015115D01*
X149455117Y-115995743D01*
X149431744Y-115950843D01*
X149436743Y-115912869D01*
X149485044Y-115796262D01*
X149505682Y-115639500D01*
X149485044Y-115482738D01*
X149424536Y-115336659D01*
X149393494Y-115296204D01*
X149355619Y-115246844D01*
X149340397Y-115198568D01*
X149359769Y-115151802D01*
X149386007Y-115133430D01*
X149502841Y-115085036D01*
X149628282Y-114988782D01*
X149724536Y-114863341D01*
X149785044Y-114717262D01*
X149805682Y-114560500D01*
X149785044Y-114403738D01*
X149724536Y-114257659D01*
X149692451Y-114215845D01*
X149628284Y-114132220D01*
X149628279Y-114132215D01*
X149502841Y-114035964D01*
X149356761Y-113975455D01*
X149258917Y-113962574D01*
X149214017Y-113939200D01*
X149194646Y-113892435D01*
X149195209Y-113879548D01*
X149205682Y-113800000D01*
X149185044Y-113643238D01*
X149124536Y-113497159D01*
X149028282Y-113371718D01*
X149028279Y-113371715D01*
X148902841Y-113275464D01*
X148756761Y-113214955D01*
X148600000Y-113194318D01*
X148443239Y-113214955D01*
X148443238Y-113214955D01*
X148297158Y-113275464D01*
X148171720Y-113371715D01*
X148171715Y-113371720D01*
X148075464Y-113497158D01*
X148014955Y-113643238D01*
X148014955Y-113643239D01*
X147994318Y-113800000D01*
X115671126Y-113800000D01*
X115582366Y-113621745D01*
X115453872Y-113451593D01*
X115296302Y-113307948D01*
X115115019Y-113195702D01*
X114916198Y-113118679D01*
X114824149Y-113101472D01*
X114706613Y-113079500D01*
X114706610Y-113079500D01*
X114493390Y-113079500D01*
X114493386Y-113079500D01*
X114336670Y-113108796D01*
X114283802Y-113118679D01*
X114283800Y-113118679D01*
X114283798Y-113118680D01*
X114084986Y-113195700D01*
X114084981Y-113195702D01*
X114084976Y-113195704D01*
X114084976Y-113195705D01*
X113903700Y-113307946D01*
X113746130Y-113451590D01*
X113617636Y-113621741D01*
X113617632Y-113621747D01*
X113522596Y-113812606D01*
X113522593Y-113812616D01*
X113464243Y-114017690D01*
X113464242Y-114017696D01*
X113448182Y-114191022D01*
X113428708Y-114232231D01*
X113316358Y-114232231D01*
X113317811Y-114228240D01*
X113319672Y-114227165D01*
X113302922Y-114202980D01*
X113300499Y-114184201D01*
X113300499Y-111735800D01*
X113317811Y-111688237D01*
X113319670Y-111687163D01*
X113302922Y-111662982D01*
X113300499Y-111644203D01*
X113300499Y-110435915D01*
X113317811Y-110388352D01*
X113361648Y-110363042D01*
X113411498Y-110371832D01*
X113418845Y-110376678D01*
X113507911Y-110443353D01*
X113507912Y-110443354D01*
X113642619Y-110493596D01*
X113642624Y-110493597D01*
X113702171Y-110500000D01*
X114091030Y-110500000D01*
X114138596Y-110517313D01*
X114163906Y-110561150D01*
X114155116Y-110611000D01*
X114117761Y-110643003D01*
X114084989Y-110655698D01*
X114084983Y-110655701D01*
X114084981Y-110655702D01*
X114084977Y-110655704D01*
X114084976Y-110655705D01*
X113903700Y-110767946D01*
X113746130Y-110911590D01*
X113617636Y-111081741D01*
X113617632Y-111081747D01*
X113522596Y-111272606D01*
X113522593Y-111272616D01*
X113464243Y-111477690D01*
X113464242Y-111477696D01*
X113448182Y-111651024D01*
X113428709Y-111692229D01*
X113444035Y-111710494D01*
X113448182Y-111728975D01*
X113464242Y-111902303D01*
X113464243Y-111902309D01*
X113522593Y-112107383D01*
X113522596Y-112107393D01*
X113617632Y-112298252D01*
X113617634Y-112298255D01*
X113746128Y-112468407D01*
X113903698Y-112612052D01*
X114084981Y-112724298D01*
X114283802Y-112801321D01*
X114493390Y-112840500D01*
X114706610Y-112840500D01*
X114916198Y-112801321D01*
X115115019Y-112724298D01*
X115296302Y-112612052D01*
X115453872Y-112468407D01*
X115582366Y-112298255D01*
X115631291Y-112200000D01*
X126594318Y-112200000D01*
X126614955Y-112356760D01*
X126614955Y-112356761D01*
X126675464Y-112502841D01*
X126771715Y-112628279D01*
X126771720Y-112628284D01*
X126855345Y-112692451D01*
X126897159Y-112724536D01*
X127043238Y-112785044D01*
X127200000Y-112805682D01*
X127356762Y-112785044D01*
X127502841Y-112724536D01*
X127599978Y-112650000D01*
X130694318Y-112650000D01*
X130714955Y-112806760D01*
X130714955Y-112806761D01*
X130775464Y-112952841D01*
X130871715Y-113078279D01*
X130871720Y-113078284D01*
X130924366Y-113118680D01*
X130997159Y-113174536D01*
X131143238Y-113235044D01*
X131300000Y-113255682D01*
X131456762Y-113235044D01*
X131602841Y-113174536D01*
X131728282Y-113078282D01*
X131824536Y-112952841D01*
X131885044Y-112806762D01*
X131905682Y-112650000D01*
X131885044Y-112493238D01*
X131824536Y-112347159D01*
X131728282Y-112221718D01*
X131728279Y-112221715D01*
X131634817Y-112150000D01*
X139394318Y-112150000D01*
X139414955Y-112306760D01*
X139414955Y-112306761D01*
X139475464Y-112452841D01*
X139571715Y-112578279D01*
X139571720Y-112578284D01*
X139636879Y-112628282D01*
X139697159Y-112674536D01*
X139843238Y-112735044D01*
X140000000Y-112755682D01*
X140156762Y-112735044D01*
X140302841Y-112674536D01*
X140428282Y-112578282D01*
X140524536Y-112452841D01*
X140585044Y-112306762D01*
X140605682Y-112150000D01*
X140585044Y-111993238D01*
X140524536Y-111847159D01*
X140439090Y-111735803D01*
X140428284Y-111721720D01*
X140428279Y-111721715D01*
X140302841Y-111625464D01*
X140156761Y-111564955D01*
X140000000Y-111544318D01*
X139843239Y-111564955D01*
X139843238Y-111564955D01*
X139697158Y-111625464D01*
X139571720Y-111721715D01*
X139571715Y-111721720D01*
X139475464Y-111847158D01*
X139414955Y-111993238D01*
X139414955Y-111993239D01*
X139394318Y-112150000D01*
X131634817Y-112150000D01*
X131602841Y-112125464D01*
X131456761Y-112064955D01*
X131300000Y-112044318D01*
X131143239Y-112064955D01*
X131143238Y-112064955D01*
X130997158Y-112125464D01*
X130871720Y-112221715D01*
X130871715Y-112221720D01*
X130775464Y-112347158D01*
X130714955Y-112493238D01*
X130714955Y-112493239D01*
X130694318Y-112650000D01*
X127599978Y-112650000D01*
X127628282Y-112628282D01*
X127724536Y-112502841D01*
X127785044Y-112356762D01*
X127805682Y-112200000D01*
X127785044Y-112043238D01*
X127724536Y-111897159D01*
X127683161Y-111843238D01*
X127628284Y-111771720D01*
X127628279Y-111771715D01*
X127502841Y-111675464D01*
X127356761Y-111614955D01*
X127200000Y-111594318D01*
X127043239Y-111614955D01*
X127043238Y-111614955D01*
X126897158Y-111675464D01*
X126771720Y-111771715D01*
X126771715Y-111771720D01*
X126675464Y-111897158D01*
X126614955Y-112043238D01*
X126614955Y-112043239D01*
X126594318Y-112200000D01*
X115631291Y-112200000D01*
X115677405Y-112107389D01*
X115735756Y-111902310D01*
X115736234Y-111897159D01*
X115755429Y-111690003D01*
X115755429Y-111689996D01*
X115735757Y-111477696D01*
X115735756Y-111477690D01*
X115712034Y-111394318D01*
X115677405Y-111272611D01*
X115669513Y-111256762D01*
X115591456Y-111100000D01*
X128744318Y-111100000D01*
X128764955Y-111256760D01*
X128764955Y-111256761D01*
X128825464Y-111402841D01*
X128921715Y-111528279D01*
X128921720Y-111528284D01*
X129005345Y-111592451D01*
X129047159Y-111624536D01*
X129193238Y-111685044D01*
X129350000Y-111705682D01*
X129506762Y-111685044D01*
X129652841Y-111624536D01*
X129778282Y-111528282D01*
X129874536Y-111402841D01*
X129875713Y-111400000D01*
X143294318Y-111400000D01*
X143314955Y-111556760D01*
X143314955Y-111556761D01*
X143375464Y-111702841D01*
X143471715Y-111828279D01*
X143471720Y-111828284D01*
X143496319Y-111847159D01*
X143597159Y-111924536D01*
X143743238Y-111985044D01*
X143900000Y-112005682D01*
X144056762Y-111985044D01*
X144096241Y-111968690D01*
X144146809Y-111966483D01*
X144186968Y-111997297D01*
X144197925Y-112027399D01*
X144214955Y-112156760D01*
X144214955Y-112156761D01*
X144275464Y-112302841D01*
X144371715Y-112428279D01*
X144371720Y-112428284D01*
X144455345Y-112492451D01*
X144497159Y-112524536D01*
X144643238Y-112585044D01*
X144800000Y-112605682D01*
X144956762Y-112585044D01*
X145102841Y-112524536D01*
X145228282Y-112428282D01*
X145324536Y-112302841D01*
X145385044Y-112156762D01*
X145405682Y-112000000D01*
X145385044Y-111843238D01*
X145324536Y-111697159D01*
X145228282Y-111571718D01*
X145228279Y-111571715D01*
X145102841Y-111475464D01*
X144956761Y-111414955D01*
X144800000Y-111394318D01*
X144643239Y-111414955D01*
X144643235Y-111414956D01*
X144603759Y-111431308D01*
X144553188Y-111433516D01*
X144513030Y-111402701D01*
X144502074Y-111372601D01*
X144485044Y-111243238D01*
X144424536Y-111097159D01*
X144328282Y-110971718D01*
X144328279Y-110971715D01*
X144202841Y-110875464D01*
X144056761Y-110814955D01*
X143900000Y-110794318D01*
X143743239Y-110814955D01*
X143743238Y-110814955D01*
X143597158Y-110875464D01*
X143471720Y-110971715D01*
X143471715Y-110971720D01*
X143375464Y-111097158D01*
X143314955Y-111243238D01*
X143314955Y-111243239D01*
X143294318Y-111400000D01*
X129875713Y-111400000D01*
X129935044Y-111256762D01*
X129955682Y-111100000D01*
X129935044Y-110943238D01*
X129874536Y-110797159D01*
X129778282Y-110671718D01*
X129778279Y-110671715D01*
X129652841Y-110575464D01*
X129506761Y-110514955D01*
X129350000Y-110494318D01*
X129193239Y-110514955D01*
X129193238Y-110514955D01*
X129047158Y-110575464D01*
X128921720Y-110671715D01*
X128921715Y-110671720D01*
X128825464Y-110797158D01*
X128764955Y-110943238D01*
X128764955Y-110943239D01*
X128744318Y-111100000D01*
X115591456Y-111100000D01*
X115582367Y-111081747D01*
X115582363Y-111081741D01*
X115499278Y-110971720D01*
X115453872Y-110911593D01*
X115296302Y-110767948D01*
X115115019Y-110655702D01*
X115115013Y-110655699D01*
X115115010Y-110655698D01*
X115082239Y-110643003D01*
X115044138Y-110609677D01*
X115036373Y-110559657D01*
X115062577Y-110516348D01*
X115108970Y-110500000D01*
X115497829Y-110500000D01*
X115557375Y-110493597D01*
X115557380Y-110493596D01*
X115692087Y-110443354D01*
X115692088Y-110443353D01*
X115807188Y-110357188D01*
X115893353Y-110242088D01*
X115893354Y-110242087D01*
X115943596Y-110107380D01*
X115943597Y-110107375D01*
X115950000Y-110047828D01*
X115950000Y-109600000D01*
X118144318Y-109600000D01*
X118164955Y-109756760D01*
X118164955Y-109756761D01*
X118225464Y-109902841D01*
X118321715Y-110028279D01*
X118321720Y-110028284D01*
X118405345Y-110092451D01*
X118447159Y-110124536D01*
X118593238Y-110185044D01*
X118750000Y-110205682D01*
X118906762Y-110185044D01*
X119052841Y-110124536D01*
X119178282Y-110028282D01*
X119199983Y-110000000D01*
X121394318Y-110000000D01*
X121414955Y-110156760D01*
X121414955Y-110156761D01*
X121475464Y-110302841D01*
X121571715Y-110428279D01*
X121571720Y-110428284D01*
X121636879Y-110478282D01*
X121697159Y-110524536D01*
X121843238Y-110585044D01*
X122000000Y-110605682D01*
X122156762Y-110585044D01*
X122302841Y-110524536D01*
X122428282Y-110428282D01*
X122524536Y-110302841D01*
X122585044Y-110156762D01*
X122598342Y-110055753D01*
X122611097Y-110031250D01*
X122732394Y-110031250D01*
X122743954Y-110049396D01*
X122745075Y-110055754D01*
X122764955Y-110206760D01*
X122764955Y-110206761D01*
X122825464Y-110352841D01*
X122921715Y-110478279D01*
X122921720Y-110478284D01*
X123001499Y-110539500D01*
X123047159Y-110574536D01*
X123193238Y-110635044D01*
X123350000Y-110655682D01*
X123506762Y-110635044D01*
X123652841Y-110574536D01*
X123778282Y-110478282D01*
X123874536Y-110352841D01*
X123935044Y-110206762D01*
X123955682Y-110050000D01*
X123949099Y-110000000D01*
X127333820Y-110000000D01*
X127354457Y-110156760D01*
X127354457Y-110156761D01*
X127414966Y-110302841D01*
X127511217Y-110428279D01*
X127511222Y-110428284D01*
X127576381Y-110478282D01*
X127636661Y-110524536D01*
X127782740Y-110585044D01*
X127939502Y-110605682D01*
X128096264Y-110585044D01*
X128242343Y-110524536D01*
X128367784Y-110428282D01*
X128464038Y-110302841D01*
X128524546Y-110156762D01*
X128545184Y-110000000D01*
X128524546Y-109843238D01*
X128506636Y-109800000D01*
X130294318Y-109800000D01*
X130314955Y-109956760D01*
X130314955Y-109956761D01*
X130375464Y-110102841D01*
X130471715Y-110228279D01*
X130471720Y-110228284D01*
X130489709Y-110242087D01*
X130597159Y-110324536D01*
X130743238Y-110385044D01*
X130900000Y-110405682D01*
X131056762Y-110385044D01*
X131202841Y-110324536D01*
X131328282Y-110228282D01*
X131424536Y-110102841D01*
X131485044Y-109956762D01*
X131505682Y-109800000D01*
X131485044Y-109643238D01*
X131424536Y-109497159D01*
X131361459Y-109414955D01*
X131328284Y-109371720D01*
X131328279Y-109371715D01*
X131202841Y-109275464D01*
X131056761Y-109214955D01*
X130900000Y-109194318D01*
X130743239Y-109214955D01*
X130743238Y-109214955D01*
X130597158Y-109275464D01*
X130471720Y-109371715D01*
X130471715Y-109371720D01*
X130375464Y-109497158D01*
X130314955Y-109643238D01*
X130314955Y-109643239D01*
X130294318Y-109800000D01*
X128506636Y-109800000D01*
X128464038Y-109697159D01*
X128406148Y-109621715D01*
X128367786Y-109571720D01*
X128367781Y-109571715D01*
X128242343Y-109475464D01*
X128096263Y-109414955D01*
X127960138Y-109397034D01*
X127939502Y-109394318D01*
X127939501Y-109394318D01*
X127782741Y-109414955D01*
X127782740Y-109414955D01*
X127636660Y-109475464D01*
X127511222Y-109571715D01*
X127511217Y-109571720D01*
X127414966Y-109697158D01*
X127354457Y-109843238D01*
X127354457Y-109843239D01*
X127333820Y-110000000D01*
X123949099Y-110000000D01*
X123935044Y-109893238D01*
X123874536Y-109747159D01*
X123823590Y-109680765D01*
X123778284Y-109621720D01*
X123778279Y-109621715D01*
X123652841Y-109525464D01*
X123506761Y-109464955D01*
X123350000Y-109444318D01*
X123193239Y-109464955D01*
X123193238Y-109464955D01*
X123047158Y-109525464D01*
X122921720Y-109621715D01*
X122921715Y-109621720D01*
X122825464Y-109747158D01*
X122764955Y-109893238D01*
X122764955Y-109893239D01*
X122751658Y-109994245D01*
X122732394Y-110031250D01*
X122611097Y-110031250D01*
X122617605Y-110018747D01*
X122606045Y-110000602D01*
X122604924Y-109994245D01*
X122599989Y-109956762D01*
X122585044Y-109843238D01*
X122524536Y-109697159D01*
X122466646Y-109621715D01*
X122428284Y-109571720D01*
X122428279Y-109571715D01*
X122302841Y-109475464D01*
X122156761Y-109414955D01*
X122000000Y-109394318D01*
X121843239Y-109414955D01*
X121843238Y-109414955D01*
X121697158Y-109475464D01*
X121571720Y-109571715D01*
X121571715Y-109571720D01*
X121475464Y-109697158D01*
X121414955Y-109843238D01*
X121414955Y-109843239D01*
X121394318Y-110000000D01*
X119199983Y-110000000D01*
X119274536Y-109902841D01*
X119335044Y-109756762D01*
X119355682Y-109600000D01*
X119335044Y-109443238D01*
X119274536Y-109297159D01*
X119216781Y-109221891D01*
X119178284Y-109171720D01*
X119178279Y-109171715D01*
X119131984Y-109136192D01*
X131558125Y-109136192D01*
X131578762Y-109292953D01*
X131578762Y-109292954D01*
X131639271Y-109439034D01*
X131735522Y-109564472D01*
X131735524Y-109564474D01*
X131735525Y-109564475D01*
X131749179Y-109574952D01*
X131766036Y-109587887D01*
X131793233Y-109630579D01*
X131786626Y-109680765D01*
X131779699Y-109691638D01*
X131775466Y-109697154D01*
X131775464Y-109697157D01*
X131714955Y-109843238D01*
X131714955Y-109843239D01*
X131694318Y-110000000D01*
X131714955Y-110156760D01*
X131714955Y-110156761D01*
X131775464Y-110302841D01*
X131871715Y-110428279D01*
X131871720Y-110428284D01*
X131936879Y-110478282D01*
X131997159Y-110524536D01*
X132143238Y-110585044D01*
X132300000Y-110605682D01*
X132456762Y-110585044D01*
X132602841Y-110524536D01*
X132728282Y-110428282D01*
X132824536Y-110302841D01*
X132885044Y-110156762D01*
X132905682Y-110000000D01*
X132885044Y-109843238D01*
X132867134Y-109800000D01*
X144594318Y-109800000D01*
X144614955Y-109956760D01*
X144614955Y-109956761D01*
X144675464Y-110102841D01*
X144771715Y-110228279D01*
X144771716Y-110228280D01*
X144771718Y-110228282D01*
X144805040Y-110253851D01*
X144832238Y-110296542D01*
X144826223Y-110342224D01*
X144827320Y-110342679D01*
X144825464Y-110347158D01*
X144825464Y-110347159D01*
X144821310Y-110357188D01*
X144764955Y-110493238D01*
X144764955Y-110493239D01*
X144744318Y-110650000D01*
X144764955Y-110806760D01*
X144764955Y-110806761D01*
X144825464Y-110952841D01*
X144921715Y-111078279D01*
X144921720Y-111078284D01*
X145005345Y-111142451D01*
X145047159Y-111174536D01*
X145193238Y-111235044D01*
X145350000Y-111255682D01*
X145506762Y-111235044D01*
X145652841Y-111174536D01*
X145778282Y-111078282D01*
X145874536Y-110952841D01*
X145935044Y-110806762D01*
X145955682Y-110650000D01*
X145935044Y-110493238D01*
X145874536Y-110347159D01*
X145802938Y-110253850D01*
X145778284Y-110221720D01*
X145778279Y-110221715D01*
X145744959Y-110196148D01*
X145717761Y-110153457D01*
X145723774Y-110107775D01*
X145722680Y-110107322D01*
X145754190Y-110031250D01*
X145785044Y-109956762D01*
X145805682Y-109800000D01*
X145785044Y-109643238D01*
X145724536Y-109497159D01*
X145661459Y-109414955D01*
X145628284Y-109371720D01*
X145628279Y-109371715D01*
X145502841Y-109275464D01*
X145356761Y-109214955D01*
X145200000Y-109194318D01*
X145043239Y-109214955D01*
X145043238Y-109214955D01*
X144897158Y-109275464D01*
X144771720Y-109371715D01*
X144771715Y-109371720D01*
X144675464Y-109497158D01*
X144614955Y-109643238D01*
X144614955Y-109643239D01*
X144594318Y-109800000D01*
X132867134Y-109800000D01*
X132824536Y-109697159D01*
X132783161Y-109643238D01*
X132728286Y-109571722D01*
X132728284Y-109571720D01*
X132728282Y-109571719D01*
X132728282Y-109571718D01*
X132697768Y-109548304D01*
X132670572Y-109505613D01*
X132677180Y-109455427D01*
X132684109Y-109444551D01*
X132688343Y-109439034D01*
X132748851Y-109292955D01*
X132769489Y-109136193D01*
X132764724Y-109100000D01*
X136394318Y-109100000D01*
X136414955Y-109256760D01*
X136414955Y-109256761D01*
X136475464Y-109402841D01*
X136571715Y-109528279D01*
X136571720Y-109528284D01*
X136628330Y-109571722D01*
X136697159Y-109624536D01*
X136843238Y-109685044D01*
X137000000Y-109705682D01*
X137156762Y-109685044D01*
X137302841Y-109624536D01*
X137428282Y-109528282D01*
X137524536Y-109402841D01*
X137585044Y-109256762D01*
X137605682Y-109100000D01*
X140244318Y-109100000D01*
X140264955Y-109256760D01*
X140264955Y-109256761D01*
X140325464Y-109402841D01*
X140421715Y-109528279D01*
X140421720Y-109528284D01*
X140478330Y-109571722D01*
X140547159Y-109624536D01*
X140693238Y-109685044D01*
X140850000Y-109705682D01*
X141006762Y-109685044D01*
X141152841Y-109624536D01*
X141278282Y-109528282D01*
X141374536Y-109402841D01*
X141435044Y-109256762D01*
X141455682Y-109100000D01*
X141435044Y-108943238D01*
X141374536Y-108797159D01*
X141342451Y-108755345D01*
X141299984Y-108700000D01*
X149344318Y-108700000D01*
X149364955Y-108856760D01*
X149364955Y-108856761D01*
X149425464Y-109002841D01*
X149521715Y-109128279D01*
X149521720Y-109128284D01*
X149605345Y-109192451D01*
X149647159Y-109224536D01*
X149793238Y-109285044D01*
X149950000Y-109305682D01*
X150106762Y-109285044D01*
X150252841Y-109224536D01*
X150378282Y-109128282D01*
X150474536Y-109002841D01*
X150535044Y-108856762D01*
X150555682Y-108700000D01*
X150535044Y-108543238D01*
X150474536Y-108397159D01*
X150438350Y-108350000D01*
X150378284Y-108271720D01*
X150378279Y-108271715D01*
X150252841Y-108175464D01*
X150106761Y-108114955D01*
X149950000Y-108094318D01*
X149793239Y-108114955D01*
X149793238Y-108114955D01*
X149647158Y-108175464D01*
X149521720Y-108271715D01*
X149521715Y-108271720D01*
X149425464Y-108397158D01*
X149364955Y-108543238D01*
X149364955Y-108543239D01*
X149344318Y-108700000D01*
X141299984Y-108700000D01*
X141278284Y-108671720D01*
X141278279Y-108671715D01*
X141152841Y-108575464D01*
X141006761Y-108514955D01*
X140850000Y-108494318D01*
X140693239Y-108514955D01*
X140693238Y-108514955D01*
X140547158Y-108575464D01*
X140421720Y-108671715D01*
X140421715Y-108671720D01*
X140325464Y-108797158D01*
X140264955Y-108943238D01*
X140264955Y-108943239D01*
X140244318Y-109100000D01*
X137605682Y-109100000D01*
X137585044Y-108943238D01*
X137524536Y-108797159D01*
X137492451Y-108755345D01*
X137428284Y-108671720D01*
X137428279Y-108671715D01*
X137302841Y-108575464D01*
X137156761Y-108514955D01*
X137000000Y-108494318D01*
X136843239Y-108514955D01*
X136843238Y-108514955D01*
X136697158Y-108575464D01*
X136571720Y-108671715D01*
X136571715Y-108671720D01*
X136475464Y-108797158D01*
X136414955Y-108943238D01*
X136414955Y-108943239D01*
X136394318Y-109100000D01*
X132764724Y-109100000D01*
X132748851Y-108979431D01*
X132688343Y-108833352D01*
X132688342Y-108833351D01*
X132688342Y-108833350D01*
X132671751Y-108811729D01*
X132656528Y-108763453D01*
X132671748Y-108721634D01*
X132724536Y-108652841D01*
X132785044Y-108506762D01*
X132805682Y-108350000D01*
X132785044Y-108193238D01*
X132724536Y-108047159D01*
X132692451Y-108005345D01*
X132628284Y-107921720D01*
X132628279Y-107921715D01*
X132599979Y-107900000D01*
X146194318Y-107900000D01*
X146214955Y-108056760D01*
X146214955Y-108056761D01*
X146275464Y-108202841D01*
X146371715Y-108328279D01*
X146371720Y-108328284D01*
X146455345Y-108392451D01*
X146497159Y-108424536D01*
X146643238Y-108485044D01*
X146800000Y-108505682D01*
X146956762Y-108485044D01*
X147102841Y-108424536D01*
X147228282Y-108328282D01*
X147324536Y-108202841D01*
X147385044Y-108056762D01*
X147405682Y-107900000D01*
X147385044Y-107743238D01*
X147324536Y-107597159D01*
X147276874Y-107535044D01*
X147228284Y-107471720D01*
X147228279Y-107471715D01*
X147102841Y-107375464D01*
X146956761Y-107314955D01*
X146800000Y-107294318D01*
X146643239Y-107314955D01*
X146643238Y-107314955D01*
X146497158Y-107375464D01*
X146371720Y-107471715D01*
X146371715Y-107471720D01*
X146275464Y-107597158D01*
X146214955Y-107743238D01*
X146214955Y-107743239D01*
X146194318Y-107900000D01*
X132599979Y-107900000D01*
X132502841Y-107825464D01*
X132356761Y-107764955D01*
X132200000Y-107744318D01*
X132043239Y-107764955D01*
X132043238Y-107764955D01*
X131897158Y-107825464D01*
X131771720Y-107921715D01*
X131771715Y-107921720D01*
X131675464Y-108047158D01*
X131614955Y-108193238D01*
X131614955Y-108193239D01*
X131594318Y-108350000D01*
X131614955Y-108506760D01*
X131614955Y-108506761D01*
X131674287Y-108650000D01*
X131675464Y-108652841D01*
X131692055Y-108674463D01*
X131707277Y-108722739D01*
X131692056Y-108764558D01*
X131639272Y-108833350D01*
X131639271Y-108833350D01*
X131578762Y-108979431D01*
X131578762Y-108979432D01*
X131558125Y-109136192D01*
X119131984Y-109136192D01*
X119052841Y-109075464D01*
X118906761Y-109014955D01*
X118750000Y-108994318D01*
X118593239Y-109014955D01*
X118593238Y-109014955D01*
X118447158Y-109075464D01*
X118321720Y-109171715D01*
X118321715Y-109171720D01*
X118225464Y-109297158D01*
X118164955Y-109443238D01*
X118144318Y-109600000D01*
X115950000Y-109600000D01*
X115950000Y-109400000D01*
X115146554Y-109400000D01*
X115098988Y-109382687D01*
X115073678Y-109338850D01*
X115075552Y-109305151D01*
X115079134Y-109292954D01*
X115084269Y-109275464D01*
X115100000Y-109221891D01*
X115100000Y-109078108D01*
X115075552Y-108994849D01*
X115078762Y-108944332D01*
X115113693Y-108907697D01*
X115146554Y-108900000D01*
X115950000Y-108900000D01*
X115950000Y-108252171D01*
X115943597Y-108192624D01*
X115943596Y-108192619D01*
X115893354Y-108057912D01*
X115893353Y-108057911D01*
X115807188Y-107942811D01*
X115692088Y-107856646D01*
X115692087Y-107856645D01*
X115557380Y-107806403D01*
X115557375Y-107806402D01*
X115497829Y-107800000D01*
X114850000Y-107800000D01*
X114850000Y-108599352D01*
X114832687Y-108646918D01*
X114788850Y-108672228D01*
X114745262Y-108666666D01*
X114742315Y-108665320D01*
X114742313Y-108665319D01*
X114742311Y-108665319D01*
X114635767Y-108650000D01*
X114635763Y-108650000D01*
X114564237Y-108650000D01*
X114564232Y-108650000D01*
X114457688Y-108665319D01*
X114457685Y-108665320D01*
X114454738Y-108666666D01*
X114404278Y-108670675D01*
X114363046Y-108641312D01*
X114350000Y-108599352D01*
X114350000Y-107800000D01*
X113702171Y-107800000D01*
X113642624Y-107806402D01*
X113642619Y-107806403D01*
X113507912Y-107856645D01*
X113507911Y-107856646D01*
X113418845Y-107923321D01*
X113370391Y-107937967D01*
X113323859Y-107918041D01*
X113301021Y-107872866D01*
X113300499Y-107864097D01*
X113300499Y-106288982D01*
X113317811Y-106241419D01*
X113361648Y-106216109D01*
X113411498Y-106224899D01*
X113435115Y-106246540D01*
X113499953Y-106339139D01*
X113660861Y-106500047D01*
X113847266Y-106630568D01*
X114053504Y-106726739D01*
X114053510Y-106726740D01*
X114053511Y-106726741D01*
X114273303Y-106785634D01*
X114273305Y-106785634D01*
X114273308Y-106785635D01*
X114443216Y-106800500D01*
X114443218Y-106800500D01*
X114556782Y-106800500D01*
X114556784Y-106800500D01*
X114726692Y-106785635D01*
X114946496Y-106726739D01*
X115152734Y-106630568D01*
X115339139Y-106500047D01*
X115339186Y-106500000D01*
X115794318Y-106500000D01*
X115814955Y-106656760D01*
X115814955Y-106656761D01*
X115875464Y-106802841D01*
X115971715Y-106928279D01*
X115971720Y-106928284D01*
X116055345Y-106992451D01*
X116097159Y-107024536D01*
X116243238Y-107085044D01*
X116400000Y-107105682D01*
X116556762Y-107085044D01*
X116702841Y-107024536D01*
X116828282Y-106928282D01*
X116924536Y-106802841D01*
X116985044Y-106656762D01*
X117005682Y-106500000D01*
X116985044Y-106343238D01*
X116924536Y-106197159D01*
X116880923Y-106140321D01*
X116828284Y-106071720D01*
X116828279Y-106071715D01*
X116702841Y-105975464D01*
X116556761Y-105914955D01*
X116400000Y-105894318D01*
X116243239Y-105914955D01*
X116243238Y-105914955D01*
X116097158Y-105975464D01*
X115971720Y-106071715D01*
X115971715Y-106071720D01*
X115875464Y-106197158D01*
X115814955Y-106343238D01*
X115814955Y-106343239D01*
X115794318Y-106500000D01*
X115339186Y-106500000D01*
X115500047Y-106339139D01*
X115630568Y-106152734D01*
X115726739Y-105946496D01*
X115785635Y-105726692D01*
X115805468Y-105500000D01*
X115805468Y-105499994D01*
X115785635Y-105273311D01*
X115785634Y-105273303D01*
X115726741Y-105053511D01*
X115726740Y-105053510D01*
X115726739Y-105053504D01*
X115630568Y-104847266D01*
X115500047Y-104660861D01*
X115339139Y-104499953D01*
X115246543Y-104435117D01*
X115217510Y-104393653D01*
X115221921Y-104343226D01*
X115257714Y-104307433D01*
X115288988Y-104300500D01*
X117247902Y-104300500D01*
X117295468Y-104317813D01*
G37*
G04 #@! TD.AperFunction*
G04 #@! TA.AperFunction,Conductor*
G36*
X158758578Y-104317813D02*
G01*
X158783888Y-104361650D01*
X158775098Y-104411500D01*
X158753457Y-104435117D01*
X158660860Y-104499953D01*
X158499953Y-104660860D01*
X158369435Y-104847260D01*
X158369432Y-104847265D01*
X158369432Y-104847266D01*
X158275267Y-105049202D01*
X158273263Y-105053500D01*
X158273258Y-105053511D01*
X158214365Y-105273303D01*
X158214364Y-105273311D01*
X158194532Y-105499994D01*
X158194532Y-105500005D01*
X158214364Y-105726688D01*
X158214365Y-105726696D01*
X158273258Y-105946488D01*
X158273260Y-105946492D01*
X158273261Y-105946496D01*
X158369432Y-106152734D01*
X158369434Y-106152736D01*
X158369435Y-106152739D01*
X158473985Y-106302052D01*
X158499953Y-106339139D01*
X158660861Y-106500047D01*
X158847266Y-106630568D01*
X159053504Y-106726739D01*
X159053510Y-106726740D01*
X159053511Y-106726741D01*
X159273303Y-106785634D01*
X159273305Y-106785634D01*
X159273308Y-106785635D01*
X159443216Y-106800500D01*
X159443218Y-106800500D01*
X159556782Y-106800500D01*
X159556784Y-106800500D01*
X159726692Y-106785635D01*
X159946496Y-106726739D01*
X160152734Y-106630568D01*
X160339139Y-106500047D01*
X160500047Y-106339139D01*
X160564883Y-106246541D01*
X160606347Y-106217509D01*
X160656773Y-106221920D01*
X160692567Y-106257713D01*
X160699500Y-106288987D01*
X160699500Y-109051527D01*
X160682187Y-109099093D01*
X160638350Y-109124403D01*
X160588500Y-109115613D01*
X160557898Y-109081626D01*
X160509184Y-108972214D01*
X160509181Y-108972209D01*
X160397922Y-108819074D01*
X160257248Y-108692410D01*
X160257245Y-108692407D01*
X160125467Y-108616326D01*
X160093316Y-108597764D01*
X160093314Y-108597763D01*
X160093312Y-108597762D01*
X159913293Y-108539270D01*
X159913290Y-108539269D01*
X159913288Y-108539269D01*
X159772224Y-108524443D01*
X159772223Y-108524443D01*
X159771947Y-108524414D01*
X159726451Y-108502224D01*
X159705862Y-108455981D01*
X159705682Y-108450819D01*
X159705682Y-108450000D01*
X159685044Y-108293239D01*
X159685044Y-108293238D01*
X159685044Y-108293237D01*
X159624536Y-108147159D01*
X159528282Y-108021718D01*
X159528279Y-108021715D01*
X159402841Y-107925464D01*
X159256761Y-107864955D01*
X159100000Y-107844318D01*
X158943239Y-107864955D01*
X158943238Y-107864955D01*
X158797158Y-107925464D01*
X158671720Y-108021715D01*
X158671715Y-108021720D01*
X158575464Y-108147158D01*
X158514955Y-108293238D01*
X158514955Y-108293239D01*
X158494318Y-108450000D01*
X158494318Y-108454851D01*
X158491981Y-108454851D01*
X158482866Y-108495859D01*
X158442690Y-108526652D01*
X158428212Y-108529658D01*
X158336776Y-108539269D01*
X158336774Y-108539269D01*
X158336770Y-108539270D01*
X158156751Y-108597762D01*
X157992818Y-108692407D01*
X157992815Y-108692410D01*
X157852141Y-108819074D01*
X157740882Y-108972209D01*
X157740879Y-108972214D01*
X157663888Y-109145138D01*
X157663887Y-109145140D01*
X157624532Y-109330297D01*
X157624532Y-109519588D01*
X157663887Y-109704745D01*
X157663888Y-109704747D01*
X157740879Y-109877671D01*
X157740882Y-109877676D01*
X157852141Y-110030811D01*
X157992815Y-110157475D01*
X157992818Y-110157478D01*
X158080669Y-110208198D01*
X158156748Y-110252122D01*
X158336776Y-110310617D01*
X158477840Y-110325443D01*
X158477845Y-110325443D01*
X159772219Y-110325443D01*
X159772224Y-110325443D01*
X159913288Y-110310617D01*
X160093316Y-110252122D01*
X160257248Y-110157476D01*
X160397920Y-110030814D01*
X160509183Y-109877673D01*
X160557897Y-109768259D01*
X160593061Y-109731847D01*
X160643402Y-109726556D01*
X160685367Y-109754862D01*
X160699500Y-109798358D01*
X160699500Y-116201641D01*
X160682187Y-116249207D01*
X160638350Y-116274517D01*
X160588500Y-116265727D01*
X160557898Y-116231740D01*
X160509184Y-116122328D01*
X160509181Y-116122323D01*
X160397922Y-115969188D01*
X160257248Y-115842524D01*
X160257245Y-115842521D01*
X160125467Y-115766440D01*
X160093316Y-115747878D01*
X160093314Y-115747877D01*
X160093312Y-115747876D01*
X159913293Y-115689384D01*
X159913290Y-115689383D01*
X159913288Y-115689383D01*
X159772224Y-115674557D01*
X158477840Y-115674557D01*
X158336776Y-115689383D01*
X158336774Y-115689383D01*
X158336770Y-115689384D01*
X158156751Y-115747876D01*
X157992818Y-115842521D01*
X157992815Y-115842524D01*
X157852141Y-115969188D01*
X157740882Y-116122323D01*
X157740879Y-116122328D01*
X157663888Y-116295252D01*
X157663887Y-116295254D01*
X157624532Y-116480411D01*
X157624532Y-116669702D01*
X157663887Y-116854859D01*
X157663888Y-116854861D01*
X157740879Y-117027785D01*
X157740882Y-117027790D01*
X157852141Y-117180925D01*
X157852143Y-117180927D01*
X157852144Y-117180928D01*
X157982011Y-117297861D01*
X157992815Y-117307589D01*
X157992818Y-117307592D01*
X158080669Y-117358312D01*
X158156748Y-117402236D01*
X158336776Y-117460731D01*
X158434707Y-117471023D01*
X158480201Y-117493212D01*
X158500790Y-117539454D01*
X158500337Y-117554275D01*
X158494318Y-117599999D01*
X158514955Y-117756760D01*
X158514955Y-117756761D01*
X158575464Y-117902841D01*
X158671715Y-118028279D01*
X158671720Y-118028284D01*
X158755345Y-118092451D01*
X158797159Y-118124536D01*
X158943238Y-118185044D01*
X159100000Y-118205682D01*
X159256762Y-118185044D01*
X159402841Y-118124536D01*
X159528282Y-118028282D01*
X159624536Y-117902841D01*
X159685044Y-117756762D01*
X159705682Y-117600000D01*
X159700313Y-117559215D01*
X159711269Y-117509796D01*
X159751428Y-117478982D01*
X159770307Y-117476076D01*
X159770286Y-117475659D01*
X159772207Y-117475558D01*
X159772217Y-117475557D01*
X159772224Y-117475557D01*
X159913288Y-117460731D01*
X160093316Y-117402236D01*
X160257248Y-117307590D01*
X160397920Y-117180928D01*
X160509183Y-117027787D01*
X160557897Y-116918373D01*
X160593061Y-116881961D01*
X160643402Y-116876670D01*
X160685367Y-116904976D01*
X160699500Y-116948472D01*
X160699500Y-119711012D01*
X160682187Y-119758578D01*
X160638350Y-119783888D01*
X160588500Y-119775098D01*
X160564883Y-119753457D01*
X160500046Y-119660860D01*
X160339139Y-119499953D01*
X160152739Y-119369435D01*
X160152736Y-119369434D01*
X160152734Y-119369432D01*
X159946496Y-119273261D01*
X159946492Y-119273260D01*
X159946488Y-119273258D01*
X159726696Y-119214365D01*
X159726689Y-119214364D01*
X159589362Y-119202350D01*
X159556784Y-119199500D01*
X159443216Y-119199500D01*
X159413487Y-119202100D01*
X159273310Y-119214364D01*
X159273303Y-119214365D01*
X159053511Y-119273258D01*
X159053500Y-119273263D01*
X158847260Y-119369435D01*
X158660860Y-119499953D01*
X158499953Y-119660860D01*
X158369435Y-119847260D01*
X158273263Y-120053500D01*
X158273258Y-120053511D01*
X158214365Y-120273303D01*
X158214364Y-120273311D01*
X158194532Y-120499994D01*
X158194532Y-120500005D01*
X158214364Y-120726688D01*
X158214365Y-120726696D01*
X158273258Y-120946488D01*
X158273260Y-120946492D01*
X158273261Y-120946496D01*
X158369432Y-121152734D01*
X158369434Y-121152736D01*
X158369435Y-121152739D01*
X158499953Y-121339139D01*
X158660860Y-121500046D01*
X158753457Y-121564883D01*
X158782490Y-121606347D01*
X158778079Y-121656774D01*
X158742286Y-121692567D01*
X158711012Y-121699500D01*
X157231891Y-121699500D01*
X157184325Y-121682187D01*
X157159015Y-121638350D01*
X157164196Y-121595610D01*
X157178778Y-121562584D01*
X157197585Y-121519991D01*
X157200500Y-121494865D01*
X157200499Y-119705136D01*
X157197585Y-119680009D01*
X157152206Y-119577235D01*
X157072765Y-119497794D01*
X156969991Y-119452415D01*
X156969990Y-119452414D01*
X156969988Y-119452414D01*
X156948659Y-119449940D01*
X156944865Y-119449500D01*
X156944864Y-119449500D01*
X155155136Y-119449500D01*
X155130013Y-119452414D01*
X155130007Y-119452415D01*
X155027234Y-119497794D01*
X154947794Y-119577234D01*
X154902414Y-119680011D01*
X154899500Y-119705135D01*
X154899500Y-121494863D01*
X154902414Y-121519986D01*
X154902415Y-121519992D01*
X154935804Y-121595610D01*
X154939179Y-121646116D01*
X154909300Y-121686976D01*
X154868109Y-121699500D01*
X154179797Y-121699500D01*
X154132231Y-121682187D01*
X154106921Y-121638350D01*
X154115711Y-121588500D01*
X154140841Y-121562584D01*
X154150573Y-121556557D01*
X154206302Y-121522052D01*
X154363872Y-121378407D01*
X154492366Y-121208255D01*
X154587405Y-121017389D01*
X154645756Y-120812310D01*
X154665429Y-120600000D01*
X154665429Y-120599996D01*
X154645757Y-120387696D01*
X154645756Y-120387690D01*
X154613211Y-120273308D01*
X154587405Y-120182611D01*
X154523121Y-120053511D01*
X154492367Y-119991747D01*
X154492363Y-119991741D01*
X154488842Y-119987079D01*
X154363872Y-119821593D01*
X154206302Y-119677948D01*
X154025019Y-119565702D01*
X153826198Y-119488679D01*
X153734149Y-119471472D01*
X153616613Y-119449500D01*
X153616610Y-119449500D01*
X153403390Y-119449500D01*
X153403386Y-119449500D01*
X153246669Y-119478796D01*
X153193802Y-119488679D01*
X153193800Y-119488679D01*
X153193798Y-119488680D01*
X153017663Y-119556915D01*
X152994981Y-119565702D01*
X152994976Y-119565704D01*
X152994976Y-119565705D01*
X152813700Y-119677946D01*
X152656130Y-119821590D01*
X152527636Y-119991741D01*
X152527632Y-119991747D01*
X152432596Y-120182606D01*
X152432593Y-120182616D01*
X152374243Y-120387690D01*
X152374242Y-120387696D01*
X152354571Y-120599996D01*
X152354571Y-120600003D01*
X152374242Y-120812303D01*
X152374243Y-120812309D01*
X152432593Y-121017383D01*
X152432596Y-121017393D01*
X152527632Y-121208252D01*
X152527634Y-121208255D01*
X152656128Y-121378407D01*
X152813698Y-121522052D01*
X152813700Y-121522053D01*
X152879159Y-121562584D01*
X152910487Y-121602344D01*
X152908928Y-121652939D01*
X152875212Y-121690695D01*
X152840203Y-121699500D01*
X151639797Y-121699500D01*
X151592231Y-121682187D01*
X151566921Y-121638350D01*
X151575711Y-121588500D01*
X151600841Y-121562584D01*
X151610573Y-121556557D01*
X151666302Y-121522052D01*
X151823872Y-121378407D01*
X151952366Y-121208255D01*
X152047405Y-121017389D01*
X152105756Y-120812310D01*
X152125429Y-120600000D01*
X152125429Y-120599996D01*
X152105757Y-120387696D01*
X152105756Y-120387690D01*
X152073211Y-120273308D01*
X152047405Y-120182611D01*
X151983121Y-120053511D01*
X151952367Y-119991747D01*
X151952363Y-119991741D01*
X151948843Y-119987079D01*
X151823872Y-119821593D01*
X151666302Y-119677948D01*
X151638706Y-119660861D01*
X151535044Y-119596675D01*
X151503716Y-119556915D01*
X151500000Y-119533759D01*
X151500000Y-116717249D01*
X154054818Y-116717249D01*
X154075455Y-116874009D01*
X154075455Y-116874010D01*
X154135964Y-117020090D01*
X154232215Y-117145528D01*
X154232220Y-117145533D01*
X154278344Y-117180925D01*
X154357659Y-117241785D01*
X154410480Y-117263664D01*
X154447800Y-117297861D01*
X154454408Y-117348047D01*
X154440872Y-117377077D01*
X154425464Y-117397157D01*
X154364955Y-117543238D01*
X154364955Y-117543239D01*
X154344318Y-117700000D01*
X154364955Y-117856760D01*
X154364955Y-117856761D01*
X154425464Y-118002841D01*
X154521715Y-118128279D01*
X154521720Y-118128284D01*
X154595692Y-118185044D01*
X154647159Y-118224536D01*
X154793238Y-118285044D01*
X154950000Y-118305682D01*
X155106762Y-118285044D01*
X155252841Y-118224536D01*
X155378282Y-118128282D01*
X155474536Y-118002841D01*
X155535044Y-117856762D01*
X155555682Y-117700000D01*
X155535044Y-117543238D01*
X155474536Y-117397159D01*
X155405809Y-117307592D01*
X155378284Y-117271720D01*
X155378279Y-117271715D01*
X155252841Y-117175464D01*
X155200018Y-117153583D01*
X155162698Y-117119385D01*
X155156091Y-117069198D01*
X155169629Y-117040167D01*
X155185036Y-117020090D01*
X155245544Y-116874011D01*
X155266182Y-116717249D01*
X155245544Y-116560487D01*
X155185036Y-116414408D01*
X155185035Y-116414407D01*
X155185035Y-116414406D01*
X155182452Y-116411040D01*
X155167229Y-116362764D01*
X155186600Y-116315998D01*
X155231499Y-116292624D01*
X155250814Y-116292624D01*
X155350000Y-116305682D01*
X155506762Y-116285044D01*
X155652841Y-116224536D01*
X155778282Y-116128282D01*
X155874536Y-116002841D01*
X155935044Y-115856762D01*
X155955682Y-115700000D01*
X155935044Y-115543238D01*
X155874536Y-115397159D01*
X155778282Y-115271718D01*
X155778279Y-115271715D01*
X155652841Y-115175464D01*
X155506761Y-115114955D01*
X155350000Y-115094318D01*
X155193239Y-115114955D01*
X155193238Y-115114955D01*
X155047158Y-115175464D01*
X154921720Y-115271715D01*
X154921715Y-115271720D01*
X154825464Y-115397158D01*
X154764955Y-115543238D01*
X154764955Y-115543239D01*
X154744318Y-115700000D01*
X154764955Y-115856760D01*
X154764955Y-115856761D01*
X154825464Y-116002841D01*
X154828048Y-116006209D01*
X154843270Y-116054485D01*
X154823898Y-116101251D01*
X154778999Y-116124624D01*
X154759681Y-116124624D01*
X154660500Y-116111567D01*
X154503739Y-116132204D01*
X154503738Y-116132204D01*
X154357658Y-116192713D01*
X154232220Y-116288964D01*
X154232215Y-116288969D01*
X154135964Y-116414407D01*
X154075455Y-116560487D01*
X154075455Y-116560488D01*
X154054818Y-116717249D01*
X151500000Y-116717249D01*
X151500000Y-115776791D01*
X151517152Y-115729417D01*
X152065030Y-115071964D01*
X156483815Y-115071964D01*
X156524361Y-115210050D01*
X156524362Y-115210054D01*
X156563990Y-115271715D01*
X156602172Y-115331128D01*
X156710942Y-115425377D01*
X156841858Y-115485165D01*
X156948516Y-115500500D01*
X156948522Y-115500500D01*
X157020108Y-115500500D01*
X157020114Y-115500500D01*
X157126772Y-115485165D01*
X157257688Y-115425377D01*
X157366458Y-115331128D01*
X157444268Y-115210053D01*
X157484814Y-115071963D01*
X157484815Y-115071963D01*
X157484815Y-114928036D01*
X157484814Y-114928035D01*
X157475526Y-114896403D01*
X157444268Y-114789947D01*
X157366458Y-114668872D01*
X157366455Y-114668869D01*
X157366454Y-114668868D01*
X157257688Y-114574623D01*
X157126772Y-114514835D01*
X157126770Y-114514834D01*
X157126769Y-114514834D01*
X157020118Y-114499500D01*
X157020114Y-114499500D01*
X156948516Y-114499500D01*
X156948511Y-114499500D01*
X156841860Y-114514834D01*
X156710941Y-114574623D01*
X156602175Y-114668868D01*
X156602170Y-114668875D01*
X156524362Y-114789945D01*
X156524361Y-114789949D01*
X156483815Y-114928035D01*
X156483815Y-115071964D01*
X152065030Y-115071964D01*
X152750000Y-114250000D01*
X152750000Y-109800000D01*
X154844318Y-109800000D01*
X154864955Y-109956760D01*
X154864955Y-109956761D01*
X154925464Y-110102841D01*
X155021715Y-110228279D01*
X155021720Y-110228284D01*
X155052787Y-110252122D01*
X155147159Y-110324536D01*
X155293238Y-110385044D01*
X155378771Y-110396304D01*
X155423670Y-110419677D01*
X155443042Y-110466443D01*
X155427821Y-110514719D01*
X155421953Y-110521410D01*
X155325464Y-110647158D01*
X155264955Y-110793238D01*
X155264955Y-110793239D01*
X155244318Y-110950000D01*
X155264955Y-111106760D01*
X155264955Y-111106761D01*
X155325464Y-111252841D01*
X155421715Y-111378279D01*
X155421720Y-111378284D01*
X155505345Y-111442451D01*
X155547159Y-111474536D01*
X155693238Y-111535044D01*
X155850000Y-111555682D01*
X156006762Y-111535044D01*
X156152841Y-111474536D01*
X156278282Y-111378282D01*
X156374536Y-111252841D01*
X156390031Y-111215431D01*
X156424229Y-111178110D01*
X156474415Y-111171503D01*
X156517107Y-111198700D01*
X156521324Y-111205714D01*
X156521501Y-111205601D01*
X156524361Y-111210052D01*
X156524362Y-111210053D01*
X156602172Y-111331128D01*
X156602174Y-111331129D01*
X156602175Y-111331131D01*
X156656591Y-111378282D01*
X156710942Y-111425377D01*
X156841858Y-111485165D01*
X156948516Y-111500500D01*
X156948522Y-111500500D01*
X157020108Y-111500500D01*
X157020114Y-111500500D01*
X157126772Y-111485165D01*
X157257688Y-111425377D01*
X157366458Y-111331128D01*
X157444268Y-111210053D01*
X157484814Y-111071963D01*
X157484815Y-111071963D01*
X157484815Y-110928036D01*
X157484814Y-110928035D01*
X157475526Y-110896403D01*
X157444268Y-110789947D01*
X157442627Y-110787394D01*
X157415414Y-110745049D01*
X157366458Y-110668872D01*
X157366455Y-110668869D01*
X157366454Y-110668868D01*
X157257688Y-110574623D01*
X157126772Y-110514835D01*
X157126770Y-110514834D01*
X157126769Y-110514834D01*
X157020118Y-110499500D01*
X157020114Y-110499500D01*
X156948516Y-110499500D01*
X156948511Y-110499500D01*
X156841860Y-110514834D01*
X156710941Y-110574623D01*
X156602175Y-110668868D01*
X156602168Y-110668877D01*
X156545702Y-110756739D01*
X156505421Y-110787394D01*
X156454860Y-110784985D01*
X156417676Y-110750639D01*
X156415083Y-110745049D01*
X156374536Y-110647159D01*
X156278284Y-110521720D01*
X156278279Y-110521715D01*
X156152841Y-110425464D01*
X156006761Y-110364955D01*
X155921228Y-110353695D01*
X155876328Y-110330322D01*
X155856957Y-110283556D01*
X155872179Y-110235280D01*
X155878046Y-110228589D01*
X155878284Y-110228279D01*
X155974536Y-110102841D01*
X156035044Y-109956762D01*
X156055682Y-109800000D01*
X156035044Y-109643238D01*
X155974536Y-109497159D01*
X155878282Y-109371718D01*
X155878279Y-109371715D01*
X155752841Y-109275464D01*
X155606761Y-109214955D01*
X155450000Y-109194318D01*
X155293239Y-109214955D01*
X155293238Y-109214955D01*
X155147158Y-109275464D01*
X155021720Y-109371715D01*
X155021715Y-109371720D01*
X154925464Y-109497158D01*
X154864955Y-109643238D01*
X154864955Y-109643239D01*
X154844318Y-109800000D01*
X152750000Y-109800000D01*
X152750000Y-106395467D01*
X152767313Y-106347901D01*
X152811150Y-106322591D01*
X152861000Y-106331381D01*
X152862939Y-106332541D01*
X152994981Y-106414298D01*
X153193802Y-106491321D01*
X153403390Y-106530500D01*
X153616610Y-106530500D01*
X153826198Y-106491321D01*
X154025019Y-106414298D01*
X154206302Y-106302052D01*
X154363872Y-106158407D01*
X154492366Y-105988255D01*
X154559758Y-105852911D01*
X154596457Y-105818049D01*
X154646980Y-105814932D01*
X154687686Y-105845021D01*
X154700000Y-105885896D01*
X154700000Y-106277828D01*
X154706402Y-106337375D01*
X154706403Y-106337380D01*
X154756645Y-106472087D01*
X154756646Y-106472088D01*
X154842811Y-106587188D01*
X154957911Y-106673353D01*
X154957912Y-106673354D01*
X155092619Y-106723596D01*
X155092624Y-106723597D01*
X155152171Y-106730000D01*
X155800000Y-106730000D01*
X155800000Y-105930648D01*
X155817313Y-105883082D01*
X155861150Y-105857772D01*
X155904739Y-105863334D01*
X155907685Y-105864680D01*
X156014237Y-105880000D01*
X156014243Y-105880000D01*
X156085757Y-105880000D01*
X156085763Y-105880000D01*
X156192315Y-105864680D01*
X156195260Y-105863334D01*
X156245719Y-105859324D01*
X156286952Y-105888685D01*
X156300000Y-105930648D01*
X156300000Y-106730000D01*
X156947829Y-106730000D01*
X157007375Y-106723597D01*
X157007380Y-106723596D01*
X157142087Y-106673354D01*
X157142088Y-106673353D01*
X157257188Y-106587188D01*
X157343353Y-106472088D01*
X157343354Y-106472087D01*
X157393596Y-106337380D01*
X157393597Y-106337375D01*
X157400000Y-106277828D01*
X157400000Y-105630000D01*
X156596554Y-105630000D01*
X156548988Y-105612687D01*
X156523678Y-105568850D01*
X156525552Y-105535151D01*
X156550000Y-105451891D01*
X156550000Y-105308108D01*
X156525552Y-105224849D01*
X156528762Y-105174332D01*
X156563693Y-105137697D01*
X156596554Y-105130000D01*
X157399999Y-105130000D01*
X157400000Y-104482171D01*
X157393597Y-104422624D01*
X157393597Y-104422622D01*
X157385294Y-104400361D01*
X157384892Y-104349744D01*
X157417120Y-104310710D01*
X157454628Y-104300500D01*
X158711012Y-104300500D01*
X158758578Y-104317813D01*
G37*
G04 #@! TD.AperFunction*
M02*
