M48
; DRILL file {KiCad 7.0.7} date Wed 06 Sep 2023 03:41:04 PM EDT
; FORMAT={-:-/ absolute / metric / decimal}
; #@! TF.CreationDate,2023-09-06T15:41:04-04:00
; #@! TF.GenerationSoftware,Kicad,Pcbnew,7.0.7
; #@! TF.FileFunction,Plated,1,4,PTH
FMAT,2
METRIC
; #@! TA.AperFunction,Plated,PTH,ViaDrill
T1C0.300
; #@! TA.AperFunction,Plated,PTH,ComponentDrill
T2C0.600
; #@! TA.AperFunction,Plated,PTH,ComponentDrill
T3C1.000
%
G90
G05
T1
X116.4Y-106.5
X118.75Y-109.6
X122.0Y-110.0
X123.35Y-110.05
X124.3Y-106.5
X124.7Y-114.75
X126.85Y-117.65
X127.2Y-112.2
X127.7Y-113.25
X127.94Y-110.0
X129.35Y-111.1
X129.4Y-113.25
X129.55Y-112.2
X130.25Y-110.55
X130.9Y-109.8
X131.3Y-112.65
X131.7Y-116.264
X131.8Y-117.2
X132.164Y-109.136
X132.2Y-108.35
X132.3Y-110.0
X137.0Y-109.1
X140.0Y-112.15
X140.85Y-109.1
X142.114Y-115.686
X142.15Y-106.95
X142.95Y-115.05
X143.9Y-111.4
X144.8Y-112.0
X145.2Y-109.8
X145.25Y-115.1
X145.35Y-110.65
X146.6Y-116.6
X146.8Y-107.9
X147.2Y-115.1
X147.3Y-117.6
X148.6Y-113.8
X148.9Y-115.639
X149.0Y-117.985
X149.15Y-116.65
X149.2Y-114.56
X149.5Y-107.2
X149.95Y-108.7
X149.95Y-116.45
X152.65Y-115.05
X154.1Y-115.1
X154.66Y-116.717
X154.95Y-117.7
X155.35Y-115.7
X155.45Y-109.8
X155.45Y-114.3
X155.85Y-110.95
X157.65Y-114.3
X159.1Y-108.45
X159.1Y-117.6
T3
X114.6Y-109.15
X114.6Y-111.69
X114.6Y-114.23
X114.6Y-116.77
X117.95Y-105.38
X117.95Y-120.6
X120.49Y-105.38
X120.49Y-120.6
X123.03Y-105.38
X123.03Y-120.6
X125.57Y-105.38
X125.57Y-120.6
X128.11Y-105.38
X128.11Y-120.6
X130.65Y-105.38
X130.65Y-120.6
X133.19Y-105.38
X133.19Y-120.6
X135.73Y-105.38
X135.73Y-120.6
X138.27Y-105.38
X138.27Y-120.6
X140.81Y-105.38
X140.81Y-120.6
X143.35Y-105.38
X143.35Y-120.6
X145.89Y-105.38
X145.89Y-120.6
X148.43Y-105.38
X148.43Y-120.6
X150.97Y-105.38
X150.97Y-120.6
X153.51Y-105.38
X153.51Y-120.6
X156.05Y-105.38
X156.05Y-120.6
T2
X158.525Y-109.425G85X159.725Y-109.425
G05
X158.525Y-116.575G85X159.725Y-116.575
G05
T0
M30
