G04 #@! TF.GenerationSoftware,KiCad,Pcbnew,7.0.7*
G04 #@! TF.CreationDate,2023-09-06T15:40:30-04:00*
G04 #@! TF.ProjectId,stm8l151k6t6_board,73746d38-6c31-4353-916b-3674365f626f,rev?*
G04 #@! TF.SameCoordinates,Original*
G04 #@! TF.FileFunction,Copper,L2,Inr*
G04 #@! TF.FilePolarity,Positive*
%FSLAX46Y46*%
G04 Gerber Fmt 4.6, Leading zero omitted, Abs format (unit mm)*
G04 Created by KiCad (PCBNEW 7.0.7) date 2023-09-06 15:40:30*
%MOMM*%
%LPD*%
G01*
G04 APERTURE LIST*
G04 #@! TA.AperFunction,ComponentPad*
%ADD10O,2.400000X1.200000*%
G04 #@! TD*
G04 #@! TA.AperFunction,ComponentPad*
%ADD11R,1.700000X1.700000*%
G04 #@! TD*
G04 #@! TA.AperFunction,ComponentPad*
%ADD12O,1.700000X1.700000*%
G04 #@! TD*
G04 #@! TA.AperFunction,ViaPad*
%ADD13C,0.600000*%
G04 #@! TD*
G04 APERTURE END LIST*
D10*
X159125032Y-116575057D03*
X159125032Y-109424943D03*
D11*
X114600000Y-109150000D03*
D12*
X114600000Y-111690000D03*
X114600000Y-114230000D03*
X114600000Y-116770000D03*
D11*
X156050000Y-120600000D03*
D12*
X153510000Y-120600000D03*
X150970000Y-120600000D03*
X148430000Y-120600000D03*
X145890000Y-120600000D03*
X143350000Y-120600000D03*
X140810000Y-120600000D03*
X138270000Y-120600000D03*
X135730000Y-120600000D03*
X133190000Y-120600000D03*
X130650000Y-120600000D03*
X128110000Y-120600000D03*
X125570000Y-120600000D03*
X123030000Y-120600000D03*
X120490000Y-120600000D03*
X117950000Y-120600000D03*
D11*
X156050000Y-105380000D03*
D12*
X153510000Y-105380000D03*
X150970000Y-105380000D03*
X148430000Y-105380000D03*
X145890000Y-105380000D03*
X143350000Y-105380000D03*
X140810000Y-105380000D03*
X138270000Y-105380000D03*
X135730000Y-105380000D03*
X133190000Y-105380000D03*
X130650000Y-105380000D03*
X128110000Y-105380000D03*
X125570000Y-105380000D03*
X123030000Y-105380000D03*
X120490000Y-105380000D03*
X117950000Y-105380000D03*
D13*
X157650000Y-114300000D03*
X155450000Y-114300000D03*
X154100000Y-115100000D03*
X152650000Y-115050000D03*
X130250000Y-110550000D03*
X129550000Y-112200000D03*
X127700000Y-113250000D03*
X129400000Y-113250000D03*
X149150000Y-116650000D03*
X149500000Y-107200000D03*
X149000000Y-117985500D03*
X147300000Y-117600000D03*
X146600000Y-116600000D03*
X147200000Y-115100000D03*
X148600000Y-113800000D03*
X118750000Y-109600000D03*
X146800000Y-107900000D03*
X145200000Y-109800000D03*
X155850000Y-110950000D03*
X149200000Y-114560500D03*
X149950000Y-116450000D03*
X148900000Y-115639500D03*
X155350000Y-115700000D03*
X154950000Y-117700000D03*
X127939502Y-110000000D03*
X127200000Y-112200000D03*
X122000000Y-110000000D03*
X123350000Y-110050000D03*
X131700000Y-116264500D03*
X131300000Y-112650000D03*
X124700000Y-114750000D03*
X145250000Y-115100000D03*
X159100000Y-117600000D03*
X145350000Y-110650000D03*
X155450000Y-109800000D03*
X159100000Y-108450000D03*
X149950000Y-108700000D03*
X129350000Y-111100000D03*
X142150000Y-106950000D03*
X154660500Y-116717249D03*
X130900000Y-109800000D03*
X132200000Y-108350000D03*
X132163807Y-109136193D03*
X132300000Y-110000000D03*
X126850000Y-117650000D03*
X131800000Y-117200000D03*
X142113807Y-115686193D03*
X142950000Y-115050000D03*
X144800000Y-112000000D03*
X143900000Y-111400000D03*
X137000000Y-109100000D03*
X140000000Y-112150000D03*
X140850000Y-109100000D03*
X124300000Y-106500000D03*
X116400000Y-106500000D03*
G04 #@! TA.AperFunction,Conductor*
G36*
X117295468Y-104317813D02*
G01*
X117320778Y-104361650D01*
X117311988Y-104411500D01*
X117286858Y-104437416D01*
X117253700Y-104457946D01*
X117096130Y-104601590D01*
X116967636Y-104771741D01*
X116967632Y-104771747D01*
X116872596Y-104962606D01*
X116872593Y-104962616D01*
X116814243Y-105167690D01*
X116814242Y-105167696D01*
X116794571Y-105379996D01*
X116794571Y-105380003D01*
X116814242Y-105592303D01*
X116814243Y-105592309D01*
X116872593Y-105797383D01*
X116872596Y-105797393D01*
X116967632Y-105988252D01*
X116967636Y-105988258D01*
X117012813Y-106048082D01*
X117096128Y-106158407D01*
X117253698Y-106302052D01*
X117434981Y-106414298D01*
X117633802Y-106491321D01*
X117843390Y-106530500D01*
X118056610Y-106530500D01*
X118266198Y-106491321D01*
X118465019Y-106414298D01*
X118646302Y-106302052D01*
X118803872Y-106158407D01*
X118932366Y-105988255D01*
X119027405Y-105797389D01*
X119085756Y-105592310D01*
X119105429Y-105380000D01*
X119095543Y-105273308D01*
X119085757Y-105167696D01*
X119085756Y-105167690D01*
X119080150Y-105147986D01*
X119027405Y-104962611D01*
X119023639Y-104955048D01*
X118932367Y-104771747D01*
X118932363Y-104771741D01*
X118880014Y-104702421D01*
X118803872Y-104601593D01*
X118646302Y-104457948D01*
X118613142Y-104437416D01*
X118581814Y-104397656D01*
X118583373Y-104347061D01*
X118617089Y-104309305D01*
X118652098Y-104300500D01*
X119787902Y-104300500D01*
X119835468Y-104317813D01*
X119860778Y-104361650D01*
X119851988Y-104411500D01*
X119826858Y-104437416D01*
X119793700Y-104457946D01*
X119636130Y-104601590D01*
X119507636Y-104771741D01*
X119507632Y-104771747D01*
X119412596Y-104962606D01*
X119412593Y-104962616D01*
X119354243Y-105167690D01*
X119354242Y-105167696D01*
X119334571Y-105379996D01*
X119334571Y-105380003D01*
X119354242Y-105592303D01*
X119354243Y-105592309D01*
X119412593Y-105797383D01*
X119412596Y-105797393D01*
X119507632Y-105988252D01*
X119507636Y-105988258D01*
X119552813Y-106048082D01*
X119636128Y-106158407D01*
X119793698Y-106302052D01*
X119974981Y-106414298D01*
X120173802Y-106491321D01*
X120383390Y-106530500D01*
X120596610Y-106530500D01*
X120806198Y-106491321D01*
X121005019Y-106414298D01*
X121186302Y-106302052D01*
X121343872Y-106158407D01*
X121472366Y-105988255D01*
X121567405Y-105797389D01*
X121625756Y-105592310D01*
X121645429Y-105380000D01*
X121635543Y-105273308D01*
X121625757Y-105167696D01*
X121625756Y-105167690D01*
X121620150Y-105147986D01*
X121567405Y-104962611D01*
X121563639Y-104955048D01*
X121472367Y-104771747D01*
X121472363Y-104771741D01*
X121420014Y-104702421D01*
X121343872Y-104601593D01*
X121186302Y-104457948D01*
X121153142Y-104437416D01*
X121121814Y-104397656D01*
X121123373Y-104347061D01*
X121157089Y-104309305D01*
X121192098Y-104300500D01*
X122327902Y-104300500D01*
X122375468Y-104317813D01*
X122400778Y-104361650D01*
X122391988Y-104411500D01*
X122366858Y-104437416D01*
X122333700Y-104457946D01*
X122176130Y-104601590D01*
X122047636Y-104771741D01*
X122047632Y-104771747D01*
X121952596Y-104962606D01*
X121952593Y-104962616D01*
X121894243Y-105167690D01*
X121894242Y-105167696D01*
X121874571Y-105379996D01*
X121874571Y-105380003D01*
X121894242Y-105592303D01*
X121894243Y-105592309D01*
X121952593Y-105797383D01*
X121952596Y-105797393D01*
X122047632Y-105988252D01*
X122047636Y-105988258D01*
X122092813Y-106048082D01*
X122176128Y-106158407D01*
X122333698Y-106302052D01*
X122514981Y-106414298D01*
X122713802Y-106491321D01*
X122923390Y-106530500D01*
X123136610Y-106530500D01*
X123346198Y-106491321D01*
X123545019Y-106414298D01*
X123587159Y-106388205D01*
X123636713Y-106377885D01*
X123681309Y-106401832D01*
X123700079Y-106448843D01*
X123699481Y-106460780D01*
X123694318Y-106499999D01*
X123714955Y-106656760D01*
X123714955Y-106656761D01*
X123775464Y-106802841D01*
X123871715Y-106928279D01*
X123871720Y-106928284D01*
X123955345Y-106992451D01*
X123997159Y-107024536D01*
X124143238Y-107085044D01*
X124300000Y-107105682D01*
X124456762Y-107085044D01*
X124602841Y-107024536D01*
X124728282Y-106928282D01*
X124824536Y-106802841D01*
X124885044Y-106656762D01*
X124905682Y-106500000D01*
X124900518Y-106460779D01*
X124911473Y-106411363D01*
X124951632Y-106380547D01*
X125002203Y-106382755D01*
X125012841Y-106388206D01*
X125054981Y-106414298D01*
X125253802Y-106491321D01*
X125463390Y-106530500D01*
X125676610Y-106530500D01*
X125886198Y-106491321D01*
X126085019Y-106414298D01*
X126266302Y-106302052D01*
X126423872Y-106158407D01*
X126552366Y-105988255D01*
X126647405Y-105797389D01*
X126705756Y-105592310D01*
X126725429Y-105380000D01*
X126715543Y-105273308D01*
X126705757Y-105167696D01*
X126705756Y-105167690D01*
X126700150Y-105147986D01*
X126647405Y-104962611D01*
X126643639Y-104955048D01*
X126552367Y-104771747D01*
X126552363Y-104771741D01*
X126500014Y-104702421D01*
X126423872Y-104601593D01*
X126266302Y-104457948D01*
X126233142Y-104437416D01*
X126201814Y-104397656D01*
X126203373Y-104347061D01*
X126237089Y-104309305D01*
X126272098Y-104300500D01*
X127407902Y-104300500D01*
X127455468Y-104317813D01*
X127480778Y-104361650D01*
X127471988Y-104411500D01*
X127446858Y-104437416D01*
X127413700Y-104457946D01*
X127256130Y-104601590D01*
X127127636Y-104771741D01*
X127127632Y-104771747D01*
X127032596Y-104962606D01*
X127032593Y-104962616D01*
X126974243Y-105167690D01*
X126974242Y-105167696D01*
X126954571Y-105379996D01*
X126954571Y-105380003D01*
X126974242Y-105592303D01*
X126974243Y-105592309D01*
X127032593Y-105797383D01*
X127032596Y-105797393D01*
X127127632Y-105988252D01*
X127127636Y-105988258D01*
X127172813Y-106048082D01*
X127256128Y-106158407D01*
X127413698Y-106302052D01*
X127594981Y-106414298D01*
X127793802Y-106491321D01*
X128003390Y-106530500D01*
X128216610Y-106530500D01*
X128426198Y-106491321D01*
X128625019Y-106414298D01*
X128806302Y-106302052D01*
X128963872Y-106158407D01*
X129092366Y-105988255D01*
X129187405Y-105797389D01*
X129245756Y-105592310D01*
X129265429Y-105380000D01*
X129255543Y-105273308D01*
X129245757Y-105167696D01*
X129245756Y-105167690D01*
X129240150Y-105147986D01*
X129187405Y-104962611D01*
X129183639Y-104955048D01*
X129092367Y-104771747D01*
X129092363Y-104771741D01*
X129040014Y-104702421D01*
X128963872Y-104601593D01*
X128806302Y-104457948D01*
X128773142Y-104437416D01*
X128741814Y-104397656D01*
X128743373Y-104347061D01*
X128777089Y-104309305D01*
X128812098Y-104300500D01*
X129947902Y-104300500D01*
X129995468Y-104317813D01*
X130020778Y-104361650D01*
X130011988Y-104411500D01*
X129986858Y-104437416D01*
X129953700Y-104457946D01*
X129796130Y-104601590D01*
X129667636Y-104771741D01*
X129667632Y-104771747D01*
X129572596Y-104962606D01*
X129572593Y-104962616D01*
X129514243Y-105167690D01*
X129514242Y-105167696D01*
X129494571Y-105379996D01*
X129494571Y-105380003D01*
X129514242Y-105592303D01*
X129514243Y-105592309D01*
X129572593Y-105797383D01*
X129572596Y-105797393D01*
X129667632Y-105988252D01*
X129667636Y-105988258D01*
X129712813Y-106048082D01*
X129796128Y-106158407D01*
X129953698Y-106302052D01*
X130134981Y-106414298D01*
X130333802Y-106491321D01*
X130543390Y-106530500D01*
X130756610Y-106530500D01*
X130966198Y-106491321D01*
X131165019Y-106414298D01*
X131346302Y-106302052D01*
X131503872Y-106158407D01*
X131632366Y-105988255D01*
X131727405Y-105797389D01*
X131785756Y-105592310D01*
X131805429Y-105380000D01*
X131795543Y-105273308D01*
X131785757Y-105167696D01*
X131785756Y-105167690D01*
X131780150Y-105147986D01*
X131727405Y-104962611D01*
X131723639Y-104955048D01*
X131632367Y-104771747D01*
X131632363Y-104771741D01*
X131580014Y-104702421D01*
X131503872Y-104601593D01*
X131346302Y-104457948D01*
X131313142Y-104437416D01*
X131281814Y-104397656D01*
X131283373Y-104347061D01*
X131317089Y-104309305D01*
X131352098Y-104300500D01*
X132487902Y-104300500D01*
X132535468Y-104317813D01*
X132560778Y-104361650D01*
X132551988Y-104411500D01*
X132526858Y-104437416D01*
X132493700Y-104457946D01*
X132336130Y-104601590D01*
X132207636Y-104771741D01*
X132207632Y-104771747D01*
X132112596Y-104962606D01*
X132112593Y-104962616D01*
X132054243Y-105167690D01*
X132054242Y-105167696D01*
X132034571Y-105379996D01*
X132034571Y-105380003D01*
X132054242Y-105592303D01*
X132054243Y-105592309D01*
X132112593Y-105797383D01*
X132112596Y-105797393D01*
X132207632Y-105988252D01*
X132207636Y-105988258D01*
X132252813Y-106048082D01*
X132336128Y-106158407D01*
X132493698Y-106302052D01*
X132674981Y-106414298D01*
X132873802Y-106491321D01*
X133083390Y-106530500D01*
X133296610Y-106530500D01*
X133506198Y-106491321D01*
X133705019Y-106414298D01*
X133886302Y-106302052D01*
X134043872Y-106158407D01*
X134172366Y-105988255D01*
X134267405Y-105797389D01*
X134325756Y-105592310D01*
X134345429Y-105380000D01*
X134335543Y-105273308D01*
X134325757Y-105167696D01*
X134325756Y-105167690D01*
X134320150Y-105147986D01*
X134267405Y-104962611D01*
X134263639Y-104955048D01*
X134172367Y-104771747D01*
X134172363Y-104771741D01*
X134120014Y-104702421D01*
X134043872Y-104601593D01*
X133886302Y-104457948D01*
X133853142Y-104437416D01*
X133821814Y-104397656D01*
X133823373Y-104347061D01*
X133857089Y-104309305D01*
X133892098Y-104300500D01*
X135027902Y-104300500D01*
X135075468Y-104317813D01*
X135100778Y-104361650D01*
X135091988Y-104411500D01*
X135066858Y-104437416D01*
X135033700Y-104457946D01*
X134876130Y-104601590D01*
X134747636Y-104771741D01*
X134747632Y-104771747D01*
X134652596Y-104962606D01*
X134652593Y-104962616D01*
X134594243Y-105167690D01*
X134594242Y-105167696D01*
X134574571Y-105379996D01*
X134574571Y-105380003D01*
X134594242Y-105592303D01*
X134594243Y-105592309D01*
X134652593Y-105797383D01*
X134652596Y-105797393D01*
X134747632Y-105988252D01*
X134747636Y-105988258D01*
X134792813Y-106048082D01*
X134876128Y-106158407D01*
X135033698Y-106302052D01*
X135214981Y-106414298D01*
X135413802Y-106491321D01*
X135623390Y-106530500D01*
X135836610Y-106530500D01*
X136046198Y-106491321D01*
X136245019Y-106414298D01*
X136426302Y-106302052D01*
X136583872Y-106158407D01*
X136712366Y-105988255D01*
X136807405Y-105797389D01*
X136865756Y-105592310D01*
X136885429Y-105380000D01*
X136875543Y-105273308D01*
X136865757Y-105167696D01*
X136865756Y-105167690D01*
X136860150Y-105147986D01*
X136807405Y-104962611D01*
X136803639Y-104955048D01*
X136712367Y-104771747D01*
X136712363Y-104771741D01*
X136660014Y-104702421D01*
X136583872Y-104601593D01*
X136426302Y-104457948D01*
X136393142Y-104437416D01*
X136361814Y-104397656D01*
X136363373Y-104347061D01*
X136397089Y-104309305D01*
X136432098Y-104300500D01*
X137567902Y-104300500D01*
X137615468Y-104317813D01*
X137640778Y-104361650D01*
X137631988Y-104411500D01*
X137606858Y-104437416D01*
X137573700Y-104457946D01*
X137416130Y-104601590D01*
X137287636Y-104771741D01*
X137287632Y-104771747D01*
X137192596Y-104962606D01*
X137192593Y-104962616D01*
X137134243Y-105167690D01*
X137134242Y-105167696D01*
X137114571Y-105379996D01*
X137114571Y-105380003D01*
X137134242Y-105592303D01*
X137134243Y-105592309D01*
X137192593Y-105797383D01*
X137192596Y-105797393D01*
X137287632Y-105988252D01*
X137287636Y-105988258D01*
X137332813Y-106048082D01*
X137416128Y-106158407D01*
X137573698Y-106302052D01*
X137754981Y-106414298D01*
X137953802Y-106491321D01*
X138163390Y-106530500D01*
X138376610Y-106530500D01*
X138586198Y-106491321D01*
X138785019Y-106414298D01*
X138966302Y-106302052D01*
X139123872Y-106158407D01*
X139252366Y-105988255D01*
X139347405Y-105797389D01*
X139405756Y-105592310D01*
X139425429Y-105380000D01*
X139415543Y-105273308D01*
X139405757Y-105167696D01*
X139405756Y-105167690D01*
X139400150Y-105147986D01*
X139347405Y-104962611D01*
X139343639Y-104955048D01*
X139252367Y-104771747D01*
X139252363Y-104771741D01*
X139200014Y-104702421D01*
X139123872Y-104601593D01*
X138966302Y-104457948D01*
X138933142Y-104437416D01*
X138901814Y-104397656D01*
X138903373Y-104347061D01*
X138937089Y-104309305D01*
X138972098Y-104300500D01*
X140107902Y-104300500D01*
X140155468Y-104317813D01*
X140180778Y-104361650D01*
X140171988Y-104411500D01*
X140146858Y-104437416D01*
X140113700Y-104457946D01*
X139956130Y-104601590D01*
X139827636Y-104771741D01*
X139827632Y-104771747D01*
X139732596Y-104962606D01*
X139732593Y-104962616D01*
X139674243Y-105167690D01*
X139674242Y-105167696D01*
X139654571Y-105379996D01*
X139654571Y-105380003D01*
X139674242Y-105592303D01*
X139674243Y-105592309D01*
X139732593Y-105797383D01*
X139732596Y-105797393D01*
X139827632Y-105988252D01*
X139827636Y-105988258D01*
X139872814Y-106048082D01*
X139956128Y-106158407D01*
X140113698Y-106302052D01*
X140294981Y-106414298D01*
X140493802Y-106491321D01*
X140703390Y-106530500D01*
X140916610Y-106530500D01*
X141126198Y-106491321D01*
X141325019Y-106414298D01*
X141506302Y-106302052D01*
X141663872Y-106158407D01*
X141792366Y-105988255D01*
X141887405Y-105797389D01*
X141945756Y-105592310D01*
X141965429Y-105380000D01*
X141955543Y-105273308D01*
X141945757Y-105167696D01*
X141945756Y-105167690D01*
X141940150Y-105147986D01*
X141887405Y-104962611D01*
X141883639Y-104955048D01*
X141792367Y-104771747D01*
X141792363Y-104771741D01*
X141740014Y-104702421D01*
X141663872Y-104601593D01*
X141506302Y-104457948D01*
X141473142Y-104437416D01*
X141441814Y-104397656D01*
X141443373Y-104347061D01*
X141477089Y-104309305D01*
X141512098Y-104300500D01*
X142647902Y-104300500D01*
X142695468Y-104317813D01*
X142720778Y-104361650D01*
X142711988Y-104411500D01*
X142686858Y-104437416D01*
X142653700Y-104457946D01*
X142496130Y-104601590D01*
X142367636Y-104771741D01*
X142367632Y-104771747D01*
X142272596Y-104962606D01*
X142272593Y-104962616D01*
X142214243Y-105167690D01*
X142214242Y-105167696D01*
X142194571Y-105379996D01*
X142194571Y-105380003D01*
X142214242Y-105592303D01*
X142214243Y-105592309D01*
X142272593Y-105797383D01*
X142272596Y-105797393D01*
X142367632Y-105988252D01*
X142367636Y-105988258D01*
X142412813Y-106048082D01*
X142496128Y-106158407D01*
X142653698Y-106302052D01*
X142834981Y-106414298D01*
X143033802Y-106491321D01*
X143243390Y-106530500D01*
X143456610Y-106530500D01*
X143666198Y-106491321D01*
X143865019Y-106414298D01*
X144046302Y-106302052D01*
X144203872Y-106158407D01*
X144332366Y-105988255D01*
X144427405Y-105797389D01*
X144485756Y-105592310D01*
X144505429Y-105380000D01*
X144495543Y-105273308D01*
X144485757Y-105167696D01*
X144485756Y-105167690D01*
X144480150Y-105147986D01*
X144427405Y-104962611D01*
X144423639Y-104955048D01*
X144332367Y-104771747D01*
X144332363Y-104771741D01*
X144280014Y-104702421D01*
X144203872Y-104601593D01*
X144046302Y-104457948D01*
X144013142Y-104437416D01*
X143981814Y-104397656D01*
X143983373Y-104347061D01*
X144017089Y-104309305D01*
X144052098Y-104300500D01*
X145187902Y-104300500D01*
X145235468Y-104317813D01*
X145260778Y-104361650D01*
X145251988Y-104411500D01*
X145226858Y-104437416D01*
X145193700Y-104457946D01*
X145036130Y-104601590D01*
X144907636Y-104771741D01*
X144907632Y-104771747D01*
X144812596Y-104962606D01*
X144812593Y-104962616D01*
X144754243Y-105167690D01*
X144754242Y-105167696D01*
X144734571Y-105379996D01*
X144734571Y-105380003D01*
X144754242Y-105592303D01*
X144754243Y-105592309D01*
X144812593Y-105797383D01*
X144812596Y-105797393D01*
X144907632Y-105988252D01*
X144907636Y-105988258D01*
X144952813Y-106048082D01*
X145036128Y-106158407D01*
X145193698Y-106302052D01*
X145374981Y-106414298D01*
X145573802Y-106491321D01*
X145783390Y-106530500D01*
X145996610Y-106530500D01*
X146206198Y-106491321D01*
X146405019Y-106414298D01*
X146586302Y-106302052D01*
X146743872Y-106158407D01*
X146872366Y-105988255D01*
X146967405Y-105797389D01*
X146985147Y-105735030D01*
X147014817Y-105694017D01*
X147063907Y-105681671D01*
X147109448Y-105703767D01*
X147127801Y-105736128D01*
X147156566Y-105843483D01*
X147156571Y-105843494D01*
X147256401Y-106057579D01*
X147391888Y-106251075D01*
X147558925Y-106418111D01*
X147558923Y-106418111D01*
X147752420Y-106553598D01*
X147966505Y-106653428D01*
X147966508Y-106653430D01*
X148180000Y-106710634D01*
X148180000Y-105930648D01*
X148197313Y-105883082D01*
X148241150Y-105857772D01*
X148284739Y-105863334D01*
X148287685Y-105864680D01*
X148394237Y-105880000D01*
X148394243Y-105880000D01*
X148465757Y-105880000D01*
X148465763Y-105880000D01*
X148572315Y-105864680D01*
X148575260Y-105863334D01*
X148625719Y-105859324D01*
X148666952Y-105888685D01*
X148680000Y-105930648D01*
X148680000Y-106710634D01*
X148893491Y-106653430D01*
X148893494Y-106653428D01*
X149107579Y-106553598D01*
X149301075Y-106418111D01*
X149468111Y-106251075D01*
X149603598Y-106057579D01*
X149703428Y-105843494D01*
X149703430Y-105843491D01*
X149732197Y-105736129D01*
X149761231Y-105694664D01*
X149810125Y-105681563D01*
X149856002Y-105702955D01*
X149874851Y-105735029D01*
X149892594Y-105797386D01*
X149892596Y-105797393D01*
X149987632Y-105988252D01*
X149987636Y-105988258D01*
X150032814Y-106048082D01*
X150116128Y-106158407D01*
X150273698Y-106302052D01*
X150454981Y-106414298D01*
X150653802Y-106491321D01*
X150863390Y-106530500D01*
X151076610Y-106530500D01*
X151286198Y-106491321D01*
X151485019Y-106414298D01*
X151666302Y-106302052D01*
X151823872Y-106158407D01*
X151952366Y-105988255D01*
X152047405Y-105797389D01*
X152065147Y-105735030D01*
X152094817Y-105694017D01*
X152143907Y-105681671D01*
X152189448Y-105703767D01*
X152207801Y-105736128D01*
X152236566Y-105843483D01*
X152236571Y-105843494D01*
X152336401Y-106057579D01*
X152471888Y-106251075D01*
X152638924Y-106418111D01*
X152832420Y-106553598D01*
X153046505Y-106653428D01*
X153046508Y-106653430D01*
X153260000Y-106710634D01*
X153260000Y-105930648D01*
X153277313Y-105883082D01*
X153321150Y-105857772D01*
X153364739Y-105863334D01*
X153367685Y-105864680D01*
X153474237Y-105880000D01*
X153474243Y-105880000D01*
X153545757Y-105880000D01*
X153545763Y-105880000D01*
X153652315Y-105864680D01*
X153655260Y-105863334D01*
X153705719Y-105859324D01*
X153746952Y-105888685D01*
X153760000Y-105930648D01*
X153760000Y-106710634D01*
X153973491Y-106653430D01*
X153973494Y-106653428D01*
X154187579Y-106553598D01*
X154381075Y-106418111D01*
X154548111Y-106251075D01*
X154683600Y-106057577D01*
X154758433Y-105897097D01*
X154794226Y-105861303D01*
X154844652Y-105856891D01*
X154886117Y-105885925D01*
X154899500Y-105928370D01*
X154899500Y-106274863D01*
X154902414Y-106299986D01*
X154902415Y-106299991D01*
X154947794Y-106402765D01*
X155027235Y-106482206D01*
X155130009Y-106527585D01*
X155155135Y-106530500D01*
X156944864Y-106530499D01*
X156969991Y-106527585D01*
X157072765Y-106482206D01*
X157152206Y-106402765D01*
X157197585Y-106299991D01*
X157200500Y-106274865D01*
X157200499Y-104485136D01*
X157197585Y-104460009D01*
X157173027Y-104404390D01*
X157169652Y-104353883D01*
X157199531Y-104313024D01*
X157240722Y-104300500D01*
X158711012Y-104300500D01*
X158758578Y-104317813D01*
X158783888Y-104361650D01*
X158775098Y-104411500D01*
X158753457Y-104435117D01*
X158660860Y-104499953D01*
X158499953Y-104660860D01*
X158369435Y-104847260D01*
X158369432Y-104847265D01*
X158369432Y-104847266D01*
X158315644Y-104962614D01*
X158273263Y-105053500D01*
X158273258Y-105053511D01*
X158214365Y-105273303D01*
X158214364Y-105273311D01*
X158194532Y-105499994D01*
X158194532Y-105500005D01*
X158214364Y-105726688D01*
X158214365Y-105726696D01*
X158273258Y-105946488D01*
X158273260Y-105946492D01*
X158273261Y-105946496D01*
X158369432Y-106152734D01*
X158369434Y-106152736D01*
X158369435Y-106152739D01*
X158472542Y-106299992D01*
X158499953Y-106339139D01*
X158660861Y-106500047D01*
X158772400Y-106578147D01*
X158824969Y-106614956D01*
X158847266Y-106630568D01*
X159053504Y-106726739D01*
X159053510Y-106726740D01*
X159053511Y-106726741D01*
X159273303Y-106785634D01*
X159273305Y-106785634D01*
X159273308Y-106785635D01*
X159443216Y-106800500D01*
X159443218Y-106800500D01*
X159556782Y-106800500D01*
X159556784Y-106800500D01*
X159726692Y-106785635D01*
X159946496Y-106726739D01*
X160152734Y-106630568D01*
X160339139Y-106500047D01*
X160500047Y-106339139D01*
X160564883Y-106246541D01*
X160606347Y-106217509D01*
X160656773Y-106221920D01*
X160692567Y-106257713D01*
X160699500Y-106288987D01*
X160699500Y-108665532D01*
X160682187Y-108713098D01*
X160638350Y-108738408D01*
X160588500Y-108729618D01*
X160565223Y-108708459D01*
X160560137Y-108701318D01*
X160408103Y-108556353D01*
X160231372Y-108442774D01*
X160036345Y-108364698D01*
X159830069Y-108324943D01*
X159375032Y-108324943D01*
X159375032Y-109050968D01*
X159357719Y-109098534D01*
X159313882Y-109123844D01*
X159301032Y-109124968D01*
X158949032Y-109124968D01*
X158901466Y-109107655D01*
X158876156Y-109063818D01*
X158875032Y-109050968D01*
X158875032Y-108324943D01*
X158472628Y-108324943D01*
X158315904Y-108339908D01*
X158114347Y-108399091D01*
X158114340Y-108399094D01*
X157927624Y-108495351D01*
X157762491Y-108625214D01*
X157624924Y-108783974D01*
X157519885Y-108965907D01*
X157519883Y-108965912D01*
X157451176Y-109164425D01*
X157449664Y-109174943D01*
X158189286Y-109174943D01*
X158236852Y-109192256D01*
X158262162Y-109236093D01*
X158254007Y-109282340D01*
X158254886Y-109282778D01*
X158253405Y-109285750D01*
X158253372Y-109285943D01*
X158253123Y-109286318D01*
X158251827Y-109288920D01*
X158221138Y-109396780D01*
X158221138Y-109396785D01*
X158231485Y-109508454D01*
X158231486Y-109508459D01*
X158261113Y-109567959D01*
X158266817Y-109618256D01*
X158238857Y-109660451D01*
X158194871Y-109674943D01*
X157453774Y-109674943D01*
X157480801Y-109786350D01*
X157568071Y-109977446D01*
X157689926Y-110148567D01*
X157841960Y-110293532D01*
X158018691Y-110407111D01*
X158213718Y-110485187D01*
X158419995Y-110524943D01*
X158875032Y-110524943D01*
X158875032Y-109798918D01*
X158892345Y-109751352D01*
X158936182Y-109726042D01*
X158949032Y-109724918D01*
X159301032Y-109724918D01*
X159348598Y-109742231D01*
X159373908Y-109786068D01*
X159375032Y-109798918D01*
X159375032Y-110524943D01*
X159777429Y-110524943D01*
X159777435Y-110524942D01*
X159934159Y-110509977D01*
X160135716Y-110450794D01*
X160135723Y-110450791D01*
X160322439Y-110354534D01*
X160487572Y-110224671D01*
X160569575Y-110130036D01*
X160613808Y-110105426D01*
X160663512Y-110115005D01*
X160695430Y-110154293D01*
X160699500Y-110178496D01*
X160699500Y-115815646D01*
X160682187Y-115863212D01*
X160638350Y-115888522D01*
X160588500Y-115879732D01*
X160565223Y-115858573D01*
X160560137Y-115851432D01*
X160408103Y-115706467D01*
X160231372Y-115592888D01*
X160036345Y-115514812D01*
X159830069Y-115475057D01*
X159375032Y-115475057D01*
X159375032Y-116201082D01*
X159357719Y-116248648D01*
X159313882Y-116273958D01*
X159301032Y-116275082D01*
X158949032Y-116275082D01*
X158901466Y-116257769D01*
X158876156Y-116213932D01*
X158875032Y-116201082D01*
X158875032Y-115475057D01*
X158472628Y-115475057D01*
X158315904Y-115490022D01*
X158114347Y-115549205D01*
X158114340Y-115549208D01*
X157927624Y-115645465D01*
X157762491Y-115775328D01*
X157624924Y-115934088D01*
X157519885Y-116116021D01*
X157519883Y-116116026D01*
X157451176Y-116314539D01*
X157449664Y-116325057D01*
X158189286Y-116325057D01*
X158236852Y-116342370D01*
X158262162Y-116386207D01*
X158254007Y-116432454D01*
X158254886Y-116432892D01*
X158253405Y-116435864D01*
X158253372Y-116436057D01*
X158253123Y-116436432D01*
X158251827Y-116439034D01*
X158221138Y-116546894D01*
X158221138Y-116546899D01*
X158231485Y-116658568D01*
X158231486Y-116658573D01*
X158261113Y-116718073D01*
X158266817Y-116768370D01*
X158238857Y-116810565D01*
X158194871Y-116825057D01*
X157453774Y-116825057D01*
X157480801Y-116936464D01*
X157568071Y-117127560D01*
X157689926Y-117298681D01*
X157841960Y-117443646D01*
X158018691Y-117557225D01*
X158213718Y-117635301D01*
X158419995Y-117675057D01*
X158875032Y-117675057D01*
X158875032Y-116949032D01*
X158892345Y-116901466D01*
X158936182Y-116876156D01*
X158949032Y-116875032D01*
X159301032Y-116875032D01*
X159348598Y-116892345D01*
X159373908Y-116936182D01*
X159375032Y-116949032D01*
X159375032Y-117675057D01*
X159777429Y-117675057D01*
X159777435Y-117675056D01*
X159934159Y-117660091D01*
X160135716Y-117600908D01*
X160135723Y-117600905D01*
X160322439Y-117504648D01*
X160487572Y-117374785D01*
X160569575Y-117280150D01*
X160613808Y-117255540D01*
X160663512Y-117265119D01*
X160695430Y-117304407D01*
X160699500Y-117328610D01*
X160699500Y-119711012D01*
X160682187Y-119758578D01*
X160638350Y-119783888D01*
X160588500Y-119775098D01*
X160564883Y-119753457D01*
X160500046Y-119660860D01*
X160339139Y-119499953D01*
X160152739Y-119369435D01*
X160152736Y-119369434D01*
X160152734Y-119369432D01*
X159946496Y-119273261D01*
X159946492Y-119273260D01*
X159946488Y-119273258D01*
X159726696Y-119214365D01*
X159726689Y-119214364D01*
X159589362Y-119202350D01*
X159556784Y-119199500D01*
X159443216Y-119199500D01*
X159413487Y-119202100D01*
X159273310Y-119214364D01*
X159273303Y-119214365D01*
X159053511Y-119273258D01*
X159053500Y-119273263D01*
X158847260Y-119369435D01*
X158660860Y-119499953D01*
X158499953Y-119660860D01*
X158369435Y-119847260D01*
X158273263Y-120053500D01*
X158273258Y-120053511D01*
X158214365Y-120273303D01*
X158214364Y-120273311D01*
X158194532Y-120499994D01*
X158194532Y-120500005D01*
X158214364Y-120726688D01*
X158214365Y-120726696D01*
X158273258Y-120946488D01*
X158273260Y-120946492D01*
X158273261Y-120946496D01*
X158369432Y-121152734D01*
X158369434Y-121152736D01*
X158369435Y-121152739D01*
X158499953Y-121339139D01*
X158660860Y-121500046D01*
X158753457Y-121564883D01*
X158782490Y-121606347D01*
X158778079Y-121656774D01*
X158742286Y-121692567D01*
X158711012Y-121699500D01*
X157231891Y-121699500D01*
X157184325Y-121682187D01*
X157159015Y-121638350D01*
X157164196Y-121595610D01*
X157178778Y-121562584D01*
X157197585Y-121519991D01*
X157200500Y-121494865D01*
X157200499Y-119705136D01*
X157197585Y-119680009D01*
X157152206Y-119577235D01*
X157072765Y-119497794D01*
X156969991Y-119452415D01*
X156969990Y-119452414D01*
X156969988Y-119452414D01*
X156948659Y-119449940D01*
X156944865Y-119449500D01*
X156944864Y-119449500D01*
X155155136Y-119449500D01*
X155130013Y-119452414D01*
X155130007Y-119452415D01*
X155027234Y-119497794D01*
X154947794Y-119577234D01*
X154902414Y-119680011D01*
X154899500Y-119705135D01*
X154899500Y-121494863D01*
X154902414Y-121519986D01*
X154902415Y-121519992D01*
X154935804Y-121595610D01*
X154939179Y-121646116D01*
X154909300Y-121686976D01*
X154868109Y-121699500D01*
X154179797Y-121699500D01*
X154132231Y-121682187D01*
X154106921Y-121638350D01*
X154115711Y-121588500D01*
X154140841Y-121562584D01*
X154150573Y-121556557D01*
X154206302Y-121522052D01*
X154363872Y-121378407D01*
X154492366Y-121208255D01*
X154587405Y-121017389D01*
X154645756Y-120812310D01*
X154665429Y-120600000D01*
X154665429Y-120599996D01*
X154645757Y-120387696D01*
X154645756Y-120387690D01*
X154613211Y-120273308D01*
X154587405Y-120182611D01*
X154523121Y-120053511D01*
X154492367Y-119991747D01*
X154492363Y-119991741D01*
X154488842Y-119987079D01*
X154363872Y-119821593D01*
X154206302Y-119677948D01*
X154178710Y-119660864D01*
X154043645Y-119577235D01*
X154025019Y-119565702D01*
X153826198Y-119488679D01*
X153734149Y-119471472D01*
X153616613Y-119449500D01*
X153616610Y-119449500D01*
X153403390Y-119449500D01*
X153403386Y-119449500D01*
X153246669Y-119478796D01*
X153193802Y-119488679D01*
X153193800Y-119488679D01*
X153193798Y-119488680D01*
X152994986Y-119565700D01*
X152994981Y-119565702D01*
X152994976Y-119565704D01*
X152994976Y-119565705D01*
X152813700Y-119677946D01*
X152656130Y-119821590D01*
X152527636Y-119991741D01*
X152527632Y-119991747D01*
X152432596Y-120182606D01*
X152432593Y-120182616D01*
X152374243Y-120387690D01*
X152374242Y-120387696D01*
X152354571Y-120599996D01*
X152354571Y-120600003D01*
X152374242Y-120812303D01*
X152374243Y-120812309D01*
X152432593Y-121017383D01*
X152432596Y-121017393D01*
X152527632Y-121208252D01*
X152527634Y-121208255D01*
X152656128Y-121378407D01*
X152813698Y-121522052D01*
X152813700Y-121522053D01*
X152879159Y-121562584D01*
X152910487Y-121602344D01*
X152908928Y-121652939D01*
X152875212Y-121690695D01*
X152840203Y-121699500D01*
X151639797Y-121699500D01*
X151592231Y-121682187D01*
X151566921Y-121638350D01*
X151575711Y-121588500D01*
X151600841Y-121562584D01*
X151610573Y-121556557D01*
X151666302Y-121522052D01*
X151823872Y-121378407D01*
X151952366Y-121208255D01*
X152047405Y-121017389D01*
X152105756Y-120812310D01*
X152125429Y-120600000D01*
X152125429Y-120599996D01*
X152105757Y-120387696D01*
X152105756Y-120387690D01*
X152073211Y-120273308D01*
X152047405Y-120182611D01*
X151983121Y-120053511D01*
X151952367Y-119991747D01*
X151952363Y-119991741D01*
X151948843Y-119987079D01*
X151823872Y-119821593D01*
X151666302Y-119677948D01*
X151638710Y-119660864D01*
X151503645Y-119577235D01*
X151485019Y-119565702D01*
X151286198Y-119488679D01*
X151194149Y-119471472D01*
X151076613Y-119449500D01*
X151076610Y-119449500D01*
X150863390Y-119449500D01*
X150863386Y-119449500D01*
X150706670Y-119478796D01*
X150653802Y-119488679D01*
X150653800Y-119488679D01*
X150653798Y-119488680D01*
X150454986Y-119565700D01*
X150454981Y-119565702D01*
X150454976Y-119565704D01*
X150454976Y-119565705D01*
X150273700Y-119677946D01*
X150116130Y-119821590D01*
X149987636Y-119991741D01*
X149987632Y-119991747D01*
X149892596Y-120182606D01*
X149892593Y-120182616D01*
X149834243Y-120387690D01*
X149834242Y-120387696D01*
X149814571Y-120599996D01*
X149814571Y-120600003D01*
X149834242Y-120812303D01*
X149834243Y-120812309D01*
X149892593Y-121017383D01*
X149892596Y-121017393D01*
X149987632Y-121208252D01*
X149987634Y-121208255D01*
X150116128Y-121378407D01*
X150273698Y-121522052D01*
X150273700Y-121522053D01*
X150339159Y-121562584D01*
X150370487Y-121602344D01*
X150368928Y-121652939D01*
X150335212Y-121690695D01*
X150300203Y-121699500D01*
X149099797Y-121699500D01*
X149052231Y-121682187D01*
X149026921Y-121638350D01*
X149035711Y-121588500D01*
X149060841Y-121562584D01*
X149070573Y-121556557D01*
X149126302Y-121522052D01*
X149283872Y-121378407D01*
X149412366Y-121208255D01*
X149507405Y-121017389D01*
X149565756Y-120812310D01*
X149585429Y-120600000D01*
X149585429Y-120599996D01*
X149565757Y-120387696D01*
X149565756Y-120387690D01*
X149533211Y-120273308D01*
X149507405Y-120182611D01*
X149443121Y-120053511D01*
X149412367Y-119991747D01*
X149412363Y-119991741D01*
X149408842Y-119987079D01*
X149283872Y-119821593D01*
X149126302Y-119677948D01*
X149098710Y-119660864D01*
X148963645Y-119577235D01*
X148945019Y-119565702D01*
X148746198Y-119488679D01*
X148654149Y-119471472D01*
X148536613Y-119449500D01*
X148536610Y-119449500D01*
X148323390Y-119449500D01*
X148323386Y-119449500D01*
X148166669Y-119478796D01*
X148113802Y-119488679D01*
X148113800Y-119488679D01*
X148113798Y-119488680D01*
X147914986Y-119565700D01*
X147914981Y-119565702D01*
X147914976Y-119565704D01*
X147914976Y-119565705D01*
X147733700Y-119677946D01*
X147576130Y-119821590D01*
X147447636Y-119991741D01*
X147447632Y-119991747D01*
X147352596Y-120182606D01*
X147352593Y-120182616D01*
X147294243Y-120387690D01*
X147294242Y-120387696D01*
X147274571Y-120599996D01*
X147274571Y-120600003D01*
X147294242Y-120812303D01*
X147294243Y-120812309D01*
X147352593Y-121017383D01*
X147352596Y-121017393D01*
X147447632Y-121208252D01*
X147447634Y-121208255D01*
X147576128Y-121378407D01*
X147733698Y-121522052D01*
X147733700Y-121522053D01*
X147799159Y-121562584D01*
X147830487Y-121602344D01*
X147828928Y-121652939D01*
X147795212Y-121690695D01*
X147760203Y-121699500D01*
X146559797Y-121699500D01*
X146512231Y-121682187D01*
X146486921Y-121638350D01*
X146495711Y-121588500D01*
X146520841Y-121562584D01*
X146530573Y-121556557D01*
X146586302Y-121522052D01*
X146743872Y-121378407D01*
X146872366Y-121208255D01*
X146967405Y-121017389D01*
X147025756Y-120812310D01*
X147045429Y-120600000D01*
X147045429Y-120599996D01*
X147025757Y-120387696D01*
X147025756Y-120387690D01*
X146993211Y-120273308D01*
X146967405Y-120182611D01*
X146903121Y-120053511D01*
X146872367Y-119991747D01*
X146872363Y-119991741D01*
X146868842Y-119987079D01*
X146743872Y-119821593D01*
X146586302Y-119677948D01*
X146558710Y-119660864D01*
X146423645Y-119577235D01*
X146405019Y-119565702D01*
X146206198Y-119488679D01*
X146114150Y-119471472D01*
X145996613Y-119449500D01*
X145996610Y-119449500D01*
X145783390Y-119449500D01*
X145783386Y-119449500D01*
X145626669Y-119478796D01*
X145573802Y-119488679D01*
X145573800Y-119488679D01*
X145573798Y-119488680D01*
X145374986Y-119565700D01*
X145374981Y-119565702D01*
X145374976Y-119565704D01*
X145374976Y-119565705D01*
X145193700Y-119677946D01*
X145036130Y-119821590D01*
X144907636Y-119991741D01*
X144907632Y-119991747D01*
X144812596Y-120182606D01*
X144812593Y-120182616D01*
X144754243Y-120387690D01*
X144754242Y-120387696D01*
X144734571Y-120599996D01*
X144734571Y-120600003D01*
X144754242Y-120812303D01*
X144754243Y-120812309D01*
X144812593Y-121017383D01*
X144812596Y-121017393D01*
X144907632Y-121208252D01*
X144907634Y-121208255D01*
X145036128Y-121378407D01*
X145193698Y-121522052D01*
X145193700Y-121522053D01*
X145259159Y-121562584D01*
X145290487Y-121602344D01*
X145288928Y-121652939D01*
X145255212Y-121690695D01*
X145220203Y-121699500D01*
X144019797Y-121699500D01*
X143972231Y-121682187D01*
X143946921Y-121638350D01*
X143955711Y-121588500D01*
X143980841Y-121562584D01*
X143990573Y-121556557D01*
X144046302Y-121522052D01*
X144203872Y-121378407D01*
X144332366Y-121208255D01*
X144427405Y-121017389D01*
X144485756Y-120812310D01*
X144505429Y-120600000D01*
X144505429Y-120599996D01*
X144485757Y-120387696D01*
X144485756Y-120387690D01*
X144453211Y-120273308D01*
X144427405Y-120182611D01*
X144363121Y-120053511D01*
X144332367Y-119991747D01*
X144332363Y-119991741D01*
X144328842Y-119987079D01*
X144203872Y-119821593D01*
X144046302Y-119677948D01*
X144018710Y-119660864D01*
X143883645Y-119577235D01*
X143865019Y-119565702D01*
X143666198Y-119488679D01*
X143574149Y-119471472D01*
X143456613Y-119449500D01*
X143456610Y-119449500D01*
X143243390Y-119449500D01*
X143243386Y-119449500D01*
X143086669Y-119478796D01*
X143033802Y-119488679D01*
X143033800Y-119488679D01*
X143033798Y-119488680D01*
X142834986Y-119565700D01*
X142834981Y-119565702D01*
X142834976Y-119565704D01*
X142834976Y-119565705D01*
X142653700Y-119677946D01*
X142496130Y-119821590D01*
X142367636Y-119991741D01*
X142367632Y-119991747D01*
X142272596Y-120182606D01*
X142272593Y-120182616D01*
X142214243Y-120387690D01*
X142214242Y-120387696D01*
X142194571Y-120599996D01*
X142194571Y-120600003D01*
X142214242Y-120812303D01*
X142214243Y-120812309D01*
X142272593Y-121017383D01*
X142272596Y-121017393D01*
X142367632Y-121208252D01*
X142367634Y-121208255D01*
X142496128Y-121378407D01*
X142653698Y-121522052D01*
X142653700Y-121522053D01*
X142719159Y-121562584D01*
X142750487Y-121602344D01*
X142748928Y-121652939D01*
X142715212Y-121690695D01*
X142680203Y-121699500D01*
X141479797Y-121699500D01*
X141432231Y-121682187D01*
X141406921Y-121638350D01*
X141415711Y-121588500D01*
X141440841Y-121562584D01*
X141450573Y-121556557D01*
X141506302Y-121522052D01*
X141663872Y-121378407D01*
X141792366Y-121208255D01*
X141887405Y-121017389D01*
X141945756Y-120812310D01*
X141965429Y-120600000D01*
X141965429Y-120599996D01*
X141945757Y-120387696D01*
X141945756Y-120387690D01*
X141913211Y-120273308D01*
X141887405Y-120182611D01*
X141823121Y-120053511D01*
X141792367Y-119991747D01*
X141792363Y-119991741D01*
X141788843Y-119987079D01*
X141663872Y-119821593D01*
X141506302Y-119677948D01*
X141478710Y-119660864D01*
X141343645Y-119577235D01*
X141325019Y-119565702D01*
X141126198Y-119488679D01*
X141034149Y-119471472D01*
X140916613Y-119449500D01*
X140916610Y-119449500D01*
X140703390Y-119449500D01*
X140703386Y-119449500D01*
X140546670Y-119478796D01*
X140493802Y-119488679D01*
X140493800Y-119488679D01*
X140493798Y-119488680D01*
X140294986Y-119565700D01*
X140294981Y-119565702D01*
X140294976Y-119565704D01*
X140294976Y-119565705D01*
X140113700Y-119677946D01*
X139956130Y-119821590D01*
X139827636Y-119991741D01*
X139827632Y-119991747D01*
X139732596Y-120182606D01*
X139732593Y-120182616D01*
X139674243Y-120387690D01*
X139674242Y-120387696D01*
X139654571Y-120599996D01*
X139654571Y-120600003D01*
X139674242Y-120812303D01*
X139674243Y-120812309D01*
X139732593Y-121017383D01*
X139732596Y-121017393D01*
X139827632Y-121208252D01*
X139827634Y-121208255D01*
X139956128Y-121378407D01*
X140113698Y-121522052D01*
X140113700Y-121522053D01*
X140179159Y-121562584D01*
X140210487Y-121602344D01*
X140208928Y-121652939D01*
X140175212Y-121690695D01*
X140140203Y-121699500D01*
X138939797Y-121699500D01*
X138892231Y-121682187D01*
X138866921Y-121638350D01*
X138875711Y-121588500D01*
X138900841Y-121562584D01*
X138910573Y-121556557D01*
X138966302Y-121522052D01*
X139123872Y-121378407D01*
X139252366Y-121208255D01*
X139347405Y-121017389D01*
X139405756Y-120812310D01*
X139425429Y-120600000D01*
X139425429Y-120599996D01*
X139405757Y-120387696D01*
X139405756Y-120387690D01*
X139373211Y-120273308D01*
X139347405Y-120182611D01*
X139283121Y-120053511D01*
X139252367Y-119991747D01*
X139252363Y-119991741D01*
X139248843Y-119987079D01*
X139123872Y-119821593D01*
X138966302Y-119677948D01*
X138938710Y-119660864D01*
X138803645Y-119577235D01*
X138785019Y-119565702D01*
X138586198Y-119488679D01*
X138494149Y-119471472D01*
X138376613Y-119449500D01*
X138376610Y-119449500D01*
X138163390Y-119449500D01*
X138163386Y-119449500D01*
X138006670Y-119478796D01*
X137953802Y-119488679D01*
X137953800Y-119488679D01*
X137953798Y-119488680D01*
X137754986Y-119565700D01*
X137754981Y-119565702D01*
X137754976Y-119565704D01*
X137754976Y-119565705D01*
X137573700Y-119677946D01*
X137416130Y-119821590D01*
X137287636Y-119991741D01*
X137287632Y-119991747D01*
X137192596Y-120182606D01*
X137192593Y-120182616D01*
X137134243Y-120387690D01*
X137134242Y-120387696D01*
X137114571Y-120599996D01*
X137114571Y-120600003D01*
X137134242Y-120812303D01*
X137134243Y-120812309D01*
X137192593Y-121017383D01*
X137192596Y-121017393D01*
X137287632Y-121208252D01*
X137287634Y-121208255D01*
X137416128Y-121378407D01*
X137573698Y-121522052D01*
X137573700Y-121522053D01*
X137639159Y-121562584D01*
X137670487Y-121602344D01*
X137668928Y-121652939D01*
X137635212Y-121690695D01*
X137600203Y-121699500D01*
X136399797Y-121699500D01*
X136352231Y-121682187D01*
X136326921Y-121638350D01*
X136335711Y-121588500D01*
X136360841Y-121562584D01*
X136370573Y-121556557D01*
X136426302Y-121522052D01*
X136583872Y-121378407D01*
X136712366Y-121208255D01*
X136807405Y-121017389D01*
X136865756Y-120812310D01*
X136885429Y-120600000D01*
X136885429Y-120599996D01*
X136865757Y-120387696D01*
X136865756Y-120387690D01*
X136833211Y-120273308D01*
X136807405Y-120182611D01*
X136743121Y-120053511D01*
X136712367Y-119991747D01*
X136712363Y-119991741D01*
X136708843Y-119987079D01*
X136583872Y-119821593D01*
X136426302Y-119677948D01*
X136398710Y-119660864D01*
X136263645Y-119577235D01*
X136245019Y-119565702D01*
X136046198Y-119488679D01*
X135954150Y-119471472D01*
X135836613Y-119449500D01*
X135836610Y-119449500D01*
X135623390Y-119449500D01*
X135623386Y-119449500D01*
X135466670Y-119478796D01*
X135413802Y-119488679D01*
X135413800Y-119488679D01*
X135413798Y-119488680D01*
X135214986Y-119565700D01*
X135214981Y-119565702D01*
X135214976Y-119565704D01*
X135214976Y-119565705D01*
X135033700Y-119677946D01*
X134876130Y-119821590D01*
X134747636Y-119991741D01*
X134747632Y-119991747D01*
X134652596Y-120182606D01*
X134652593Y-120182616D01*
X134594243Y-120387690D01*
X134594242Y-120387696D01*
X134574571Y-120599996D01*
X134574571Y-120600003D01*
X134594242Y-120812303D01*
X134594243Y-120812309D01*
X134652593Y-121017383D01*
X134652596Y-121017393D01*
X134747632Y-121208252D01*
X134747634Y-121208255D01*
X134876128Y-121378407D01*
X135033698Y-121522052D01*
X135033700Y-121522053D01*
X135099159Y-121562584D01*
X135130487Y-121602344D01*
X135128928Y-121652939D01*
X135095212Y-121690695D01*
X135060203Y-121699500D01*
X133859797Y-121699500D01*
X133812231Y-121682187D01*
X133786921Y-121638350D01*
X133795711Y-121588500D01*
X133820841Y-121562584D01*
X133830573Y-121556557D01*
X133886302Y-121522052D01*
X134043872Y-121378407D01*
X134172366Y-121208255D01*
X134267405Y-121017389D01*
X134325756Y-120812310D01*
X134345429Y-120600000D01*
X134345429Y-120599996D01*
X134325757Y-120387696D01*
X134325756Y-120387690D01*
X134293211Y-120273308D01*
X134267405Y-120182611D01*
X134203121Y-120053511D01*
X134172367Y-119991747D01*
X134172363Y-119991741D01*
X134168843Y-119987079D01*
X134043872Y-119821593D01*
X133886302Y-119677948D01*
X133858710Y-119660864D01*
X133723645Y-119577235D01*
X133705019Y-119565702D01*
X133506198Y-119488679D01*
X133414149Y-119471472D01*
X133296613Y-119449500D01*
X133296610Y-119449500D01*
X133083390Y-119449500D01*
X133083386Y-119449500D01*
X132926669Y-119478796D01*
X132873802Y-119488679D01*
X132873800Y-119488679D01*
X132873798Y-119488680D01*
X132674986Y-119565700D01*
X132674981Y-119565702D01*
X132674976Y-119565704D01*
X132674976Y-119565705D01*
X132493700Y-119677946D01*
X132336130Y-119821590D01*
X132207636Y-119991741D01*
X132207632Y-119991747D01*
X132112596Y-120182606D01*
X132112593Y-120182616D01*
X132054243Y-120387690D01*
X132054242Y-120387696D01*
X132034571Y-120599996D01*
X132034571Y-120600003D01*
X132054242Y-120812303D01*
X132054243Y-120812309D01*
X132112593Y-121017383D01*
X132112596Y-121017393D01*
X132207632Y-121208252D01*
X132207634Y-121208255D01*
X132336128Y-121378407D01*
X132493698Y-121522052D01*
X132493700Y-121522053D01*
X132559159Y-121562584D01*
X132590487Y-121602344D01*
X132588928Y-121652939D01*
X132555212Y-121690695D01*
X132520203Y-121699500D01*
X131319797Y-121699500D01*
X131272231Y-121682187D01*
X131246921Y-121638350D01*
X131255711Y-121588500D01*
X131280841Y-121562584D01*
X131290573Y-121556557D01*
X131346302Y-121522052D01*
X131503872Y-121378407D01*
X131632366Y-121208255D01*
X131727405Y-121017389D01*
X131785756Y-120812310D01*
X131805429Y-120600000D01*
X131805429Y-120599996D01*
X131785757Y-120387696D01*
X131785756Y-120387690D01*
X131753211Y-120273308D01*
X131727405Y-120182611D01*
X131663121Y-120053511D01*
X131632367Y-119991747D01*
X131632363Y-119991741D01*
X131628843Y-119987079D01*
X131503872Y-119821593D01*
X131346302Y-119677948D01*
X131318710Y-119660864D01*
X131183645Y-119577235D01*
X131165019Y-119565702D01*
X130966198Y-119488679D01*
X130874149Y-119471472D01*
X130756613Y-119449500D01*
X130756610Y-119449500D01*
X130543390Y-119449500D01*
X130543386Y-119449500D01*
X130386670Y-119478796D01*
X130333802Y-119488679D01*
X130333800Y-119488679D01*
X130333798Y-119488680D01*
X130134986Y-119565700D01*
X130134981Y-119565702D01*
X130134976Y-119565704D01*
X130134976Y-119565705D01*
X129953700Y-119677946D01*
X129796130Y-119821590D01*
X129667636Y-119991741D01*
X129667632Y-119991747D01*
X129572596Y-120182606D01*
X129572593Y-120182616D01*
X129514243Y-120387690D01*
X129514242Y-120387696D01*
X129494571Y-120599996D01*
X129494571Y-120600003D01*
X129514242Y-120812303D01*
X129514243Y-120812309D01*
X129572593Y-121017383D01*
X129572596Y-121017393D01*
X129667632Y-121208252D01*
X129667634Y-121208255D01*
X129796128Y-121378407D01*
X129953698Y-121522052D01*
X129953700Y-121522053D01*
X130019159Y-121562584D01*
X130050487Y-121602344D01*
X130048928Y-121652939D01*
X130015212Y-121690695D01*
X129980203Y-121699500D01*
X128779797Y-121699500D01*
X128732231Y-121682187D01*
X128706921Y-121638350D01*
X128715711Y-121588500D01*
X128740841Y-121562584D01*
X128750573Y-121556557D01*
X128806302Y-121522052D01*
X128963872Y-121378407D01*
X129092366Y-121208255D01*
X129187405Y-121017389D01*
X129245756Y-120812310D01*
X129265429Y-120600000D01*
X129265429Y-120599996D01*
X129245757Y-120387696D01*
X129245756Y-120387690D01*
X129213211Y-120273308D01*
X129187405Y-120182611D01*
X129123121Y-120053511D01*
X129092367Y-119991747D01*
X129092363Y-119991741D01*
X129088843Y-119987079D01*
X128963872Y-119821593D01*
X128806302Y-119677948D01*
X128778710Y-119660864D01*
X128643645Y-119577235D01*
X128625019Y-119565702D01*
X128426198Y-119488679D01*
X128334149Y-119471472D01*
X128216613Y-119449500D01*
X128216610Y-119449500D01*
X128003390Y-119449500D01*
X128003386Y-119449500D01*
X127846669Y-119478796D01*
X127793802Y-119488679D01*
X127793800Y-119488679D01*
X127793798Y-119488680D01*
X127594986Y-119565700D01*
X127594981Y-119565702D01*
X127594976Y-119565704D01*
X127594976Y-119565705D01*
X127413700Y-119677946D01*
X127256130Y-119821590D01*
X127127636Y-119991741D01*
X127127632Y-119991747D01*
X127032596Y-120182606D01*
X127032593Y-120182616D01*
X126974243Y-120387690D01*
X126974242Y-120387696D01*
X126954571Y-120599996D01*
X126954571Y-120600003D01*
X126974242Y-120812303D01*
X126974243Y-120812309D01*
X127032593Y-121017383D01*
X127032596Y-121017393D01*
X127127632Y-121208252D01*
X127127634Y-121208255D01*
X127256128Y-121378407D01*
X127413698Y-121522052D01*
X127413700Y-121522053D01*
X127479159Y-121562584D01*
X127510487Y-121602344D01*
X127508928Y-121652939D01*
X127475212Y-121690695D01*
X127440203Y-121699500D01*
X126239797Y-121699500D01*
X126192231Y-121682187D01*
X126166921Y-121638350D01*
X126175711Y-121588500D01*
X126200841Y-121562584D01*
X126210573Y-121556557D01*
X126266302Y-121522052D01*
X126423872Y-121378407D01*
X126552366Y-121208255D01*
X126647405Y-121017389D01*
X126705756Y-120812310D01*
X126725429Y-120600000D01*
X126725429Y-120599996D01*
X126705757Y-120387696D01*
X126705756Y-120387690D01*
X126673211Y-120273308D01*
X126647405Y-120182611D01*
X126583121Y-120053511D01*
X126552367Y-119991747D01*
X126552363Y-119991741D01*
X126548843Y-119987079D01*
X126423872Y-119821593D01*
X126266302Y-119677948D01*
X126238710Y-119660864D01*
X126103645Y-119577235D01*
X126085019Y-119565702D01*
X125886198Y-119488679D01*
X125794150Y-119471472D01*
X125676613Y-119449500D01*
X125676610Y-119449500D01*
X125463390Y-119449500D01*
X125463386Y-119449500D01*
X125306669Y-119478796D01*
X125253802Y-119488679D01*
X125253800Y-119488679D01*
X125253798Y-119488680D01*
X125054986Y-119565700D01*
X125054981Y-119565702D01*
X125054976Y-119565704D01*
X125054976Y-119565705D01*
X124873700Y-119677946D01*
X124716130Y-119821590D01*
X124587636Y-119991741D01*
X124587632Y-119991747D01*
X124492596Y-120182606D01*
X124492593Y-120182616D01*
X124434243Y-120387690D01*
X124434242Y-120387696D01*
X124414571Y-120599996D01*
X124414571Y-120600003D01*
X124434242Y-120812303D01*
X124434243Y-120812309D01*
X124492593Y-121017383D01*
X124492596Y-121017393D01*
X124587632Y-121208252D01*
X124587634Y-121208255D01*
X124716128Y-121378407D01*
X124873698Y-121522052D01*
X124873700Y-121522053D01*
X124939159Y-121562584D01*
X124970487Y-121602344D01*
X124968928Y-121652939D01*
X124935212Y-121690695D01*
X124900203Y-121699500D01*
X123699797Y-121699500D01*
X123652231Y-121682187D01*
X123626921Y-121638350D01*
X123635711Y-121588500D01*
X123660841Y-121562584D01*
X123670573Y-121556557D01*
X123726302Y-121522052D01*
X123883872Y-121378407D01*
X124012366Y-121208255D01*
X124107405Y-121017389D01*
X124165756Y-120812310D01*
X124185429Y-120600000D01*
X124185429Y-120599996D01*
X124165757Y-120387696D01*
X124165756Y-120387690D01*
X124133211Y-120273308D01*
X124107405Y-120182611D01*
X124043121Y-120053511D01*
X124012367Y-119991747D01*
X124012363Y-119991741D01*
X124008843Y-119987079D01*
X123883872Y-119821593D01*
X123726302Y-119677948D01*
X123698710Y-119660864D01*
X123563645Y-119577235D01*
X123545019Y-119565702D01*
X123346198Y-119488679D01*
X123254149Y-119471472D01*
X123136613Y-119449500D01*
X123136610Y-119449500D01*
X122923390Y-119449500D01*
X122923386Y-119449500D01*
X122766669Y-119478796D01*
X122713802Y-119488679D01*
X122713800Y-119488679D01*
X122713798Y-119488680D01*
X122514986Y-119565700D01*
X122514981Y-119565702D01*
X122514976Y-119565704D01*
X122514976Y-119565705D01*
X122333700Y-119677946D01*
X122176130Y-119821590D01*
X122047636Y-119991741D01*
X122047632Y-119991747D01*
X121952596Y-120182606D01*
X121952593Y-120182616D01*
X121894243Y-120387690D01*
X121894242Y-120387696D01*
X121874571Y-120599996D01*
X121874571Y-120600003D01*
X121894242Y-120812303D01*
X121894243Y-120812309D01*
X121952593Y-121017383D01*
X121952596Y-121017393D01*
X122047632Y-121208252D01*
X122047634Y-121208255D01*
X122176128Y-121378407D01*
X122333698Y-121522052D01*
X122333700Y-121522053D01*
X122399159Y-121562584D01*
X122430487Y-121602344D01*
X122428928Y-121652939D01*
X122395212Y-121690695D01*
X122360203Y-121699500D01*
X121159797Y-121699500D01*
X121112231Y-121682187D01*
X121086921Y-121638350D01*
X121095711Y-121588500D01*
X121120841Y-121562584D01*
X121130573Y-121556557D01*
X121186302Y-121522052D01*
X121343872Y-121378407D01*
X121472366Y-121208255D01*
X121567405Y-121017389D01*
X121625756Y-120812310D01*
X121645429Y-120600000D01*
X121645429Y-120599996D01*
X121625757Y-120387696D01*
X121625756Y-120387690D01*
X121593211Y-120273308D01*
X121567405Y-120182611D01*
X121503121Y-120053511D01*
X121472367Y-119991747D01*
X121472363Y-119991741D01*
X121468843Y-119987079D01*
X121343872Y-119821593D01*
X121186302Y-119677948D01*
X121158710Y-119660864D01*
X121023645Y-119577235D01*
X121005019Y-119565702D01*
X120806198Y-119488679D01*
X120714149Y-119471472D01*
X120596613Y-119449500D01*
X120596610Y-119449500D01*
X120383390Y-119449500D01*
X120383386Y-119449500D01*
X120226670Y-119478796D01*
X120173802Y-119488679D01*
X120173800Y-119488679D01*
X120173798Y-119488680D01*
X119974986Y-119565700D01*
X119974981Y-119565702D01*
X119974976Y-119565704D01*
X119974976Y-119565705D01*
X119793700Y-119677946D01*
X119636130Y-119821590D01*
X119507636Y-119991741D01*
X119507632Y-119991747D01*
X119412596Y-120182606D01*
X119412593Y-120182616D01*
X119354243Y-120387690D01*
X119354242Y-120387696D01*
X119334571Y-120599996D01*
X119334571Y-120600003D01*
X119354242Y-120812303D01*
X119354243Y-120812309D01*
X119412593Y-121017383D01*
X119412596Y-121017393D01*
X119507632Y-121208252D01*
X119507634Y-121208255D01*
X119636128Y-121378407D01*
X119793698Y-121522052D01*
X119793700Y-121522053D01*
X119859159Y-121562584D01*
X119890487Y-121602344D01*
X119888928Y-121652939D01*
X119855212Y-121690695D01*
X119820203Y-121699500D01*
X118619797Y-121699500D01*
X118572231Y-121682187D01*
X118546921Y-121638350D01*
X118555711Y-121588500D01*
X118580841Y-121562584D01*
X118590573Y-121556557D01*
X118646302Y-121522052D01*
X118803872Y-121378407D01*
X118932366Y-121208255D01*
X119027405Y-121017389D01*
X119085756Y-120812310D01*
X119105429Y-120600000D01*
X119105429Y-120599996D01*
X119085757Y-120387696D01*
X119085756Y-120387690D01*
X119053211Y-120273308D01*
X119027405Y-120182611D01*
X118963121Y-120053511D01*
X118932367Y-119991747D01*
X118932363Y-119991741D01*
X118928843Y-119987079D01*
X118803872Y-119821593D01*
X118646302Y-119677948D01*
X118618710Y-119660864D01*
X118483645Y-119577235D01*
X118465019Y-119565702D01*
X118266198Y-119488679D01*
X118174149Y-119471472D01*
X118056613Y-119449500D01*
X118056610Y-119449500D01*
X117843390Y-119449500D01*
X117843386Y-119449500D01*
X117686670Y-119478796D01*
X117633802Y-119488679D01*
X117633800Y-119488679D01*
X117633798Y-119488680D01*
X117434986Y-119565700D01*
X117434981Y-119565702D01*
X117434976Y-119565704D01*
X117434976Y-119565705D01*
X117253700Y-119677946D01*
X117096130Y-119821590D01*
X116967636Y-119991741D01*
X116967632Y-119991747D01*
X116872596Y-120182606D01*
X116872593Y-120182616D01*
X116814243Y-120387690D01*
X116814242Y-120387696D01*
X116794571Y-120599996D01*
X116794571Y-120600003D01*
X116814242Y-120812303D01*
X116814243Y-120812309D01*
X116872593Y-121017383D01*
X116872596Y-121017393D01*
X116967632Y-121208252D01*
X116967634Y-121208255D01*
X117096128Y-121378407D01*
X117253698Y-121522052D01*
X117253700Y-121522053D01*
X117319159Y-121562584D01*
X117350487Y-121602344D01*
X117348928Y-121652939D01*
X117315212Y-121690695D01*
X117280203Y-121699500D01*
X115288988Y-121699500D01*
X115241422Y-121682187D01*
X115216112Y-121638350D01*
X115224902Y-121588500D01*
X115246543Y-121564883D01*
X115260133Y-121555367D01*
X115339139Y-121500047D01*
X115500047Y-121339139D01*
X115630568Y-121152734D01*
X115726739Y-120946496D01*
X115785635Y-120726692D01*
X115796719Y-120600000D01*
X115805468Y-120500005D01*
X115805468Y-120499994D01*
X115785635Y-120273311D01*
X115785634Y-120273303D01*
X115726741Y-120053511D01*
X115726740Y-120053510D01*
X115726739Y-120053504D01*
X115630568Y-119847266D01*
X115500047Y-119660861D01*
X115339139Y-119499953D01*
X115271246Y-119452414D01*
X115152739Y-119369435D01*
X115152736Y-119369434D01*
X115152734Y-119369432D01*
X114946496Y-119273261D01*
X114946492Y-119273260D01*
X114946488Y-119273258D01*
X114726696Y-119214365D01*
X114726689Y-119214364D01*
X114589362Y-119202350D01*
X114556784Y-119199500D01*
X114443216Y-119199500D01*
X114413487Y-119202100D01*
X114273310Y-119214364D01*
X114273303Y-119214365D01*
X114053511Y-119273258D01*
X114053500Y-119273263D01*
X113847260Y-119369435D01*
X113660860Y-119499953D01*
X113499952Y-119660861D01*
X113499950Y-119660864D01*
X113435116Y-119753458D01*
X113393652Y-119782492D01*
X113343226Y-119778081D01*
X113307432Y-119742288D01*
X113300499Y-119711014D01*
X113300499Y-116815812D01*
X113317812Y-116768246D01*
X113319680Y-116767167D01*
X113302923Y-116742973D01*
X113300499Y-116724187D01*
X113300499Y-115847946D01*
X113300499Y-114962468D01*
X113317811Y-114914905D01*
X113361648Y-114889595D01*
X113411498Y-114898385D01*
X113435115Y-114920026D01*
X113561888Y-115101075D01*
X113728924Y-115268111D01*
X113922420Y-115403598D01*
X114136505Y-115503428D01*
X114136508Y-115503430D01*
X114241630Y-115531597D01*
X114283095Y-115560631D01*
X114296196Y-115609525D01*
X114274804Y-115655402D01*
X114249210Y-115672079D01*
X114084986Y-115735700D01*
X114084981Y-115735702D01*
X114084976Y-115735704D01*
X114084976Y-115735705D01*
X113903700Y-115847946D01*
X113746130Y-115991590D01*
X113617636Y-116161741D01*
X113617632Y-116161747D01*
X113522596Y-116352606D01*
X113522593Y-116352616D01*
X113464243Y-116557690D01*
X113464242Y-116557696D01*
X113448183Y-116731015D01*
X113428705Y-116772232D01*
X113444036Y-116790503D01*
X113448183Y-116808984D01*
X113464242Y-116982303D01*
X113464243Y-116982309D01*
X113522593Y-117187383D01*
X113522596Y-117187393D01*
X113617632Y-117378252D01*
X113617636Y-117378258D01*
X113662814Y-117438082D01*
X113746128Y-117548407D01*
X113903698Y-117692052D01*
X114084981Y-117804298D01*
X114283802Y-117881321D01*
X114493390Y-117920500D01*
X114706610Y-117920500D01*
X114916198Y-117881321D01*
X115115019Y-117804298D01*
X115296302Y-117692052D01*
X115342431Y-117650000D01*
X126244318Y-117650000D01*
X126264955Y-117806760D01*
X126264955Y-117806761D01*
X126325464Y-117952841D01*
X126421715Y-118078279D01*
X126421720Y-118078284D01*
X126505096Y-118142260D01*
X126547159Y-118174536D01*
X126693238Y-118235044D01*
X126850000Y-118255682D01*
X127006762Y-118235044D01*
X127152841Y-118174536D01*
X127278282Y-118078282D01*
X127374536Y-117952841D01*
X127435044Y-117806762D01*
X127455682Y-117650000D01*
X127435044Y-117493238D01*
X127374536Y-117347159D01*
X127336169Y-117297158D01*
X127278284Y-117221720D01*
X127278279Y-117221715D01*
X127249979Y-117200000D01*
X131194318Y-117200000D01*
X131214955Y-117356760D01*
X131214955Y-117356761D01*
X131275464Y-117502841D01*
X131371715Y-117628279D01*
X131371720Y-117628284D01*
X131442582Y-117682658D01*
X131497159Y-117724536D01*
X131643238Y-117785044D01*
X131800000Y-117805682D01*
X131956762Y-117785044D01*
X132102841Y-117724536D01*
X132228282Y-117628282D01*
X132324536Y-117502841D01*
X132385044Y-117356762D01*
X132405682Y-117200000D01*
X132385044Y-117043238D01*
X132324536Y-116897159D01*
X132276471Y-116834519D01*
X132228284Y-116771720D01*
X132228279Y-116771715D01*
X132102841Y-116675464D01*
X131956761Y-116614955D01*
X131843161Y-116600000D01*
X145994318Y-116600000D01*
X146014955Y-116756760D01*
X146014955Y-116756761D01*
X146075464Y-116902841D01*
X146171715Y-117028279D01*
X146171720Y-117028284D01*
X146236879Y-117078282D01*
X146297159Y-117124536D01*
X146443238Y-117185044D01*
X146600000Y-117205682D01*
X146698585Y-117192703D01*
X146748004Y-117203659D01*
X146778819Y-117243818D01*
X146776611Y-117294388D01*
X146714956Y-117443235D01*
X146714955Y-117443239D01*
X146694318Y-117600000D01*
X146714955Y-117756760D01*
X146714955Y-117756761D01*
X146775464Y-117902841D01*
X146871715Y-118028279D01*
X146871720Y-118028284D01*
X146936879Y-118078282D01*
X146997159Y-118124536D01*
X147143238Y-118185044D01*
X147300000Y-118205682D01*
X147456762Y-118185044D01*
X147602841Y-118124536D01*
X147728282Y-118028282D01*
X147761110Y-117985500D01*
X148394318Y-117985500D01*
X148414955Y-118142260D01*
X148414955Y-118142261D01*
X148475464Y-118288341D01*
X148571715Y-118413779D01*
X148571720Y-118413784D01*
X148655345Y-118477951D01*
X148697159Y-118510036D01*
X148843238Y-118570544D01*
X149000000Y-118591182D01*
X149156762Y-118570544D01*
X149302841Y-118510036D01*
X149428282Y-118413782D01*
X149524536Y-118288341D01*
X149585044Y-118142262D01*
X149605682Y-117985500D01*
X149585044Y-117828738D01*
X149524536Y-117682659D01*
X149482809Y-117628279D01*
X149428284Y-117557220D01*
X149428279Y-117557215D01*
X149302841Y-117460964D01*
X149156761Y-117400455D01*
X149152075Y-117399200D01*
X149152721Y-117396788D01*
X149115881Y-117377570D01*
X149096551Y-117330787D01*
X149111814Y-117282524D01*
X149154529Y-117255363D01*
X149160805Y-117254259D01*
X149306762Y-117235044D01*
X149452841Y-117174536D01*
X149578282Y-117078282D01*
X149674536Y-116952841D01*
X149735044Y-116806762D01*
X149755682Y-116650000D01*
X149735044Y-116493238D01*
X149674536Y-116347159D01*
X149632115Y-116291875D01*
X149578284Y-116221720D01*
X149578279Y-116221715D01*
X149452841Y-116125464D01*
X149306761Y-116064955D01*
X149150000Y-116044318D01*
X148993239Y-116064955D01*
X148993238Y-116064955D01*
X148847158Y-116125464D01*
X148721720Y-116221715D01*
X148721715Y-116221720D01*
X148625464Y-116347158D01*
X148564955Y-116493238D01*
X148564955Y-116493239D01*
X148544318Y-116650000D01*
X148564955Y-116806760D01*
X148564955Y-116806761D01*
X148625464Y-116952841D01*
X148721715Y-117078279D01*
X148721720Y-117078284D01*
X148805345Y-117142451D01*
X148847159Y-117174536D01*
X148961071Y-117221720D01*
X148993238Y-117235044D01*
X148997925Y-117236300D01*
X148997273Y-117238729D01*
X149034061Y-117257867D01*
X149053445Y-117304627D01*
X149038237Y-117352908D01*
X148995553Y-117380117D01*
X148989175Y-117381243D01*
X148843239Y-117400455D01*
X148843238Y-117400455D01*
X148697158Y-117460964D01*
X148571720Y-117557215D01*
X148571715Y-117557220D01*
X148475464Y-117682658D01*
X148414955Y-117828738D01*
X148414955Y-117828739D01*
X148394318Y-117985500D01*
X147761110Y-117985500D01*
X147824536Y-117902841D01*
X147885044Y-117756762D01*
X147905682Y-117600000D01*
X147885044Y-117443238D01*
X147824536Y-117297159D01*
X147766646Y-117221715D01*
X147728284Y-117171720D01*
X147728279Y-117171715D01*
X147602841Y-117075464D01*
X147456761Y-117014955D01*
X147320636Y-116997034D01*
X147300000Y-116994318D01*
X147299999Y-116994318D01*
X147201413Y-117007296D01*
X147151994Y-116996340D01*
X147121180Y-116956180D01*
X147123388Y-116905610D01*
X147124533Y-116902843D01*
X147124536Y-116902841D01*
X147185044Y-116756762D01*
X147205682Y-116600000D01*
X147185044Y-116443238D01*
X147124536Y-116297159D01*
X147058216Y-116210729D01*
X147028284Y-116171720D01*
X147028279Y-116171715D01*
X146902841Y-116075464D01*
X146756761Y-116014955D01*
X146600000Y-115994318D01*
X146443239Y-116014955D01*
X146443238Y-116014955D01*
X146297158Y-116075464D01*
X146171720Y-116171715D01*
X146171715Y-116171720D01*
X146075464Y-116297158D01*
X146014955Y-116443238D01*
X146014955Y-116443239D01*
X145994318Y-116600000D01*
X131843161Y-116600000D01*
X131800000Y-116594318D01*
X131643239Y-116614955D01*
X131643238Y-116614955D01*
X131497158Y-116675464D01*
X131371720Y-116771715D01*
X131371715Y-116771720D01*
X131275464Y-116897158D01*
X131214955Y-117043238D01*
X131214955Y-117043239D01*
X131194318Y-117200000D01*
X127249979Y-117200000D01*
X127152841Y-117125464D01*
X127006761Y-117064955D01*
X126850000Y-117044318D01*
X126693239Y-117064955D01*
X126693238Y-117064955D01*
X126547158Y-117125464D01*
X126421720Y-117221715D01*
X126421715Y-117221720D01*
X126325464Y-117347158D01*
X126264955Y-117493238D01*
X126264955Y-117493239D01*
X126244318Y-117650000D01*
X115342431Y-117650000D01*
X115453872Y-117548407D01*
X115582366Y-117378255D01*
X115677405Y-117187389D01*
X115735756Y-116982310D01*
X115738178Y-116956180D01*
X115755429Y-116770003D01*
X115755429Y-116769996D01*
X115735757Y-116557696D01*
X115735756Y-116557690D01*
X115717418Y-116493239D01*
X115677405Y-116352611D01*
X115675872Y-116349533D01*
X115582367Y-116161747D01*
X115582363Y-116161741D01*
X115578842Y-116157079D01*
X115453872Y-115991593D01*
X115296302Y-115847948D01*
X115288236Y-115842954D01*
X115179017Y-115775328D01*
X115115019Y-115735702D01*
X115022187Y-115699739D01*
X114987221Y-115686193D01*
X141508125Y-115686193D01*
X141528762Y-115842953D01*
X141528762Y-115842954D01*
X141589271Y-115989034D01*
X141685522Y-116114472D01*
X141685527Y-116114477D01*
X141747131Y-116161747D01*
X141810966Y-116210729D01*
X141957045Y-116271237D01*
X142113807Y-116291875D01*
X142270569Y-116271237D01*
X142416648Y-116210729D01*
X142542089Y-116114475D01*
X142638343Y-115989034D01*
X142698851Y-115842955D01*
X142717705Y-115699737D01*
X142741078Y-115654839D01*
X142787844Y-115635467D01*
X142800725Y-115636029D01*
X142950000Y-115655682D01*
X143106762Y-115635044D01*
X143252841Y-115574536D01*
X143378282Y-115478282D01*
X143474536Y-115352841D01*
X143535044Y-115206762D01*
X143549099Y-115100000D01*
X146594318Y-115100000D01*
X146614955Y-115256760D01*
X146614955Y-115256761D01*
X146675464Y-115402841D01*
X146771715Y-115528279D01*
X146771720Y-115528284D01*
X146850498Y-115588732D01*
X146897159Y-115624536D01*
X147043238Y-115685044D01*
X147200000Y-115705682D01*
X147356762Y-115685044D01*
X147502841Y-115624536D01*
X147628282Y-115528282D01*
X147724536Y-115402841D01*
X147785044Y-115256762D01*
X147805682Y-115100000D01*
X147799099Y-115050000D01*
X152044318Y-115050000D01*
X152064955Y-115206760D01*
X152064955Y-115206761D01*
X152125464Y-115352841D01*
X152221715Y-115478279D01*
X152221720Y-115478284D01*
X152286879Y-115528282D01*
X152347159Y-115574536D01*
X152493238Y-115635044D01*
X152650000Y-115655682D01*
X152806762Y-115635044D01*
X152952841Y-115574536D01*
X153078282Y-115478282D01*
X153174536Y-115352841D01*
X153235044Y-115206762D01*
X153249099Y-115100000D01*
X153494318Y-115100000D01*
X153494460Y-115101075D01*
X153514955Y-115256760D01*
X153514955Y-115256761D01*
X153575464Y-115402841D01*
X153671715Y-115528279D01*
X153671720Y-115528284D01*
X153750498Y-115588732D01*
X153797159Y-115624536D01*
X153943238Y-115685044D01*
X154100000Y-115705682D01*
X154256762Y-115685044D01*
X154402841Y-115624536D01*
X154528282Y-115528282D01*
X154624536Y-115402841D01*
X154685044Y-115256762D01*
X154705682Y-115100000D01*
X154701991Y-115071964D01*
X156483815Y-115071964D01*
X156524361Y-115210050D01*
X156524362Y-115210054D01*
X156565575Y-115274182D01*
X156602172Y-115331128D01*
X156710942Y-115425377D01*
X156841858Y-115485165D01*
X156948516Y-115500500D01*
X156948522Y-115500500D01*
X157020108Y-115500500D01*
X157020114Y-115500500D01*
X157126772Y-115485165D01*
X157257688Y-115425377D01*
X157366458Y-115331128D01*
X157444268Y-115210053D01*
X157484814Y-115071963D01*
X157484815Y-115071963D01*
X157484815Y-114968315D01*
X157502128Y-114920749D01*
X157545965Y-114895439D01*
X157568467Y-114894948D01*
X157650000Y-114905682D01*
X157806762Y-114885044D01*
X157952841Y-114824536D01*
X158078282Y-114728282D01*
X158174536Y-114602841D01*
X158235044Y-114456762D01*
X158255682Y-114300000D01*
X158235044Y-114143238D01*
X158174536Y-113997159D01*
X158078282Y-113871718D01*
X158078279Y-113871715D01*
X157952841Y-113775464D01*
X157806761Y-113714955D01*
X157650000Y-113694318D01*
X157493239Y-113714955D01*
X157493238Y-113714955D01*
X157347158Y-113775464D01*
X157221720Y-113871715D01*
X157221715Y-113871720D01*
X157125464Y-113997158D01*
X157064955Y-114143238D01*
X157064955Y-114143239D01*
X157044318Y-114299999D01*
X157044318Y-114300000D01*
X157055528Y-114385151D01*
X157059569Y-114415841D01*
X157048613Y-114465260D01*
X157008454Y-114496075D01*
X156986202Y-114499500D01*
X156948511Y-114499500D01*
X156841860Y-114514834D01*
X156710941Y-114574623D01*
X156602175Y-114668868D01*
X156602170Y-114668875D01*
X156524362Y-114789945D01*
X156524361Y-114789949D01*
X156483815Y-114928035D01*
X156483815Y-115071964D01*
X154701991Y-115071964D01*
X154685044Y-114943238D01*
X154624536Y-114797159D01*
X154573003Y-114730000D01*
X154528284Y-114671720D01*
X154528279Y-114671715D01*
X154402841Y-114575464D01*
X154256761Y-114514955D01*
X154100000Y-114494318D01*
X153943239Y-114514955D01*
X153943238Y-114514955D01*
X153797158Y-114575464D01*
X153671720Y-114671715D01*
X153671715Y-114671720D01*
X153575464Y-114797158D01*
X153514955Y-114943238D01*
X153514955Y-114943239D01*
X153498009Y-115071961D01*
X153494318Y-115100000D01*
X153249099Y-115100000D01*
X153255682Y-115050000D01*
X153235044Y-114893238D01*
X153174536Y-114747159D01*
X153114467Y-114668875D01*
X153078284Y-114621720D01*
X153078279Y-114621715D01*
X152952841Y-114525464D01*
X152806761Y-114464955D01*
X152650000Y-114444318D01*
X152493239Y-114464955D01*
X152493238Y-114464955D01*
X152347158Y-114525464D01*
X152221720Y-114621715D01*
X152221715Y-114621720D01*
X152125464Y-114747158D01*
X152064955Y-114893238D01*
X152064955Y-114893239D01*
X152044318Y-115050000D01*
X147799099Y-115050000D01*
X147785044Y-114943238D01*
X147724536Y-114797159D01*
X147673003Y-114730000D01*
X147628284Y-114671720D01*
X147628279Y-114671715D01*
X147502841Y-114575464D01*
X147356761Y-114514955D01*
X147200000Y-114494318D01*
X147043239Y-114514955D01*
X147043238Y-114514955D01*
X146897158Y-114575464D01*
X146771720Y-114671715D01*
X146771715Y-114671720D01*
X146675464Y-114797158D01*
X146614955Y-114943238D01*
X146614955Y-114943239D01*
X146594318Y-115100000D01*
X143549099Y-115100000D01*
X143555682Y-115050000D01*
X143535044Y-114893238D01*
X143474536Y-114747159D01*
X143414467Y-114668875D01*
X143378284Y-114621720D01*
X143378279Y-114621715D01*
X143252841Y-114525464D01*
X143106761Y-114464955D01*
X142950000Y-114444318D01*
X142793239Y-114464955D01*
X142793238Y-114464955D01*
X142647158Y-114525464D01*
X142521720Y-114621715D01*
X142521715Y-114621720D01*
X142425464Y-114747158D01*
X142364955Y-114893238D01*
X142364955Y-114893239D01*
X142346101Y-115036454D01*
X142322728Y-115081354D01*
X142275962Y-115100725D01*
X142263075Y-115100162D01*
X142113807Y-115080511D01*
X141957046Y-115101148D01*
X141957045Y-115101148D01*
X141810965Y-115161657D01*
X141685527Y-115257908D01*
X141685522Y-115257913D01*
X141589271Y-115383351D01*
X141528762Y-115529431D01*
X141528762Y-115529432D01*
X141508125Y-115686193D01*
X114987221Y-115686193D01*
X114950789Y-115672079D01*
X114912689Y-115638752D01*
X114904924Y-115588732D01*
X114931129Y-115545424D01*
X114958369Y-115531597D01*
X115063491Y-115503430D01*
X115063494Y-115503428D01*
X115277579Y-115403598D01*
X115471075Y-115268111D01*
X115638111Y-115101075D01*
X115773598Y-114907579D01*
X115873428Y-114693494D01*
X115873433Y-114693483D01*
X115930636Y-114480000D01*
X115146554Y-114480000D01*
X115098988Y-114462687D01*
X115073678Y-114418850D01*
X115075552Y-114385151D01*
X115100000Y-114301891D01*
X115100000Y-114300000D01*
X154844318Y-114300000D01*
X154864955Y-114456760D01*
X154864955Y-114456761D01*
X154925464Y-114602841D01*
X155021715Y-114728279D01*
X155021720Y-114728284D01*
X155046319Y-114747159D01*
X155147159Y-114824536D01*
X155293238Y-114885044D01*
X155450000Y-114905682D01*
X155606762Y-114885044D01*
X155752841Y-114824536D01*
X155878282Y-114728282D01*
X155974536Y-114602841D01*
X156035044Y-114456762D01*
X156055682Y-114300000D01*
X156035044Y-114143238D01*
X155974536Y-113997159D01*
X155878282Y-113871718D01*
X155878279Y-113871715D01*
X155752841Y-113775464D01*
X155606761Y-113714955D01*
X155450000Y-113694318D01*
X155293239Y-113714955D01*
X155293238Y-113714955D01*
X155147158Y-113775464D01*
X155021720Y-113871715D01*
X155021715Y-113871720D01*
X154925464Y-113997158D01*
X154864955Y-114143238D01*
X154864955Y-114143239D01*
X154844318Y-114300000D01*
X115100000Y-114300000D01*
X115100000Y-114158108D01*
X115075552Y-114074849D01*
X115078762Y-114024332D01*
X115113693Y-113987697D01*
X115146554Y-113980000D01*
X115930636Y-113980000D01*
X115930636Y-113979999D01*
X115873432Y-113766512D01*
X115773598Y-113552421D01*
X115638109Y-113358921D01*
X115529187Y-113250000D01*
X127094318Y-113250000D01*
X127114955Y-113406760D01*
X127114955Y-113406761D01*
X127175464Y-113552841D01*
X127271715Y-113678279D01*
X127271720Y-113678284D01*
X127339118Y-113730000D01*
X127397159Y-113774536D01*
X127543238Y-113835044D01*
X127700000Y-113855682D01*
X127856762Y-113835044D01*
X128002841Y-113774536D01*
X128128282Y-113678282D01*
X128224536Y-113552841D01*
X128285044Y-113406762D01*
X128305682Y-113250000D01*
X128794318Y-113250000D01*
X128814955Y-113406760D01*
X128814955Y-113406761D01*
X128875464Y-113552841D01*
X128971715Y-113678279D01*
X128971720Y-113678284D01*
X129039118Y-113730000D01*
X129097159Y-113774536D01*
X129243238Y-113835044D01*
X129400000Y-113855682D01*
X129556762Y-113835044D01*
X129702841Y-113774536D01*
X129828282Y-113678282D01*
X129924536Y-113552841D01*
X129985044Y-113406762D01*
X130005682Y-113250000D01*
X129985044Y-113093238D01*
X129924536Y-112947159D01*
X129887864Y-112899367D01*
X129835496Y-112831119D01*
X129820274Y-112782843D01*
X129839646Y-112736077D01*
X129849156Y-112727363D01*
X129852839Y-112724536D01*
X129852841Y-112724536D01*
X129978282Y-112628282D01*
X130074536Y-112502841D01*
X130135044Y-112356762D01*
X130155682Y-112200000D01*
X130149099Y-112150000D01*
X139394318Y-112150000D01*
X139414955Y-112306760D01*
X139414955Y-112306761D01*
X139475464Y-112452841D01*
X139571715Y-112578279D01*
X139571720Y-112578284D01*
X139636879Y-112628282D01*
X139697159Y-112674536D01*
X139843238Y-112735044D01*
X140000000Y-112755682D01*
X140156762Y-112735044D01*
X140302841Y-112674536D01*
X140428282Y-112578282D01*
X140524536Y-112452841D01*
X140585044Y-112306762D01*
X140605682Y-112150000D01*
X140585044Y-111993238D01*
X140524536Y-111847159D01*
X140439097Y-111735812D01*
X140428284Y-111721720D01*
X140428279Y-111721715D01*
X140302841Y-111625464D01*
X140156761Y-111564955D01*
X140000000Y-111544318D01*
X139843239Y-111564955D01*
X139843238Y-111564955D01*
X139697158Y-111625464D01*
X139571720Y-111721715D01*
X139571715Y-111721720D01*
X139475464Y-111847158D01*
X139414955Y-111993238D01*
X139414955Y-111993239D01*
X139394318Y-112150000D01*
X130149099Y-112150000D01*
X130135044Y-112043238D01*
X130074536Y-111897159D01*
X130033161Y-111843238D01*
X129978284Y-111771720D01*
X129978279Y-111771715D01*
X129852841Y-111675464D01*
X129706761Y-111614955D01*
X129550000Y-111594318D01*
X129393239Y-111614955D01*
X129393238Y-111614955D01*
X129247158Y-111675464D01*
X129121720Y-111771715D01*
X129121715Y-111771720D01*
X129025464Y-111897158D01*
X128964955Y-112043238D01*
X128964955Y-112043239D01*
X128944318Y-112200000D01*
X128964955Y-112356760D01*
X128964955Y-112356761D01*
X129025464Y-112502841D01*
X129114503Y-112618880D01*
X129129725Y-112667156D01*
X129110353Y-112713922D01*
X129100843Y-112722636D01*
X128971720Y-112821715D01*
X128971715Y-112821720D01*
X128875464Y-112947158D01*
X128814955Y-113093238D01*
X128814955Y-113093239D01*
X128794318Y-113250000D01*
X128305682Y-113250000D01*
X128285044Y-113093238D01*
X128224536Y-112947159D01*
X128187864Y-112899367D01*
X128128284Y-112821720D01*
X128128279Y-112821715D01*
X128002841Y-112725464D01*
X127856761Y-112664955D01*
X127700000Y-112644318D01*
X127543239Y-112664955D01*
X127543238Y-112664955D01*
X127397158Y-112725464D01*
X127271720Y-112821715D01*
X127271715Y-112821720D01*
X127175464Y-112947158D01*
X127114955Y-113093238D01*
X127114955Y-113093239D01*
X127094318Y-113250000D01*
X115529187Y-113250000D01*
X115471075Y-113191888D01*
X115471076Y-113191888D01*
X115277579Y-113056401D01*
X115063494Y-112956571D01*
X115063483Y-112956566D01*
X114958368Y-112928401D01*
X114916904Y-112899367D01*
X114903803Y-112850473D01*
X114925195Y-112804597D01*
X114950787Y-112787921D01*
X115115019Y-112724298D01*
X115296302Y-112612052D01*
X115453872Y-112468407D01*
X115582366Y-112298255D01*
X115677405Y-112107389D01*
X115735756Y-111902310D01*
X115736234Y-111897159D01*
X115755429Y-111690003D01*
X115755429Y-111689996D01*
X115735757Y-111477696D01*
X115735756Y-111477690D01*
X115713651Y-111400000D01*
X143294318Y-111400000D01*
X143314955Y-111556760D01*
X143314955Y-111556761D01*
X143375464Y-111702841D01*
X143471715Y-111828279D01*
X143471720Y-111828284D01*
X143496319Y-111847159D01*
X143597159Y-111924536D01*
X143743238Y-111985044D01*
X143900000Y-112005682D01*
X144056762Y-111985044D01*
X144096241Y-111968690D01*
X144146809Y-111966483D01*
X144186968Y-111997297D01*
X144197925Y-112027399D01*
X144214955Y-112156760D01*
X144214955Y-112156761D01*
X144275464Y-112302841D01*
X144371715Y-112428279D01*
X144371720Y-112428284D01*
X144455345Y-112492451D01*
X144497159Y-112524536D01*
X144643238Y-112585044D01*
X144800000Y-112605682D01*
X144956762Y-112585044D01*
X145102841Y-112524536D01*
X145228282Y-112428282D01*
X145324536Y-112302841D01*
X145385044Y-112156762D01*
X145405682Y-112000000D01*
X145385044Y-111843238D01*
X145324536Y-111697159D01*
X145228282Y-111571718D01*
X145228279Y-111571715D01*
X145102841Y-111475464D01*
X144956761Y-111414955D01*
X144800000Y-111394318D01*
X144643239Y-111414955D01*
X144643235Y-111414956D01*
X144603759Y-111431308D01*
X144553188Y-111433516D01*
X144513030Y-111402701D01*
X144502074Y-111372601D01*
X144485044Y-111243238D01*
X144424536Y-111097159D01*
X144405203Y-111071964D01*
X156483815Y-111071964D01*
X156524361Y-111210050D01*
X156524362Y-111210054D01*
X156545689Y-111243239D01*
X156602172Y-111331128D01*
X156710942Y-111425377D01*
X156841858Y-111485165D01*
X156948516Y-111500500D01*
X156948522Y-111500500D01*
X157020108Y-111500500D01*
X157020114Y-111500500D01*
X157126772Y-111485165D01*
X157257688Y-111425377D01*
X157366458Y-111331128D01*
X157444268Y-111210053D01*
X157484814Y-111071963D01*
X157484815Y-111071963D01*
X157484815Y-110928036D01*
X157484814Y-110928035D01*
X157451611Y-110814956D01*
X157444268Y-110789947D01*
X157366458Y-110668872D01*
X157366455Y-110668869D01*
X157366454Y-110668868D01*
X157257688Y-110574623D01*
X157126772Y-110514835D01*
X157126770Y-110514834D01*
X157126769Y-110514834D01*
X157020118Y-110499500D01*
X157020114Y-110499500D01*
X156948516Y-110499500D01*
X156948511Y-110499500D01*
X156841860Y-110514834D01*
X156710941Y-110574623D01*
X156602175Y-110668868D01*
X156602170Y-110668875D01*
X156524362Y-110789945D01*
X156524361Y-110789949D01*
X156483815Y-110928035D01*
X156483815Y-111071964D01*
X144405203Y-111071964D01*
X144392451Y-111055345D01*
X144328284Y-110971720D01*
X144328279Y-110971715D01*
X144202841Y-110875464D01*
X144056761Y-110814955D01*
X143900000Y-110794318D01*
X143743239Y-110814955D01*
X143743238Y-110814955D01*
X143597158Y-110875464D01*
X143471720Y-110971715D01*
X143471715Y-110971720D01*
X143375464Y-111097158D01*
X143314955Y-111243238D01*
X143314955Y-111243239D01*
X143294318Y-111400000D01*
X115713651Y-111400000D01*
X115712034Y-111394318D01*
X115677405Y-111272611D01*
X115662779Y-111243238D01*
X115582367Y-111081747D01*
X115582363Y-111081741D01*
X115504235Y-110978284D01*
X115453872Y-110911593D01*
X115296302Y-110767948D01*
X115115019Y-110655702D01*
X114916198Y-110578679D01*
X114824149Y-110561472D01*
X114762781Y-110550000D01*
X129644318Y-110550000D01*
X129664955Y-110706760D01*
X129664955Y-110706761D01*
X129725464Y-110852841D01*
X129821715Y-110978279D01*
X129821720Y-110978284D01*
X129905345Y-111042451D01*
X129947159Y-111074536D01*
X130093238Y-111135044D01*
X130250000Y-111155682D01*
X130406762Y-111135044D01*
X130552841Y-111074536D01*
X130678282Y-110978282D01*
X130774536Y-110852841D01*
X130835044Y-110706762D01*
X130855682Y-110550000D01*
X130835044Y-110393238D01*
X130774536Y-110247159D01*
X130705172Y-110156762D01*
X130678284Y-110121720D01*
X130678279Y-110121715D01*
X130552841Y-110025464D01*
X130406761Y-109964955D01*
X130250000Y-109944318D01*
X130093239Y-109964955D01*
X130093238Y-109964955D01*
X129947158Y-110025464D01*
X129821720Y-110121715D01*
X129821715Y-110121720D01*
X129725464Y-110247158D01*
X129664955Y-110393238D01*
X129664955Y-110393239D01*
X129644318Y-110550000D01*
X114762781Y-110550000D01*
X114706613Y-110539500D01*
X114706610Y-110539500D01*
X114493390Y-110539500D01*
X114493386Y-110539500D01*
X114336669Y-110568796D01*
X114283802Y-110578679D01*
X114283800Y-110578679D01*
X114283798Y-110578680D01*
X114084986Y-110655700D01*
X114084981Y-110655702D01*
X114084976Y-110655704D01*
X114084976Y-110655705D01*
X113903700Y-110767946D01*
X113746130Y-110911590D01*
X113617636Y-111081741D01*
X113617632Y-111081747D01*
X113522596Y-111272606D01*
X113522593Y-111272616D01*
X113464243Y-111477690D01*
X113464242Y-111477696D01*
X113448183Y-111651015D01*
X113428705Y-111692232D01*
X113444036Y-111710503D01*
X113448183Y-111728984D01*
X113464242Y-111902303D01*
X113464243Y-111902309D01*
X113522593Y-112107383D01*
X113522596Y-112107393D01*
X113617632Y-112298252D01*
X113617634Y-112298255D01*
X113746128Y-112468407D01*
X113903698Y-112612052D01*
X114084981Y-112724298D01*
X114249210Y-112787920D01*
X114287310Y-112821246D01*
X114295075Y-112871266D01*
X114268871Y-112914575D01*
X114241631Y-112928401D01*
X114136516Y-112956566D01*
X114136505Y-112956571D01*
X113922421Y-113056401D01*
X113728921Y-113191890D01*
X113561890Y-113358921D01*
X113435116Y-113539974D01*
X113393652Y-113569008D01*
X113343225Y-113564596D01*
X113307432Y-113528803D01*
X113300499Y-113497529D01*
X113300499Y-111735812D01*
X113317812Y-111688246D01*
X113319680Y-111687167D01*
X113302923Y-111662973D01*
X113300499Y-111644187D01*
X113300499Y-110044863D01*
X113449500Y-110044863D01*
X113452414Y-110069986D01*
X113452415Y-110069992D01*
X113490728Y-110156762D01*
X113497794Y-110172765D01*
X113577235Y-110252206D01*
X113680009Y-110297585D01*
X113705135Y-110300500D01*
X115494864Y-110300499D01*
X115519991Y-110297585D01*
X115622765Y-110252206D01*
X115702206Y-110172765D01*
X115747585Y-110069991D01*
X115750500Y-110044865D01*
X115750499Y-109136192D01*
X131558125Y-109136192D01*
X131578762Y-109292953D01*
X131578762Y-109292954D01*
X131639271Y-109439034D01*
X131735522Y-109564472D01*
X131735524Y-109564474D01*
X131735525Y-109564475D01*
X131754760Y-109579234D01*
X131766036Y-109587887D01*
X131793233Y-109630579D01*
X131786626Y-109680765D01*
X131779699Y-109691638D01*
X131775466Y-109697154D01*
X131775464Y-109697157D01*
X131714955Y-109843238D01*
X131714955Y-109843239D01*
X131694318Y-110000000D01*
X131714955Y-110156760D01*
X131714955Y-110156761D01*
X131775464Y-110302841D01*
X131871715Y-110428279D01*
X131871720Y-110428284D01*
X131901052Y-110450791D01*
X131997159Y-110524536D01*
X132143238Y-110585044D01*
X132300000Y-110605682D01*
X132456762Y-110585044D01*
X132602841Y-110524536D01*
X132728282Y-110428282D01*
X132824536Y-110302841D01*
X132885044Y-110156762D01*
X132905682Y-110000000D01*
X132885044Y-109843238D01*
X132824536Y-109697159D01*
X132788708Y-109650467D01*
X132728286Y-109571722D01*
X132728284Y-109571720D01*
X132728282Y-109571719D01*
X132728282Y-109571718D01*
X132697768Y-109548304D01*
X132670572Y-109505613D01*
X132677180Y-109455427D01*
X132684109Y-109444551D01*
X132688343Y-109439034D01*
X132748851Y-109292955D01*
X132769489Y-109136193D01*
X132764724Y-109100000D01*
X136394318Y-109100000D01*
X136414955Y-109256760D01*
X136414955Y-109256761D01*
X136475464Y-109402841D01*
X136571715Y-109528279D01*
X136571720Y-109528284D01*
X136628330Y-109571722D01*
X136697159Y-109624536D01*
X136843238Y-109685044D01*
X137000000Y-109705682D01*
X137156762Y-109685044D01*
X137302841Y-109624536D01*
X137428282Y-109528282D01*
X137524536Y-109402841D01*
X137585044Y-109256762D01*
X137605682Y-109100000D01*
X140244318Y-109100000D01*
X140264955Y-109256760D01*
X140264955Y-109256761D01*
X140325464Y-109402841D01*
X140421715Y-109528279D01*
X140421720Y-109528284D01*
X140478330Y-109571722D01*
X140547159Y-109624536D01*
X140693238Y-109685044D01*
X140850000Y-109705682D01*
X141006762Y-109685044D01*
X141152841Y-109624536D01*
X141278282Y-109528282D01*
X141374536Y-109402841D01*
X141435044Y-109256762D01*
X141455682Y-109100000D01*
X141435044Y-108943238D01*
X141374536Y-108797159D01*
X141317432Y-108722739D01*
X141278284Y-108671720D01*
X141278279Y-108671715D01*
X141152841Y-108575464D01*
X141006761Y-108514955D01*
X140850000Y-108494318D01*
X140693239Y-108514955D01*
X140693238Y-108514955D01*
X140547158Y-108575464D01*
X140421720Y-108671715D01*
X140421715Y-108671720D01*
X140325464Y-108797158D01*
X140264955Y-108943238D01*
X140264955Y-108943239D01*
X140244318Y-109100000D01*
X137605682Y-109100000D01*
X137585044Y-108943238D01*
X137524536Y-108797159D01*
X137467432Y-108722739D01*
X137428284Y-108671720D01*
X137428279Y-108671715D01*
X137302841Y-108575464D01*
X137156761Y-108514955D01*
X137000000Y-108494318D01*
X136843239Y-108514955D01*
X136843238Y-108514955D01*
X136697158Y-108575464D01*
X136571720Y-108671715D01*
X136571715Y-108671720D01*
X136475464Y-108797158D01*
X136414955Y-108943238D01*
X136414955Y-108943239D01*
X136394318Y-109100000D01*
X132764724Y-109100000D01*
X132748851Y-108979431D01*
X132688343Y-108833352D01*
X132688342Y-108833351D01*
X132688342Y-108833350D01*
X132671751Y-108811729D01*
X132656528Y-108763453D01*
X132671748Y-108721634D01*
X132724536Y-108652841D01*
X132785044Y-108506762D01*
X132805682Y-108350000D01*
X132785044Y-108193238D01*
X132724536Y-108047159D01*
X132628282Y-107921718D01*
X132628279Y-107921715D01*
X132502841Y-107825464D01*
X132356761Y-107764955D01*
X132200000Y-107744318D01*
X132043239Y-107764955D01*
X132043238Y-107764955D01*
X131897158Y-107825464D01*
X131771720Y-107921715D01*
X131771715Y-107921720D01*
X131675464Y-108047158D01*
X131614955Y-108193238D01*
X131614955Y-108193239D01*
X131594318Y-108350000D01*
X131614955Y-108506760D01*
X131614955Y-108506761D01*
X131675463Y-108652839D01*
X131675464Y-108652841D01*
X131692055Y-108674463D01*
X131707277Y-108722739D01*
X131692056Y-108764558D01*
X131639272Y-108833350D01*
X131639271Y-108833350D01*
X131578762Y-108979431D01*
X131578762Y-108979432D01*
X131558125Y-109136192D01*
X115750499Y-109136192D01*
X115750499Y-108255136D01*
X115747585Y-108230009D01*
X115702206Y-108127235D01*
X115622765Y-108047794D01*
X115519991Y-108002415D01*
X115519990Y-108002414D01*
X115519988Y-108002414D01*
X115498659Y-107999940D01*
X115494865Y-107999500D01*
X115494864Y-107999500D01*
X113705136Y-107999500D01*
X113680013Y-108002414D01*
X113680007Y-108002415D01*
X113577234Y-108047794D01*
X113497794Y-108127234D01*
X113452414Y-108230011D01*
X113449500Y-108255135D01*
X113449500Y-110044863D01*
X113300499Y-110044863D01*
X113300499Y-107200000D01*
X148894318Y-107200000D01*
X148914955Y-107356760D01*
X148914955Y-107356761D01*
X148975464Y-107502841D01*
X149071715Y-107628279D01*
X149071720Y-107628284D01*
X149155345Y-107692451D01*
X149197159Y-107724536D01*
X149343238Y-107785044D01*
X149500000Y-107805682D01*
X149656762Y-107785044D01*
X149802841Y-107724536D01*
X149928282Y-107628282D01*
X150024536Y-107502841D01*
X150085044Y-107356762D01*
X150105682Y-107200000D01*
X150085044Y-107043238D01*
X150024536Y-106897159D01*
X149992451Y-106855345D01*
X149928284Y-106771720D01*
X149928279Y-106771715D01*
X149802841Y-106675464D01*
X149656761Y-106614955D01*
X149500000Y-106594318D01*
X149343239Y-106614955D01*
X149343238Y-106614955D01*
X149197158Y-106675464D01*
X149071720Y-106771715D01*
X149071715Y-106771720D01*
X148975464Y-106897158D01*
X148914955Y-107043238D01*
X148914955Y-107043239D01*
X148894318Y-107200000D01*
X113300499Y-107200000D01*
X113300499Y-106288985D01*
X113317812Y-106241419D01*
X113361649Y-106216109D01*
X113411499Y-106224899D01*
X113435113Y-106246537D01*
X113499953Y-106339139D01*
X113660861Y-106500047D01*
X113772400Y-106578147D01*
X113824969Y-106614956D01*
X113847266Y-106630568D01*
X114053504Y-106726739D01*
X114053510Y-106726740D01*
X114053511Y-106726741D01*
X114273303Y-106785634D01*
X114273305Y-106785634D01*
X114273308Y-106785635D01*
X114443216Y-106800500D01*
X114443218Y-106800500D01*
X114556782Y-106800500D01*
X114556784Y-106800500D01*
X114726692Y-106785635D01*
X114946496Y-106726739D01*
X115152734Y-106630568D01*
X115339139Y-106500047D01*
X115339186Y-106500000D01*
X115794318Y-106500000D01*
X115814955Y-106656760D01*
X115814955Y-106656761D01*
X115875464Y-106802841D01*
X115971715Y-106928279D01*
X115971720Y-106928284D01*
X116055345Y-106992451D01*
X116097159Y-107024536D01*
X116243238Y-107085044D01*
X116400000Y-107105682D01*
X116556762Y-107085044D01*
X116702841Y-107024536D01*
X116828282Y-106928282D01*
X116924536Y-106802841D01*
X116985044Y-106656762D01*
X117005682Y-106500000D01*
X116985044Y-106343238D01*
X116924536Y-106197159D01*
X116828282Y-106071718D01*
X116828279Y-106071715D01*
X116702841Y-105975464D01*
X116556761Y-105914955D01*
X116400000Y-105894318D01*
X116243239Y-105914955D01*
X116243238Y-105914955D01*
X116097158Y-105975464D01*
X115971720Y-106071715D01*
X115971715Y-106071720D01*
X115875464Y-106197158D01*
X115814955Y-106343238D01*
X115814955Y-106343239D01*
X115794318Y-106500000D01*
X115339186Y-106500000D01*
X115500047Y-106339139D01*
X115630568Y-106152734D01*
X115726739Y-105946496D01*
X115785635Y-105726692D01*
X115805468Y-105500000D01*
X115805468Y-105499994D01*
X115785635Y-105273311D01*
X115785634Y-105273303D01*
X115726741Y-105053511D01*
X115726740Y-105053510D01*
X115726739Y-105053504D01*
X115630568Y-104847266D01*
X115500047Y-104660861D01*
X115339139Y-104499953D01*
X115282098Y-104460013D01*
X115246543Y-104435117D01*
X115217510Y-104393653D01*
X115221921Y-104343226D01*
X115257714Y-104307433D01*
X115288988Y-104300500D01*
X117247902Y-104300500D01*
X117295468Y-104317813D01*
G37*
G04 #@! TD.AperFunction*
M02*
