G04 #@! TF.GenerationSoftware,KiCad,Pcbnew,7.0.7*
G04 #@! TF.CreationDate,2023-09-06T15:40:30-04:00*
G04 #@! TF.ProjectId,stm8l151k6t6_board,73746d38-6c31-4353-916b-3674365f626f,rev?*
G04 #@! TF.SameCoordinates,Original*
G04 #@! TF.FileFunction,Copper,L1,Top*
G04 #@! TF.FilePolarity,Positive*
%FSLAX46Y46*%
G04 Gerber Fmt 4.6, Leading zero omitted, Abs format (unit mm)*
G04 Created by KiCad (PCBNEW 7.0.7) date 2023-09-06 15:40:30*
%MOMM*%
%LPD*%
G01*
G04 APERTURE LIST*
G04 Aperture macros list*
%AMRoundRect*
0 Rectangle with rounded corners*
0 $1 Rounding radius*
0 $2 $3 $4 $5 $6 $7 $8 $9 X,Y pos of 4 corners*
0 Add a 4 corners polygon primitive as box body*
4,1,4,$2,$3,$4,$5,$6,$7,$8,$9,$2,$3,0*
0 Add four circle primitives for the rounded corners*
1,1,$1+$1,$2,$3*
1,1,$1+$1,$4,$5*
1,1,$1+$1,$6,$7*
1,1,$1+$1,$8,$9*
0 Add four rect primitives between the rounded corners*
20,1,$1+$1,$2,$3,$4,$5,0*
20,1,$1+$1,$4,$5,$6,$7,0*
20,1,$1+$1,$6,$7,$8,$9,0*
20,1,$1+$1,$8,$9,$2,$3,0*%
G04 Aperture macros list end*
G04 #@! TA.AperFunction,SMDPad,CuDef*
%ADD10RoundRect,0.140000X-0.140000X-0.170000X0.140000X-0.170000X0.140000X0.170000X-0.140000X0.170000X0*%
G04 #@! TD*
G04 #@! TA.AperFunction,SMDPad,CuDef*
%ADD11RoundRect,0.150000X0.512500X0.150000X-0.512500X0.150000X-0.512500X-0.150000X0.512500X-0.150000X0*%
G04 #@! TD*
G04 #@! TA.AperFunction,SMDPad,CuDef*
%ADD12RoundRect,0.225000X0.250000X-0.225000X0.250000X0.225000X-0.250000X0.225000X-0.250000X-0.225000X0*%
G04 #@! TD*
G04 #@! TA.AperFunction,SMDPad,CuDef*
%ADD13R,1.400000X1.200000*%
G04 #@! TD*
G04 #@! TA.AperFunction,SMDPad,CuDef*
%ADD14RoundRect,0.250000X0.262500X0.450000X-0.262500X0.450000X-0.262500X-0.450000X0.262500X-0.450000X0*%
G04 #@! TD*
G04 #@! TA.AperFunction,SMDPad,CuDef*
%ADD15RoundRect,0.140000X0.170000X-0.140000X0.170000X0.140000X-0.170000X0.140000X-0.170000X-0.140000X0*%
G04 #@! TD*
G04 #@! TA.AperFunction,SMDPad,CuDef*
%ADD16RoundRect,0.140000X0.021213X-0.219203X0.219203X-0.021213X-0.021213X0.219203X-0.219203X0.021213X0*%
G04 #@! TD*
G04 #@! TA.AperFunction,SMDPad,CuDef*
%ADD17RoundRect,0.200000X0.275000X-0.200000X0.275000X0.200000X-0.275000X0.200000X-0.275000X-0.200000X0*%
G04 #@! TD*
G04 #@! TA.AperFunction,SMDPad,CuDef*
%ADD18RoundRect,0.200000X0.200000X0.275000X-0.200000X0.275000X-0.200000X-0.275000X0.200000X-0.275000X0*%
G04 #@! TD*
G04 #@! TA.AperFunction,SMDPad,CuDef*
%ADD19R,1.350013X0.400000*%
G04 #@! TD*
G04 #@! TA.AperFunction,SMDPad,CuDef*
%ADD20R,1.199898X1.600000*%
G04 #@! TD*
G04 #@! TA.AperFunction,ComponentPad*
%ADD21O,2.400000X1.200000*%
G04 #@! TD*
G04 #@! TA.AperFunction,SMDPad,CuDef*
%ADD22RoundRect,0.140000X0.140000X0.170000X-0.140000X0.170000X-0.140000X-0.170000X0.140000X-0.170000X0*%
G04 #@! TD*
G04 #@! TA.AperFunction,SMDPad,CuDef*
%ADD23RoundRect,0.075000X0.075000X-0.350000X0.075000X0.350000X-0.075000X0.350000X-0.075000X-0.350000X0*%
G04 #@! TD*
G04 #@! TA.AperFunction,SMDPad,CuDef*
%ADD24RoundRect,0.075000X0.350000X-0.075000X0.350000X0.075000X-0.350000X0.075000X-0.350000X-0.075000X0*%
G04 #@! TD*
G04 #@! TA.AperFunction,SMDPad,CuDef*
%ADD25R,2.100000X2.100000*%
G04 #@! TD*
G04 #@! TA.AperFunction,SMDPad,CuDef*
%ADD26RoundRect,0.125000X-0.530330X0.353553X0.353553X-0.530330X0.530330X-0.353553X-0.353553X0.530330X0*%
G04 #@! TD*
G04 #@! TA.AperFunction,SMDPad,CuDef*
%ADD27RoundRect,0.125000X-0.530330X-0.353553X-0.353553X-0.530330X0.530330X0.353553X0.353553X0.530330X0*%
G04 #@! TD*
G04 #@! TA.AperFunction,SMDPad,CuDef*
%ADD28R,1.050013X0.700000*%
G04 #@! TD*
G04 #@! TA.AperFunction,SMDPad,CuDef*
%ADD29RoundRect,0.243750X0.243750X0.456250X-0.243750X0.456250X-0.243750X-0.456250X0.243750X-0.456250X0*%
G04 #@! TD*
G04 #@! TA.AperFunction,SMDPad,CuDef*
%ADD30R,0.600000X1.100000*%
G04 #@! TD*
G04 #@! TA.AperFunction,SMDPad,CuDef*
%ADD31RoundRect,0.140000X-0.219203X-0.021213X-0.021213X-0.219203X0.219203X0.021213X0.021213X0.219203X0*%
G04 #@! TD*
G04 #@! TA.AperFunction,SMDPad,CuDef*
%ADD32RoundRect,0.225000X-0.250000X0.225000X-0.250000X-0.225000X0.250000X-0.225000X0.250000X0.225000X0*%
G04 #@! TD*
G04 #@! TA.AperFunction,ComponentPad*
%ADD33R,1.700000X1.700000*%
G04 #@! TD*
G04 #@! TA.AperFunction,ComponentPad*
%ADD34O,1.700000X1.700000*%
G04 #@! TD*
G04 #@! TA.AperFunction,SMDPad,CuDef*
%ADD35RoundRect,0.140000X-0.170000X0.140000X-0.170000X-0.140000X0.170000X-0.140000X0.170000X0.140000X0*%
G04 #@! TD*
G04 #@! TA.AperFunction,ViaPad*
%ADD36C,0.600000*%
G04 #@! TD*
G04 #@! TA.AperFunction,Conductor*
%ADD37C,0.450000*%
G04 #@! TD*
G04 #@! TA.AperFunction,Conductor*
%ADD38C,0.350000*%
G04 #@! TD*
G04 #@! TA.AperFunction,Conductor*
%ADD39C,0.300000*%
G04 #@! TD*
G04 #@! TA.AperFunction,Conductor*
%ADD40C,0.200000*%
G04 #@! TD*
G04 #@! TA.AperFunction,Conductor*
%ADD41C,0.400000*%
G04 #@! TD*
G04 #@! TA.AperFunction,Conductor*
%ADD42C,0.250000*%
G04 #@! TD*
G04 #@! TA.AperFunction,Conductor*
%ADD43C,0.150000*%
G04 #@! TD*
G04 APERTURE END LIST*
D10*
X143570000Y-109800000D03*
X144530000Y-109800000D03*
D11*
X152237500Y-117650000D03*
X152237500Y-116700000D03*
X152237500Y-115750000D03*
X149962500Y-115750000D03*
X149962500Y-117650000D03*
D12*
X128550000Y-113225000D03*
X128550000Y-111675000D03*
D13*
X126800000Y-110050000D03*
X129000000Y-110050000D03*
X129000000Y-108350000D03*
X126800000Y-108350000D03*
D14*
X153962500Y-112750000D03*
X152137500Y-112750000D03*
D15*
X124100076Y-110854930D03*
X124100076Y-109894930D03*
D16*
X130810589Y-110889411D03*
X131489411Y-110210589D03*
D17*
X124500000Y-117225000D03*
X124500000Y-115575000D03*
D18*
X129600000Y-118325000D03*
X127950000Y-118325000D03*
D19*
X156449898Y-114270003D03*
X156449898Y-113619761D03*
X156449898Y-112969520D03*
X156449898Y-112319279D03*
X156449898Y-111669037D03*
D20*
X156374968Y-116249936D03*
X156374968Y-109750064D03*
D21*
X159125032Y-116575057D03*
X159125032Y-109424943D03*
D22*
X148380000Y-107900000D03*
X147420000Y-107900000D03*
D10*
X149420000Y-107900000D03*
X150380000Y-107900000D03*
X126220000Y-111600000D03*
X127180000Y-111600000D03*
D23*
X147325000Y-113050000D03*
X147975000Y-113050000D03*
X148625000Y-113050000D03*
X149275000Y-113050000D03*
D24*
X150250000Y-112075000D03*
X150250000Y-111425000D03*
X150250000Y-110775000D03*
X150250000Y-110125000D03*
D23*
X149275000Y-109150000D03*
X148625000Y-109150000D03*
X147975000Y-109150000D03*
X147325000Y-109150000D03*
D24*
X146350000Y-110125000D03*
X146350000Y-110775000D03*
X146350000Y-111425000D03*
X146350000Y-112075000D03*
D25*
X148300000Y-111100000D03*
D26*
X136027728Y-108067930D03*
X135462043Y-108633616D03*
X134896357Y-109199301D03*
X134330672Y-109764986D03*
X133764986Y-110330672D03*
X133199301Y-110896357D03*
X132633616Y-111462043D03*
X132067930Y-112027728D03*
D27*
X132067930Y-113972272D03*
X132633616Y-114537957D03*
X133199301Y-115103643D03*
X133764986Y-115669328D03*
X134330672Y-116235014D03*
X134896357Y-116800699D03*
X135462043Y-117366384D03*
X136027728Y-117932070D03*
D26*
X137972272Y-117932070D03*
X138537957Y-117366384D03*
X139103643Y-116800699D03*
X139669328Y-116235014D03*
X140235014Y-115669328D03*
X140800699Y-115103643D03*
X141366384Y-114537957D03*
X141932070Y-113972272D03*
D27*
X141932070Y-112027728D03*
X141366384Y-111462043D03*
X140800699Y-110896357D03*
X140235014Y-110330672D03*
X139669328Y-109764986D03*
X139103643Y-109199301D03*
X138537957Y-108633616D03*
X137972272Y-108067930D03*
D12*
X148100000Y-117425000D03*
X148100000Y-115875000D03*
D15*
X142150000Y-108580000D03*
X142150000Y-107620000D03*
D28*
X122700076Y-117274930D03*
X118499924Y-117274930D03*
X122700076Y-115125070D03*
X118499924Y-115125070D03*
D14*
X153962500Y-110450000D03*
X152137500Y-110450000D03*
D29*
X146087500Y-115100000D03*
X144212500Y-115100000D03*
D30*
X144750000Y-108300000D03*
X143350000Y-108300000D03*
D31*
X130060589Y-111710589D03*
X130739411Y-112389411D03*
D32*
X154100000Y-115875000D03*
X154100000Y-117425000D03*
D18*
X145975000Y-117100000D03*
X144325000Y-117100000D03*
D10*
X147520000Y-114500000D03*
X148480000Y-114500000D03*
D28*
X118499924Y-108725070D03*
X122700076Y-108725070D03*
X118499924Y-110874930D03*
X122700076Y-110874930D03*
D33*
X114600000Y-109150000D03*
D34*
X114600000Y-111690000D03*
X114600000Y-114230000D03*
X114600000Y-116770000D03*
D35*
X130600000Y-107920000D03*
X130600000Y-108880000D03*
D29*
X129712500Y-116225000D03*
X127837500Y-116225000D03*
D33*
X156050000Y-120600000D03*
D34*
X153510000Y-120600000D03*
X150970000Y-120600000D03*
X148430000Y-120600000D03*
X145890000Y-120600000D03*
X143350000Y-120600000D03*
X140810000Y-120600000D03*
X138270000Y-120600000D03*
X135730000Y-120600000D03*
X133190000Y-120600000D03*
X130650000Y-120600000D03*
X128110000Y-120600000D03*
X125570000Y-120600000D03*
X123030000Y-120600000D03*
X120490000Y-120600000D03*
X117950000Y-120600000D03*
D33*
X156050000Y-105380000D03*
D34*
X153510000Y-105380000D03*
X150970000Y-105380000D03*
X148430000Y-105380000D03*
X145890000Y-105380000D03*
X143350000Y-105380000D03*
X140810000Y-105380000D03*
X138270000Y-105380000D03*
X135730000Y-105380000D03*
X133190000Y-105380000D03*
X130650000Y-105380000D03*
X128110000Y-105380000D03*
X125570000Y-105380000D03*
X123030000Y-105380000D03*
X120490000Y-105380000D03*
X117950000Y-105380000D03*
D36*
X157650000Y-114300000D03*
X155450000Y-114300000D03*
X154100000Y-115100000D03*
X152650000Y-115050000D03*
X130250000Y-110550000D03*
X129550000Y-112200000D03*
X127700000Y-113250000D03*
X129400000Y-113250000D03*
X149150000Y-116650000D03*
X149500000Y-107200000D03*
X149000000Y-117985500D03*
X147300000Y-117600000D03*
X146600000Y-116600000D03*
X147200000Y-115100000D03*
X148600000Y-113800000D03*
X118750000Y-109600000D03*
X146800000Y-107900000D03*
X145200000Y-109800000D03*
X155850000Y-110950000D03*
X149200000Y-114560500D03*
X149950000Y-116450000D03*
X148900000Y-115639500D03*
X155350000Y-115700000D03*
X154950000Y-117700000D03*
X127939502Y-110000000D03*
X127200000Y-112200000D03*
X122000000Y-110000000D03*
X123350000Y-110050000D03*
X131700000Y-116264500D03*
X131300000Y-112650000D03*
X124700000Y-114750000D03*
X145250000Y-115100000D03*
X159100000Y-117600000D03*
X145350000Y-110650000D03*
X155450000Y-109800000D03*
X159100000Y-108450000D03*
X149950000Y-108700000D03*
X129350000Y-111100000D03*
X142150000Y-106950000D03*
X154660500Y-116717249D03*
X130900000Y-109800000D03*
X132200000Y-108350000D03*
X132163807Y-109136193D03*
X132300000Y-110000000D03*
X126850000Y-117650000D03*
X131800000Y-117200000D03*
X142113807Y-115686193D03*
X142950000Y-115050000D03*
X144800000Y-112000000D03*
X143900000Y-111400000D03*
X137000000Y-109100000D03*
X140000000Y-112150000D03*
X140850000Y-109100000D03*
X124300000Y-106500000D03*
X116400000Y-106500000D03*
D37*
X152237500Y-117650000D02*
X151550000Y-117650000D01*
X151550000Y-117650000D02*
X151050000Y-117150000D01*
X151050000Y-117150000D02*
X151050000Y-116250000D01*
X151050000Y-116250000D02*
X151550000Y-115750000D01*
X151550000Y-115750000D02*
X152237500Y-115750000D01*
D38*
X148380000Y-107900000D02*
X148380000Y-107220000D01*
X148380000Y-107220000D02*
X149050000Y-106550000D01*
X149050000Y-106550000D02*
X155900000Y-106550000D01*
X155900000Y-106550000D02*
X156050000Y-106400000D01*
X156050000Y-106400000D02*
X156050000Y-105380000D01*
D39*
X157620003Y-114270003D02*
X157650000Y-114300000D01*
X156449898Y-114270003D02*
X157620003Y-114270003D01*
X155479997Y-114270003D02*
X155450000Y-114300000D01*
X156449898Y-114270003D02*
X155479997Y-114270003D01*
D40*
X154100000Y-115875000D02*
X154100000Y-115100000D01*
D39*
X152237500Y-115462500D02*
X152650000Y-115050000D01*
X152237500Y-115750000D02*
X152237500Y-115462500D01*
D38*
X130589411Y-110889411D02*
X130250000Y-110550000D01*
X130810589Y-110889411D02*
X130589411Y-110889411D01*
X130039411Y-111710589D02*
X129550000Y-112200000D01*
X130060589Y-111710589D02*
X130039411Y-111710589D01*
D40*
X127725000Y-113225000D02*
X127700000Y-113250000D01*
X128550000Y-113225000D02*
X127725000Y-113225000D01*
X129375000Y-113225000D02*
X129400000Y-113250000D01*
X128550000Y-113225000D02*
X129375000Y-113225000D01*
D39*
X149962500Y-117412500D02*
X149200000Y-116650000D01*
X149962500Y-117650000D02*
X149962500Y-117412500D01*
X149000000Y-117985500D02*
X149335500Y-117650000D01*
X149335500Y-117650000D02*
X149962500Y-117650000D01*
D40*
X149500000Y-107200000D02*
X149420000Y-107280000D01*
X149420000Y-107280000D02*
X149420000Y-107900000D01*
D39*
X147475000Y-117425000D02*
X147300000Y-117600000D01*
X148100000Y-117425000D02*
X147475000Y-117425000D01*
D41*
X146100000Y-117100000D02*
X146600000Y-116600000D01*
X145975000Y-117100000D02*
X146100000Y-117100000D01*
D39*
X147520000Y-114780000D02*
X147200000Y-115100000D01*
X147520000Y-114500000D02*
X147520000Y-114780000D01*
X147325000Y-113050000D02*
X147325000Y-113625000D01*
X147325000Y-113625000D02*
X147520000Y-113820000D01*
X147520000Y-113820000D02*
X147520000Y-114500000D01*
D41*
X145975000Y-117100000D02*
X146036081Y-117100000D01*
X153975000Y-115750000D02*
X154100000Y-115875000D01*
D40*
X148625000Y-108625000D02*
X148380000Y-108380000D01*
X154100000Y-115900000D02*
X154100000Y-115875000D01*
X148380000Y-108380000D02*
X148380000Y-107900000D01*
X148625000Y-109150000D02*
X148625000Y-108625000D01*
X148625000Y-109150000D02*
X148625000Y-109475000D01*
D39*
X144530000Y-109800000D02*
X145200000Y-109800000D01*
X129350000Y-111100000D02*
X129350000Y-110400000D01*
D41*
X155850000Y-110950000D02*
X156449898Y-111549898D01*
D42*
X148625000Y-113775000D02*
X148600000Y-113800000D01*
D41*
X147420000Y-107900000D02*
X146800000Y-107900000D01*
X149962500Y-116437500D02*
X149950000Y-116450000D01*
X148664500Y-115875000D02*
X148100000Y-115875000D01*
X154660500Y-116717249D02*
X154660500Y-116864500D01*
D39*
X128775000Y-111675000D02*
X128550000Y-111675000D01*
D38*
X131310589Y-110210589D02*
X130900000Y-109800000D01*
D41*
X155499936Y-109750064D02*
X155450000Y-109800000D01*
D42*
X146350000Y-110125000D02*
X145875000Y-110125000D01*
D41*
X156449898Y-111549898D02*
X156449898Y-111669037D01*
X154675000Y-117425000D02*
X154950000Y-117700000D01*
X148900000Y-115639500D02*
X148664500Y-115875000D01*
D39*
X131700000Y-116264500D02*
X131660500Y-116225000D01*
X127180000Y-111600000D02*
X127180000Y-112180000D01*
D41*
X156374968Y-116249936D02*
X155899936Y-116249936D01*
D39*
X130600000Y-108880000D02*
X130600000Y-109500000D01*
D42*
X149200000Y-114560500D02*
X149139500Y-114500000D01*
D38*
X131489411Y-110210589D02*
X131310589Y-110210589D01*
X131489411Y-110289411D02*
X131489411Y-110210589D01*
D42*
X149139500Y-114500000D02*
X148480000Y-114500000D01*
D41*
X156374968Y-109750064D02*
X155499936Y-109750064D01*
D39*
X127180000Y-112180000D02*
X127200000Y-112200000D01*
X150380000Y-108270000D02*
X149950000Y-108700000D01*
D38*
X132633616Y-111462043D02*
X132633616Y-111433616D01*
D41*
X154100000Y-117425000D02*
X154675000Y-117425000D01*
D38*
X132633616Y-111433616D02*
X131489411Y-110289411D01*
D39*
X123505070Y-109894930D02*
X124100076Y-109894930D01*
D42*
X145875000Y-110125000D02*
X145350000Y-110650000D01*
D39*
X131300000Y-112650000D02*
X131039411Y-112389411D01*
X142150000Y-107620000D02*
X142150000Y-106950000D01*
X122000000Y-110000000D02*
X122700076Y-109299924D01*
X131039411Y-112389411D02*
X130739411Y-112389411D01*
D41*
X154660500Y-116864500D02*
X154100000Y-117425000D01*
X155899936Y-116249936D02*
X155350000Y-115700000D01*
D39*
X130600000Y-109500000D02*
X130900000Y-109800000D01*
X118499924Y-109349924D02*
X118499924Y-108725070D01*
X123350000Y-110050000D02*
X123505070Y-109894930D01*
X127939502Y-110000000D02*
X127989502Y-110050000D01*
D41*
X159125032Y-109424943D02*
X159125032Y-108475032D01*
D39*
X124500000Y-115575000D02*
X124500000Y-114950000D01*
D42*
X147325000Y-110125000D02*
X146350000Y-110125000D01*
D41*
X146087500Y-115100000D02*
X145250000Y-115100000D01*
D39*
X126980000Y-108350000D02*
X126800000Y-108350000D01*
D37*
X153375000Y-116700000D02*
X154100000Y-117425000D01*
D41*
X149962500Y-115750000D02*
X149962500Y-116437500D01*
D39*
X129350000Y-110400000D02*
X129000000Y-110050000D01*
D41*
X159125032Y-108475032D02*
X159100000Y-108450000D01*
D42*
X148625000Y-113050000D02*
X148625000Y-113775000D01*
D39*
X127939502Y-110000000D02*
X127939502Y-109309502D01*
X118750000Y-109600000D02*
X118499924Y-109349924D01*
X150380000Y-107900000D02*
X150380000Y-108270000D01*
X122700076Y-109299924D02*
X122700076Y-108725070D01*
D42*
X148625000Y-113050000D02*
X148625000Y-111425000D01*
D39*
X127939502Y-109309502D02*
X126980000Y-108350000D01*
X127989502Y-110050000D02*
X129000000Y-110050000D01*
X129350000Y-111100000D02*
X128775000Y-111675000D01*
D42*
X148300000Y-111100000D02*
X147325000Y-110125000D01*
D39*
X131660500Y-116225000D02*
X129712500Y-116225000D01*
D37*
X152237500Y-116700000D02*
X153375000Y-116700000D01*
D39*
X124500000Y-114950000D02*
X124700000Y-114750000D01*
D42*
X148625000Y-111425000D02*
X148300000Y-111100000D01*
D38*
X128550000Y-113100000D02*
X128550000Y-113425000D01*
X130810589Y-110960589D02*
X130060589Y-111710589D01*
X132067930Y-112027728D02*
X132067930Y-112017930D01*
D40*
X149275000Y-109150000D02*
X149275000Y-108045000D01*
D38*
X130810589Y-110889411D02*
X130810589Y-110960589D01*
X130939411Y-110889411D02*
X130810589Y-110889411D01*
X132067930Y-112017930D02*
X130939411Y-110889411D01*
X130060589Y-111710589D02*
X129939411Y-111710589D01*
D40*
X128725000Y-113400000D02*
X128550000Y-113225000D01*
X149275000Y-108045000D02*
X149420000Y-107900000D01*
X144325000Y-117100000D02*
X144325000Y-115212500D01*
X144325000Y-115212500D02*
X144212500Y-115100000D01*
X127950000Y-116337500D02*
X127837500Y-116225000D01*
X127950000Y-118325000D02*
X127950000Y-116337500D01*
D43*
X132240686Y-118325000D02*
X134330672Y-116235014D01*
X134330672Y-116235014D02*
X131465686Y-119100000D01*
X129025000Y-119100000D02*
X128400000Y-119100000D01*
X128110000Y-119390000D02*
X128110000Y-120600000D01*
X128400000Y-119100000D02*
X128110000Y-119390000D01*
X129600000Y-118325000D02*
X132240686Y-118325000D01*
X131465686Y-119100000D02*
X129025000Y-119100000D01*
X126800000Y-110600000D02*
X126800000Y-110050000D01*
X126220000Y-111600000D02*
X125700000Y-111600000D01*
X125400000Y-107800000D02*
X125900000Y-107300000D01*
X126220000Y-111180000D02*
X126800000Y-110600000D01*
X125400000Y-111300000D02*
X125400000Y-107800000D01*
X134128427Y-107300000D02*
X135462043Y-108633616D01*
X125900000Y-107300000D02*
X134128427Y-107300000D01*
X126220000Y-111600000D02*
X126220000Y-111180000D01*
X125700000Y-111600000D02*
X125400000Y-111300000D01*
X143950000Y-108700000D02*
X144350000Y-108300000D01*
X143570000Y-109480000D02*
X143950000Y-109100000D01*
X142600000Y-109250000D02*
X143150000Y-109800000D01*
X141050000Y-108400000D02*
X141900000Y-109250000D01*
X144350000Y-108300000D02*
X144750000Y-108300000D01*
X143570000Y-109800000D02*
X143570000Y-109480000D01*
X143950000Y-109100000D02*
X143950000Y-108700000D01*
X139902944Y-108400000D02*
X141050000Y-108400000D01*
X139103643Y-109199301D02*
X139902944Y-108400000D01*
X143150000Y-109800000D02*
X143570000Y-109800000D01*
X141900000Y-109250000D02*
X142600000Y-109250000D01*
X134330672Y-109730672D02*
X134330672Y-109764986D01*
X132900000Y-108350000D02*
X132200000Y-108350000D01*
X134330672Y-109764986D02*
X134314986Y-109764986D01*
X134330672Y-109764986D02*
X134330672Y-109680672D01*
X134314986Y-109764986D02*
X132900000Y-108350000D01*
X132336193Y-109136193D02*
X133530672Y-110330672D01*
X133530672Y-110330672D02*
X133764986Y-110330672D01*
X132163807Y-109136193D02*
X132336193Y-109136193D01*
X133199301Y-110849301D02*
X133199301Y-110896357D01*
X133199301Y-110896357D02*
X133196357Y-110896357D01*
X133196357Y-110896357D02*
X132300000Y-110000000D01*
X117950000Y-119550000D02*
X119450000Y-118050000D01*
X126000000Y-114400000D02*
X130900000Y-114400000D01*
X125500000Y-117400000D02*
X125500000Y-114900000D01*
X124850000Y-118050000D02*
X125500000Y-117400000D01*
X125500000Y-114900000D02*
X126000000Y-114400000D01*
X117950000Y-120600000D02*
X117950000Y-119550000D01*
X131150000Y-114650000D02*
X131390202Y-114650000D01*
X131390202Y-114650000D02*
X132067930Y-113972272D01*
X130900000Y-114400000D02*
X131150000Y-114650000D01*
X119450000Y-118050000D02*
X124850000Y-118050000D01*
X125790000Y-115020122D02*
X126120122Y-114690000D01*
X120490000Y-120600000D02*
X120490000Y-119060000D01*
X121210000Y-118340000D02*
X124970122Y-118340000D01*
X130745000Y-114690000D02*
X131205000Y-115150000D01*
X131205000Y-115150000D02*
X132021573Y-115150000D01*
X120490000Y-119060000D02*
X121210000Y-118340000D01*
X125790000Y-117520122D02*
X125790000Y-115020122D01*
X126120122Y-114690000D02*
X130745000Y-114690000D01*
X132021573Y-115150000D02*
X132633616Y-114537957D01*
X124970122Y-118340000D02*
X125790000Y-117520122D01*
X123030000Y-120600000D02*
X123030000Y-118900000D01*
X130624878Y-114980000D02*
X131394878Y-115750000D01*
X126080000Y-117640244D02*
X126080000Y-115170000D01*
X125090244Y-118630000D02*
X126080000Y-117640244D01*
X131394878Y-115750000D02*
X132552944Y-115750000D01*
X126270000Y-114980000D02*
X130624878Y-114980000D01*
X132552944Y-115750000D02*
X133199301Y-115103643D01*
X123030000Y-118900000D02*
X123300000Y-118630000D01*
X126080000Y-115170000D02*
X126270000Y-114980000D01*
X123300000Y-118630000D02*
X125090244Y-118630000D01*
X125570000Y-118980000D02*
X126850000Y-117700000D01*
X126850000Y-117650000D02*
X126900000Y-117650000D01*
X126850000Y-117700000D02*
X126850000Y-117650000D01*
X132234314Y-117200000D02*
X133764986Y-115669328D01*
X125570000Y-120600000D02*
X125570000Y-118980000D01*
X131800000Y-117200000D02*
X132234314Y-117200000D01*
X126900000Y-117650000D02*
X126900000Y-117650000D01*
X130900000Y-119450000D02*
X130650000Y-119700000D01*
X134896357Y-116800699D02*
X134874301Y-116800699D01*
X130650000Y-119700000D02*
X130650000Y-120600000D01*
X132225000Y-119450000D02*
X130900000Y-119450000D01*
X134874301Y-116800699D02*
X132225000Y-119450000D01*
X133275000Y-120515000D02*
X133275000Y-119525000D01*
X133275000Y-119525000D02*
X135433616Y-117366384D01*
X133190000Y-120600000D02*
X133275000Y-120515000D01*
X135433616Y-117366384D02*
X135462043Y-117366384D01*
X135200000Y-119250000D02*
X135200000Y-118750000D01*
X135209798Y-118750000D02*
X136027728Y-117932070D01*
X135200000Y-118750000D02*
X135209798Y-118750000D01*
X135730000Y-120600000D02*
X135730000Y-119830000D01*
X135175000Y-119275000D02*
X135200000Y-119250000D01*
X135730000Y-119830000D02*
X135175000Y-119275000D01*
X138270000Y-120600000D02*
X138270000Y-119680000D01*
X138725000Y-119225000D02*
X138725000Y-118684798D01*
X138270000Y-119680000D02*
X138725000Y-119225000D01*
X138725000Y-118684798D02*
X137972272Y-117932070D01*
X140700000Y-120490000D02*
X140810000Y-120600000D01*
X140700000Y-119500000D02*
X140700000Y-120490000D01*
X138566384Y-117366384D02*
X140700000Y-119500000D01*
X138537957Y-117366384D02*
X138566384Y-117366384D01*
X141800000Y-119475000D02*
X143075000Y-119475000D01*
X139125699Y-116800699D02*
X141800000Y-119475000D01*
X143075000Y-119475000D02*
X143350000Y-119750000D01*
X139103643Y-116800699D02*
X139125699Y-116800699D01*
X143350000Y-119750000D02*
X143350000Y-120600000D01*
X145525000Y-119125000D02*
X145890000Y-119490000D01*
X145890000Y-119490000D02*
X145890000Y-120600000D01*
X139669328Y-116235014D02*
X139685014Y-116235014D01*
X139685014Y-116235014D02*
X142575000Y-119125000D01*
X142575000Y-119125000D02*
X145525000Y-119125000D01*
X143300000Y-118725000D02*
X147625000Y-118725000D01*
X140244328Y-115669328D02*
X143300000Y-118725000D01*
X148430000Y-119530000D02*
X148430000Y-120600000D01*
X140235014Y-115669328D02*
X140244328Y-115669328D01*
X147625000Y-118725000D02*
X148430000Y-119530000D01*
X148175000Y-118375000D02*
X149200000Y-119400000D01*
X149200000Y-119400000D02*
X150525000Y-119400000D01*
X140803643Y-115103643D02*
X143075000Y-117375000D01*
X150970000Y-119845000D02*
X150970000Y-120600000D01*
X143075000Y-117375000D02*
X143075000Y-117875000D01*
X143575000Y-118375000D02*
X148175000Y-118375000D01*
X140800699Y-115103643D02*
X140803643Y-115103643D01*
X143075000Y-117875000D02*
X143575000Y-118375000D01*
X150525000Y-119400000D02*
X150970000Y-119845000D01*
X141387957Y-114537957D02*
X141366384Y-114537957D01*
X142113807Y-115686193D02*
X142113807Y-115263807D01*
X142113807Y-115263807D02*
X141387957Y-114537957D01*
X139650000Y-113300000D02*
X141259798Y-113300000D01*
X141259798Y-113300000D02*
X141932070Y-113972272D01*
X141932070Y-113972272D02*
X141932070Y-113982070D01*
X131750000Y-113050000D02*
X139400000Y-113050000D01*
X143000000Y-115050000D02*
X143000000Y-115050000D01*
X130750000Y-114050000D02*
X131750000Y-113050000D01*
X124450000Y-114050000D02*
X130750000Y-114050000D01*
X123374930Y-115125070D02*
X124450000Y-114050000D01*
X141932070Y-113982070D02*
X142950000Y-115000000D01*
X139400000Y-113050000D02*
X139650000Y-113300000D01*
X122700076Y-115125070D02*
X123374930Y-115125070D01*
X142950000Y-115050000D02*
X143000000Y-115050000D01*
X142950000Y-115000000D02*
X142950000Y-115050000D01*
X122700076Y-115125070D02*
X118499924Y-115125070D01*
X142459798Y-111500000D02*
X141932070Y-112027728D01*
X143771680Y-112000000D02*
X143271680Y-111500000D01*
X144800000Y-112000000D02*
X143771680Y-112000000D01*
X143271680Y-111500000D02*
X142459798Y-111500000D01*
X141932070Y-112027728D02*
X141897272Y-112027728D01*
X141366384Y-111462043D02*
X141362957Y-111462043D01*
X141928427Y-110900000D02*
X141366384Y-111462043D01*
X143400000Y-110900000D02*
X141928427Y-110900000D01*
X143900000Y-111400000D02*
X143400000Y-110900000D01*
X137000000Y-109150000D02*
X137000000Y-109100000D01*
X138400000Y-110550000D02*
X137000000Y-109150000D01*
X137000000Y-109100000D02*
X137000000Y-109050000D01*
X139669328Y-109780672D02*
X138900000Y-110550000D01*
X138900000Y-110550000D02*
X138400000Y-110550000D01*
X139669328Y-109764986D02*
X139669328Y-109780672D01*
D40*
X153962500Y-112750000D02*
X154550000Y-112750000D01*
X154550000Y-112750000D02*
X155419761Y-113619761D01*
X155419761Y-113619761D02*
X156449898Y-113619761D01*
X155569520Y-112969520D02*
X155000000Y-112400000D01*
X154850000Y-110450000D02*
X153962500Y-110450000D01*
X156449898Y-112969520D02*
X155569520Y-112969520D01*
X155000000Y-112400000D02*
X155000000Y-110600000D01*
X155000000Y-110600000D02*
X154850000Y-110450000D01*
X152137500Y-110450000D02*
X151450000Y-110450000D01*
X151812500Y-110775000D02*
X152137500Y-110450000D01*
X151450000Y-110450000D02*
X151125000Y-110775000D01*
X151125000Y-110775000D02*
X150250000Y-110775000D01*
D43*
X129750000Y-108350000D02*
X129000000Y-108350000D01*
X133397056Y-107700000D02*
X134896357Y-109199301D01*
X130600000Y-107920000D02*
X131130000Y-107920000D01*
X131350000Y-107700000D02*
X133397056Y-107700000D01*
X130180000Y-107920000D02*
X129750000Y-108350000D01*
X130600000Y-107920000D02*
X130180000Y-107920000D01*
X131130000Y-107920000D02*
X131350000Y-107700000D01*
X141730000Y-108580000D02*
X142150000Y-108580000D01*
X139371573Y-107800000D02*
X140950000Y-107800000D01*
X143070000Y-108580000D02*
X143350000Y-108300000D01*
X142150000Y-108580000D02*
X143070000Y-108580000D01*
X138537957Y-108633616D02*
X139371573Y-107800000D01*
X140950000Y-107800000D02*
X141730000Y-108580000D01*
D40*
X151200000Y-111800000D02*
X150825000Y-111425000D01*
X150825000Y-111425000D02*
X150250000Y-111425000D01*
X151200000Y-112500000D02*
X151200000Y-111800000D01*
X152137500Y-112750000D02*
X151450000Y-112750000D01*
X152137500Y-112537500D02*
X152137500Y-112750000D01*
X151450000Y-112750000D02*
X151200000Y-112500000D01*
X124500000Y-117225000D02*
X124450070Y-117274930D01*
X124450070Y-117274930D02*
X122700076Y-117274930D01*
X118499924Y-117274930D02*
X122700076Y-117274930D01*
D43*
X125650000Y-106775000D02*
X124900000Y-107525000D01*
X113400000Y-108050000D02*
X114300000Y-107150000D01*
D40*
X118499924Y-110874930D02*
X122700076Y-110874930D01*
D43*
X134800000Y-106875000D02*
X131050000Y-106875000D01*
X124900000Y-110550000D02*
X124604930Y-110845070D01*
X124604930Y-110845070D02*
X124109936Y-110845070D01*
X131050000Y-106875000D02*
X130650000Y-106475000D01*
X130650000Y-106425000D02*
X130300000Y-106775000D01*
X114600000Y-116770000D02*
X113400000Y-115570000D01*
X113400000Y-115570000D02*
X113400000Y-108050000D01*
X124109936Y-110845070D02*
X124100076Y-110854930D01*
X130650000Y-106475000D02*
X130650000Y-106425000D01*
X130650000Y-105380000D02*
X130650000Y-106425000D01*
X136027728Y-108067930D02*
X135992930Y-108067930D01*
X124900000Y-107525000D02*
X124900000Y-110550000D01*
X130300000Y-106775000D02*
X125650000Y-106775000D01*
D40*
X124100076Y-110854930D02*
X122720076Y-110854930D01*
X122720076Y-110854930D02*
X122700076Y-110874930D01*
D43*
X114300000Y-107150000D02*
X124525000Y-107150000D01*
X124525000Y-107150000D02*
X124900000Y-107525000D01*
X135992930Y-108067930D02*
X134800000Y-106875000D01*
X140800699Y-110896357D02*
X140800699Y-110849301D01*
X140800699Y-110896357D02*
X140800699Y-110899301D01*
X140800699Y-110899301D02*
X140000000Y-111700000D01*
X145325000Y-111425000D02*
X146350000Y-111425000D01*
X142500000Y-109850000D02*
X143150000Y-110500000D01*
X144400000Y-110500000D02*
X145325000Y-111425000D01*
X140000000Y-111700000D02*
X140000000Y-112150000D01*
X140800699Y-110896357D02*
X140803643Y-110896357D01*
X140800699Y-110849301D02*
X141800000Y-109850000D01*
X141800000Y-109850000D02*
X142500000Y-109850000D01*
X143150000Y-110500000D02*
X144400000Y-110500000D01*
X139100000Y-111465686D02*
X140235014Y-110330672D01*
X147975000Y-113050000D02*
X147975000Y-112475000D01*
X141000000Y-109600000D02*
X141000000Y-109219036D01*
X140235014Y-110330672D02*
X140269328Y-110330672D01*
X147900000Y-112400000D02*
X147050000Y-112400000D01*
X147050000Y-112400000D02*
X146500000Y-112950000D01*
X139900000Y-112950000D02*
X139100000Y-112150000D01*
X139100000Y-112150000D02*
X139100000Y-111465686D01*
X141000000Y-109219036D02*
X140865482Y-109084518D01*
X140269328Y-110330672D02*
X141000000Y-109600000D01*
X147975000Y-112475000D02*
X147900000Y-112400000D01*
X146500000Y-112950000D02*
X139900000Y-112950000D01*
X133250000Y-106500000D02*
X133190000Y-106440000D01*
X116400000Y-106535500D02*
X116400000Y-106500000D01*
X124285000Y-106485000D02*
X124300000Y-106500000D01*
X137982070Y-108067930D02*
X138800000Y-107250000D01*
X116400000Y-106535500D02*
X116400000Y-106535500D01*
X133190000Y-106440000D02*
X133190000Y-105380000D01*
X137972272Y-108067930D02*
X137972272Y-108052728D01*
X116450500Y-106485000D02*
X124285000Y-106485000D01*
X137972272Y-108067930D02*
X137982070Y-108067930D01*
X138800000Y-107050000D02*
X138650000Y-106900000D01*
X133905000Y-105380000D02*
X133190000Y-105380000D01*
X135500000Y-106900000D02*
X135100000Y-106500000D01*
X135100000Y-106500000D02*
X133250000Y-106500000D01*
X138800000Y-107250000D02*
X138800000Y-107050000D01*
X116400000Y-106500000D02*
X116435500Y-106500000D01*
X138650000Y-106900000D02*
X135500000Y-106900000D01*
X116435500Y-106500000D02*
X116450500Y-106485000D01*
M02*
