G04 #@! TF.GenerationSoftware,KiCad,Pcbnew,7.0.7*
G04 #@! TF.CreationDate,2023-09-06T15:40:30-04:00*
G04 #@! TF.ProjectId,stm8l151k6t6_board,73746d38-6c31-4353-916b-3674365f626f,rev?*
G04 #@! TF.SameCoordinates,Original*
G04 #@! TF.FileFunction,Legend,Bot*
G04 #@! TF.FilePolarity,Positive*
%FSLAX46Y46*%
G04 Gerber Fmt 4.6, Leading zero omitted, Abs format (unit mm)*
G04 Created by KiCad (PCBNEW 7.0.7) date 2023-09-06 15:40:30*
%MOMM*%
%LPD*%
G01*
G04 APERTURE LIST*
%ADD10C,0.160000*%
%ADD11C,0.150000*%
%ADD12C,0.120000*%
%ADD13C,0.600000*%
%ADD14O,2.400000X1.200000*%
%ADD15C,2.200000*%
%ADD16R,1.700000X1.700000*%
%ADD17O,1.700000X1.700000*%
G04 APERTURE END LIST*
D10*
X128554299Y-107093358D02*
X127554299Y-107093358D01*
X127554299Y-107093358D02*
X128554299Y-107664786D01*
X128554299Y-107664786D02*
X127554299Y-107664786D01*
X128459060Y-108712405D02*
X128506680Y-108664786D01*
X128506680Y-108664786D02*
X128554299Y-108521929D01*
X128554299Y-108521929D02*
X128554299Y-108426691D01*
X128554299Y-108426691D02*
X128506680Y-108283834D01*
X128506680Y-108283834D02*
X128411441Y-108188596D01*
X128411441Y-108188596D02*
X128316203Y-108140977D01*
X128316203Y-108140977D02*
X128125727Y-108093358D01*
X128125727Y-108093358D02*
X127982870Y-108093358D01*
X127982870Y-108093358D02*
X127792394Y-108140977D01*
X127792394Y-108140977D02*
X127697156Y-108188596D01*
X127697156Y-108188596D02*
X127601918Y-108283834D01*
X127601918Y-108283834D02*
X127554299Y-108426691D01*
X127554299Y-108426691D02*
X127554299Y-108521929D01*
X127554299Y-108521929D02*
X127601918Y-108664786D01*
X127601918Y-108664786D02*
X127649537Y-108712405D01*
X156454299Y-116143358D02*
X155454299Y-116143358D01*
X155454299Y-116143358D02*
X155454299Y-116524310D01*
X155454299Y-116524310D02*
X155501918Y-116619548D01*
X155501918Y-116619548D02*
X155549537Y-116667167D01*
X155549537Y-116667167D02*
X155644775Y-116714786D01*
X155644775Y-116714786D02*
X155787632Y-116714786D01*
X155787632Y-116714786D02*
X155882870Y-116667167D01*
X155882870Y-116667167D02*
X155930489Y-116619548D01*
X155930489Y-116619548D02*
X155978108Y-116524310D01*
X155978108Y-116524310D02*
X155978108Y-116143358D01*
X156454299Y-117143358D02*
X155454299Y-117143358D01*
X155454299Y-117143358D02*
X155454299Y-117381453D01*
X155454299Y-117381453D02*
X155501918Y-117524310D01*
X155501918Y-117524310D02*
X155597156Y-117619548D01*
X155597156Y-117619548D02*
X155692394Y-117667167D01*
X155692394Y-117667167D02*
X155882870Y-117714786D01*
X155882870Y-117714786D02*
X156025727Y-117714786D01*
X156025727Y-117714786D02*
X156216203Y-117667167D01*
X156216203Y-117667167D02*
X156311441Y-117619548D01*
X156311441Y-117619548D02*
X156406680Y-117524310D01*
X156406680Y-117524310D02*
X156454299Y-117381453D01*
X156454299Y-117381453D02*
X156454299Y-117143358D01*
X155454299Y-118048120D02*
X155454299Y-118714786D01*
X155454299Y-118714786D02*
X156454299Y-118286215D01*
X126054299Y-116143358D02*
X125054299Y-116143358D01*
X125054299Y-116143358D02*
X125054299Y-116524310D01*
X125054299Y-116524310D02*
X125101918Y-116619548D01*
X125101918Y-116619548D02*
X125149537Y-116667167D01*
X125149537Y-116667167D02*
X125244775Y-116714786D01*
X125244775Y-116714786D02*
X125387632Y-116714786D01*
X125387632Y-116714786D02*
X125482870Y-116667167D01*
X125482870Y-116667167D02*
X125530489Y-116619548D01*
X125530489Y-116619548D02*
X125578108Y-116524310D01*
X125578108Y-116524310D02*
X125578108Y-116143358D01*
X126054299Y-117143358D02*
X125054299Y-117143358D01*
X125054299Y-117143358D02*
X125054299Y-117381453D01*
X125054299Y-117381453D02*
X125101918Y-117524310D01*
X125101918Y-117524310D02*
X125197156Y-117619548D01*
X125197156Y-117619548D02*
X125292394Y-117667167D01*
X125292394Y-117667167D02*
X125482870Y-117714786D01*
X125482870Y-117714786D02*
X125625727Y-117714786D01*
X125625727Y-117714786D02*
X125816203Y-117667167D01*
X125816203Y-117667167D02*
X125911441Y-117619548D01*
X125911441Y-117619548D02*
X126006680Y-117524310D01*
X126006680Y-117524310D02*
X126054299Y-117381453D01*
X126054299Y-117381453D02*
X126054299Y-117143358D01*
X125054299Y-118048120D02*
X125054299Y-118667167D01*
X125054299Y-118667167D02*
X125435251Y-118333834D01*
X125435251Y-118333834D02*
X125435251Y-118476691D01*
X125435251Y-118476691D02*
X125482870Y-118571929D01*
X125482870Y-118571929D02*
X125530489Y-118619548D01*
X125530489Y-118619548D02*
X125625727Y-118667167D01*
X125625727Y-118667167D02*
X125863822Y-118667167D01*
X125863822Y-118667167D02*
X125959060Y-118619548D01*
X125959060Y-118619548D02*
X126006680Y-118571929D01*
X126006680Y-118571929D02*
X126054299Y-118476691D01*
X126054299Y-118476691D02*
X126054299Y-118190977D01*
X126054299Y-118190977D02*
X126006680Y-118095739D01*
X126006680Y-118095739D02*
X125959060Y-118048120D01*
X151454299Y-116143358D02*
X150454299Y-116143358D01*
X150454299Y-116143358D02*
X150454299Y-116524310D01*
X150454299Y-116524310D02*
X150501918Y-116619548D01*
X150501918Y-116619548D02*
X150549537Y-116667167D01*
X150549537Y-116667167D02*
X150644775Y-116714786D01*
X150644775Y-116714786D02*
X150787632Y-116714786D01*
X150787632Y-116714786D02*
X150882870Y-116667167D01*
X150882870Y-116667167D02*
X150930489Y-116619548D01*
X150930489Y-116619548D02*
X150978108Y-116524310D01*
X150978108Y-116524310D02*
X150978108Y-116143358D01*
X151454299Y-117143358D02*
X150454299Y-117143358D01*
X150454299Y-117143358D02*
X150454299Y-117381453D01*
X150454299Y-117381453D02*
X150501918Y-117524310D01*
X150501918Y-117524310D02*
X150597156Y-117619548D01*
X150597156Y-117619548D02*
X150692394Y-117667167D01*
X150692394Y-117667167D02*
X150882870Y-117714786D01*
X150882870Y-117714786D02*
X151025727Y-117714786D01*
X151025727Y-117714786D02*
X151216203Y-117667167D01*
X151216203Y-117667167D02*
X151311441Y-117619548D01*
X151311441Y-117619548D02*
X151406680Y-117524310D01*
X151406680Y-117524310D02*
X151454299Y-117381453D01*
X151454299Y-117381453D02*
X151454299Y-117143358D01*
X150454299Y-118619548D02*
X150454299Y-118143358D01*
X150454299Y-118143358D02*
X150930489Y-118095739D01*
X150930489Y-118095739D02*
X150882870Y-118143358D01*
X150882870Y-118143358D02*
X150835251Y-118238596D01*
X150835251Y-118238596D02*
X150835251Y-118476691D01*
X150835251Y-118476691D02*
X150882870Y-118571929D01*
X150882870Y-118571929D02*
X150930489Y-118619548D01*
X150930489Y-118619548D02*
X151025727Y-118667167D01*
X151025727Y-118667167D02*
X151263822Y-118667167D01*
X151263822Y-118667167D02*
X151359060Y-118619548D01*
X151359060Y-118619548D02*
X151406680Y-118571929D01*
X151406680Y-118571929D02*
X151454299Y-118476691D01*
X151454299Y-118476691D02*
X151454299Y-118238596D01*
X151454299Y-118238596D02*
X151406680Y-118143358D01*
X151406680Y-118143358D02*
X151359060Y-118095739D01*
X153954299Y-116143358D02*
X152954299Y-116143358D01*
X152954299Y-116143358D02*
X152954299Y-116524310D01*
X152954299Y-116524310D02*
X153001918Y-116619548D01*
X153001918Y-116619548D02*
X153049537Y-116667167D01*
X153049537Y-116667167D02*
X153144775Y-116714786D01*
X153144775Y-116714786D02*
X153287632Y-116714786D01*
X153287632Y-116714786D02*
X153382870Y-116667167D01*
X153382870Y-116667167D02*
X153430489Y-116619548D01*
X153430489Y-116619548D02*
X153478108Y-116524310D01*
X153478108Y-116524310D02*
X153478108Y-116143358D01*
X153954299Y-117143358D02*
X152954299Y-117143358D01*
X152954299Y-117143358D02*
X152954299Y-117381453D01*
X152954299Y-117381453D02*
X153001918Y-117524310D01*
X153001918Y-117524310D02*
X153097156Y-117619548D01*
X153097156Y-117619548D02*
X153192394Y-117667167D01*
X153192394Y-117667167D02*
X153382870Y-117714786D01*
X153382870Y-117714786D02*
X153525727Y-117714786D01*
X153525727Y-117714786D02*
X153716203Y-117667167D01*
X153716203Y-117667167D02*
X153811441Y-117619548D01*
X153811441Y-117619548D02*
X153906680Y-117524310D01*
X153906680Y-117524310D02*
X153954299Y-117381453D01*
X153954299Y-117381453D02*
X153954299Y-117143358D01*
X152954299Y-118571929D02*
X152954299Y-118381453D01*
X152954299Y-118381453D02*
X153001918Y-118286215D01*
X153001918Y-118286215D02*
X153049537Y-118238596D01*
X153049537Y-118238596D02*
X153192394Y-118143358D01*
X153192394Y-118143358D02*
X153382870Y-118095739D01*
X153382870Y-118095739D02*
X153763822Y-118095739D01*
X153763822Y-118095739D02*
X153859060Y-118143358D01*
X153859060Y-118143358D02*
X153906680Y-118190977D01*
X153906680Y-118190977D02*
X153954299Y-118286215D01*
X153954299Y-118286215D02*
X153954299Y-118476691D01*
X153954299Y-118476691D02*
X153906680Y-118571929D01*
X153906680Y-118571929D02*
X153859060Y-118619548D01*
X153859060Y-118619548D02*
X153763822Y-118667167D01*
X153763822Y-118667167D02*
X153525727Y-118667167D01*
X153525727Y-118667167D02*
X153430489Y-118619548D01*
X153430489Y-118619548D02*
X153382870Y-118571929D01*
X153382870Y-118571929D02*
X153335251Y-118476691D01*
X153335251Y-118476691D02*
X153335251Y-118286215D01*
X153335251Y-118286215D02*
X153382870Y-118190977D01*
X153382870Y-118190977D02*
X153430489Y-118143358D01*
X153430489Y-118143358D02*
X153525727Y-118095739D01*
X146354299Y-107043358D02*
X145354299Y-107043358D01*
X145354299Y-107043358D02*
X145354299Y-107424310D01*
X145354299Y-107424310D02*
X145401918Y-107519548D01*
X145401918Y-107519548D02*
X145449537Y-107567167D01*
X145449537Y-107567167D02*
X145544775Y-107614786D01*
X145544775Y-107614786D02*
X145687632Y-107614786D01*
X145687632Y-107614786D02*
X145782870Y-107567167D01*
X145782870Y-107567167D02*
X145830489Y-107519548D01*
X145830489Y-107519548D02*
X145878108Y-107424310D01*
X145878108Y-107424310D02*
X145878108Y-107043358D01*
X146259060Y-108614786D02*
X146306680Y-108567167D01*
X146306680Y-108567167D02*
X146354299Y-108424310D01*
X146354299Y-108424310D02*
X146354299Y-108329072D01*
X146354299Y-108329072D02*
X146306680Y-108186215D01*
X146306680Y-108186215D02*
X146211441Y-108090977D01*
X146211441Y-108090977D02*
X146116203Y-108043358D01*
X146116203Y-108043358D02*
X145925727Y-107995739D01*
X145925727Y-107995739D02*
X145782870Y-107995739D01*
X145782870Y-107995739D02*
X145592394Y-108043358D01*
X145592394Y-108043358D02*
X145497156Y-108090977D01*
X145497156Y-108090977D02*
X145401918Y-108186215D01*
X145401918Y-108186215D02*
X145354299Y-108329072D01*
X145354299Y-108329072D02*
X145354299Y-108424310D01*
X145354299Y-108424310D02*
X145401918Y-108567167D01*
X145401918Y-108567167D02*
X145449537Y-108614786D01*
X145354299Y-109233834D02*
X145354299Y-109329072D01*
X145354299Y-109329072D02*
X145401918Y-109424310D01*
X145401918Y-109424310D02*
X145449537Y-109471929D01*
X145449537Y-109471929D02*
X145544775Y-109519548D01*
X145544775Y-109519548D02*
X145735251Y-109567167D01*
X145735251Y-109567167D02*
X145973346Y-109567167D01*
X145973346Y-109567167D02*
X146163822Y-109519548D01*
X146163822Y-109519548D02*
X146259060Y-109471929D01*
X146259060Y-109471929D02*
X146306680Y-109424310D01*
X146306680Y-109424310D02*
X146354299Y-109329072D01*
X146354299Y-109329072D02*
X146354299Y-109233834D01*
X146354299Y-109233834D02*
X146306680Y-109138596D01*
X146306680Y-109138596D02*
X146259060Y-109090977D01*
X146259060Y-109090977D02*
X146163822Y-109043358D01*
X146163822Y-109043358D02*
X145973346Y-108995739D01*
X145973346Y-108995739D02*
X145735251Y-108995739D01*
X145735251Y-108995739D02*
X145544775Y-109043358D01*
X145544775Y-109043358D02*
X145449537Y-109090977D01*
X145449537Y-109090977D02*
X145401918Y-109138596D01*
X145401918Y-109138596D02*
X145354299Y-109233834D01*
X118386499Y-107093358D02*
X117386499Y-107093358D01*
X117386499Y-107093358D02*
X117386499Y-107474310D01*
X117386499Y-107474310D02*
X117434118Y-107569548D01*
X117434118Y-107569548D02*
X117481737Y-107617167D01*
X117481737Y-107617167D02*
X117576975Y-107664786D01*
X117576975Y-107664786D02*
X117719832Y-107664786D01*
X117719832Y-107664786D02*
X117815070Y-107617167D01*
X117815070Y-107617167D02*
X117862689Y-107569548D01*
X117862689Y-107569548D02*
X117910308Y-107474310D01*
X117910308Y-107474310D02*
X117910308Y-107093358D01*
X118100784Y-108045739D02*
X118100784Y-108521929D01*
X118386499Y-107950501D02*
X117386499Y-108283834D01*
X117386499Y-108283834D02*
X118386499Y-108617167D01*
X117386499Y-109379072D02*
X117386499Y-109188596D01*
X117386499Y-109188596D02*
X117434118Y-109093358D01*
X117434118Y-109093358D02*
X117481737Y-109045739D01*
X117481737Y-109045739D02*
X117624594Y-108950501D01*
X117624594Y-108950501D02*
X117815070Y-108902882D01*
X117815070Y-108902882D02*
X118196022Y-108902882D01*
X118196022Y-108902882D02*
X118291260Y-108950501D01*
X118291260Y-108950501D02*
X118338880Y-108998120D01*
X118338880Y-108998120D02*
X118386499Y-109093358D01*
X118386499Y-109093358D02*
X118386499Y-109283834D01*
X118386499Y-109283834D02*
X118338880Y-109379072D01*
X118338880Y-109379072D02*
X118291260Y-109426691D01*
X118291260Y-109426691D02*
X118196022Y-109474310D01*
X118196022Y-109474310D02*
X117957927Y-109474310D01*
X117957927Y-109474310D02*
X117862689Y-109426691D01*
X117862689Y-109426691D02*
X117815070Y-109379072D01*
X117815070Y-109379072D02*
X117767451Y-109283834D01*
X117767451Y-109283834D02*
X117767451Y-109093358D01*
X117767451Y-109093358D02*
X117815070Y-108998120D01*
X117815070Y-108998120D02*
X117862689Y-108950501D01*
X117862689Y-108950501D02*
X117957927Y-108902882D01*
X136154299Y-107093358D02*
X135154299Y-107093358D01*
X135154299Y-107093358D02*
X135154299Y-107474310D01*
X135154299Y-107474310D02*
X135201918Y-107569548D01*
X135201918Y-107569548D02*
X135249537Y-107617167D01*
X135249537Y-107617167D02*
X135344775Y-107664786D01*
X135344775Y-107664786D02*
X135487632Y-107664786D01*
X135487632Y-107664786D02*
X135582870Y-107617167D01*
X135582870Y-107617167D02*
X135630489Y-107569548D01*
X135630489Y-107569548D02*
X135678108Y-107474310D01*
X135678108Y-107474310D02*
X135678108Y-107093358D01*
X136059060Y-108664786D02*
X136106680Y-108617167D01*
X136106680Y-108617167D02*
X136154299Y-108474310D01*
X136154299Y-108474310D02*
X136154299Y-108379072D01*
X136154299Y-108379072D02*
X136106680Y-108236215D01*
X136106680Y-108236215D02*
X136011441Y-108140977D01*
X136011441Y-108140977D02*
X135916203Y-108093358D01*
X135916203Y-108093358D02*
X135725727Y-108045739D01*
X135725727Y-108045739D02*
X135582870Y-108045739D01*
X135582870Y-108045739D02*
X135392394Y-108093358D01*
X135392394Y-108093358D02*
X135297156Y-108140977D01*
X135297156Y-108140977D02*
X135201918Y-108236215D01*
X135201918Y-108236215D02*
X135154299Y-108379072D01*
X135154299Y-108379072D02*
X135154299Y-108474310D01*
X135154299Y-108474310D02*
X135201918Y-108617167D01*
X135201918Y-108617167D02*
X135249537Y-108664786D01*
X135487632Y-109521929D02*
X136154299Y-109521929D01*
X135106680Y-109283834D02*
X135820965Y-109045739D01*
X135820965Y-109045739D02*
X135820965Y-109664786D01*
X146354299Y-116143358D02*
X145354299Y-116143358D01*
X145354299Y-116143358D02*
X145354299Y-116524310D01*
X145354299Y-116524310D02*
X145401918Y-116619548D01*
X145401918Y-116619548D02*
X145449537Y-116667167D01*
X145449537Y-116667167D02*
X145544775Y-116714786D01*
X145544775Y-116714786D02*
X145687632Y-116714786D01*
X145687632Y-116714786D02*
X145782870Y-116667167D01*
X145782870Y-116667167D02*
X145830489Y-116619548D01*
X145830489Y-116619548D02*
X145878108Y-116524310D01*
X145878108Y-116524310D02*
X145878108Y-116143358D01*
X145830489Y-117476691D02*
X145878108Y-117619548D01*
X145878108Y-117619548D02*
X145925727Y-117667167D01*
X145925727Y-117667167D02*
X146020965Y-117714786D01*
X146020965Y-117714786D02*
X146163822Y-117714786D01*
X146163822Y-117714786D02*
X146259060Y-117667167D01*
X146259060Y-117667167D02*
X146306680Y-117619548D01*
X146306680Y-117619548D02*
X146354299Y-117524310D01*
X146354299Y-117524310D02*
X146354299Y-117143358D01*
X146354299Y-117143358D02*
X145354299Y-117143358D01*
X145354299Y-117143358D02*
X145354299Y-117476691D01*
X145354299Y-117476691D02*
X145401918Y-117571929D01*
X145401918Y-117571929D02*
X145449537Y-117619548D01*
X145449537Y-117619548D02*
X145544775Y-117667167D01*
X145544775Y-117667167D02*
X145640013Y-117667167D01*
X145640013Y-117667167D02*
X145735251Y-117619548D01*
X145735251Y-117619548D02*
X145782870Y-117571929D01*
X145782870Y-117571929D02*
X145830489Y-117476691D01*
X145830489Y-117476691D02*
X145830489Y-117143358D01*
X145354299Y-118048120D02*
X145354299Y-118714786D01*
X145354299Y-118714786D02*
X146354299Y-118286215D01*
X131104299Y-116143358D02*
X130104299Y-116143358D01*
X130104299Y-116143358D02*
X130104299Y-116524310D01*
X130104299Y-116524310D02*
X130151918Y-116619548D01*
X130151918Y-116619548D02*
X130199537Y-116667167D01*
X130199537Y-116667167D02*
X130294775Y-116714786D01*
X130294775Y-116714786D02*
X130437632Y-116714786D01*
X130437632Y-116714786D02*
X130532870Y-116667167D01*
X130532870Y-116667167D02*
X130580489Y-116619548D01*
X130580489Y-116619548D02*
X130628108Y-116524310D01*
X130628108Y-116524310D02*
X130628108Y-116143358D01*
X130580489Y-117476691D02*
X130628108Y-117619548D01*
X130628108Y-117619548D02*
X130675727Y-117667167D01*
X130675727Y-117667167D02*
X130770965Y-117714786D01*
X130770965Y-117714786D02*
X130913822Y-117714786D01*
X130913822Y-117714786D02*
X131009060Y-117667167D01*
X131009060Y-117667167D02*
X131056680Y-117619548D01*
X131056680Y-117619548D02*
X131104299Y-117524310D01*
X131104299Y-117524310D02*
X131104299Y-117143358D01*
X131104299Y-117143358D02*
X130104299Y-117143358D01*
X130104299Y-117143358D02*
X130104299Y-117476691D01*
X130104299Y-117476691D02*
X130151918Y-117571929D01*
X130151918Y-117571929D02*
X130199537Y-117619548D01*
X130199537Y-117619548D02*
X130294775Y-117667167D01*
X130294775Y-117667167D02*
X130390013Y-117667167D01*
X130390013Y-117667167D02*
X130485251Y-117619548D01*
X130485251Y-117619548D02*
X130532870Y-117571929D01*
X130532870Y-117571929D02*
X130580489Y-117476691D01*
X130580489Y-117476691D02*
X130580489Y-117143358D01*
X131104299Y-118667167D02*
X131104299Y-118095739D01*
X131104299Y-118381453D02*
X130104299Y-118381453D01*
X130104299Y-118381453D02*
X130247156Y-118286215D01*
X130247156Y-118286215D02*
X130342394Y-118190977D01*
X130342394Y-118190977D02*
X130390013Y-118095739D01*
X150454299Y-106948120D02*
X150454299Y-107567167D01*
X150454299Y-107567167D02*
X150835251Y-107233834D01*
X150835251Y-107233834D02*
X150835251Y-107376691D01*
X150835251Y-107376691D02*
X150882870Y-107471929D01*
X150882870Y-107471929D02*
X150930489Y-107519548D01*
X150930489Y-107519548D02*
X151025727Y-107567167D01*
X151025727Y-107567167D02*
X151263822Y-107567167D01*
X151263822Y-107567167D02*
X151359060Y-107519548D01*
X151359060Y-107519548D02*
X151406680Y-107471929D01*
X151406680Y-107471929D02*
X151454299Y-107376691D01*
X151454299Y-107376691D02*
X151454299Y-107090977D01*
X151454299Y-107090977D02*
X151406680Y-106995739D01*
X151406680Y-106995739D02*
X151359060Y-106948120D01*
X150454299Y-107852882D02*
X151454299Y-108186215D01*
X151454299Y-108186215D02*
X150454299Y-108519548D01*
X150454299Y-108757644D02*
X150454299Y-109376691D01*
X150454299Y-109376691D02*
X150835251Y-109043358D01*
X150835251Y-109043358D02*
X150835251Y-109186215D01*
X150835251Y-109186215D02*
X150882870Y-109281453D01*
X150882870Y-109281453D02*
X150930489Y-109329072D01*
X150930489Y-109329072D02*
X151025727Y-109376691D01*
X151025727Y-109376691D02*
X151263822Y-109376691D01*
X151263822Y-109376691D02*
X151359060Y-109329072D01*
X151359060Y-109329072D02*
X151406680Y-109281453D01*
X151406680Y-109281453D02*
X151454299Y-109186215D01*
X151454299Y-109186215D02*
X151454299Y-108900501D01*
X151454299Y-108900501D02*
X151406680Y-108805263D01*
X151406680Y-108805263D02*
X151359060Y-108757644D01*
D11*
X156661905Y-112464104D02*
X156185715Y-112464104D01*
X156757143Y-112749819D02*
X156423810Y-111749819D01*
X156423810Y-111749819D02*
X156090477Y-112749819D01*
X155757143Y-112083152D02*
X155757143Y-112749819D01*
X155757143Y-112178390D02*
X155709524Y-112130771D01*
X155709524Y-112130771D02*
X155614286Y-112083152D01*
X155614286Y-112083152D02*
X155471429Y-112083152D01*
X155471429Y-112083152D02*
X155376191Y-112130771D01*
X155376191Y-112130771D02*
X155328572Y-112226009D01*
X155328572Y-112226009D02*
X155328572Y-112749819D01*
X154423810Y-112749819D02*
X154423810Y-111749819D01*
X154423810Y-112702200D02*
X154519048Y-112749819D01*
X154519048Y-112749819D02*
X154709524Y-112749819D01*
X154709524Y-112749819D02*
X154804762Y-112702200D01*
X154804762Y-112702200D02*
X154852381Y-112654580D01*
X154852381Y-112654580D02*
X154900000Y-112559342D01*
X154900000Y-112559342D02*
X154900000Y-112273628D01*
X154900000Y-112273628D02*
X154852381Y-112178390D01*
X154852381Y-112178390D02*
X154804762Y-112130771D01*
X154804762Y-112130771D02*
X154709524Y-112083152D01*
X154709524Y-112083152D02*
X154519048Y-112083152D01*
X154519048Y-112083152D02*
X154423810Y-112130771D01*
X153947619Y-112749819D02*
X153947619Y-112083152D01*
X153947619Y-112273628D02*
X153900000Y-112178390D01*
X153900000Y-112178390D02*
X153852381Y-112130771D01*
X153852381Y-112130771D02*
X153757143Y-112083152D01*
X153757143Y-112083152D02*
X153661905Y-112083152D01*
X152947619Y-112702200D02*
X153042857Y-112749819D01*
X153042857Y-112749819D02*
X153233333Y-112749819D01*
X153233333Y-112749819D02*
X153328571Y-112702200D01*
X153328571Y-112702200D02*
X153376190Y-112606961D01*
X153376190Y-112606961D02*
X153376190Y-112226009D01*
X153376190Y-112226009D02*
X153328571Y-112130771D01*
X153328571Y-112130771D02*
X153233333Y-112083152D01*
X153233333Y-112083152D02*
X153042857Y-112083152D01*
X153042857Y-112083152D02*
X152947619Y-112130771D01*
X152947619Y-112130771D02*
X152900000Y-112226009D01*
X152900000Y-112226009D02*
X152900000Y-112321247D01*
X152900000Y-112321247D02*
X153376190Y-112416485D01*
X152519047Y-112702200D02*
X152423809Y-112749819D01*
X152423809Y-112749819D02*
X152233333Y-112749819D01*
X152233333Y-112749819D02*
X152138095Y-112702200D01*
X152138095Y-112702200D02*
X152090476Y-112606961D01*
X152090476Y-112606961D02*
X152090476Y-112559342D01*
X152090476Y-112559342D02*
X152138095Y-112464104D01*
X152138095Y-112464104D02*
X152233333Y-112416485D01*
X152233333Y-112416485D02*
X152376190Y-112416485D01*
X152376190Y-112416485D02*
X152471428Y-112368866D01*
X152471428Y-112368866D02*
X152519047Y-112273628D01*
X152519047Y-112273628D02*
X152519047Y-112226009D01*
X152519047Y-112226009D02*
X152471428Y-112130771D01*
X152471428Y-112130771D02*
X152376190Y-112083152D01*
X152376190Y-112083152D02*
X152233333Y-112083152D01*
X152233333Y-112083152D02*
X152138095Y-112130771D01*
X150566666Y-112226009D02*
X150423809Y-112273628D01*
X150423809Y-112273628D02*
X150376190Y-112321247D01*
X150376190Y-112321247D02*
X150328571Y-112416485D01*
X150328571Y-112416485D02*
X150328571Y-112559342D01*
X150328571Y-112559342D02*
X150376190Y-112654580D01*
X150376190Y-112654580D02*
X150423809Y-112702200D01*
X150423809Y-112702200D02*
X150519047Y-112749819D01*
X150519047Y-112749819D02*
X150899999Y-112749819D01*
X150899999Y-112749819D02*
X150899999Y-111749819D01*
X150899999Y-111749819D02*
X150566666Y-111749819D01*
X150566666Y-111749819D02*
X150471428Y-111797438D01*
X150471428Y-111797438D02*
X150423809Y-111845057D01*
X150423809Y-111845057D02*
X150376190Y-111940295D01*
X150376190Y-111940295D02*
X150376190Y-112035533D01*
X150376190Y-112035533D02*
X150423809Y-112130771D01*
X150423809Y-112130771D02*
X150471428Y-112178390D01*
X150471428Y-112178390D02*
X150566666Y-112226009D01*
X150566666Y-112226009D02*
X150899999Y-112226009D01*
X149899999Y-112749819D02*
X149899999Y-112083152D01*
X149899999Y-112273628D02*
X149852380Y-112178390D01*
X149852380Y-112178390D02*
X149804761Y-112130771D01*
X149804761Y-112130771D02*
X149709523Y-112083152D01*
X149709523Y-112083152D02*
X149614285Y-112083152D01*
X148852380Y-112749819D02*
X148852380Y-112226009D01*
X148852380Y-112226009D02*
X148899999Y-112130771D01*
X148899999Y-112130771D02*
X148995237Y-112083152D01*
X148995237Y-112083152D02*
X149185713Y-112083152D01*
X149185713Y-112083152D02*
X149280951Y-112130771D01*
X148852380Y-112702200D02*
X148947618Y-112749819D01*
X148947618Y-112749819D02*
X149185713Y-112749819D01*
X149185713Y-112749819D02*
X149280951Y-112702200D01*
X149280951Y-112702200D02*
X149328570Y-112606961D01*
X149328570Y-112606961D02*
X149328570Y-112511723D01*
X149328570Y-112511723D02*
X149280951Y-112416485D01*
X149280951Y-112416485D02*
X149185713Y-112368866D01*
X149185713Y-112368866D02*
X148947618Y-112368866D01*
X148947618Y-112368866D02*
X148852380Y-112321247D01*
X148471427Y-112083152D02*
X148233332Y-112749819D01*
X148233332Y-112749819D02*
X147995237Y-112083152D01*
X147471427Y-112749819D02*
X147566665Y-112702200D01*
X147566665Y-112702200D02*
X147614284Y-112654580D01*
X147614284Y-112654580D02*
X147661903Y-112559342D01*
X147661903Y-112559342D02*
X147661903Y-112273628D01*
X147661903Y-112273628D02*
X147614284Y-112178390D01*
X147614284Y-112178390D02*
X147566665Y-112130771D01*
X147566665Y-112130771D02*
X147471427Y-112083152D01*
X147471427Y-112083152D02*
X147328570Y-112083152D01*
X147328570Y-112083152D02*
X147233332Y-112130771D01*
X147233332Y-112130771D02*
X147185713Y-112178390D01*
X147185713Y-112178390D02*
X147138094Y-112273628D01*
X147138094Y-112273628D02*
X147138094Y-112559342D01*
X147138094Y-112559342D02*
X147185713Y-112654580D01*
X147185713Y-112654580D02*
X147233332Y-112702200D01*
X147233332Y-112702200D02*
X147328570Y-112749819D01*
X147328570Y-112749819D02*
X147471427Y-112749819D01*
X153328570Y-113693152D02*
X153090475Y-114359819D01*
X153090475Y-114359819D02*
X152852380Y-113693152D01*
X152519046Y-113455057D02*
X152471427Y-113407438D01*
X152471427Y-113407438D02*
X152376189Y-113359819D01*
X152376189Y-113359819D02*
X152138094Y-113359819D01*
X152138094Y-113359819D02*
X152042856Y-113407438D01*
X152042856Y-113407438D02*
X151995237Y-113455057D01*
X151995237Y-113455057D02*
X151947618Y-113550295D01*
X151947618Y-113550295D02*
X151947618Y-113645533D01*
X151947618Y-113645533D02*
X151995237Y-113788390D01*
X151995237Y-113788390D02*
X152566665Y-114359819D01*
X152566665Y-114359819D02*
X151947618Y-114359819D01*
X151519046Y-114264580D02*
X151471427Y-114312200D01*
X151471427Y-114312200D02*
X151519046Y-114359819D01*
X151519046Y-114359819D02*
X151566665Y-114312200D01*
X151566665Y-114312200D02*
X151519046Y-114264580D01*
X151519046Y-114264580D02*
X151519046Y-114359819D01*
X150852380Y-113359819D02*
X150757142Y-113359819D01*
X150757142Y-113359819D02*
X150661904Y-113407438D01*
X150661904Y-113407438D02*
X150614285Y-113455057D01*
X150614285Y-113455057D02*
X150566666Y-113550295D01*
X150566666Y-113550295D02*
X150519047Y-113740771D01*
X150519047Y-113740771D02*
X150519047Y-113978866D01*
X150519047Y-113978866D02*
X150566666Y-114169342D01*
X150566666Y-114169342D02*
X150614285Y-114264580D01*
X150614285Y-114264580D02*
X150661904Y-114312200D01*
X150661904Y-114312200D02*
X150757142Y-114359819D01*
X150757142Y-114359819D02*
X150852380Y-114359819D01*
X150852380Y-114359819D02*
X150947618Y-114312200D01*
X150947618Y-114312200D02*
X150995237Y-114264580D01*
X150995237Y-114264580D02*
X151042856Y-114169342D01*
X151042856Y-114169342D02*
X151090475Y-113978866D01*
X151090475Y-113978866D02*
X151090475Y-113740771D01*
X151090475Y-113740771D02*
X151042856Y-113550295D01*
X151042856Y-113550295D02*
X150995237Y-113455057D01*
X150995237Y-113455057D02*
X150947618Y-113407438D01*
X150947618Y-113407438D02*
X150852380Y-113359819D01*
D10*
X133654299Y-107043358D02*
X132654299Y-107043358D01*
X132654299Y-107043358D02*
X132654299Y-107424310D01*
X132654299Y-107424310D02*
X132701918Y-107519548D01*
X132701918Y-107519548D02*
X132749537Y-107567167D01*
X132749537Y-107567167D02*
X132844775Y-107614786D01*
X132844775Y-107614786D02*
X132987632Y-107614786D01*
X132987632Y-107614786D02*
X133082870Y-107567167D01*
X133082870Y-107567167D02*
X133130489Y-107519548D01*
X133130489Y-107519548D02*
X133178108Y-107424310D01*
X133178108Y-107424310D02*
X133178108Y-107043358D01*
X133368584Y-107995739D02*
X133368584Y-108471929D01*
X133654299Y-107900501D02*
X132654299Y-108233834D01*
X132654299Y-108233834D02*
X133654299Y-108567167D01*
X132654299Y-109090977D02*
X132654299Y-109186215D01*
X132654299Y-109186215D02*
X132701918Y-109281453D01*
X132701918Y-109281453D02*
X132749537Y-109329072D01*
X132749537Y-109329072D02*
X132844775Y-109376691D01*
X132844775Y-109376691D02*
X133035251Y-109424310D01*
X133035251Y-109424310D02*
X133273346Y-109424310D01*
X133273346Y-109424310D02*
X133463822Y-109376691D01*
X133463822Y-109376691D02*
X133559060Y-109329072D01*
X133559060Y-109329072D02*
X133606680Y-109281453D01*
X133606680Y-109281453D02*
X133654299Y-109186215D01*
X133654299Y-109186215D02*
X133654299Y-109090977D01*
X133654299Y-109090977D02*
X133606680Y-108995739D01*
X133606680Y-108995739D02*
X133559060Y-108948120D01*
X133559060Y-108948120D02*
X133463822Y-108900501D01*
X133463822Y-108900501D02*
X133273346Y-108852882D01*
X133273346Y-108852882D02*
X133035251Y-108852882D01*
X133035251Y-108852882D02*
X132844775Y-108900501D01*
X132844775Y-108900501D02*
X132749537Y-108948120D01*
X132749537Y-108948120D02*
X132701918Y-108995739D01*
X132701918Y-108995739D02*
X132654299Y-109090977D01*
X138754299Y-116143358D02*
X137754299Y-116143358D01*
X137754299Y-116143358D02*
X137754299Y-116524310D01*
X137754299Y-116524310D02*
X137801918Y-116619548D01*
X137801918Y-116619548D02*
X137849537Y-116667167D01*
X137849537Y-116667167D02*
X137944775Y-116714786D01*
X137944775Y-116714786D02*
X138087632Y-116714786D01*
X138087632Y-116714786D02*
X138182870Y-116667167D01*
X138182870Y-116667167D02*
X138230489Y-116619548D01*
X138230489Y-116619548D02*
X138278108Y-116524310D01*
X138278108Y-116524310D02*
X138278108Y-116143358D01*
X138230489Y-117476691D02*
X138278108Y-117619548D01*
X138278108Y-117619548D02*
X138325727Y-117667167D01*
X138325727Y-117667167D02*
X138420965Y-117714786D01*
X138420965Y-117714786D02*
X138563822Y-117714786D01*
X138563822Y-117714786D02*
X138659060Y-117667167D01*
X138659060Y-117667167D02*
X138706680Y-117619548D01*
X138706680Y-117619548D02*
X138754299Y-117524310D01*
X138754299Y-117524310D02*
X138754299Y-117143358D01*
X138754299Y-117143358D02*
X137754299Y-117143358D01*
X137754299Y-117143358D02*
X137754299Y-117476691D01*
X137754299Y-117476691D02*
X137801918Y-117571929D01*
X137801918Y-117571929D02*
X137849537Y-117619548D01*
X137849537Y-117619548D02*
X137944775Y-117667167D01*
X137944775Y-117667167D02*
X138040013Y-117667167D01*
X138040013Y-117667167D02*
X138135251Y-117619548D01*
X138135251Y-117619548D02*
X138182870Y-117571929D01*
X138182870Y-117571929D02*
X138230489Y-117476691D01*
X138230489Y-117476691D02*
X138230489Y-117143358D01*
X138087632Y-118571929D02*
X138754299Y-118571929D01*
X137706680Y-118333834D02*
X138420965Y-118095739D01*
X138420965Y-118095739D02*
X138420965Y-118714786D01*
X120954299Y-107093358D02*
X119954299Y-107093358D01*
X119954299Y-107093358D02*
X119954299Y-107474310D01*
X119954299Y-107474310D02*
X120001918Y-107569548D01*
X120001918Y-107569548D02*
X120049537Y-107617167D01*
X120049537Y-107617167D02*
X120144775Y-107664786D01*
X120144775Y-107664786D02*
X120287632Y-107664786D01*
X120287632Y-107664786D02*
X120382870Y-107617167D01*
X120382870Y-107617167D02*
X120430489Y-107569548D01*
X120430489Y-107569548D02*
X120478108Y-107474310D01*
X120478108Y-107474310D02*
X120478108Y-107093358D01*
X120668584Y-108045739D02*
X120668584Y-108521929D01*
X120954299Y-107950501D02*
X119954299Y-108283834D01*
X119954299Y-108283834D02*
X120954299Y-108617167D01*
X119954299Y-109426691D02*
X119954299Y-108950501D01*
X119954299Y-108950501D02*
X120430489Y-108902882D01*
X120430489Y-108902882D02*
X120382870Y-108950501D01*
X120382870Y-108950501D02*
X120335251Y-109045739D01*
X120335251Y-109045739D02*
X120335251Y-109283834D01*
X120335251Y-109283834D02*
X120382870Y-109379072D01*
X120382870Y-109379072D02*
X120430489Y-109426691D01*
X120430489Y-109426691D02*
X120525727Y-109474310D01*
X120525727Y-109474310D02*
X120763822Y-109474310D01*
X120763822Y-109474310D02*
X120859060Y-109426691D01*
X120859060Y-109426691D02*
X120906680Y-109379072D01*
X120906680Y-109379072D02*
X120954299Y-109283834D01*
X120954299Y-109283834D02*
X120954299Y-109045739D01*
X120954299Y-109045739D02*
X120906680Y-108950501D01*
X120906680Y-108950501D02*
X120859060Y-108902882D01*
X120954299Y-116143358D02*
X119954299Y-116143358D01*
X119954299Y-116143358D02*
X119954299Y-116524310D01*
X119954299Y-116524310D02*
X120001918Y-116619548D01*
X120001918Y-116619548D02*
X120049537Y-116667167D01*
X120049537Y-116667167D02*
X120144775Y-116714786D01*
X120144775Y-116714786D02*
X120287632Y-116714786D01*
X120287632Y-116714786D02*
X120382870Y-116667167D01*
X120382870Y-116667167D02*
X120430489Y-116619548D01*
X120430489Y-116619548D02*
X120478108Y-116524310D01*
X120478108Y-116524310D02*
X120478108Y-116143358D01*
X120954299Y-117143358D02*
X119954299Y-117143358D01*
X119954299Y-117143358D02*
X119954299Y-117381453D01*
X119954299Y-117381453D02*
X120001918Y-117524310D01*
X120001918Y-117524310D02*
X120097156Y-117619548D01*
X120097156Y-117619548D02*
X120192394Y-117667167D01*
X120192394Y-117667167D02*
X120382870Y-117714786D01*
X120382870Y-117714786D02*
X120525727Y-117714786D01*
X120525727Y-117714786D02*
X120716203Y-117667167D01*
X120716203Y-117667167D02*
X120811441Y-117619548D01*
X120811441Y-117619548D02*
X120906680Y-117524310D01*
X120906680Y-117524310D02*
X120954299Y-117381453D01*
X120954299Y-117381453D02*
X120954299Y-117143358D01*
X120954299Y-118667167D02*
X120954299Y-118095739D01*
X120954299Y-118381453D02*
X119954299Y-118381453D01*
X119954299Y-118381453D02*
X120097156Y-118286215D01*
X120097156Y-118286215D02*
X120192394Y-118190977D01*
X120192394Y-118190977D02*
X120240013Y-118095739D01*
X131104299Y-107043358D02*
X130104299Y-107043358D01*
X130104299Y-107043358D02*
X130104299Y-107424310D01*
X130104299Y-107424310D02*
X130151918Y-107519548D01*
X130151918Y-107519548D02*
X130199537Y-107567167D01*
X130199537Y-107567167D02*
X130294775Y-107614786D01*
X130294775Y-107614786D02*
X130437632Y-107614786D01*
X130437632Y-107614786D02*
X130532870Y-107567167D01*
X130532870Y-107567167D02*
X130580489Y-107519548D01*
X130580489Y-107519548D02*
X130628108Y-107424310D01*
X130628108Y-107424310D02*
X130628108Y-107043358D01*
X130818584Y-107995739D02*
X130818584Y-108471929D01*
X131104299Y-107900501D02*
X130104299Y-108233834D01*
X130104299Y-108233834D02*
X131104299Y-108567167D01*
X131104299Y-109424310D02*
X131104299Y-108852882D01*
X131104299Y-109138596D02*
X130104299Y-109138596D01*
X130104299Y-109138596D02*
X130247156Y-109043358D01*
X130247156Y-109043358D02*
X130342394Y-108948120D01*
X130342394Y-108948120D02*
X130390013Y-108852882D01*
X141254299Y-107664786D02*
X140778108Y-107331453D01*
X141254299Y-107093358D02*
X140254299Y-107093358D01*
X140254299Y-107093358D02*
X140254299Y-107474310D01*
X140254299Y-107474310D02*
X140301918Y-107569548D01*
X140301918Y-107569548D02*
X140349537Y-107617167D01*
X140349537Y-107617167D02*
X140444775Y-107664786D01*
X140444775Y-107664786D02*
X140587632Y-107664786D01*
X140587632Y-107664786D02*
X140682870Y-107617167D01*
X140682870Y-107617167D02*
X140730489Y-107569548D01*
X140730489Y-107569548D02*
X140778108Y-107474310D01*
X140778108Y-107474310D02*
X140778108Y-107093358D01*
X140254299Y-107998120D02*
X141254299Y-108664786D01*
X140254299Y-108664786D02*
X141254299Y-107998120D01*
X153051918Y-107567167D02*
X153004299Y-107471929D01*
X153004299Y-107471929D02*
X153004299Y-107329072D01*
X153004299Y-107329072D02*
X153051918Y-107186215D01*
X153051918Y-107186215D02*
X153147156Y-107090977D01*
X153147156Y-107090977D02*
X153242394Y-107043358D01*
X153242394Y-107043358D02*
X153432870Y-106995739D01*
X153432870Y-106995739D02*
X153575727Y-106995739D01*
X153575727Y-106995739D02*
X153766203Y-107043358D01*
X153766203Y-107043358D02*
X153861441Y-107090977D01*
X153861441Y-107090977D02*
X153956680Y-107186215D01*
X153956680Y-107186215D02*
X154004299Y-107329072D01*
X154004299Y-107329072D02*
X154004299Y-107424310D01*
X154004299Y-107424310D02*
X153956680Y-107567167D01*
X153956680Y-107567167D02*
X153909060Y-107614786D01*
X153909060Y-107614786D02*
X153575727Y-107614786D01*
X153575727Y-107614786D02*
X153575727Y-107424310D01*
X154004299Y-108043358D02*
X153004299Y-108043358D01*
X153004299Y-108043358D02*
X154004299Y-108614786D01*
X154004299Y-108614786D02*
X153004299Y-108614786D01*
X154004299Y-109090977D02*
X153004299Y-109090977D01*
X153004299Y-109090977D02*
X153004299Y-109329072D01*
X153004299Y-109329072D02*
X153051918Y-109471929D01*
X153051918Y-109471929D02*
X153147156Y-109567167D01*
X153147156Y-109567167D02*
X153242394Y-109614786D01*
X153242394Y-109614786D02*
X153432870Y-109662405D01*
X153432870Y-109662405D02*
X153575727Y-109662405D01*
X153575727Y-109662405D02*
X153766203Y-109614786D01*
X153766203Y-109614786D02*
X153861441Y-109567167D01*
X153861441Y-109567167D02*
X153956680Y-109471929D01*
X153956680Y-109471929D02*
X154004299Y-109329072D01*
X154004299Y-109329072D02*
X154004299Y-109090977D01*
X123504299Y-107143358D02*
X122504299Y-107143358D01*
X122504299Y-107143358D02*
X122504299Y-107524310D01*
X122504299Y-107524310D02*
X122551918Y-107619548D01*
X122551918Y-107619548D02*
X122599537Y-107667167D01*
X122599537Y-107667167D02*
X122694775Y-107714786D01*
X122694775Y-107714786D02*
X122837632Y-107714786D01*
X122837632Y-107714786D02*
X122932870Y-107667167D01*
X122932870Y-107667167D02*
X122980489Y-107619548D01*
X122980489Y-107619548D02*
X123028108Y-107524310D01*
X123028108Y-107524310D02*
X123028108Y-107143358D01*
X123218584Y-108095739D02*
X123218584Y-108571929D01*
X123504299Y-108000501D02*
X122504299Y-108333834D01*
X122504299Y-108333834D02*
X123504299Y-108667167D01*
X122837632Y-109429072D02*
X123504299Y-109429072D01*
X122456680Y-109190977D02*
X123170965Y-108952882D01*
X123170965Y-108952882D02*
X123170965Y-109571929D01*
X136154299Y-116143358D02*
X135154299Y-116143358D01*
X135154299Y-116143358D02*
X135154299Y-116524310D01*
X135154299Y-116524310D02*
X135201918Y-116619548D01*
X135201918Y-116619548D02*
X135249537Y-116667167D01*
X135249537Y-116667167D02*
X135344775Y-116714786D01*
X135344775Y-116714786D02*
X135487632Y-116714786D01*
X135487632Y-116714786D02*
X135582870Y-116667167D01*
X135582870Y-116667167D02*
X135630489Y-116619548D01*
X135630489Y-116619548D02*
X135678108Y-116524310D01*
X135678108Y-116524310D02*
X135678108Y-116143358D01*
X135630489Y-117476691D02*
X135678108Y-117619548D01*
X135678108Y-117619548D02*
X135725727Y-117667167D01*
X135725727Y-117667167D02*
X135820965Y-117714786D01*
X135820965Y-117714786D02*
X135963822Y-117714786D01*
X135963822Y-117714786D02*
X136059060Y-117667167D01*
X136059060Y-117667167D02*
X136106680Y-117619548D01*
X136106680Y-117619548D02*
X136154299Y-117524310D01*
X136154299Y-117524310D02*
X136154299Y-117143358D01*
X136154299Y-117143358D02*
X135154299Y-117143358D01*
X135154299Y-117143358D02*
X135154299Y-117476691D01*
X135154299Y-117476691D02*
X135201918Y-117571929D01*
X135201918Y-117571929D02*
X135249537Y-117619548D01*
X135249537Y-117619548D02*
X135344775Y-117667167D01*
X135344775Y-117667167D02*
X135440013Y-117667167D01*
X135440013Y-117667167D02*
X135535251Y-117619548D01*
X135535251Y-117619548D02*
X135582870Y-117571929D01*
X135582870Y-117571929D02*
X135630489Y-117476691D01*
X135630489Y-117476691D02*
X135630489Y-117143358D01*
X135154299Y-118048120D02*
X135154299Y-118667167D01*
X135154299Y-118667167D02*
X135535251Y-118333834D01*
X135535251Y-118333834D02*
X135535251Y-118476691D01*
X135535251Y-118476691D02*
X135582870Y-118571929D01*
X135582870Y-118571929D02*
X135630489Y-118619548D01*
X135630489Y-118619548D02*
X135725727Y-118667167D01*
X135725727Y-118667167D02*
X135963822Y-118667167D01*
X135963822Y-118667167D02*
X136059060Y-118619548D01*
X136059060Y-118619548D02*
X136106680Y-118571929D01*
X136106680Y-118571929D02*
X136154299Y-118476691D01*
X136154299Y-118476691D02*
X136154299Y-118190977D01*
X136154299Y-118190977D02*
X136106680Y-118095739D01*
X136106680Y-118095739D02*
X136059060Y-118048120D01*
X147951918Y-107567167D02*
X147904299Y-107471929D01*
X147904299Y-107471929D02*
X147904299Y-107329072D01*
X147904299Y-107329072D02*
X147951918Y-107186215D01*
X147951918Y-107186215D02*
X148047156Y-107090977D01*
X148047156Y-107090977D02*
X148142394Y-107043358D01*
X148142394Y-107043358D02*
X148332870Y-106995739D01*
X148332870Y-106995739D02*
X148475727Y-106995739D01*
X148475727Y-106995739D02*
X148666203Y-107043358D01*
X148666203Y-107043358D02*
X148761441Y-107090977D01*
X148761441Y-107090977D02*
X148856680Y-107186215D01*
X148856680Y-107186215D02*
X148904299Y-107329072D01*
X148904299Y-107329072D02*
X148904299Y-107424310D01*
X148904299Y-107424310D02*
X148856680Y-107567167D01*
X148856680Y-107567167D02*
X148809060Y-107614786D01*
X148809060Y-107614786D02*
X148475727Y-107614786D01*
X148475727Y-107614786D02*
X148475727Y-107424310D01*
X148904299Y-108043358D02*
X147904299Y-108043358D01*
X147904299Y-108043358D02*
X148904299Y-108614786D01*
X148904299Y-108614786D02*
X147904299Y-108614786D01*
X148904299Y-109090977D02*
X147904299Y-109090977D01*
X147904299Y-109090977D02*
X147904299Y-109329072D01*
X147904299Y-109329072D02*
X147951918Y-109471929D01*
X147951918Y-109471929D02*
X148047156Y-109567167D01*
X148047156Y-109567167D02*
X148142394Y-109614786D01*
X148142394Y-109614786D02*
X148332870Y-109662405D01*
X148332870Y-109662405D02*
X148475727Y-109662405D01*
X148475727Y-109662405D02*
X148666203Y-109614786D01*
X148666203Y-109614786D02*
X148761441Y-109567167D01*
X148761441Y-109567167D02*
X148856680Y-109471929D01*
X148856680Y-109471929D02*
X148904299Y-109329072D01*
X148904299Y-109329072D02*
X148904299Y-109090977D01*
X148954299Y-116143358D02*
X147954299Y-116143358D01*
X147954299Y-116143358D02*
X147954299Y-116524310D01*
X147954299Y-116524310D02*
X148001918Y-116619548D01*
X148001918Y-116619548D02*
X148049537Y-116667167D01*
X148049537Y-116667167D02*
X148144775Y-116714786D01*
X148144775Y-116714786D02*
X148287632Y-116714786D01*
X148287632Y-116714786D02*
X148382870Y-116667167D01*
X148382870Y-116667167D02*
X148430489Y-116619548D01*
X148430489Y-116619548D02*
X148478108Y-116524310D01*
X148478108Y-116524310D02*
X148478108Y-116143358D01*
X148954299Y-117143358D02*
X147954299Y-117143358D01*
X147954299Y-117143358D02*
X147954299Y-117381453D01*
X147954299Y-117381453D02*
X148001918Y-117524310D01*
X148001918Y-117524310D02*
X148097156Y-117619548D01*
X148097156Y-117619548D02*
X148192394Y-117667167D01*
X148192394Y-117667167D02*
X148382870Y-117714786D01*
X148382870Y-117714786D02*
X148525727Y-117714786D01*
X148525727Y-117714786D02*
X148716203Y-117667167D01*
X148716203Y-117667167D02*
X148811441Y-117619548D01*
X148811441Y-117619548D02*
X148906680Y-117524310D01*
X148906680Y-117524310D02*
X148954299Y-117381453D01*
X148954299Y-117381453D02*
X148954299Y-117143358D01*
X148287632Y-118571929D02*
X148954299Y-118571929D01*
X147906680Y-118333834D02*
X148620965Y-118095739D01*
X148620965Y-118095739D02*
X148620965Y-118714786D01*
X143804299Y-107043358D02*
X142804299Y-107043358D01*
X142804299Y-107043358D02*
X142804299Y-107424310D01*
X142804299Y-107424310D02*
X142851918Y-107519548D01*
X142851918Y-107519548D02*
X142899537Y-107567167D01*
X142899537Y-107567167D02*
X142994775Y-107614786D01*
X142994775Y-107614786D02*
X143137632Y-107614786D01*
X143137632Y-107614786D02*
X143232870Y-107567167D01*
X143232870Y-107567167D02*
X143280489Y-107519548D01*
X143280489Y-107519548D02*
X143328108Y-107424310D01*
X143328108Y-107424310D02*
X143328108Y-107043358D01*
X143709060Y-108614786D02*
X143756680Y-108567167D01*
X143756680Y-108567167D02*
X143804299Y-108424310D01*
X143804299Y-108424310D02*
X143804299Y-108329072D01*
X143804299Y-108329072D02*
X143756680Y-108186215D01*
X143756680Y-108186215D02*
X143661441Y-108090977D01*
X143661441Y-108090977D02*
X143566203Y-108043358D01*
X143566203Y-108043358D02*
X143375727Y-107995739D01*
X143375727Y-107995739D02*
X143232870Y-107995739D01*
X143232870Y-107995739D02*
X143042394Y-108043358D01*
X143042394Y-108043358D02*
X142947156Y-108090977D01*
X142947156Y-108090977D02*
X142851918Y-108186215D01*
X142851918Y-108186215D02*
X142804299Y-108329072D01*
X142804299Y-108329072D02*
X142804299Y-108424310D01*
X142804299Y-108424310D02*
X142851918Y-108567167D01*
X142851918Y-108567167D02*
X142899537Y-108614786D01*
X143804299Y-109567167D02*
X143804299Y-108995739D01*
X143804299Y-109281453D02*
X142804299Y-109281453D01*
X142804299Y-109281453D02*
X142947156Y-109186215D01*
X142947156Y-109186215D02*
X143042394Y-109090977D01*
X143042394Y-109090977D02*
X143090013Y-108995739D01*
X123454299Y-116143358D02*
X122454299Y-116143358D01*
X122454299Y-116143358D02*
X122454299Y-116524310D01*
X122454299Y-116524310D02*
X122501918Y-116619548D01*
X122501918Y-116619548D02*
X122549537Y-116667167D01*
X122549537Y-116667167D02*
X122644775Y-116714786D01*
X122644775Y-116714786D02*
X122787632Y-116714786D01*
X122787632Y-116714786D02*
X122882870Y-116667167D01*
X122882870Y-116667167D02*
X122930489Y-116619548D01*
X122930489Y-116619548D02*
X122978108Y-116524310D01*
X122978108Y-116524310D02*
X122978108Y-116143358D01*
X123454299Y-117143358D02*
X122454299Y-117143358D01*
X122454299Y-117143358D02*
X122454299Y-117381453D01*
X122454299Y-117381453D02*
X122501918Y-117524310D01*
X122501918Y-117524310D02*
X122597156Y-117619548D01*
X122597156Y-117619548D02*
X122692394Y-117667167D01*
X122692394Y-117667167D02*
X122882870Y-117714786D01*
X122882870Y-117714786D02*
X123025727Y-117714786D01*
X123025727Y-117714786D02*
X123216203Y-117667167D01*
X123216203Y-117667167D02*
X123311441Y-117619548D01*
X123311441Y-117619548D02*
X123406680Y-117524310D01*
X123406680Y-117524310D02*
X123454299Y-117381453D01*
X123454299Y-117381453D02*
X123454299Y-117143358D01*
X122549537Y-118095739D02*
X122501918Y-118143358D01*
X122501918Y-118143358D02*
X122454299Y-118238596D01*
X122454299Y-118238596D02*
X122454299Y-118476691D01*
X122454299Y-118476691D02*
X122501918Y-118571929D01*
X122501918Y-118571929D02*
X122549537Y-118619548D01*
X122549537Y-118619548D02*
X122644775Y-118667167D01*
X122644775Y-118667167D02*
X122740013Y-118667167D01*
X122740013Y-118667167D02*
X122882870Y-118619548D01*
X122882870Y-118619548D02*
X123454299Y-118048120D01*
X123454299Y-118048120D02*
X123454299Y-118667167D01*
X141254299Y-116143358D02*
X140254299Y-116143358D01*
X140254299Y-116143358D02*
X140254299Y-116524310D01*
X140254299Y-116524310D02*
X140301918Y-116619548D01*
X140301918Y-116619548D02*
X140349537Y-116667167D01*
X140349537Y-116667167D02*
X140444775Y-116714786D01*
X140444775Y-116714786D02*
X140587632Y-116714786D01*
X140587632Y-116714786D02*
X140682870Y-116667167D01*
X140682870Y-116667167D02*
X140730489Y-116619548D01*
X140730489Y-116619548D02*
X140778108Y-116524310D01*
X140778108Y-116524310D02*
X140778108Y-116143358D01*
X140730489Y-117476691D02*
X140778108Y-117619548D01*
X140778108Y-117619548D02*
X140825727Y-117667167D01*
X140825727Y-117667167D02*
X140920965Y-117714786D01*
X140920965Y-117714786D02*
X141063822Y-117714786D01*
X141063822Y-117714786D02*
X141159060Y-117667167D01*
X141159060Y-117667167D02*
X141206680Y-117619548D01*
X141206680Y-117619548D02*
X141254299Y-117524310D01*
X141254299Y-117524310D02*
X141254299Y-117143358D01*
X141254299Y-117143358D02*
X140254299Y-117143358D01*
X140254299Y-117143358D02*
X140254299Y-117476691D01*
X140254299Y-117476691D02*
X140301918Y-117571929D01*
X140301918Y-117571929D02*
X140349537Y-117619548D01*
X140349537Y-117619548D02*
X140444775Y-117667167D01*
X140444775Y-117667167D02*
X140540013Y-117667167D01*
X140540013Y-117667167D02*
X140635251Y-117619548D01*
X140635251Y-117619548D02*
X140682870Y-117571929D01*
X140682870Y-117571929D02*
X140730489Y-117476691D01*
X140730489Y-117476691D02*
X140730489Y-117143358D01*
X140254299Y-118619548D02*
X140254299Y-118143358D01*
X140254299Y-118143358D02*
X140730489Y-118095739D01*
X140730489Y-118095739D02*
X140682870Y-118143358D01*
X140682870Y-118143358D02*
X140635251Y-118238596D01*
X140635251Y-118238596D02*
X140635251Y-118476691D01*
X140635251Y-118476691D02*
X140682870Y-118571929D01*
X140682870Y-118571929D02*
X140730489Y-118619548D01*
X140730489Y-118619548D02*
X140825727Y-118667167D01*
X140825727Y-118667167D02*
X141063822Y-118667167D01*
X141063822Y-118667167D02*
X141159060Y-118619548D01*
X141159060Y-118619548D02*
X141206680Y-118571929D01*
X141206680Y-118571929D02*
X141254299Y-118476691D01*
X141254299Y-118476691D02*
X141254299Y-118238596D01*
X141254299Y-118238596D02*
X141206680Y-118143358D01*
X141206680Y-118143358D02*
X141159060Y-118095739D01*
X133704299Y-116143358D02*
X132704299Y-116143358D01*
X132704299Y-116143358D02*
X132704299Y-116524310D01*
X132704299Y-116524310D02*
X132751918Y-116619548D01*
X132751918Y-116619548D02*
X132799537Y-116667167D01*
X132799537Y-116667167D02*
X132894775Y-116714786D01*
X132894775Y-116714786D02*
X133037632Y-116714786D01*
X133037632Y-116714786D02*
X133132870Y-116667167D01*
X133132870Y-116667167D02*
X133180489Y-116619548D01*
X133180489Y-116619548D02*
X133228108Y-116524310D01*
X133228108Y-116524310D02*
X133228108Y-116143358D01*
X133180489Y-117476691D02*
X133228108Y-117619548D01*
X133228108Y-117619548D02*
X133275727Y-117667167D01*
X133275727Y-117667167D02*
X133370965Y-117714786D01*
X133370965Y-117714786D02*
X133513822Y-117714786D01*
X133513822Y-117714786D02*
X133609060Y-117667167D01*
X133609060Y-117667167D02*
X133656680Y-117619548D01*
X133656680Y-117619548D02*
X133704299Y-117524310D01*
X133704299Y-117524310D02*
X133704299Y-117143358D01*
X133704299Y-117143358D02*
X132704299Y-117143358D01*
X132704299Y-117143358D02*
X132704299Y-117476691D01*
X132704299Y-117476691D02*
X132751918Y-117571929D01*
X132751918Y-117571929D02*
X132799537Y-117619548D01*
X132799537Y-117619548D02*
X132894775Y-117667167D01*
X132894775Y-117667167D02*
X132990013Y-117667167D01*
X132990013Y-117667167D02*
X133085251Y-117619548D01*
X133085251Y-117619548D02*
X133132870Y-117571929D01*
X133132870Y-117571929D02*
X133180489Y-117476691D01*
X133180489Y-117476691D02*
X133180489Y-117143358D01*
X132799537Y-118095739D02*
X132751918Y-118143358D01*
X132751918Y-118143358D02*
X132704299Y-118238596D01*
X132704299Y-118238596D02*
X132704299Y-118476691D01*
X132704299Y-118476691D02*
X132751918Y-118571929D01*
X132751918Y-118571929D02*
X132799537Y-118619548D01*
X132799537Y-118619548D02*
X132894775Y-118667167D01*
X132894775Y-118667167D02*
X132990013Y-118667167D01*
X132990013Y-118667167D02*
X133132870Y-118619548D01*
X133132870Y-118619548D02*
X133704299Y-118048120D01*
X133704299Y-118048120D02*
X133704299Y-118667167D01*
X118404299Y-116143358D02*
X117404299Y-116143358D01*
X117404299Y-116143358D02*
X117404299Y-116524310D01*
X117404299Y-116524310D02*
X117451918Y-116619548D01*
X117451918Y-116619548D02*
X117499537Y-116667167D01*
X117499537Y-116667167D02*
X117594775Y-116714786D01*
X117594775Y-116714786D02*
X117737632Y-116714786D01*
X117737632Y-116714786D02*
X117832870Y-116667167D01*
X117832870Y-116667167D02*
X117880489Y-116619548D01*
X117880489Y-116619548D02*
X117928108Y-116524310D01*
X117928108Y-116524310D02*
X117928108Y-116143358D01*
X118404299Y-117143358D02*
X117404299Y-117143358D01*
X117404299Y-117143358D02*
X117404299Y-117381453D01*
X117404299Y-117381453D02*
X117451918Y-117524310D01*
X117451918Y-117524310D02*
X117547156Y-117619548D01*
X117547156Y-117619548D02*
X117642394Y-117667167D01*
X117642394Y-117667167D02*
X117832870Y-117714786D01*
X117832870Y-117714786D02*
X117975727Y-117714786D01*
X117975727Y-117714786D02*
X118166203Y-117667167D01*
X118166203Y-117667167D02*
X118261441Y-117619548D01*
X118261441Y-117619548D02*
X118356680Y-117524310D01*
X118356680Y-117524310D02*
X118404299Y-117381453D01*
X118404299Y-117381453D02*
X118404299Y-117143358D01*
X117404299Y-118333834D02*
X117404299Y-118429072D01*
X117404299Y-118429072D02*
X117451918Y-118524310D01*
X117451918Y-118524310D02*
X117499537Y-118571929D01*
X117499537Y-118571929D02*
X117594775Y-118619548D01*
X117594775Y-118619548D02*
X117785251Y-118667167D01*
X117785251Y-118667167D02*
X118023346Y-118667167D01*
X118023346Y-118667167D02*
X118213822Y-118619548D01*
X118213822Y-118619548D02*
X118309060Y-118571929D01*
X118309060Y-118571929D02*
X118356680Y-118524310D01*
X118356680Y-118524310D02*
X118404299Y-118429072D01*
X118404299Y-118429072D02*
X118404299Y-118333834D01*
X118404299Y-118333834D02*
X118356680Y-118238596D01*
X118356680Y-118238596D02*
X118309060Y-118190977D01*
X118309060Y-118190977D02*
X118213822Y-118143358D01*
X118213822Y-118143358D02*
X118023346Y-118095739D01*
X118023346Y-118095739D02*
X117785251Y-118095739D01*
X117785251Y-118095739D02*
X117594775Y-118143358D01*
X117594775Y-118143358D02*
X117499537Y-118190977D01*
X117499537Y-118190977D02*
X117451918Y-118238596D01*
X117451918Y-118238596D02*
X117404299Y-118333834D01*
X128554299Y-116143358D02*
X127554299Y-116143358D01*
X127554299Y-116143358D02*
X127554299Y-116524310D01*
X127554299Y-116524310D02*
X127601918Y-116619548D01*
X127601918Y-116619548D02*
X127649537Y-116667167D01*
X127649537Y-116667167D02*
X127744775Y-116714786D01*
X127744775Y-116714786D02*
X127887632Y-116714786D01*
X127887632Y-116714786D02*
X127982870Y-116667167D01*
X127982870Y-116667167D02*
X128030489Y-116619548D01*
X128030489Y-116619548D02*
X128078108Y-116524310D01*
X128078108Y-116524310D02*
X128078108Y-116143358D01*
X128030489Y-117476691D02*
X128078108Y-117619548D01*
X128078108Y-117619548D02*
X128125727Y-117667167D01*
X128125727Y-117667167D02*
X128220965Y-117714786D01*
X128220965Y-117714786D02*
X128363822Y-117714786D01*
X128363822Y-117714786D02*
X128459060Y-117667167D01*
X128459060Y-117667167D02*
X128506680Y-117619548D01*
X128506680Y-117619548D02*
X128554299Y-117524310D01*
X128554299Y-117524310D02*
X128554299Y-117143358D01*
X128554299Y-117143358D02*
X127554299Y-117143358D01*
X127554299Y-117143358D02*
X127554299Y-117476691D01*
X127554299Y-117476691D02*
X127601918Y-117571929D01*
X127601918Y-117571929D02*
X127649537Y-117619548D01*
X127649537Y-117619548D02*
X127744775Y-117667167D01*
X127744775Y-117667167D02*
X127840013Y-117667167D01*
X127840013Y-117667167D02*
X127935251Y-117619548D01*
X127935251Y-117619548D02*
X127982870Y-117571929D01*
X127982870Y-117571929D02*
X128030489Y-117476691D01*
X128030489Y-117476691D02*
X128030489Y-117143358D01*
X127554299Y-118333834D02*
X127554299Y-118429072D01*
X127554299Y-118429072D02*
X127601918Y-118524310D01*
X127601918Y-118524310D02*
X127649537Y-118571929D01*
X127649537Y-118571929D02*
X127744775Y-118619548D01*
X127744775Y-118619548D02*
X127935251Y-118667167D01*
X127935251Y-118667167D02*
X128173346Y-118667167D01*
X128173346Y-118667167D02*
X128363822Y-118619548D01*
X128363822Y-118619548D02*
X128459060Y-118571929D01*
X128459060Y-118571929D02*
X128506680Y-118524310D01*
X128506680Y-118524310D02*
X128554299Y-118429072D01*
X128554299Y-118429072D02*
X128554299Y-118333834D01*
X128554299Y-118333834D02*
X128506680Y-118238596D01*
X128506680Y-118238596D02*
X128459060Y-118190977D01*
X128459060Y-118190977D02*
X128363822Y-118143358D01*
X128363822Y-118143358D02*
X128173346Y-118095739D01*
X128173346Y-118095739D02*
X127935251Y-118095739D01*
X127935251Y-118095739D02*
X127744775Y-118143358D01*
X127744775Y-118143358D02*
X127649537Y-118190977D01*
X127649537Y-118190977D02*
X127601918Y-118238596D01*
X127601918Y-118238596D02*
X127554299Y-118333834D01*
X155504299Y-107529548D02*
X155504299Y-107053358D01*
X155504299Y-107053358D02*
X155980489Y-107005739D01*
X155980489Y-107005739D02*
X155932870Y-107053358D01*
X155932870Y-107053358D02*
X155885251Y-107148596D01*
X155885251Y-107148596D02*
X155885251Y-107386691D01*
X155885251Y-107386691D02*
X155932870Y-107481929D01*
X155932870Y-107481929D02*
X155980489Y-107529548D01*
X155980489Y-107529548D02*
X156075727Y-107577167D01*
X156075727Y-107577167D02*
X156313822Y-107577167D01*
X156313822Y-107577167D02*
X156409060Y-107529548D01*
X156409060Y-107529548D02*
X156456680Y-107481929D01*
X156456680Y-107481929D02*
X156504299Y-107386691D01*
X156504299Y-107386691D02*
X156504299Y-107148596D01*
X156504299Y-107148596D02*
X156456680Y-107053358D01*
X156456680Y-107053358D02*
X156409060Y-107005739D01*
X155504299Y-107862882D02*
X156504299Y-108196215D01*
X156504299Y-108196215D02*
X155504299Y-108529548D01*
X143754299Y-116143358D02*
X142754299Y-116143358D01*
X142754299Y-116143358D02*
X142754299Y-116524310D01*
X142754299Y-116524310D02*
X142801918Y-116619548D01*
X142801918Y-116619548D02*
X142849537Y-116667167D01*
X142849537Y-116667167D02*
X142944775Y-116714786D01*
X142944775Y-116714786D02*
X143087632Y-116714786D01*
X143087632Y-116714786D02*
X143182870Y-116667167D01*
X143182870Y-116667167D02*
X143230489Y-116619548D01*
X143230489Y-116619548D02*
X143278108Y-116524310D01*
X143278108Y-116524310D02*
X143278108Y-116143358D01*
X143230489Y-117476691D02*
X143278108Y-117619548D01*
X143278108Y-117619548D02*
X143325727Y-117667167D01*
X143325727Y-117667167D02*
X143420965Y-117714786D01*
X143420965Y-117714786D02*
X143563822Y-117714786D01*
X143563822Y-117714786D02*
X143659060Y-117667167D01*
X143659060Y-117667167D02*
X143706680Y-117619548D01*
X143706680Y-117619548D02*
X143754299Y-117524310D01*
X143754299Y-117524310D02*
X143754299Y-117143358D01*
X143754299Y-117143358D02*
X142754299Y-117143358D01*
X142754299Y-117143358D02*
X142754299Y-117476691D01*
X142754299Y-117476691D02*
X142801918Y-117571929D01*
X142801918Y-117571929D02*
X142849537Y-117619548D01*
X142849537Y-117619548D02*
X142944775Y-117667167D01*
X142944775Y-117667167D02*
X143040013Y-117667167D01*
X143040013Y-117667167D02*
X143135251Y-117619548D01*
X143135251Y-117619548D02*
X143182870Y-117571929D01*
X143182870Y-117571929D02*
X143230489Y-117476691D01*
X143230489Y-117476691D02*
X143230489Y-117143358D01*
X142754299Y-118571929D02*
X142754299Y-118381453D01*
X142754299Y-118381453D02*
X142801918Y-118286215D01*
X142801918Y-118286215D02*
X142849537Y-118238596D01*
X142849537Y-118238596D02*
X142992394Y-118143358D01*
X142992394Y-118143358D02*
X143182870Y-118095739D01*
X143182870Y-118095739D02*
X143563822Y-118095739D01*
X143563822Y-118095739D02*
X143659060Y-118143358D01*
X143659060Y-118143358D02*
X143706680Y-118190977D01*
X143706680Y-118190977D02*
X143754299Y-118286215D01*
X143754299Y-118286215D02*
X143754299Y-118476691D01*
X143754299Y-118476691D02*
X143706680Y-118571929D01*
X143706680Y-118571929D02*
X143659060Y-118619548D01*
X143659060Y-118619548D02*
X143563822Y-118667167D01*
X143563822Y-118667167D02*
X143325727Y-118667167D01*
X143325727Y-118667167D02*
X143230489Y-118619548D01*
X143230489Y-118619548D02*
X143182870Y-118571929D01*
X143182870Y-118571929D02*
X143135251Y-118476691D01*
X143135251Y-118476691D02*
X143135251Y-118286215D01*
X143135251Y-118286215D02*
X143182870Y-118190977D01*
X143182870Y-118190977D02*
X143230489Y-118143358D01*
X143230489Y-118143358D02*
X143325727Y-118095739D01*
D11*
X131730952Y-112352200D02*
X131588095Y-112399819D01*
X131588095Y-112399819D02*
X131350000Y-112399819D01*
X131350000Y-112399819D02*
X131254762Y-112352200D01*
X131254762Y-112352200D02*
X131207143Y-112304580D01*
X131207143Y-112304580D02*
X131159524Y-112209342D01*
X131159524Y-112209342D02*
X131159524Y-112114104D01*
X131159524Y-112114104D02*
X131207143Y-112018866D01*
X131207143Y-112018866D02*
X131254762Y-111971247D01*
X131254762Y-111971247D02*
X131350000Y-111923628D01*
X131350000Y-111923628D02*
X131540476Y-111876009D01*
X131540476Y-111876009D02*
X131635714Y-111828390D01*
X131635714Y-111828390D02*
X131683333Y-111780771D01*
X131683333Y-111780771D02*
X131730952Y-111685533D01*
X131730952Y-111685533D02*
X131730952Y-111590295D01*
X131730952Y-111590295D02*
X131683333Y-111495057D01*
X131683333Y-111495057D02*
X131635714Y-111447438D01*
X131635714Y-111447438D02*
X131540476Y-111399819D01*
X131540476Y-111399819D02*
X131302381Y-111399819D01*
X131302381Y-111399819D02*
X131159524Y-111447438D01*
X130873809Y-111399819D02*
X130302381Y-111399819D01*
X130588095Y-112399819D02*
X130588095Y-111399819D01*
X129969047Y-112399819D02*
X129969047Y-111399819D01*
X129969047Y-111399819D02*
X129635714Y-112114104D01*
X129635714Y-112114104D02*
X129302381Y-111399819D01*
X129302381Y-111399819D02*
X129302381Y-112399819D01*
X128683333Y-111828390D02*
X128778571Y-111780771D01*
X128778571Y-111780771D02*
X128826190Y-111733152D01*
X128826190Y-111733152D02*
X128873809Y-111637914D01*
X128873809Y-111637914D02*
X128873809Y-111590295D01*
X128873809Y-111590295D02*
X128826190Y-111495057D01*
X128826190Y-111495057D02*
X128778571Y-111447438D01*
X128778571Y-111447438D02*
X128683333Y-111399819D01*
X128683333Y-111399819D02*
X128492857Y-111399819D01*
X128492857Y-111399819D02*
X128397619Y-111447438D01*
X128397619Y-111447438D02*
X128350000Y-111495057D01*
X128350000Y-111495057D02*
X128302381Y-111590295D01*
X128302381Y-111590295D02*
X128302381Y-111637914D01*
X128302381Y-111637914D02*
X128350000Y-111733152D01*
X128350000Y-111733152D02*
X128397619Y-111780771D01*
X128397619Y-111780771D02*
X128492857Y-111828390D01*
X128492857Y-111828390D02*
X128683333Y-111828390D01*
X128683333Y-111828390D02*
X128778571Y-111876009D01*
X128778571Y-111876009D02*
X128826190Y-111923628D01*
X128826190Y-111923628D02*
X128873809Y-112018866D01*
X128873809Y-112018866D02*
X128873809Y-112209342D01*
X128873809Y-112209342D02*
X128826190Y-112304580D01*
X128826190Y-112304580D02*
X128778571Y-112352200D01*
X128778571Y-112352200D02*
X128683333Y-112399819D01*
X128683333Y-112399819D02*
X128492857Y-112399819D01*
X128492857Y-112399819D02*
X128397619Y-112352200D01*
X128397619Y-112352200D02*
X128350000Y-112304580D01*
X128350000Y-112304580D02*
X128302381Y-112209342D01*
X128302381Y-112209342D02*
X128302381Y-112018866D01*
X128302381Y-112018866D02*
X128350000Y-111923628D01*
X128350000Y-111923628D02*
X128397619Y-111876009D01*
X128397619Y-111876009D02*
X128492857Y-111828390D01*
X127397619Y-112399819D02*
X127873809Y-112399819D01*
X127873809Y-112399819D02*
X127873809Y-111399819D01*
X126540476Y-112399819D02*
X127111904Y-112399819D01*
X126826190Y-112399819D02*
X126826190Y-111399819D01*
X126826190Y-111399819D02*
X126921428Y-111542676D01*
X126921428Y-111542676D02*
X127016666Y-111637914D01*
X127016666Y-111637914D02*
X127111904Y-111685533D01*
X125635714Y-111399819D02*
X126111904Y-111399819D01*
X126111904Y-111399819D02*
X126159523Y-111876009D01*
X126159523Y-111876009D02*
X126111904Y-111828390D01*
X126111904Y-111828390D02*
X126016666Y-111780771D01*
X126016666Y-111780771D02*
X125778571Y-111780771D01*
X125778571Y-111780771D02*
X125683333Y-111828390D01*
X125683333Y-111828390D02*
X125635714Y-111876009D01*
X125635714Y-111876009D02*
X125588095Y-111971247D01*
X125588095Y-111971247D02*
X125588095Y-112209342D01*
X125588095Y-112209342D02*
X125635714Y-112304580D01*
X125635714Y-112304580D02*
X125683333Y-112352200D01*
X125683333Y-112352200D02*
X125778571Y-112399819D01*
X125778571Y-112399819D02*
X126016666Y-112399819D01*
X126016666Y-112399819D02*
X126111904Y-112352200D01*
X126111904Y-112352200D02*
X126159523Y-112304580D01*
X124635714Y-112399819D02*
X125207142Y-112399819D01*
X124921428Y-112399819D02*
X124921428Y-111399819D01*
X124921428Y-111399819D02*
X125016666Y-111542676D01*
X125016666Y-111542676D02*
X125111904Y-111637914D01*
X125111904Y-111637914D02*
X125207142Y-111685533D01*
X124207142Y-112399819D02*
X124207142Y-111399819D01*
X123635714Y-112399819D02*
X124064285Y-111828390D01*
X123635714Y-111399819D02*
X124207142Y-111971247D01*
X122778571Y-111399819D02*
X122969047Y-111399819D01*
X122969047Y-111399819D02*
X123064285Y-111447438D01*
X123064285Y-111447438D02*
X123111904Y-111495057D01*
X123111904Y-111495057D02*
X123207142Y-111637914D01*
X123207142Y-111637914D02*
X123254761Y-111828390D01*
X123254761Y-111828390D02*
X123254761Y-112209342D01*
X123254761Y-112209342D02*
X123207142Y-112304580D01*
X123207142Y-112304580D02*
X123159523Y-112352200D01*
X123159523Y-112352200D02*
X123064285Y-112399819D01*
X123064285Y-112399819D02*
X122873809Y-112399819D01*
X122873809Y-112399819D02*
X122778571Y-112352200D01*
X122778571Y-112352200D02*
X122730952Y-112304580D01*
X122730952Y-112304580D02*
X122683333Y-112209342D01*
X122683333Y-112209342D02*
X122683333Y-111971247D01*
X122683333Y-111971247D02*
X122730952Y-111876009D01*
X122730952Y-111876009D02*
X122778571Y-111828390D01*
X122778571Y-111828390D02*
X122873809Y-111780771D01*
X122873809Y-111780771D02*
X123064285Y-111780771D01*
X123064285Y-111780771D02*
X123159523Y-111828390D01*
X123159523Y-111828390D02*
X123207142Y-111876009D01*
X123207142Y-111876009D02*
X123254761Y-111971247D01*
X122397618Y-111399819D02*
X121826190Y-111399819D01*
X122111904Y-112399819D02*
X122111904Y-111399819D01*
X121064285Y-111399819D02*
X121254761Y-111399819D01*
X121254761Y-111399819D02*
X121349999Y-111447438D01*
X121349999Y-111447438D02*
X121397618Y-111495057D01*
X121397618Y-111495057D02*
X121492856Y-111637914D01*
X121492856Y-111637914D02*
X121540475Y-111828390D01*
X121540475Y-111828390D02*
X121540475Y-112209342D01*
X121540475Y-112209342D02*
X121492856Y-112304580D01*
X121492856Y-112304580D02*
X121445237Y-112352200D01*
X121445237Y-112352200D02*
X121349999Y-112399819D01*
X121349999Y-112399819D02*
X121159523Y-112399819D01*
X121159523Y-112399819D02*
X121064285Y-112352200D01*
X121064285Y-112352200D02*
X121016666Y-112304580D01*
X121016666Y-112304580D02*
X120969047Y-112209342D01*
X120969047Y-112209342D02*
X120969047Y-111971247D01*
X120969047Y-111971247D02*
X121016666Y-111876009D01*
X121016666Y-111876009D02*
X121064285Y-111828390D01*
X121064285Y-111828390D02*
X121159523Y-111780771D01*
X121159523Y-111780771D02*
X121349999Y-111780771D01*
X121349999Y-111780771D02*
X121445237Y-111828390D01*
X121445237Y-111828390D02*
X121492856Y-111876009D01*
X121492856Y-111876009D02*
X121540475Y-111971247D01*
X134135714Y-114009819D02*
X134135714Y-113009819D01*
X134135714Y-113009819D02*
X133897619Y-113009819D01*
X133897619Y-113009819D02*
X133754762Y-113057438D01*
X133754762Y-113057438D02*
X133659524Y-113152676D01*
X133659524Y-113152676D02*
X133611905Y-113247914D01*
X133611905Y-113247914D02*
X133564286Y-113438390D01*
X133564286Y-113438390D02*
X133564286Y-113581247D01*
X133564286Y-113581247D02*
X133611905Y-113771723D01*
X133611905Y-113771723D02*
X133659524Y-113866961D01*
X133659524Y-113866961D02*
X133754762Y-113962200D01*
X133754762Y-113962200D02*
X133897619Y-114009819D01*
X133897619Y-114009819D02*
X134135714Y-114009819D01*
X133135714Y-113486009D02*
X132802381Y-113486009D01*
X132659524Y-114009819D02*
X133135714Y-114009819D01*
X133135714Y-114009819D02*
X133135714Y-113009819D01*
X133135714Y-113009819D02*
X132659524Y-113009819D01*
X132373809Y-113009819D02*
X132040476Y-114009819D01*
X132040476Y-114009819D02*
X131707143Y-113009819D01*
X131373809Y-113486009D02*
X131040476Y-113486009D01*
X130897619Y-114009819D02*
X131373809Y-114009819D01*
X131373809Y-114009819D02*
X131373809Y-113009819D01*
X131373809Y-113009819D02*
X130897619Y-113009819D01*
X129992857Y-114009819D02*
X130469047Y-114009819D01*
X130469047Y-114009819D02*
X130469047Y-113009819D01*
X129469047Y-113009819D02*
X129278571Y-113009819D01*
X129278571Y-113009819D02*
X129183333Y-113057438D01*
X129183333Y-113057438D02*
X129088095Y-113152676D01*
X129088095Y-113152676D02*
X129040476Y-113343152D01*
X129040476Y-113343152D02*
X129040476Y-113676485D01*
X129040476Y-113676485D02*
X129088095Y-113866961D01*
X129088095Y-113866961D02*
X129183333Y-113962200D01*
X129183333Y-113962200D02*
X129278571Y-114009819D01*
X129278571Y-114009819D02*
X129469047Y-114009819D01*
X129469047Y-114009819D02*
X129564285Y-113962200D01*
X129564285Y-113962200D02*
X129659523Y-113866961D01*
X129659523Y-113866961D02*
X129707142Y-113676485D01*
X129707142Y-113676485D02*
X129707142Y-113343152D01*
X129707142Y-113343152D02*
X129659523Y-113152676D01*
X129659523Y-113152676D02*
X129564285Y-113057438D01*
X129564285Y-113057438D02*
X129469047Y-113009819D01*
X128611904Y-114009819D02*
X128611904Y-113009819D01*
X128611904Y-113009819D02*
X128230952Y-113009819D01*
X128230952Y-113009819D02*
X128135714Y-113057438D01*
X128135714Y-113057438D02*
X128088095Y-113105057D01*
X128088095Y-113105057D02*
X128040476Y-113200295D01*
X128040476Y-113200295D02*
X128040476Y-113343152D01*
X128040476Y-113343152D02*
X128088095Y-113438390D01*
X128088095Y-113438390D02*
X128135714Y-113486009D01*
X128135714Y-113486009D02*
X128230952Y-113533628D01*
X128230952Y-113533628D02*
X128611904Y-113533628D01*
X127611904Y-114009819D02*
X127611904Y-113009819D01*
X127611904Y-113009819D02*
X127278571Y-113724104D01*
X127278571Y-113724104D02*
X126945238Y-113009819D01*
X126945238Y-113009819D02*
X126945238Y-114009819D01*
X126469047Y-113486009D02*
X126135714Y-113486009D01*
X125992857Y-114009819D02*
X126469047Y-114009819D01*
X126469047Y-114009819D02*
X126469047Y-113009819D01*
X126469047Y-113009819D02*
X125992857Y-113009819D01*
X125564285Y-114009819D02*
X125564285Y-113009819D01*
X125564285Y-113009819D02*
X124992857Y-114009819D01*
X124992857Y-114009819D02*
X124992857Y-113009819D01*
X124659523Y-113009819D02*
X124088095Y-113009819D01*
X124373809Y-114009819D02*
X124373809Y-113009819D01*
X122659523Y-113486009D02*
X122516666Y-113533628D01*
X122516666Y-113533628D02*
X122469047Y-113581247D01*
X122469047Y-113581247D02*
X122421428Y-113676485D01*
X122421428Y-113676485D02*
X122421428Y-113819342D01*
X122421428Y-113819342D02*
X122469047Y-113914580D01*
X122469047Y-113914580D02*
X122516666Y-113962200D01*
X122516666Y-113962200D02*
X122611904Y-114009819D01*
X122611904Y-114009819D02*
X122992856Y-114009819D01*
X122992856Y-114009819D02*
X122992856Y-113009819D01*
X122992856Y-113009819D02*
X122659523Y-113009819D01*
X122659523Y-113009819D02*
X122564285Y-113057438D01*
X122564285Y-113057438D02*
X122516666Y-113105057D01*
X122516666Y-113105057D02*
X122469047Y-113200295D01*
X122469047Y-113200295D02*
X122469047Y-113295533D01*
X122469047Y-113295533D02*
X122516666Y-113390771D01*
X122516666Y-113390771D02*
X122564285Y-113438390D01*
X122564285Y-113438390D02*
X122659523Y-113486009D01*
X122659523Y-113486009D02*
X122992856Y-113486009D01*
X121802380Y-113009819D02*
X121611904Y-113009819D01*
X121611904Y-113009819D02*
X121516666Y-113057438D01*
X121516666Y-113057438D02*
X121421428Y-113152676D01*
X121421428Y-113152676D02*
X121373809Y-113343152D01*
X121373809Y-113343152D02*
X121373809Y-113676485D01*
X121373809Y-113676485D02*
X121421428Y-113866961D01*
X121421428Y-113866961D02*
X121516666Y-113962200D01*
X121516666Y-113962200D02*
X121611904Y-114009819D01*
X121611904Y-114009819D02*
X121802380Y-114009819D01*
X121802380Y-114009819D02*
X121897618Y-113962200D01*
X121897618Y-113962200D02*
X121992856Y-113866961D01*
X121992856Y-113866961D02*
X122040475Y-113676485D01*
X122040475Y-113676485D02*
X122040475Y-113343152D01*
X122040475Y-113343152D02*
X121992856Y-113152676D01*
X121992856Y-113152676D02*
X121897618Y-113057438D01*
X121897618Y-113057438D02*
X121802380Y-113009819D01*
X120992856Y-113724104D02*
X120516666Y-113724104D01*
X121088094Y-114009819D02*
X120754761Y-113009819D01*
X120754761Y-113009819D02*
X120421428Y-114009819D01*
X119516666Y-114009819D02*
X119849999Y-113533628D01*
X120088094Y-114009819D02*
X120088094Y-113009819D01*
X120088094Y-113009819D02*
X119707142Y-113009819D01*
X119707142Y-113009819D02*
X119611904Y-113057438D01*
X119611904Y-113057438D02*
X119564285Y-113105057D01*
X119564285Y-113105057D02*
X119516666Y-113200295D01*
X119516666Y-113200295D02*
X119516666Y-113343152D01*
X119516666Y-113343152D02*
X119564285Y-113438390D01*
X119564285Y-113438390D02*
X119611904Y-113486009D01*
X119611904Y-113486009D02*
X119707142Y-113533628D01*
X119707142Y-113533628D02*
X120088094Y-113533628D01*
X119088094Y-114009819D02*
X119088094Y-113009819D01*
X119088094Y-113009819D02*
X118849999Y-113009819D01*
X118849999Y-113009819D02*
X118707142Y-113057438D01*
X118707142Y-113057438D02*
X118611904Y-113152676D01*
X118611904Y-113152676D02*
X118564285Y-113247914D01*
X118564285Y-113247914D02*
X118516666Y-113438390D01*
X118516666Y-113438390D02*
X118516666Y-113581247D01*
X118516666Y-113581247D02*
X118564285Y-113771723D01*
X118564285Y-113771723D02*
X118611904Y-113866961D01*
X118611904Y-113866961D02*
X118707142Y-113962200D01*
X118707142Y-113962200D02*
X118849999Y-114009819D01*
X118849999Y-114009819D02*
X119088094Y-114009819D01*
D10*
X137704299Y-106950501D02*
X137704299Y-107521929D01*
X138704299Y-107236215D02*
X137704299Y-107236215D01*
X137704299Y-107760025D02*
X138704299Y-108426691D01*
X137704299Y-108426691D02*
X138704299Y-107760025D01*
X126004299Y-107043358D02*
X125004299Y-107043358D01*
X125004299Y-107043358D02*
X126004299Y-107614786D01*
X126004299Y-107614786D02*
X125004299Y-107614786D01*
X125909060Y-108662405D02*
X125956680Y-108614786D01*
X125956680Y-108614786D02*
X126004299Y-108471929D01*
X126004299Y-108471929D02*
X126004299Y-108376691D01*
X126004299Y-108376691D02*
X125956680Y-108233834D01*
X125956680Y-108233834D02*
X125861441Y-108138596D01*
X125861441Y-108138596D02*
X125766203Y-108090977D01*
X125766203Y-108090977D02*
X125575727Y-108043358D01*
X125575727Y-108043358D02*
X125432870Y-108043358D01*
X125432870Y-108043358D02*
X125242394Y-108090977D01*
X125242394Y-108090977D02*
X125147156Y-108138596D01*
X125147156Y-108138596D02*
X125051918Y-108233834D01*
X125051918Y-108233834D02*
X125004299Y-108376691D01*
X125004299Y-108376691D02*
X125004299Y-108471929D01*
X125004299Y-108471929D02*
X125051918Y-108614786D01*
X125051918Y-108614786D02*
X125099537Y-108662405D01*
D12*
X116620000Y-121930000D02*
X116620000Y-119270000D01*
X154780000Y-121930000D02*
X116620000Y-121930000D01*
X154780000Y-121930000D02*
X154780000Y-119270000D01*
X156050000Y-121930000D02*
X157380000Y-121930000D01*
X157380000Y-121930000D02*
X157380000Y-120600000D01*
X154780000Y-119270000D02*
X116620000Y-119270000D01*
X116620000Y-106710000D02*
X116620000Y-104050000D01*
X154780000Y-106710000D02*
X116620000Y-106710000D01*
X154780000Y-106710000D02*
X154780000Y-104050000D01*
X156050000Y-106710000D02*
X157380000Y-106710000D01*
X157380000Y-106710000D02*
X157380000Y-105380000D01*
X154780000Y-104050000D02*
X116620000Y-104050000D01*
%LPC*%
D13*
X156984315Y-115000000D03*
X156984315Y-111000000D03*
D14*
X159125032Y-116575057D03*
X159125032Y-109424943D03*
D15*
X114500000Y-120500000D03*
X114500000Y-105500000D03*
X159500000Y-105500000D03*
X159500000Y-120500000D03*
D16*
X114600000Y-109150000D03*
D17*
X114600000Y-111690000D03*
X114600000Y-114230000D03*
X114600000Y-116770000D03*
D16*
X156050000Y-120600000D03*
D17*
X153510000Y-120600000D03*
X150970000Y-120600000D03*
X148430000Y-120600000D03*
X145890000Y-120600000D03*
X143350000Y-120600000D03*
X140810000Y-120600000D03*
X138270000Y-120600000D03*
X135730000Y-120600000D03*
X133190000Y-120600000D03*
X130650000Y-120600000D03*
X128110000Y-120600000D03*
X125570000Y-120600000D03*
X123030000Y-120600000D03*
X120490000Y-120600000D03*
X117950000Y-120600000D03*
D16*
X156050000Y-105380000D03*
D17*
X153510000Y-105380000D03*
X150970000Y-105380000D03*
X148430000Y-105380000D03*
X145890000Y-105380000D03*
X143350000Y-105380000D03*
X140810000Y-105380000D03*
X138270000Y-105380000D03*
X135730000Y-105380000D03*
X133190000Y-105380000D03*
X130650000Y-105380000D03*
X128110000Y-105380000D03*
X125570000Y-105380000D03*
X123030000Y-105380000D03*
X120490000Y-105380000D03*
X117950000Y-105380000D03*
%LPD*%
M02*
