G04 #@! TF.GenerationSoftware,KiCad,Pcbnew,7.0.7*
G04 #@! TF.CreationDate,2023-09-06T15:40:30-04:00*
G04 #@! TF.ProjectId,stm8l151k6t6_board,73746d38-6c31-4353-916b-3674365f626f,rev?*
G04 #@! TF.SameCoordinates,Original*
G04 #@! TF.FileFunction,Legend,Top*
G04 #@! TF.FilePolarity,Positive*
%FSLAX46Y46*%
G04 Gerber Fmt 4.6, Leading zero omitted, Abs format (unit mm)*
G04 Created by KiCad (PCBNEW 7.0.7) date 2023-09-06 15:40:30*
%MOMM*%
%LPD*%
G01*
G04 APERTURE LIST*
G04 Aperture macros list*
%AMRoundRect*
0 Rectangle with rounded corners*
0 $1 Rounding radius*
0 $2 $3 $4 $5 $6 $7 $8 $9 X,Y pos of 4 corners*
0 Add a 4 corners polygon primitive as box body*
4,1,4,$2,$3,$4,$5,$6,$7,$8,$9,$2,$3,0*
0 Add four circle primitives for the rounded corners*
1,1,$1+$1,$2,$3*
1,1,$1+$1,$4,$5*
1,1,$1+$1,$6,$7*
1,1,$1+$1,$8,$9*
0 Add four rect primitives between the rounded corners*
20,1,$1+$1,$2,$3,$4,$5,0*
20,1,$1+$1,$4,$5,$6,$7,0*
20,1,$1+$1,$6,$7,$8,$9,0*
20,1,$1+$1,$8,$9,$2,$3,0*%
G04 Aperture macros list end*
%ADD10C,0.100000*%
%ADD11C,0.186803*%
%ADD12C,0.150000*%
%ADD13C,0.160000*%
%ADD14C,0.120000*%
%ADD15C,0.254000*%
%ADD16C,0.059995*%
%ADD17RoundRect,0.140000X-0.140000X-0.170000X0.140000X-0.170000X0.140000X0.170000X-0.140000X0.170000X0*%
%ADD18RoundRect,0.150000X0.512500X0.150000X-0.512500X0.150000X-0.512500X-0.150000X0.512500X-0.150000X0*%
%ADD19RoundRect,0.225000X0.250000X-0.225000X0.250000X0.225000X-0.250000X0.225000X-0.250000X-0.225000X0*%
%ADD20R,1.400000X1.200000*%
%ADD21RoundRect,0.250000X0.262500X0.450000X-0.262500X0.450000X-0.262500X-0.450000X0.262500X-0.450000X0*%
%ADD22RoundRect,0.140000X0.170000X-0.140000X0.170000X0.140000X-0.170000X0.140000X-0.170000X-0.140000X0*%
%ADD23RoundRect,0.140000X0.021213X-0.219203X0.219203X-0.021213X-0.021213X0.219203X-0.219203X0.021213X0*%
%ADD24RoundRect,0.200000X0.275000X-0.200000X0.275000X0.200000X-0.275000X0.200000X-0.275000X-0.200000X0*%
%ADD25RoundRect,0.200000X0.200000X0.275000X-0.200000X0.275000X-0.200000X-0.275000X0.200000X-0.275000X0*%
%ADD26C,0.600000*%
%ADD27R,1.350013X0.400000*%
%ADD28R,1.199898X1.600000*%
%ADD29O,2.400000X1.200000*%
%ADD30RoundRect,0.140000X0.140000X0.170000X-0.140000X0.170000X-0.140000X-0.170000X0.140000X-0.170000X0*%
%ADD31RoundRect,0.075000X0.075000X-0.350000X0.075000X0.350000X-0.075000X0.350000X-0.075000X-0.350000X0*%
%ADD32RoundRect,0.075000X0.350000X-0.075000X0.350000X0.075000X-0.350000X0.075000X-0.350000X-0.075000X0*%
%ADD33R,2.100000X2.100000*%
%ADD34RoundRect,0.125000X-0.530330X0.353553X0.353553X-0.530330X0.530330X-0.353553X-0.353553X0.530330X0*%
%ADD35RoundRect,0.125000X-0.530330X-0.353553X-0.353553X-0.530330X0.530330X0.353553X0.353553X0.530330X0*%
%ADD36R,1.050013X0.700000*%
%ADD37RoundRect,0.243750X0.243750X0.456250X-0.243750X0.456250X-0.243750X-0.456250X0.243750X-0.456250X0*%
%ADD38R,0.600000X1.100000*%
%ADD39RoundRect,0.140000X-0.219203X-0.021213X-0.021213X-0.219203X0.219203X0.021213X0.021213X0.219203X0*%
%ADD40RoundRect,0.225000X-0.250000X0.225000X-0.250000X-0.225000X0.250000X-0.225000X0.250000X0.225000X0*%
%ADD41C,2.200000*%
%ADD42R,1.700000X1.700000*%
%ADD43O,1.700000X1.700000*%
%ADD44RoundRect,0.140000X-0.170000X0.140000X-0.170000X-0.140000X0.170000X-0.140000X0.170000X0.140000X0*%
G04 APERTURE END LIST*
D10*
X116600000Y-109000000D02*
X117200000Y-109000000D01*
X117200000Y-109300000D01*
X116600000Y-109300000D01*
X116600000Y-109500000D01*
X116250000Y-109150000D01*
X116600000Y-108800000D01*
X116600000Y-109000000D01*
G36*
X116600000Y-109000000D02*
G01*
X117200000Y-109000000D01*
X117200000Y-109300000D01*
X116600000Y-109300000D01*
X116600000Y-109500000D01*
X116250000Y-109150000D01*
X116600000Y-108800000D01*
X116600000Y-109000000D01*
G37*
X120750000Y-112050000D02*
X120550000Y-112050000D01*
X120550000Y-112650000D01*
X120250000Y-112650000D01*
X120250000Y-112050000D01*
X120050000Y-112050000D01*
X120400000Y-111700000D01*
X120750000Y-112050000D01*
G36*
X120750000Y-112050000D02*
G01*
X120550000Y-112050000D01*
X120550000Y-112650000D01*
X120250000Y-112650000D01*
X120250000Y-112050000D01*
X120050000Y-112050000D01*
X120400000Y-111700000D01*
X120750000Y-112050000D01*
G37*
X120550000Y-113900000D02*
X120750000Y-113900000D01*
X120400000Y-114250000D01*
X120050000Y-113900000D01*
X120250000Y-113900000D01*
X120250000Y-113300000D01*
X120550000Y-113300000D01*
X120550000Y-113900000D01*
G36*
X120550000Y-113900000D02*
G01*
X120750000Y-113900000D01*
X120400000Y-114250000D01*
X120050000Y-113900000D01*
X120250000Y-113900000D01*
X120250000Y-113300000D01*
X120550000Y-113300000D01*
X120550000Y-113900000D01*
G37*
D11*
X127131598Y-115250000D02*
G75*
G03*
X127131598Y-115250000I-93401J0D01*
G01*
X143643401Y-114150000D02*
G75*
G03*
X143643401Y-114150000I-93401J0D01*
G01*
D12*
X126212969Y-114869819D02*
X125736779Y-114869819D01*
X125736779Y-114869819D02*
X125736779Y-113869819D01*
X126546303Y-114346009D02*
X126879636Y-114346009D01*
X127022493Y-114869819D02*
X126546303Y-114869819D01*
X126546303Y-114869819D02*
X126546303Y-113869819D01*
X126546303Y-113869819D02*
X127022493Y-113869819D01*
X127451065Y-114869819D02*
X127451065Y-113869819D01*
X127451065Y-113869819D02*
X127689160Y-113869819D01*
X127689160Y-113869819D02*
X127832017Y-113917438D01*
X127832017Y-113917438D02*
X127927255Y-114012676D01*
X127927255Y-114012676D02*
X127974874Y-114107914D01*
X127974874Y-114107914D02*
X128022493Y-114298390D01*
X128022493Y-114298390D02*
X128022493Y-114441247D01*
X128022493Y-114441247D02*
X127974874Y-114631723D01*
X127974874Y-114631723D02*
X127927255Y-114726961D01*
X127927255Y-114726961D02*
X127832017Y-114822200D01*
X127832017Y-114822200D02*
X127689160Y-114869819D01*
X127689160Y-114869819D02*
X127451065Y-114869819D01*
X128974874Y-114869819D02*
X128403446Y-114869819D01*
X128689160Y-114869819D02*
X128689160Y-113869819D01*
X128689160Y-113869819D02*
X128593922Y-114012676D01*
X128593922Y-114012676D02*
X128498684Y-114107914D01*
X128498684Y-114107914D02*
X128403446Y-114155533D01*
X143036779Y-113569819D02*
X143036779Y-112569819D01*
X143036779Y-112569819D02*
X143417731Y-112569819D01*
X143417731Y-112569819D02*
X143512969Y-112617438D01*
X143512969Y-112617438D02*
X143560588Y-112665057D01*
X143560588Y-112665057D02*
X143608207Y-112760295D01*
X143608207Y-112760295D02*
X143608207Y-112903152D01*
X143608207Y-112903152D02*
X143560588Y-112998390D01*
X143560588Y-112998390D02*
X143512969Y-113046009D01*
X143512969Y-113046009D02*
X143417731Y-113093628D01*
X143417731Y-113093628D02*
X143036779Y-113093628D01*
X143941541Y-112569819D02*
X144179636Y-113569819D01*
X144179636Y-113569819D02*
X144370112Y-112855533D01*
X144370112Y-112855533D02*
X144560588Y-113569819D01*
X144560588Y-113569819D02*
X144798684Y-112569819D01*
X145751064Y-113569819D02*
X145417731Y-113093628D01*
X145179636Y-113569819D02*
X145179636Y-112569819D01*
X145179636Y-112569819D02*
X145560588Y-112569819D01*
X145560588Y-112569819D02*
X145655826Y-112617438D01*
X145655826Y-112617438D02*
X145703445Y-112665057D01*
X145703445Y-112665057D02*
X145751064Y-112760295D01*
X145751064Y-112760295D02*
X145751064Y-112903152D01*
X145751064Y-112903152D02*
X145703445Y-112998390D01*
X145703445Y-112998390D02*
X145655826Y-113046009D01*
X145655826Y-113046009D02*
X145560588Y-113093628D01*
X145560588Y-113093628D02*
X145179636Y-113093628D01*
X121036779Y-113269819D02*
X121036779Y-114079342D01*
X121036779Y-114079342D02*
X121084398Y-114174580D01*
X121084398Y-114174580D02*
X121132017Y-114222200D01*
X121132017Y-114222200D02*
X121227255Y-114269819D01*
X121227255Y-114269819D02*
X121417731Y-114269819D01*
X121417731Y-114269819D02*
X121512969Y-114222200D01*
X121512969Y-114222200D02*
X121560588Y-114174580D01*
X121560588Y-114174580D02*
X121608207Y-114079342D01*
X121608207Y-114079342D02*
X121608207Y-113269819D01*
X122036779Y-114222200D02*
X122179636Y-114269819D01*
X122179636Y-114269819D02*
X122417731Y-114269819D01*
X122417731Y-114269819D02*
X122512969Y-114222200D01*
X122512969Y-114222200D02*
X122560588Y-114174580D01*
X122560588Y-114174580D02*
X122608207Y-114079342D01*
X122608207Y-114079342D02*
X122608207Y-113984104D01*
X122608207Y-113984104D02*
X122560588Y-113888866D01*
X122560588Y-113888866D02*
X122512969Y-113841247D01*
X122512969Y-113841247D02*
X122417731Y-113793628D01*
X122417731Y-113793628D02*
X122227255Y-113746009D01*
X122227255Y-113746009D02*
X122132017Y-113698390D01*
X122132017Y-113698390D02*
X122084398Y-113650771D01*
X122084398Y-113650771D02*
X122036779Y-113555533D01*
X122036779Y-113555533D02*
X122036779Y-113460295D01*
X122036779Y-113460295D02*
X122084398Y-113365057D01*
X122084398Y-113365057D02*
X122132017Y-113317438D01*
X122132017Y-113317438D02*
X122227255Y-113269819D01*
X122227255Y-113269819D02*
X122465350Y-113269819D01*
X122465350Y-113269819D02*
X122608207Y-113317438D01*
X123608207Y-114269819D02*
X123274874Y-113793628D01*
X123036779Y-114269819D02*
X123036779Y-113269819D01*
X123036779Y-113269819D02*
X123417731Y-113269819D01*
X123417731Y-113269819D02*
X123512969Y-113317438D01*
X123512969Y-113317438D02*
X123560588Y-113365057D01*
X123560588Y-113365057D02*
X123608207Y-113460295D01*
X123608207Y-113460295D02*
X123608207Y-113603152D01*
X123608207Y-113603152D02*
X123560588Y-113698390D01*
X123560588Y-113698390D02*
X123512969Y-113746009D01*
X123512969Y-113746009D02*
X123417731Y-113793628D01*
X123417731Y-113793628D02*
X123036779Y-113793628D01*
X117958207Y-112769819D02*
X117624874Y-112293628D01*
X117386779Y-112769819D02*
X117386779Y-111769819D01*
X117386779Y-111769819D02*
X117767731Y-111769819D01*
X117767731Y-111769819D02*
X117862969Y-111817438D01*
X117862969Y-111817438D02*
X117910588Y-111865057D01*
X117910588Y-111865057D02*
X117958207Y-111960295D01*
X117958207Y-111960295D02*
X117958207Y-112103152D01*
X117958207Y-112103152D02*
X117910588Y-112198390D01*
X117910588Y-112198390D02*
X117862969Y-112246009D01*
X117862969Y-112246009D02*
X117767731Y-112293628D01*
X117767731Y-112293628D02*
X117386779Y-112293628D01*
X118339160Y-112722200D02*
X118482017Y-112769819D01*
X118482017Y-112769819D02*
X118720112Y-112769819D01*
X118720112Y-112769819D02*
X118815350Y-112722200D01*
X118815350Y-112722200D02*
X118862969Y-112674580D01*
X118862969Y-112674580D02*
X118910588Y-112579342D01*
X118910588Y-112579342D02*
X118910588Y-112484104D01*
X118910588Y-112484104D02*
X118862969Y-112388866D01*
X118862969Y-112388866D02*
X118815350Y-112341247D01*
X118815350Y-112341247D02*
X118720112Y-112293628D01*
X118720112Y-112293628D02*
X118529636Y-112246009D01*
X118529636Y-112246009D02*
X118434398Y-112198390D01*
X118434398Y-112198390D02*
X118386779Y-112150771D01*
X118386779Y-112150771D02*
X118339160Y-112055533D01*
X118339160Y-112055533D02*
X118339160Y-111960295D01*
X118339160Y-111960295D02*
X118386779Y-111865057D01*
X118386779Y-111865057D02*
X118434398Y-111817438D01*
X118434398Y-111817438D02*
X118529636Y-111769819D01*
X118529636Y-111769819D02*
X118767731Y-111769819D01*
X118767731Y-111769819D02*
X118910588Y-111817438D01*
X119196303Y-111769819D02*
X119767731Y-111769819D01*
X119482017Y-112769819D02*
X119482017Y-111769819D01*
D13*
X136369299Y-116478070D02*
X137083584Y-116478070D01*
X137083584Y-116478070D02*
X137226441Y-116511403D01*
X137226441Y-116511403D02*
X137321680Y-116578070D01*
X137321680Y-116578070D02*
X137369299Y-116678070D01*
X137369299Y-116678070D02*
X137369299Y-116744737D01*
X137369299Y-115811404D02*
X137369299Y-116144737D01*
X137369299Y-116144737D02*
X136369299Y-116144737D01*
X137274060Y-115178070D02*
X137321680Y-115211403D01*
X137321680Y-115211403D02*
X137369299Y-115311403D01*
X137369299Y-115311403D02*
X137369299Y-115378070D01*
X137369299Y-115378070D02*
X137321680Y-115478070D01*
X137321680Y-115478070D02*
X137226441Y-115544737D01*
X137226441Y-115544737D02*
X137131203Y-115578070D01*
X137131203Y-115578070D02*
X136940727Y-115611403D01*
X136940727Y-115611403D02*
X136797870Y-115611403D01*
X136797870Y-115611403D02*
X136607394Y-115578070D01*
X136607394Y-115578070D02*
X136512156Y-115544737D01*
X136512156Y-115544737D02*
X136416918Y-115478070D01*
X136416918Y-115478070D02*
X136369299Y-115378070D01*
X136369299Y-115378070D02*
X136369299Y-115311403D01*
X136369299Y-115311403D02*
X136416918Y-115211403D01*
X136416918Y-115211403D02*
X136464537Y-115178070D01*
X136369299Y-114678070D02*
X137083584Y-114678070D01*
X137083584Y-114678070D02*
X137226441Y-114711403D01*
X137226441Y-114711403D02*
X137321680Y-114778070D01*
X137321680Y-114778070D02*
X137369299Y-114878070D01*
X137369299Y-114878070D02*
X137369299Y-114944737D01*
X137369299Y-114011404D02*
X137369299Y-114344737D01*
X137369299Y-114344737D02*
X136369299Y-114344737D01*
X137274060Y-113378070D02*
X137321680Y-113411403D01*
X137321680Y-113411403D02*
X137369299Y-113511403D01*
X137369299Y-113511403D02*
X137369299Y-113578070D01*
X137369299Y-113578070D02*
X137321680Y-113678070D01*
X137321680Y-113678070D02*
X137226441Y-113744737D01*
X137226441Y-113744737D02*
X137131203Y-113778070D01*
X137131203Y-113778070D02*
X136940727Y-113811403D01*
X136940727Y-113811403D02*
X136797870Y-113811403D01*
X136797870Y-113811403D02*
X136607394Y-113778070D01*
X136607394Y-113778070D02*
X136512156Y-113744737D01*
X136512156Y-113744737D02*
X136416918Y-113678070D01*
X136416918Y-113678070D02*
X136369299Y-113578070D01*
X136369299Y-113578070D02*
X136369299Y-113511403D01*
X136369299Y-113511403D02*
X136416918Y-113411403D01*
X136416918Y-113411403D02*
X136464537Y-113378070D01*
X136369299Y-112878070D02*
X137083584Y-112878070D01*
X137083584Y-112878070D02*
X137226441Y-112911403D01*
X137226441Y-112911403D02*
X137321680Y-112978070D01*
X137321680Y-112978070D02*
X137369299Y-113078070D01*
X137369299Y-113078070D02*
X137369299Y-113144737D01*
X137369299Y-112211404D02*
X137369299Y-112544737D01*
X137369299Y-112544737D02*
X136369299Y-112544737D01*
X137274060Y-111578070D02*
X137321680Y-111611403D01*
X137321680Y-111611403D02*
X137369299Y-111711403D01*
X137369299Y-111711403D02*
X137369299Y-111778070D01*
X137369299Y-111778070D02*
X137321680Y-111878070D01*
X137321680Y-111878070D02*
X137226441Y-111944737D01*
X137226441Y-111944737D02*
X137131203Y-111978070D01*
X137131203Y-111978070D02*
X136940727Y-112011403D01*
X136940727Y-112011403D02*
X136797870Y-112011403D01*
X136797870Y-112011403D02*
X136607394Y-111978070D01*
X136607394Y-111978070D02*
X136512156Y-111944737D01*
X136512156Y-111944737D02*
X136416918Y-111878070D01*
X136416918Y-111878070D02*
X136369299Y-111778070D01*
X136369299Y-111778070D02*
X136369299Y-111711403D01*
X136369299Y-111711403D02*
X136416918Y-111611403D01*
X136416918Y-111611403D02*
X136464537Y-111578070D01*
X136369299Y-111078070D02*
X137083584Y-111078070D01*
X137083584Y-111078070D02*
X137226441Y-111111403D01*
X137226441Y-111111403D02*
X137321680Y-111178070D01*
X137321680Y-111178070D02*
X137369299Y-111278070D01*
X137369299Y-111278070D02*
X137369299Y-111344737D01*
X137369299Y-110411404D02*
X137369299Y-110744737D01*
X137369299Y-110744737D02*
X136369299Y-110744737D01*
X137274060Y-109778070D02*
X137321680Y-109811403D01*
X137321680Y-109811403D02*
X137369299Y-109911403D01*
X137369299Y-109911403D02*
X137369299Y-109978070D01*
X137369299Y-109978070D02*
X137321680Y-110078070D01*
X137321680Y-110078070D02*
X137226441Y-110144737D01*
X137226441Y-110144737D02*
X137131203Y-110178070D01*
X137131203Y-110178070D02*
X136940727Y-110211403D01*
X136940727Y-110211403D02*
X136797870Y-110211403D01*
X136797870Y-110211403D02*
X136607394Y-110178070D01*
X136607394Y-110178070D02*
X136512156Y-110144737D01*
X136512156Y-110144737D02*
X136416918Y-110078070D01*
X136416918Y-110078070D02*
X136369299Y-109978070D01*
X136369299Y-109978070D02*
X136369299Y-109911403D01*
X136369299Y-109911403D02*
X136416918Y-109811403D01*
X136416918Y-109811403D02*
X136464537Y-109778070D01*
D12*
X117222200Y-117060839D02*
X117269819Y-116917982D01*
X117269819Y-116917982D02*
X117269819Y-116679887D01*
X117269819Y-116679887D02*
X117222200Y-116584649D01*
X117222200Y-116584649D02*
X117174580Y-116537030D01*
X117174580Y-116537030D02*
X117079342Y-116489411D01*
X117079342Y-116489411D02*
X116984104Y-116489411D01*
X116984104Y-116489411D02*
X116888866Y-116537030D01*
X116888866Y-116537030D02*
X116841247Y-116584649D01*
X116841247Y-116584649D02*
X116793628Y-116679887D01*
X116793628Y-116679887D02*
X116746009Y-116870363D01*
X116746009Y-116870363D02*
X116698390Y-116965601D01*
X116698390Y-116965601D02*
X116650771Y-117013220D01*
X116650771Y-117013220D02*
X116555533Y-117060839D01*
X116555533Y-117060839D02*
X116460295Y-117060839D01*
X116460295Y-117060839D02*
X116365057Y-117013220D01*
X116365057Y-117013220D02*
X116317438Y-116965601D01*
X116317438Y-116965601D02*
X116269819Y-116870363D01*
X116269819Y-116870363D02*
X116269819Y-116632268D01*
X116269819Y-116632268D02*
X116317438Y-116489411D01*
X116269819Y-116156077D02*
X117269819Y-115917982D01*
X117269819Y-115917982D02*
X116555533Y-115727506D01*
X116555533Y-115727506D02*
X117269819Y-115537030D01*
X117269819Y-115537030D02*
X116269819Y-115298935D01*
X117269819Y-114917982D02*
X116269819Y-114917982D01*
X117269819Y-114441792D02*
X116269819Y-114441792D01*
X116269819Y-114441792D02*
X116984104Y-114108459D01*
X116984104Y-114108459D02*
X116269819Y-113775126D01*
X116269819Y-113775126D02*
X117269819Y-113775126D01*
D14*
X143942164Y-109440000D02*
X144157836Y-109440000D01*
X143942164Y-110160000D02*
X144157836Y-110160000D01*
X151100000Y-118260000D02*
X152900000Y-118260000D01*
X151100000Y-118260000D02*
X150300000Y-118260000D01*
X151100000Y-115140000D02*
X151900000Y-115140000D01*
X151100000Y-115140000D02*
X150300000Y-115140000D01*
X128040000Y-112590580D02*
X128040000Y-112309420D01*
X129060000Y-112590580D02*
X129060000Y-112309420D01*
X125900000Y-107550000D02*
X125900000Y-110850000D01*
X125900000Y-110850000D02*
X129900000Y-110850000D01*
X153277064Y-113485000D02*
X152822936Y-113485000D01*
X153277064Y-112015000D02*
X152822936Y-112015000D01*
X123740076Y-110482766D02*
X123740076Y-110267094D01*
X124460076Y-110482766D02*
X124460076Y-110267094D01*
X130819190Y-110371693D02*
X130971693Y-110219190D01*
X131328307Y-110880810D02*
X131480810Y-110728307D01*
X123977500Y-116637258D02*
X123977500Y-116162742D01*
X125022500Y-116637258D02*
X125022500Y-116162742D01*
X129012258Y-118847500D02*
X128537742Y-118847500D01*
X129012258Y-117802500D02*
X128537742Y-117802500D01*
D15*
X161697955Y-116809881D02*
X161697955Y-116301880D01*
X157697193Y-116499822D02*
X157205982Y-116499822D01*
X161279921Y-116499822D02*
X160552642Y-116499822D01*
X161279921Y-116499822D02*
X161387770Y-116499822D01*
X161279921Y-116499822D02*
X161279921Y-109499797D01*
X161387770Y-116499822D02*
X161697955Y-116809881D01*
X161697955Y-116301880D02*
X161697955Y-116289230D01*
X161697955Y-116289230D02*
X161279921Y-115871222D01*
X156249898Y-115318618D02*
X156249898Y-114777877D01*
X161459881Y-115239929D02*
X161877965Y-115239929D01*
X161877965Y-115239929D02*
X161877965Y-110733223D01*
X159981699Y-114854102D02*
X159727699Y-114854102D01*
X160083350Y-114752527D02*
X160083350Y-114676302D01*
X159524498Y-114676302D02*
X158762497Y-114676302D01*
X160083350Y-114676302D02*
X160134074Y-114676302D01*
X160134074Y-114676302D02*
X160210351Y-114676302D01*
X160210351Y-114676302D02*
X160438926Y-114676302D01*
X160438926Y-114676302D02*
X160438926Y-114015875D01*
X158660922Y-114574727D02*
X158660922Y-114117526D01*
X158762497Y-114015875D02*
X159524498Y-114015875D01*
X160083350Y-114015875D02*
X160134074Y-114015875D01*
X160134074Y-114015875D02*
X160134074Y-114676302D01*
X160210351Y-114015875D02*
X160210351Y-114676302D01*
X160210351Y-114015875D02*
X160134074Y-114015875D01*
X160438926Y-114015875D02*
X160210351Y-114015875D01*
X160083350Y-113939726D02*
X160083350Y-114015875D01*
X159727699Y-113838100D02*
X159981699Y-113838100D01*
X159981699Y-112237871D02*
X159727699Y-112237871D01*
X160083350Y-112136297D02*
X160083350Y-112060097D01*
X159524498Y-112060097D02*
X158762497Y-112060097D01*
X160083350Y-112060097D02*
X160134074Y-112060097D01*
X160134074Y-112060097D02*
X160210351Y-112060097D01*
X160210351Y-112060097D02*
X160438926Y-112060097D01*
X160438926Y-112060097D02*
X160438926Y-111399721D01*
X158660922Y-111958522D02*
X158660922Y-111501295D01*
X158762497Y-111399721D02*
X159524498Y-111399721D01*
X160083350Y-111399721D02*
X160134074Y-111399721D01*
X160134074Y-111399721D02*
X160134074Y-112060097D01*
X160210351Y-111399721D02*
X160210351Y-112060097D01*
X160210351Y-111399721D02*
X160134074Y-111399721D01*
X160438926Y-111399721D02*
X160210351Y-111399721D01*
X160083350Y-111323520D02*
X160083350Y-111399721D01*
X156249898Y-111221869D02*
X156249898Y-110681128D01*
X159727699Y-111221869D02*
X159981699Y-111221869D01*
X161877965Y-110733223D02*
X161459881Y-110733223D01*
X161697955Y-109710262D02*
X161279921Y-110128296D01*
X161697955Y-109697612D02*
X161697955Y-109710262D01*
X157697193Y-109499797D02*
X157205982Y-109499797D01*
X161279921Y-109499797D02*
X160552718Y-109499797D01*
X161279921Y-109499797D02*
X161387770Y-109499797D01*
X161387770Y-109499797D02*
X161697955Y-109189611D01*
X161697955Y-109189611D02*
X161697955Y-109697612D01*
X159622263Y-114750902D02*
G75*
G03*
X159722263Y-114850902I100078J78D01*
G01*
X159971260Y-114848895D02*
G75*
G03*
X160071285Y-114748895I-51J100076D01*
G01*
X159621272Y-114760883D02*
G75*
G03*
X159522263Y-114674041I-98975J-12981D01*
G01*
X158671285Y-114573889D02*
G75*
G03*
X158771285Y-114673889I100078J78D01*
G01*
X158771286Y-114023902D02*
G75*
G03*
X158671285Y-114123901I75J-100076D01*
G01*
X159722263Y-113849886D02*
G75*
G03*
X159622263Y-113949886I78J-100078D01*
G01*
X159522263Y-114023900D02*
G75*
G03*
X159621500Y-113935890I-108J100075D01*
G01*
X160070270Y-113947905D02*
G75*
G03*
X159970269Y-113847904I-100077J-76D01*
G01*
X159622264Y-112134696D02*
G75*
G03*
X159722263Y-112234696I100076J76D01*
G01*
X159971260Y-112232685D02*
G75*
G03*
X160071285Y-112132690I-60J100085D01*
G01*
X159621268Y-112144679D02*
G75*
G03*
X159522263Y-112057836I-98968J-12971D01*
G01*
X158671286Y-111957683D02*
G75*
G03*
X158771285Y-112057684I100074J73D01*
G01*
X158771285Y-111407685D02*
G75*
G03*
X158671285Y-111507696I115J-100115D01*
G01*
X159722265Y-111233762D02*
G75*
G03*
X159622263Y-111333680I1735J-101738D01*
G01*
X159522263Y-111407645D02*
G75*
G03*
X159621501Y-111319685I-163J100145D01*
G01*
X160070271Y-111331699D02*
G75*
G03*
X159970269Y-111231699I-100121J-121D01*
G01*
D16*
X155979895Y-116999949D02*
G75*
G03*
X155979895Y-116999949I-29997J0D01*
G01*
D14*
X148007836Y-108260000D02*
X147792164Y-108260000D01*
X148007836Y-107540000D02*
X147792164Y-107540000D01*
X149792164Y-107540000D02*
X150007836Y-107540000D01*
X149792164Y-108260000D02*
X150007836Y-108260000D01*
X126592164Y-111240000D02*
X126807836Y-111240000D01*
X126592164Y-111960000D02*
X126807836Y-111960000D01*
X150410000Y-113210000D02*
X149685000Y-113210000D01*
X146190000Y-112485000D02*
X146190000Y-113210000D01*
X150410000Y-112485000D02*
X150410000Y-113210000D01*
X146190000Y-109715000D02*
X146190000Y-108990000D01*
X150410000Y-109715000D02*
X150410000Y-108990000D01*
X146190000Y-108990000D02*
X146915000Y-108990000D01*
X150410000Y-108990000D02*
X149685000Y-108990000D01*
X137000000Y-107894689D02*
X136787868Y-108106821D01*
X136787868Y-108106821D02*
X135858023Y-107176976D01*
X131894689Y-113000000D02*
X132106821Y-112787868D01*
X137212132Y-108106821D02*
X137000000Y-107894689D01*
X132106821Y-113212132D02*
X131894689Y-113000000D01*
X141893179Y-112787868D02*
X142105311Y-113000000D01*
X136787868Y-117893179D02*
X137000000Y-118105311D01*
X142105311Y-113000000D02*
X141893179Y-113212132D01*
X137000000Y-118105311D02*
X137212132Y-117893179D01*
X147590000Y-116790580D02*
X147590000Y-116509420D01*
X148610000Y-116790580D02*
X148610000Y-116509420D01*
X141790000Y-108207836D02*
X141790000Y-107992164D01*
X142510000Y-108207836D02*
X142510000Y-107992164D01*
D15*
X122799898Y-116743815D02*
X122799898Y-115656185D01*
X121981102Y-114650089D02*
X119218898Y-114650089D01*
X121108001Y-117216002D02*
X120091999Y-117216002D01*
X121108001Y-115183998D02*
X120091999Y-115183998D01*
X119233579Y-117723876D02*
X121966421Y-117723876D01*
X118400102Y-116743815D02*
X118400102Y-115656185D01*
X121108001Y-117216002D02*
G75*
G03*
X121108001Y-115183998I0J1016002D01*
G01*
X120091999Y-115183998D02*
G75*
G03*
X120091999Y-117216002I0J-1016002D01*
G01*
D16*
X122929947Y-117799949D02*
G75*
G03*
X122929947Y-117799949I-29972J0D01*
G01*
D14*
X153277064Y-111185000D02*
X152822936Y-111185000D01*
X153277064Y-109715000D02*
X152822936Y-109715000D01*
X146835000Y-116060000D02*
X146835000Y-114140000D01*
X146835000Y-114140000D02*
X144150000Y-114140000D01*
X144150000Y-116060000D02*
X146835000Y-116060000D01*
X145250000Y-109100000D02*
X145250000Y-107500000D01*
X145250000Y-107500000D02*
X142850000Y-107500000D01*
X142850000Y-109100000D02*
X145250000Y-109100000D01*
X130578307Y-111719190D02*
X130730810Y-111871693D01*
X130069190Y-112228307D02*
X130221693Y-112380810D01*
X154610000Y-116509420D02*
X154610000Y-116790580D01*
X153590000Y-116509420D02*
X153590000Y-116790580D01*
X145387258Y-117622500D02*
X144912742Y-117622500D01*
X145387258Y-116577500D02*
X144912742Y-116577500D01*
X147892164Y-114140000D02*
X148107836Y-114140000D01*
X147892164Y-114860000D02*
X148107836Y-114860000D01*
D15*
X118400102Y-109256185D02*
X118400102Y-110343815D01*
X119218898Y-111349911D02*
X121981102Y-111349911D01*
X120091999Y-108783998D02*
X121108001Y-108783998D01*
X120091999Y-110816002D02*
X121108001Y-110816002D01*
X121966421Y-108276124D02*
X119233579Y-108276124D01*
X122799898Y-109256185D02*
X122799898Y-110343815D01*
X120091999Y-108783998D02*
G75*
G03*
X120091999Y-110816002I0J-1016002D01*
G01*
X121108001Y-110816002D02*
G75*
G03*
X121108001Y-108783998I0J1016002D01*
G01*
D16*
X118329997Y-108200051D02*
G75*
G03*
X118329997Y-108200051I-29972J0D01*
G01*
D14*
X113270000Y-107820000D02*
X114600000Y-107820000D01*
X113270000Y-109150000D02*
X113270000Y-107820000D01*
X113270000Y-110420000D02*
X113270000Y-118100000D01*
X113270000Y-110420000D02*
X115930000Y-110420000D01*
X113270000Y-118100000D02*
X115930000Y-118100000D01*
X115930000Y-110420000D02*
X115930000Y-118100000D01*
X130960000Y-108292164D02*
X130960000Y-108507836D01*
X130240000Y-108292164D02*
X130240000Y-108507836D01*
X130460000Y-117185000D02*
X130460000Y-115265000D01*
X130460000Y-115265000D02*
X127775000Y-115265000D01*
X127775000Y-117185000D02*
X130460000Y-117185000D01*
%LPC*%
D17*
X143570000Y-109800000D03*
X144530000Y-109800000D03*
D18*
X152237500Y-117650000D03*
X152237500Y-116700000D03*
X152237500Y-115750000D03*
X149962500Y-115750000D03*
X149962500Y-117650000D03*
D19*
X128550000Y-113225000D03*
X128550000Y-111675000D03*
D20*
X126800000Y-110050000D03*
X129000000Y-110050000D03*
X129000000Y-108350000D03*
X126800000Y-108350000D03*
D21*
X153962500Y-112750000D03*
X152137500Y-112750000D03*
D22*
X124100076Y-110854930D03*
X124100076Y-109894930D03*
D23*
X130810589Y-110889411D03*
X131489411Y-110210589D03*
D24*
X124500000Y-117225000D03*
X124500000Y-115575000D03*
D25*
X129600000Y-118325000D03*
X127950000Y-118325000D03*
D26*
X156984315Y-115000000D03*
X156984315Y-111000000D03*
D27*
X156449898Y-114270003D03*
X156449898Y-113619761D03*
X156449898Y-112969520D03*
X156449898Y-112319279D03*
X156449898Y-111669037D03*
D28*
X156374968Y-116249936D03*
X156374968Y-109750064D03*
D29*
X159125032Y-116575057D03*
X159125032Y-109424943D03*
D30*
X148380000Y-107900000D03*
X147420000Y-107900000D03*
D17*
X149420000Y-107900000D03*
X150380000Y-107900000D03*
X126220000Y-111600000D03*
X127180000Y-111600000D03*
D31*
X147325000Y-113050000D03*
X147975000Y-113050000D03*
X148625000Y-113050000D03*
X149275000Y-113050000D03*
D32*
X150250000Y-112075000D03*
X150250000Y-111425000D03*
X150250000Y-110775000D03*
X150250000Y-110125000D03*
D31*
X149275000Y-109150000D03*
X148625000Y-109150000D03*
X147975000Y-109150000D03*
X147325000Y-109150000D03*
D32*
X146350000Y-110125000D03*
X146350000Y-110775000D03*
X146350000Y-111425000D03*
X146350000Y-112075000D03*
D33*
X148300000Y-111100000D03*
D34*
X136027728Y-108067930D03*
X135462043Y-108633616D03*
X134896357Y-109199301D03*
X134330672Y-109764986D03*
X133764986Y-110330672D03*
X133199301Y-110896357D03*
X132633616Y-111462043D03*
X132067930Y-112027728D03*
D35*
X132067930Y-113972272D03*
X132633616Y-114537957D03*
X133199301Y-115103643D03*
X133764986Y-115669328D03*
X134330672Y-116235014D03*
X134896357Y-116800699D03*
X135462043Y-117366384D03*
X136027728Y-117932070D03*
D34*
X137972272Y-117932070D03*
X138537957Y-117366384D03*
X139103643Y-116800699D03*
X139669328Y-116235014D03*
X140235014Y-115669328D03*
X140800699Y-115103643D03*
X141366384Y-114537957D03*
X141932070Y-113972272D03*
D35*
X141932070Y-112027728D03*
X141366384Y-111462043D03*
X140800699Y-110896357D03*
X140235014Y-110330672D03*
X139669328Y-109764986D03*
X139103643Y-109199301D03*
X138537957Y-108633616D03*
X137972272Y-108067930D03*
D19*
X148100000Y-117425000D03*
X148100000Y-115875000D03*
D22*
X142150000Y-108580000D03*
X142150000Y-107620000D03*
D36*
X122700076Y-117274930D03*
X118499924Y-117274930D03*
X122700076Y-115125070D03*
X118499924Y-115125070D03*
D21*
X153962500Y-110450000D03*
X152137500Y-110450000D03*
D37*
X146087500Y-115100000D03*
X144212500Y-115100000D03*
D38*
X144750000Y-108300000D03*
X143350000Y-108300000D03*
D39*
X130060589Y-111710589D03*
X130739411Y-112389411D03*
D40*
X154100000Y-115875000D03*
X154100000Y-117425000D03*
D41*
X114500000Y-120500000D03*
X114500000Y-105500000D03*
D25*
X145975000Y-117100000D03*
X144325000Y-117100000D03*
D17*
X147520000Y-114500000D03*
X148480000Y-114500000D03*
D36*
X118499924Y-108725070D03*
X122700076Y-108725070D03*
X118499924Y-110874930D03*
X122700076Y-110874930D03*
D41*
X159500000Y-105500000D03*
X159500000Y-120500000D03*
D42*
X114600000Y-109150000D03*
D43*
X114600000Y-111690000D03*
X114600000Y-114230000D03*
X114600000Y-116770000D03*
D44*
X130600000Y-107920000D03*
X130600000Y-108880000D03*
D37*
X129712500Y-116225000D03*
X127837500Y-116225000D03*
D42*
X156050000Y-120600000D03*
D43*
X153510000Y-120600000D03*
X150970000Y-120600000D03*
X148430000Y-120600000D03*
X145890000Y-120600000D03*
X143350000Y-120600000D03*
X140810000Y-120600000D03*
X138270000Y-120600000D03*
X135730000Y-120600000D03*
X133190000Y-120600000D03*
X130650000Y-120600000D03*
X128110000Y-120600000D03*
X125570000Y-120600000D03*
X123030000Y-120600000D03*
X120490000Y-120600000D03*
X117950000Y-120600000D03*
D42*
X156050000Y-105380000D03*
D43*
X153510000Y-105380000D03*
X150970000Y-105380000D03*
X148430000Y-105380000D03*
X145890000Y-105380000D03*
X143350000Y-105380000D03*
X140810000Y-105380000D03*
X138270000Y-105380000D03*
X135730000Y-105380000D03*
X133190000Y-105380000D03*
X130650000Y-105380000D03*
X128110000Y-105380000D03*
X125570000Y-105380000D03*
X123030000Y-105380000D03*
X120490000Y-105380000D03*
X117950000Y-105380000D03*
%LPD*%
M02*
